<svg id="svg" version="1.1" xmlns="http://www.w3.org/2000/svg" xmlns:xlink="http://www.w3.org/1999/xlink" width="400" height="321.08108108108104" viewBox="0, 0, 400,321.08108108108104"><g id="svgg"><path id="path0" d="M36.945 110.924 C 36.821 128.384,36.926 183.158,37.083 183.413 C 37.249 183.681,79.778 183.775,200.142 183.775 L 362.977 183.775 363.171 183.052 C 363.425 182.104,363.432 111.692,363.178 111.030 C 362.915 110.344,36.950 110.238,36.945 110.924 M75.315 128.709 C 75.718 128.864,75.823 129.419,75.823 131.379 C 75.823 135.010,75.893 134.961,70.347 135.143 C 67.793 135.226,65.537 135.349,65.334 135.416 C 64.876 135.566,64.177 139.560,64.315 141.243 L 64.418 142.490 69.076 142.651 C 75.077 142.858,74.989 142.785,74.115 146.827 C 73.535 149.508,73.767 149.398,68.715 149.398 C 62.968 149.398,63.105 149.318,62.827 152.842 C 62.705 154.393,62.468 156.193,62.301 156.841 C 62.134 157.489,61.876 159.572,61.728 161.470 C 61.411 165.532,61.219 165.783,58.433 165.783 C 54.740 165.783,54.437 165.152,55.279 159.197 C 55.453 157.960,55.805 155.068,56.061 152.771 C 56.316 150.474,56.821 146.137,57.182 143.133 C 57.543 140.129,58.000 135.863,58.197 133.655 C 58.695 128.083,57.942 128.514,67.172 128.514 C 71.371 128.514,75.036 128.602,75.315 128.709 M96.948 128.916 C 97.161 129.183,97.140 130.067,96.886 131.566 C 96.273 135.185,96.683 134.934,91.291 134.978 C 84.331 135.034,84.760 134.823,84.277 138.433 C 83.687 142.836,83.453 142.651,89.586 142.651 C 95.852 142.651,96.018 142.794,95.122 147.429 C 94.749 149.360,94.661 149.387,88.634 149.393 C 82.227 149.399,82.684 149.054,82.237 154.209 C 81.779 159.484,81.306 159.036,87.340 159.036 C 93.445 159.036,93.296 158.949,93.122 162.394 C 92.949 165.817,93.518 165.622,83.693 165.622 C 73.521 165.622,74.265 165.966,74.832 161.527 C 75.806 153.910,76.143 150.950,76.466 147.149 C 76.654 144.940,76.943 142.625,77.108 142.004 C 77.274 141.384,77.555 138.970,77.732 136.640 C 78.057 132.363,78.545 129.653,79.122 128.916 C 79.359 128.612,81.537 128.514,88.032 128.514 C 94.524 128.514,96.706 128.612,96.948 128.916 M113.896 129.808 C 118.261 131.595,121.357 134.497,123.068 138.407 C 123.432 139.239,123.903 140.267,124.114 140.690 C 124.873 142.213,124.612 150.172,123.713 152.932 C 122.307 157.248,118.275 162.663,115.932 163.382 C 115.519 163.509,114.985 163.770,114.746 163.961 C 113.074 165.303,98.975 166.504,97.042 165.469 C 96.210 165.024,96.214 164.712,97.164 156.948 C 97.424 154.827,97.794 151.574,97.987 149.719 C 99.053 139.484,99.512 135.428,99.932 132.530 C 100.136 131.116,100.440 129.616,100.606 129.196 L 100.907 128.431 106.116 128.594 C 111.080 128.748,111.447 128.806,113.896 129.808 M145.861 128.993 C 146.123 129.308,146.214 130.235,146.130 131.722 C 145.942 135.061,145.838 135.123,140.573 135.002 C 133.637 134.842,133.603 134.863,133.207 139.572 C 132.945 142.692,132.869 142.650,138.726 142.656 C 144.916 142.662,144.732 142.567,144.440 145.589 C 144.068 149.445,144.250 149.339,137.927 149.382 C 134.965 149.402,132.433 149.527,132.301 149.658 C 131.959 150.001,131.141 154.668,131.023 156.948 L 130.924 158.876 136.478 159.036 C 140.928 159.165,142.098 159.293,142.358 159.679 C 142.762 160.277,142.478 163.619,141.925 164.773 L 141.517 165.622 133.187 165.681 C 123.789 165.747,123.519 165.696,123.856 163.908 C 123.978 163.261,124.196 161.285,124.342 159.518 C 124.827 153.617,125.609 146.361,125.918 144.900 C 126.087 144.104,126.313 142.080,126.422 140.402 C 126.531 138.723,126.750 136.771,126.910 136.064 C 127.070 135.357,127.291 133.531,127.401 132.005 C 127.576 129.583,127.690 129.189,128.299 128.895 C 129.495 128.316,145.373 128.404,145.861 128.993 M162.082 129.415 C 169.943 132.543,170.107 145.832,162.329 149.483 C 161.568 149.840,161.406 150.638,161.905 151.571 C 162.907 153.440,167.690 163.501,167.870 164.115 C 168.142 165.042,169.412 164.971,169.594 164.018 C 169.661 163.665,170.112 162.798,170.597 162.090 C 171.081 161.382,171.947 159.826,172.520 158.632 C 173.094 157.438,173.663 156.399,173.784 156.324 C 173.906 156.249,174.492 155.202,175.086 153.998 C 175.681 152.793,176.349 151.590,176.572 151.325 C 176.794 151.060,177.585 149.687,178.329 148.273 C 180.048 145.006,180.872 143.531,182.097 141.526 C 182.637 140.643,183.475 139.124,183.958 138.153 C 184.442 137.181,185.539 135.188,186.395 133.725 C 187.251 132.262,187.952 130.947,187.952 130.803 C 187.952 129.403,190.069 129.286,190.390 130.669 C 190.505 131.162,191.003 132.795,191.498 134.297 C 191.993 135.799,192.554 137.823,192.745 138.795 C 193.171 140.963,193.946 143.819,194.236 144.288 C 194.354 144.479,194.651 145.345,194.896 146.213 C 195.141 147.081,195.568 148.550,195.845 149.478 C 196.361 151.204,197.272 154.407,198.063 157.269 C 198.307 158.153,198.889 160.231,199.357 161.889 C 200.378 165.511,200.344 165.568,197.095 165.732 C 193.691 165.904,193.336 165.612,192.605 162.031 C 191.721 157.705,192.348 158.072,185.856 158.072 L 180.249 158.072 179.489 159.277 C 179.071 159.940,178.616 160.843,178.479 161.285 C 178.341 161.727,177.988 162.450,177.693 162.892 C 177.399 163.333,176.991 164.082,176.789 164.556 C 176.345 165.591,174.622 165.959,171.679 165.647 C 169.454 165.412,168.656 165.410,165.462 165.632 C 161.892 165.879,161.090 164.984,157.236 156.447 C 154.847 151.153,153.592 150.223,153.577 153.735 C 153.574 154.618,153.419 156.209,153.233 157.269 C 153.048 158.329,152.780 160.485,152.637 162.060 C 152.320 165.573,152.108 165.783,148.877 165.783 C 146.057 165.783,145.415 165.341,145.664 163.571 C 145.754 162.932,146.048 160.530,146.318 158.233 C 146.587 155.936,146.964 152.755,147.156 151.165 C 147.348 149.574,147.649 146.755,147.825 144.900 C 148.001 143.044,148.355 140.438,148.611 139.109 C 148.867 137.780,149.083 135.683,149.090 134.450 C 149.109 131.452,149.527 129.453,150.249 128.905 C 151.192 128.189,159.953 128.567,162.082 129.415 M245.783 129.456 C 251.859 132.263,253.582 138.761,249.728 144.334 C 248.429 146.213,248.429 146.243,249.758 148.069 C 251.810 150.891,252.028 151.543,252.027 154.859 C 252.027 161.379,249.481 163.971,241.606 165.470 C 239.010 165.964,230.818 165.852,230.374 165.316 C 229.974 164.834,230.072 162.717,230.694 158.394 C 231.171 155.075,232.693 141.532,233.275 135.422 C 233.858 129.297,233.863 129.274,234.632 128.875 C 235.885 128.226,244.040 128.651,245.783 129.456 M317.753 128.998 C 318.165 129.495,318.066 131.441,317.434 135.261 C 317.273 136.233,316.843 139.197,316.479 141.847 C 316.114 144.498,315.666 147.606,315.483 148.755 C 315.075 151.315,314.278 157.186,313.783 161.285 C 313.313 165.170,312.505 165.605,310.619 162.989 C 310.007 162.140,308.073 159.766,306.320 157.712 C 302.844 153.640,302.552 153.292,300.428 150.683 C 299.636 149.711,298.837 148.752,298.651 148.552 C 298.465 148.352,297.590 147.354,296.707 146.333 C 295.823 145.313,294.745 144.103,294.310 143.644 L 293.520 142.811 293.289 143.775 C 293.162 144.305,292.826 146.546,292.543 148.755 C 292.260 150.964,291.871 153.639,291.679 154.699 C 291.488 155.759,291.154 158.315,290.938 160.379 C 290.424 165.296,290.120 165.783,287.564 165.783 C 283.747 165.783,283.626 165.536,284.657 159.839 C 284.817 158.956,285.107 157.004,285.302 155.502 C 285.496 154.000,285.946 150.892,286.301 148.594 C 286.655 146.297,287.133 142.667,287.362 140.527 C 287.591 138.386,287.880 136.470,288.005 136.268 C 288.130 136.067,288.364 134.621,288.526 133.056 C 289.092 127.586,289.183 127.618,296.163 135.721 C 297.522 137.300,299.068 139.047,299.598 139.605 C 300.129 140.163,301.574 141.756,302.811 143.146 C 306.984 147.835,308.546 149.414,308.763 149.164 C 308.997 148.896,309.862 142.781,310.367 137.831 C 310.930 132.309,311.382 129.323,311.717 128.916 C 312.220 128.302,317.232 128.371,317.753 128.998 M327.714 128.999 C 328.099 129.464,327.632 138.143,327.183 138.870 C 326.627 139.770,328.251 139.408,329.085 138.447 C 330.885 136.372,335.263 131.564,336.741 130.040 L 338.221 128.514 341.120 128.514 C 345.689 128.514,345.705 128.734,341.484 133.395 C 340.155 134.863,337.849 137.424,336.361 139.086 C 334.872 140.748,333.197 142.614,332.638 143.233 C 331.285 144.730,331.104 144.268,335.966 151.719 C 337.434 153.968,338.635 155.883,338.635 155.976 C 338.635 156.069,338.860 156.398,339.136 156.707 C 339.693 157.331,342.225 161.254,343.592 163.611 L 344.475 165.135 343.699 165.430 C 340.969 166.468,336.654 165.309,335.534 163.236 C 335.207 162.631,334.792 161.980,334.612 161.791 C 334.432 161.601,333.218 159.855,331.915 157.912 C 330.611 155.968,329.150 153.944,328.667 153.414 C 328.183 152.884,327.621 152.124,327.417 151.727 C 326.842 150.608,325.844 150.791,325.659 152.048 C 325.365 154.049,324.823 158.576,324.495 161.767 C 324.097 165.640,323.964 165.783,320.765 165.783 C 317.001 165.783,317.112 166.192,318.238 156.466 C 318.494 154.257,318.854 151.149,319.038 149.558 C 319.221 147.968,319.580 144.715,319.835 142.329 C 320.089 139.944,320.379 137.703,320.478 137.349 C 320.577 136.996,320.799 135.059,320.972 133.044 C 321.145 131.030,321.448 129.187,321.646 128.948 C 322.181 128.304,327.171 128.346,327.714 128.999 M211.380 129.429 C 211.583 129.810,211.592 130.762,211.405 132.080 C 211.115 134.117,210.722 138.077,210.100 145.221 C 209.924 147.253,209.562 150.578,209.296 152.610 C 209.030 154.643,208.745 156.839,208.663 157.491 C 208.458 159.109,208.634 159.172,213.815 159.357 L 218.313 159.518 218.277 162.221 C 218.227 165.953,218.625 165.783,209.919 165.783 C 201.157 165.783,200.983 165.737,201.219 163.447 C 201.543 160.302,202.110 155.670,202.565 152.450 C 202.815 150.683,203.110 148.225,203.219 146.988 C 203.329 145.751,203.612 143.293,203.849 141.526 C 204.085 139.759,204.459 136.434,204.679 134.137 C 205.182 128.893,205.224 128.835,208.553 128.835 C 210.665 128.835,211.112 128.929,211.380 129.429 M271.958 129.783 C 272.142 130.081,273.173 133.825,273.776 136.386 C 273.943 137.092,274.291 138.126,274.549 138.683 C 274.808 139.240,275.020 139.992,275.020 140.355 C 275.020 140.717,275.148 141.346,275.304 141.752 C 275.578 142.464,276.287 144.875,277.409 148.916 C 278.060 151.261,278.910 154.120,280.037 157.751 C 280.503 159.253,281.139 161.540,281.450 162.833 L 282.016 165.184 281.228 165.484 C 277.525 166.891,275.291 165.683,274.362 161.771 C 273.390 157.681,273.640 157.768,263.574 158.029 L 261.926 158.072 260.361 161.125 C 258.022 165.684,258.344 165.433,254.718 165.535 C 250.374 165.657,250.379 165.668,252.936 161.062 C 254.095 158.976,255.368 156.618,255.765 155.823 C 256.163 155.028,256.806 153.944,257.194 153.414 C 257.582 152.884,258.002 152.125,258.127 151.729 C 258.253 151.332,258.527 150.826,258.736 150.604 C 258.945 150.382,259.370 149.695,259.680 149.076 C 259.990 148.458,260.673 147.229,261.198 146.345 C 261.723 145.462,262.366 144.305,262.626 143.775 C 262.886 143.245,263.632 141.871,264.284 140.723 C 264.935 139.574,265.972 137.695,266.588 136.546 C 270.153 129.900,271.209 128.571,271.958 129.783 M240.509 135.146 C 240.336 135.597,239.819 139.443,239.589 141.994 C 239.536 142.587,239.727 142.859,240.356 143.085 C 243.316 144.147,246.446 140.071,245.182 136.800 C 244.567 135.212,240.972 133.939,240.509 135.146 M107.551 135.200 C 106.614 135.278,106.315 135.455,106.200 136.003 C 105.842 137.712,105.355 141.491,105.052 144.900 C 104.872 146.932,104.594 149.390,104.435 150.361 C 103.990 153.072,103.702 157.980,103.943 158.738 C 104.157 159.412,110.799 159.428,112.017 158.758 C 115.716 156.722,118.613 151.448,118.643 146.693 C 118.693 138.963,114.506 134.624,107.551 135.200 M155.988 135.313 C 155.234 137.368,154.635 142.978,155.054 144.070 C 155.365 144.879,158.049 144.744,159.390 143.853 C 162.461 141.812,162.707 136.027,159.747 135.462 C 156.944 134.927,156.142 134.895,155.988 135.313 M268.483 145.735 C 267.837 146.729,267.309 147.724,267.309 147.945 C 267.309 148.166,267.020 148.715,266.667 149.164 C 265.316 150.881,265.714 151.325,268.604 151.325 C 271.556 151.325,271.700 151.196,271.149 149.050 C 270.949 148.269,270.615 146.881,270.408 145.966 C 269.891 143.687,269.817 143.678,268.483 145.735 M185.770 147.183 C 183.439 151.257,183.456 151.325,186.808 151.325 C 188.300 151.325,189.587 151.217,189.668 151.084 C 190.010 150.529,188.155 144.257,187.649 144.257 C 187.537 144.257,186.691 145.574,185.770 147.183 M239.082 149.684 C 238.601 149.988,237.668 156.194,237.820 158.072 L 237.912 159.197 240.379 159.197 C 244.130 159.197,245.655 157.734,245.589 154.203 C 245.526 150.828,241.590 148.095,239.082 149.684 " stroke="none" fill="#0c5091" fill-rule="evenodd"></path><path id="path1" d="M0.000 160.643 L 0.000 321.285 200.000 321.285 L 400.000 321.285 400.000 160.643 L 400.000 0.000 200.000 0.000 L 0.000 0.000 0.000 160.643 M363.629 110.062 L 364.355 110.571 364.326 150.655 C 364.298 189.613,364.280 190.767,363.680 191.755 L 363.062 192.771 199.905 192.771 C 62.876 192.771,36.654 192.701,36.152 192.334 C 35.632 191.954,35.559 191.464,35.585 188.559 C 35.602 186.723,35.623 168.424,35.633 147.894 L 35.650 110.567 36.364 110.067 C 37.468 109.294,362.525 109.289,363.629 110.062 M60.512 129.689 C 59.702 130.397,58.795 134.664,58.795 137.765 C 58.795 138.876,58.590 140.828,58.340 142.102 C 58.089 143.376,57.788 145.647,57.671 147.149 C 57.554 148.651,57.255 150.747,57.007 151.807 C 56.759 152.867,56.554 154.561,56.551 155.571 C 56.548 156.581,56.380 158.867,56.177 160.652 C 55.714 164.724,55.919 165.073,58.510 164.627 L 60.193 164.337 60.609 162.498 C 60.838 161.486,61.171 158.884,61.348 156.715 C 62.059 148.003,61.930 148.175,67.682 148.236 C 72.992 148.292,73.253 148.174,73.253 145.715 L 73.253 143.996 71.727 143.807 C 70.888 143.703,68.935 143.639,67.389 143.665 C 63.415 143.733,63.227 143.531,63.477 139.466 C 63.811 134.038,63.883 133.976,69.866 133.976 L 74.233 133.976 74.546 133.152 C 74.991 131.981,74.934 130.261,74.436 129.848 C 73.586 129.143,61.298 129.002,60.512 129.689 M79.928 129.799 C 79.597 130.116,79.356 131.145,79.224 132.803 C 79.114 134.190,78.882 135.591,78.709 135.915 C 78.535 136.239,78.392 137.417,78.391 138.533 C 78.389 139.649,78.159 142.153,77.880 144.096 C 77.600 146.040,77.258 149.221,77.120 151.165 C 76.982 153.108,76.721 155.067,76.540 155.517 C 76.358 155.967,76.159 158.128,76.097 160.319 L 75.984 164.302 77.108 164.538 C 81.258 165.409,91.474 164.781,91.913 163.628 C 93.039 160.666,92.542 160.353,86.623 160.293 C 84.084 160.268,81.865 160.155,81.694 160.043 C 81.110 159.663,80.719 158.558,80.825 157.590 C 81.958 147.259,81.270 148.112,88.462 148.112 C 94.433 148.112,94.123 148.266,94.132 145.307 C 94.138 143.643,94.240 143.675,88.293 143.519 C 85.314 143.442,83.733 143.270,83.393 142.988 C 82.439 142.196,83.032 135.837,84.191 134.441 C 84.449 134.129,85.973 133.991,89.956 133.916 C 96.045 133.803,95.790 133.892,95.964 131.814 C 96.180 129.240,96.429 129.317,87.937 129.317 C 81.705 129.317,80.347 129.399,79.928 129.799 M133.655 129.478 L 128.996 129.639 128.593 131.245 C 128.372 132.129,128.038 134.577,127.852 136.687 C 127.666 138.797,127.429 140.659,127.326 140.826 C 127.223 140.993,127.020 142.945,126.877 145.163 C 126.733 147.381,126.472 149.856,126.297 150.662 C 126.122 151.469,125.822 153.791,125.629 155.823 C 125.436 157.855,125.141 160.525,124.973 161.755 C 124.562 164.759,124.207 164.617,132.533 164.767 C 141.244 164.923,141.365 164.886,141.365 162.081 L 141.365 160.321 136.281 160.321 C 131.381 160.321,131.171 160.294,130.498 159.578 C 129.755 158.787,129.590 157.918,130.120 157.590 C 130.297 157.481,130.454 156.424,130.469 155.242 C 130.558 148.205,130.637 148.129,137.892 148.120 L 143.254 148.112 143.465 146.704 C 143.924 143.640,143.155 143.248,137.189 143.506 C 131.684 143.745,131.834 143.887,132.384 138.949 C 132.963 133.757,132.668 133.976,139.077 133.976 C 144.720 133.976,144.787 133.953,145.121 131.899 C 145.583 129.048,145.661 129.064,133.655 129.478 M313.327 129.389 C 312.497 129.688,312.007 131.378,311.663 135.119 C 311.470 137.229,311.182 139.390,311.025 139.920 C 310.868 140.450,310.655 142.257,310.552 143.936 C 310.317 147.765,309.556 150.683,308.793 150.683 C 308.463 150.683,304.420 146.707,302.811 144.802 C 302.104 143.965,300.792 142.519,299.895 141.590 C 298.998 140.661,298.130 139.671,297.967 139.390 C 297.535 138.644,293.752 134.432,291.903 132.639 C 290.298 131.081,289.816 131.051,289.804 132.507 C 289.801 132.848,289.659 133.571,289.488 134.114 C 289.175 135.108,288.075 142.201,287.705 145.617 C 287.595 146.631,287.371 147.543,287.206 147.644 C 287.042 147.746,286.899 148.941,286.888 150.300 C 286.878 151.659,286.729 153.494,286.556 154.378 C 286.384 155.261,286.007 157.747,285.719 159.903 C 285.092 164.591,285.159 164.757,287.580 164.509 L 289.252 164.337 289.806 161.446 C 290.110 159.855,290.525 157.108,290.728 155.341 C 290.932 153.574,291.312 150.281,291.573 148.022 C 292.105 143.427,292.658 141.687,293.588 141.687 C 294.177 141.687,295.261 142.607,295.261 143.106 C 295.261 143.240,295.751 143.880,296.351 144.527 C 298.144 146.462,299.060 147.496,300.360 149.048 C 301.038 149.859,302.410 151.494,303.407 152.681 C 304.405 153.869,305.221 154.906,305.221 154.986 C 305.221 155.066,305.865 155.829,306.653 156.682 C 309.684 159.965,310.674 161.136,310.681 161.446 C 310.685 161.622,311.043 161.932,311.478 162.134 C 312.670 162.686,312.904 162.147,313.257 158.032 C 313.429 156.022,313.703 153.655,313.866 152.771 C 314.292 150.465,315.109 144.889,315.511 141.550 C 315.700 139.972,315.919 138.579,315.997 138.453 C 316.327 137.919,316.795 130.399,316.528 129.921 C 316.248 129.421,314.188 129.078,313.327 129.389 M323.373 129.459 C 322.480 129.822,321.697 133.192,321.429 137.831 C 321.311 139.863,321.014 142.014,320.768 142.610 C 320.522 143.205,320.321 144.684,320.321 145.896 C 320.321 147.108,320.114 149.223,319.860 150.596 C 319.607 151.969,319.229 154.972,319.021 157.269 C 318.814 159.566,318.573 162.060,318.486 162.811 C 318.400 163.562,318.452 164.183,318.602 164.191 C 318.753 164.198,319.518 164.329,320.303 164.480 C 323.105 165.021,323.565 164.127,324.015 157.269 C 324.443 150.737,326.084 147.869,327.830 150.602 C 328.253 151.265,328.912 152.162,329.294 152.596 C 329.676 153.030,330.300 153.897,330.680 154.524 C 331.061 155.150,331.452 155.735,331.550 155.823 C 331.648 155.912,332.162 156.635,332.691 157.430 C 333.220 158.225,333.728 158.948,333.820 159.036 C 333.912 159.124,334.693 160.252,335.556 161.541 C 337.393 164.285,337.714 164.500,339.979 164.493 C 342.724 164.485,342.814 164.267,341.178 161.598 C 340.398 160.326,339.602 159.013,339.409 158.681 C 339.217 158.348,338.819 157.811,338.526 157.487 C 338.232 157.163,337.992 156.785,337.992 156.647 C 337.992 156.510,337.558 155.850,337.028 155.181 C 336.498 154.511,336.064 153.825,336.064 153.656 C 336.064 153.487,335.374 152.424,334.529 151.293 C 333.685 150.162,332.819 148.876,332.604 148.434 C 332.112 147.421,331.521 146.498,331.004 145.934 C 330.243 145.104,330.564 143.950,331.989 142.396 C 332.751 141.564,333.944 140.234,334.639 139.440 C 335.335 138.646,336.699 137.143,337.671 136.100 C 338.643 135.058,339.799 133.817,340.241 133.343 C 343.047 130.331,343.206 129.674,341.205 129.355 C 339.331 129.055,337.371 130.202,335.919 132.450 C 335.605 132.936,335.148 133.333,334.903 133.333 C 334.658 133.333,334.458 133.499,334.458 133.701 C 334.458 134.250,327.618 141.365,327.091 141.365 C 326.119 141.365,326.100 140.237,326.945 132.587 C 327.283 129.524,325.993 128.394,323.373 129.459 M101.598 129.978 C 100.972 130.417,100.884 130.765,100.884 132.802 C 100.884 134.080,100.682 135.915,100.437 136.880 C 100.191 137.845,99.892 139.936,99.773 141.526 C 99.654 143.116,99.349 146.052,99.096 148.049 C 98.842 150.046,98.635 152.477,98.635 153.451 C 98.635 154.426,98.500 155.474,98.336 155.780 C 97.847 156.695,97.510 164.200,97.947 164.470 C 99.349 165.337,110.846 164.602,113.274 163.490 C 113.993 163.161,114.681 162.892,114.803 162.892 C 116.088 162.892,120.041 158.620,121.278 155.895 C 121.738 154.884,122.249 153.811,122.414 153.511 C 122.849 152.723,123.733 148.582,123.927 146.427 C 124.117 144.318,123.701 142.363,122.476 139.598 C 121.214 136.753,118.767 133.333,117.992 133.333 C 117.771 133.333,117.590 133.116,117.590 132.851 C 117.590 132.586,117.360 132.369,117.078 132.369 C 116.796 132.369,116.181 132.172,115.712 131.930 C 115.243 131.688,114.281 131.196,113.574 130.837 C 111.264 129.665,102.901 129.065,101.598 129.978 M235.575 130.028 C 234.789 130.701,234.323 133.307,233.911 139.327 C 233.764 141.475,233.495 143.716,233.313 144.307 C 233.131 144.898,232.889 147.044,232.775 149.076 C 232.661 151.108,232.440 153.277,232.283 153.896 C 232.126 154.514,231.846 156.755,231.661 158.876 C 231.475 160.996,231.237 163.046,231.132 163.430 C 230.767 164.769,235.159 165.215,241.424 164.475 C 245.955 163.940,249.928 161.586,250.456 159.125 C 250.561 158.634,250.854 157.650,251.107 156.937 C 251.624 155.479,251.716 153.384,251.275 153.111 C 251.115 153.012,250.766 152.293,250.500 151.512 C 250.235 150.732,249.426 149.346,248.703 148.432 C 247.135 146.448,247.091 145.967,248.348 144.542 C 248.876 143.943,249.309 143.321,249.312 143.158 C 249.315 142.995,249.569 142.584,249.876 142.245 C 251.285 140.687,250.433 134.434,248.550 132.520 C 246.190 130.120,237.432 128.439,235.575 130.028 M150.895 130.037 C 150.578 130.550,150.034 133.969,149.713 137.466 C 149.544 139.296,149.258 141.899,149.075 143.249 C 148.893 144.598,148.604 147.076,148.432 148.755 C 148.260 150.434,147.982 152.530,147.815 153.414 C 147.648 154.297,147.424 156.683,147.317 158.715 C 147.211 160.747,147.045 162.807,146.950 163.292 C 146.735 164.389,147.702 164.856,149.651 164.595 C 151.376 164.364,151.786 163.124,152.282 156.653 C 152.932 148.170,154.063 147.761,157.437 154.787 C 158.517 157.036,159.689 159.382,160.041 160.000 C 160.394 160.618,160.961 161.720,161.301 162.448 C 162.210 164.390,164.795 165.345,166.421 164.340 C 166.711 164.161,166.193 161.878,165.801 161.606 C 165.673 161.518,165.170 160.578,164.683 159.518 C 163.794 157.583,162.793 155.544,161.966 153.987 C 161.723 153.528,161.258 152.416,160.934 151.516 L 160.345 149.880 161.493 148.835 C 162.125 148.261,162.808 147.791,163.012 147.791 C 163.648 147.791,165.947 144.506,166.685 142.542 C 168.381 138.028,166.435 132.524,162.483 130.653 C 160.974 129.939,151.274 129.423,150.895 130.037 M207.068 130.081 L 206.104 130.286 205.735 133.978 C 205.532 136.009,205.207 138.449,205.012 139.401 C 204.818 140.353,204.652 142.016,204.645 143.096 C 204.637 144.176,204.492 145.711,204.321 146.506 C 204.151 147.301,203.799 149.831,203.539 152.129 C 203.278 154.426,202.928 157.100,202.761 158.072 C 202.221 161.210,202.323 164.394,202.972 164.654 C 205.015 165.472,216.735 164.710,216.995 163.742 C 217.825 160.650,217.377 160.332,212.178 160.326 C 207.848 160.320,207.383 160.033,207.651 157.529 C 207.934 154.879,208.797 148.050,209.125 145.863 C 209.298 144.715,209.517 142.145,209.612 140.153 C 209.707 138.160,209.933 136.254,210.113 135.917 C 210.294 135.579,210.442 134.153,210.442 132.746 C 210.442 129.669,210.136 129.427,207.068 130.081 M188.485 131.968 C 188.383 132.277,187.941 133.108,187.501 133.815 C 187.061 134.522,186.339 135.836,185.896 136.735 C 185.453 137.634,184.867 138.556,184.593 138.783 C 184.320 139.010,184.096 139.458,184.096 139.779 C 184.096 140.101,183.950 140.454,183.770 140.565 C 183.591 140.676,183.230 141.227,182.968 141.789 C 182.706 142.351,182.203 143.245,181.852 143.775 C 181.500 144.305,181.128 144.956,181.025 145.221 C 180.921 145.486,180.700 145.920,180.533 146.185 C 180.366 146.450,180.049 147.028,179.829 147.470 C 179.227 148.677,176.112 154.241,175.421 155.341 C 175.089 155.871,174.373 157.173,173.830 158.233 C 173.288 159.293,172.355 161.028,171.756 162.088 C 170.490 164.332,170.504 164.401,172.297 164.649 C 174.943 165.017,176.204 164.004,177.967 160.096 C 178.142 159.707,178.655 158.803,179.107 158.088 L 179.928 156.787 185.818 156.787 C 192.192 156.787,192.771 156.943,192.771 158.653 C 192.771 159.033,192.976 159.890,193.227 160.556 C 193.478 161.222,193.768 162.274,193.870 162.895 C 194.117 164.387,194.795 164.746,196.948 164.521 C 199.241 164.283,199.249 164.669,196.771 156.305 C 196.300 154.715,195.746 152.691,195.540 151.807 C 195.333 150.924,194.988 149.885,194.771 149.499 C 194.555 149.113,194.378 148.571,194.378 148.295 C 194.378 148.020,194.084 146.890,193.726 145.784 C 193.368 144.679,192.926 143.308,192.744 142.738 C 192.562 142.168,192.287 141.011,192.133 140.168 C 191.979 139.324,191.412 137.406,190.875 135.904 C 190.337 134.402,189.893 132.863,189.888 132.484 C 189.884 132.105,189.651 131.708,189.371 131.601 C 188.682 131.336,188.694 131.331,188.485 131.968 M269.037 134.217 C 268.135 135.763,267.295 137.353,267.171 137.751 C 267.046 138.149,266.810 138.474,266.645 138.474 C 266.480 138.474,266.345 138.673,266.345 138.916 C 266.345 139.160,266.138 139.531,265.884 139.742 C 265.630 139.952,265.330 140.548,265.216 141.064 C 265.103 141.581,264.841 142.113,264.634 142.247 C 264.139 142.566,262.169 146.363,262.169 146.997 C 262.169 147.268,261.959 147.571,261.702 147.669 C 261.446 147.767,261.073 148.341,260.874 148.944 C 260.675 149.547,260.413 150.040,260.292 150.040 C 260.171 150.040,259.715 150.799,259.278 151.727 C 258.842 152.655,258.090 154.005,257.607 154.729 C 257.124 155.452,256.577 156.392,256.392 156.817 C 256.206 157.242,255.780 158.024,255.443 158.554 C 252.340 163.447,252.159 165.061,254.764 164.639 C 257.688 164.166,257.589 164.231,258.699 162.046 C 261.626 156.283,260.771 156.787,267.631 156.787 C 273.706 156.787,274.699 157.073,274.699 158.822 C 274.699 159.713,276.276 163.959,276.709 164.235 C 277.307 164.614,280.412 164.550,280.658 164.152 C 280.775 163.962,280.652 163.203,280.383 162.465 C 280.114 161.728,279.582 159.968,279.201 158.554 C 278.376 155.496,277.682 153.089,276.935 150.683 C 276.632 149.711,276.237 148.410,276.055 147.791 C 275.874 147.173,275.364 145.438,274.923 143.936 C 274.481 142.434,273.869 140.265,273.562 139.116 C 271.194 130.241,271.293 130.348,269.037 134.217 M244.586 134.479 C 247.347 136.505,247.197 140.930,244.292 143.145 C 242.916 144.195,239.579 144.750,238.980 144.028 C 238.532 143.489,238.845 136.930,239.342 136.433 C 239.527 136.248,239.679 135.720,239.679 135.261 C 239.679 133.521,242.638 133.050,244.586 134.479 M112.567 134.460 C 113.073 134.724,113.655 134.940,113.861 134.940 C 114.407 134.940,117.912 138.459,117.912 139.006 C 117.912 139.086,118.191 139.765,118.532 140.514 C 120.073 143.897,119.463 152.352,117.505 154.738 C 113.699 159.377,111.857 160.321,106.624 160.321 C 102.417 160.321,102.258 160.126,102.962 155.787 C 103.231 154.128,103.452 151.831,103.453 150.683 C 103.453 149.534,103.660 147.510,103.911 146.185 C 104.163 144.859,104.470 142.040,104.595 139.920 C 104.923 134.333,105.189 133.975,109.019 133.978 C 110.721 133.979,111.971 134.149,112.567 134.460 M159.679 134.293 C 161.931 134.922,162.570 135.915,162.570 138.787 C 162.570 143.342,161.196 145.107,157.414 145.410 C 153.766 145.702,153.783 145.731,154.238 140.235 C 154.766 133.844,155.438 133.110,159.679 134.293 M271.127 145.142 C 271.501 146.247,271.807 147.483,271.807 147.889 C 271.807 148.295,271.937 148.764,272.095 148.932 C 273.719 150.657,272.382 152.378,269.281 152.553 C 265.457 152.769,264.086 151.748,265.259 149.558 C 265.544 149.028,266.339 147.518,267.028 146.202 C 269.370 141.727,269.922 141.584,271.127 145.142 M189.115 144.096 C 191.445 152.419,191.398 152.610,187.016 152.610 C 183.601 152.610,182.360 151.992,183.053 150.637 C 183.266 150.220,183.588 149.518,183.768 149.076 C 183.948 148.635,184.222 148.056,184.378 147.791 C 184.534 147.526,184.901 146.803,185.194 146.185 C 186.927 142.532,188.450 141.721,189.115 144.096 M242.870 148.811 C 248.809 151.639,247.783 159.953,241.446 160.353 C 236.581 160.660,236.186 160.232,236.913 155.437 C 237.189 153.617,237.499 151.444,237.602 150.607 C 237.913 148.081,239.908 147.400,242.870 148.811 " stroke="none" fill="#fbfbfb" fill-rule="evenodd"></path><path id="path2" d="M37.468 184.327 C 36.596 184.549,36.857 190.390,37.769 191.057 C 38.499 191.591,360.824 191.706,362.226 191.173 C 363.265 190.779,363.545 184.675,362.542 184.291 C 361.946 184.062,38.364 184.098,37.468 184.327 " stroke="none" fill="#eca72e" fill-rule="evenodd"></path><path id="path3" d="M36.371 110.063 L 35.663 110.559 35.663 146.784 C 35.663 175.259,35.749 183.127,36.064 183.557 C 36.463 184.100,363.169 184.459,364.045 183.918 C 364.218 183.811,364.337 168.769,364.337 147.148 L 364.337 110.559 363.620 110.056 C 362.530 109.292,37.461 109.299,36.371 110.063 M363.178 111.030 C 363.432 111.692,363.425 182.104,363.171 183.052 L 362.977 183.775 200.142 183.775 C 79.778 183.775,37.249 183.681,37.083 183.413 C 36.926 183.158,36.821 128.384,36.945 110.924 C 36.950 110.238,362.915 110.344,363.178 111.030 M59.047 129.076 C 58.715 129.457,58.440 130.939,58.197 133.655 C 58.000 135.863,57.543 140.129,57.182 143.133 C 56.821 146.137,56.316 150.474,56.061 152.771 C 55.805 155.068,55.453 157.960,55.279 159.197 C 54.437 165.152,54.740 165.783,58.433 165.783 C 61.219 165.783,61.411 165.532,61.728 161.470 C 61.876 159.572,62.134 157.489,62.301 156.841 C 62.468 156.193,62.705 154.393,62.827 152.842 C 63.105 149.318,62.968 149.398,68.715 149.398 C 73.767 149.398,73.535 149.508,74.115 146.827 C 74.989 142.785,75.077 142.858,69.076 142.651 L 64.418 142.490 64.315 141.243 C 64.177 139.560,64.876 135.566,65.334 135.416 C 65.537 135.349,67.793 135.226,70.347 135.143 C 75.893 134.961,75.823 135.010,75.823 131.379 C 75.823 129.419,75.718 128.864,75.315 128.709 C 73.939 128.181,59.545 128.506,59.047 129.076 M79.122 128.916 C 78.545 129.653,78.057 132.363,77.732 136.640 C 77.555 138.970,77.274 141.384,77.108 142.004 C 76.943 142.625,76.654 144.940,76.466 147.149 C 76.143 150.950,75.806 153.910,74.832 161.527 C 74.265 165.966,73.521 165.622,83.693 165.622 C 93.518 165.622,92.949 165.817,93.122 162.394 C 93.296 158.949,93.445 159.036,87.340 159.036 C 81.306 159.036,81.779 159.484,82.237 154.209 C 82.684 149.054,82.227 149.399,88.634 149.393 C 94.661 149.387,94.749 149.360,95.122 147.429 C 96.018 142.794,95.852 142.651,89.586 142.651 C 83.453 142.651,83.687 142.836,84.277 138.433 C 84.760 134.823,84.331 135.034,91.291 134.978 C 96.683 134.934,96.273 135.185,96.886 131.566 C 97.435 128.324,97.985 128.514,88.032 128.514 C 81.537 128.514,79.359 128.612,79.122 128.916 M100.606 129.196 C 100.440 129.616,100.136 131.116,99.932 132.530 C 99.512 135.428,99.053 139.484,97.987 149.719 C 97.794 151.574,97.424 154.827,97.164 156.948 C 96.214 164.712,96.210 165.024,97.042 165.469 C 98.975 166.504,113.074 165.303,114.746 163.961 C 114.985 163.770,115.519 163.509,115.932 163.382 C 118.275 162.663,122.307 157.248,123.713 152.932 C 124.612 150.172,124.873 142.213,124.114 140.690 C 123.903 140.267,123.432 139.239,123.068 138.407 C 120.238 131.941,114.930 128.869,106.116 128.594 L 100.907 128.431 100.606 129.196 M128.299 128.895 C 127.690 129.189,127.576 129.583,127.401 132.005 C 127.291 133.531,127.070 135.357,126.910 136.064 C 126.750 136.771,126.531 138.723,126.422 140.402 C 126.313 142.080,126.087 144.104,125.918 144.900 C 125.609 146.361,124.827 153.617,124.342 159.518 C 124.196 161.285,123.978 163.261,123.856 163.908 C 123.519 165.696,123.789 165.747,133.187 165.681 L 141.517 165.622 141.925 164.773 C 142.478 163.619,142.762 160.277,142.358 159.679 C 142.098 159.293,140.928 159.165,136.478 159.036 L 130.924 158.876 131.023 156.948 C 131.141 154.668,131.959 150.001,132.301 149.658 C 132.433 149.527,134.965 149.402,137.927 149.382 C 144.250 149.339,144.068 149.445,144.440 145.589 C 144.732 142.567,144.916 142.662,138.726 142.656 C 132.869 142.650,132.945 142.692,133.207 139.572 C 133.603 134.863,133.637 134.842,140.573 135.002 C 145.838 135.123,145.942 135.061,146.130 131.722 C 146.322 128.327,146.833 128.510,137.230 128.536 C 132.185 128.549,128.726 128.688,128.299 128.895 M150.249 128.905 C 149.527 129.453,149.109 131.452,149.090 134.450 C 149.083 135.683,148.867 137.780,148.611 139.109 C 148.355 140.438,148.001 143.044,147.825 144.900 C 147.649 146.755,147.348 149.574,147.156 151.165 C 146.964 152.755,146.587 155.936,146.318 158.233 C 146.048 160.530,145.754 162.932,145.664 163.571 C 145.415 165.341,146.057 165.783,148.877 165.783 C 152.108 165.783,152.320 165.573,152.637 162.060 C 152.780 160.485,153.048 158.329,153.233 157.269 C 153.419 156.209,153.574 154.618,153.577 153.735 C 153.592 150.223,154.847 151.153,157.236 156.447 C 161.090 164.984,161.892 165.879,165.462 165.632 C 168.656 165.410,169.454 165.412,171.679 165.647 C 174.622 165.959,176.345 165.591,176.789 164.556 C 176.991 164.082,177.399 163.333,177.693 162.892 C 177.988 162.450,178.341 161.727,178.479 161.285 C 178.616 160.843,179.071 159.940,179.489 159.277 L 180.249 158.072 185.856 158.072 C 192.348 158.072,191.721 157.705,192.605 162.031 C 193.336 165.612,193.691 165.904,197.095 165.732 C 200.344 165.568,200.378 165.511,199.357 161.889 C 198.889 160.231,198.307 158.153,198.063 157.269 C 197.272 154.407,196.361 151.204,195.845 149.478 C 195.568 148.550,195.141 147.081,194.896 146.213 C 194.651 145.345,194.354 144.479,194.236 144.288 C 193.946 143.819,193.171 140.963,192.745 138.795 C 192.554 137.823,191.993 135.799,191.498 134.297 C 191.003 132.795,190.505 131.162,190.390 130.669 C 190.069 129.286,187.952 129.403,187.952 130.803 C 187.952 130.947,187.251 132.262,186.395 133.725 C 185.539 135.188,184.442 137.181,183.958 138.153 C 183.475 139.124,182.637 140.643,182.097 141.526 C 180.872 143.531,180.048 145.006,178.329 148.273 C 177.585 149.687,176.794 151.060,176.572 151.325 C 176.349 151.590,175.681 152.793,175.086 153.998 C 174.492 155.202,173.906 156.249,173.784 156.324 C 173.663 156.399,173.094 157.438,172.520 158.632 C 171.947 159.826,171.081 161.382,170.597 162.090 C 170.112 162.798,169.661 163.665,169.594 164.018 C 169.412 164.971,168.142 165.042,167.870 164.115 C 167.690 163.501,162.907 153.440,161.905 151.571 C 161.406 150.638,161.568 149.840,162.329 149.483 C 168.615 146.532,170.108 135.446,164.818 131.004 C 162.335 128.920,152.162 127.454,150.249 128.905 M234.632 128.875 C 233.863 129.274,233.858 129.297,233.275 135.422 C 232.693 141.532,231.171 155.075,230.694 158.394 C 230.072 162.717,229.974 164.834,230.374 165.316 C 230.818 165.852,239.010 165.964,241.606 165.470 C 249.481 163.971,252.027 161.379,252.027 154.859 C 252.028 151.543,251.810 150.891,249.758 148.069 C 248.429 146.243,248.429 146.213,249.728 144.334 C 251.758 141.399,252.246 138.709,251.298 135.691 C 250.248 132.351,249.002 130.943,245.783 129.456 C 244.040 128.651,235.885 128.226,234.632 128.875 M311.717 128.916 C 311.382 129.323,310.930 132.309,310.367 137.831 C 309.862 142.781,308.997 148.896,308.763 149.164 C 308.546 149.414,306.984 147.835,302.811 143.146 C 301.574 141.756,300.129 140.163,299.598 139.605 C 299.068 139.047,297.522 137.300,296.163 135.721 C 289.183 127.618,289.092 127.586,288.526 133.056 C 288.364 134.621,288.130 136.067,288.005 136.268 C 287.880 136.470,287.591 138.386,287.362 140.527 C 287.133 142.667,286.655 146.297,286.301 148.594 C 285.946 150.892,285.496 154.000,285.302 155.502 C 285.107 157.004,284.817 158.956,284.657 159.839 C 283.626 165.536,283.747 165.783,287.564 165.783 C 290.120 165.783,290.424 165.296,290.938 160.379 C 291.154 158.315,291.488 155.759,291.679 154.699 C 291.871 153.639,292.260 150.964,292.543 148.755 C 292.826 146.546,293.162 144.305,293.289 143.775 L 293.520 142.811 294.310 143.644 C 294.745 144.103,295.823 145.313,296.707 146.333 C 297.590 147.354,298.465 148.352,298.651 148.552 C 298.837 148.752,299.636 149.711,300.428 150.683 C 302.552 153.292,302.844 153.640,306.320 157.712 C 308.073 159.766,310.007 162.140,310.619 162.989 C 312.505 165.605,313.313 165.170,313.783 161.285 C 314.278 157.186,315.075 151.315,315.483 148.755 C 315.666 147.606,316.114 144.498,316.479 141.847 C 316.843 139.197,317.273 136.233,317.434 135.261 C 318.066 131.441,318.165 129.495,317.753 128.998 C 317.232 128.371,312.220 128.302,311.717 128.916 M321.646 128.948 C 321.448 129.187,321.145 131.030,320.972 133.044 C 320.799 135.059,320.577 136.996,320.478 137.349 C 320.379 137.703,320.089 139.944,319.835 142.329 C 319.580 144.715,319.221 147.968,319.038 149.558 C 318.854 151.149,318.494 154.257,318.238 156.466 C 317.112 166.192,317.001 165.783,320.765 165.783 C 323.964 165.783,324.097 165.640,324.495 161.767 C 324.823 158.576,325.365 154.049,325.659 152.048 C 325.844 150.791,326.842 150.608,327.417 151.727 C 327.621 152.124,328.183 152.884,328.667 153.414 C 329.150 153.944,330.611 155.968,331.915 157.912 C 333.218 159.855,334.432 161.601,334.612 161.791 C 334.792 161.980,335.207 162.631,335.534 163.236 C 336.654 165.309,340.969 166.468,343.699 165.430 L 344.475 165.135 343.592 163.611 C 342.225 161.254,339.693 157.331,339.136 156.707 C 338.860 156.398,338.635 156.069,338.635 155.976 C 338.635 155.883,337.434 153.968,335.966 151.719 C 331.104 144.268,331.285 144.730,332.638 143.233 C 333.197 142.614,334.872 140.748,336.361 139.086 C 337.849 137.424,340.155 134.863,341.484 133.395 C 345.705 128.734,345.689 128.514,341.120 128.514 L 338.221 128.514 336.741 130.040 C 335.263 131.564,330.885 136.372,329.085 138.447 C 328.251 139.408,326.627 139.770,327.183 138.870 C 327.632 138.143,328.099 129.464,327.714 128.999 C 327.171 128.346,322.181 128.304,321.646 128.948 M205.561 129.398 C 205.243 129.769,204.943 131.380,204.679 134.137 C 204.459 136.434,204.085 139.759,203.849 141.526 C 203.612 143.293,203.329 145.751,203.219 146.988 C 203.110 148.225,202.815 150.683,202.565 152.450 C 202.110 155.670,201.543 160.302,201.219 163.447 C 200.983 165.737,201.157 165.783,209.919 165.783 C 218.625 165.783,218.227 165.953,218.277 162.221 L 218.313 159.518 213.815 159.357 C 208.634 159.172,208.458 159.109,208.663 157.491 C 208.745 156.839,209.030 154.643,209.296 152.610 C 209.562 150.578,209.924 147.253,210.100 145.221 C 210.722 138.077,211.115 134.117,211.405 132.080 C 211.834 129.066,211.631 128.835,208.553 128.835 C 206.561 128.835,205.944 128.951,205.561 129.398 M74.436 129.848 C 74.934 130.261,74.991 131.981,74.546 133.152 L 74.233 133.976 69.866 133.976 C 63.883 133.976,63.811 134.038,63.477 139.466 C 63.227 143.531,63.415 143.733,67.389 143.665 C 68.935 143.639,70.888 143.703,71.727 143.807 L 73.253 143.996 73.253 145.715 C 73.253 148.174,72.992 148.292,67.682 148.236 C 61.930 148.175,62.059 148.003,61.348 156.715 C 61.171 158.884,60.838 161.486,60.609 162.498 L 60.193 164.337 58.510 164.627 C 55.919 165.073,55.714 164.724,56.177 160.652 C 56.380 158.867,56.548 156.581,56.551 155.571 C 56.554 154.561,56.759 152.867,57.007 151.807 C 57.255 150.747,57.554 148.651,57.671 147.149 C 57.788 145.647,58.089 143.376,58.340 142.102 C 58.590 140.828,58.795 138.876,58.795 137.765 C 58.795 134.664,59.702 130.397,60.512 129.689 C 61.298 129.002,73.586 129.143,74.436 129.848 M95.768 129.799 C 96.116 130.315,95.990 133.192,95.603 133.581 C 95.475 133.710,92.934 133.861,89.956 133.916 C 85.973 133.991,84.449 134.129,84.191 134.441 C 83.032 135.837,82.439 142.196,83.393 142.988 C 83.733 143.270,85.314 143.442,88.293 143.519 C 94.240 143.675,94.138 143.643,94.132 145.307 C 94.123 148.266,94.433 148.112,88.462 148.112 C 81.270 148.112,81.958 147.259,80.825 157.590 C 80.719 158.558,81.110 159.663,81.694 160.043 C 81.865 160.155,84.084 160.268,86.623 160.293 C 92.542 160.353,93.039 160.666,91.913 163.628 C 91.474 164.781,81.258 165.409,77.108 164.538 L 75.984 164.302 76.097 160.319 C 76.159 158.128,76.358 155.967,76.540 155.517 C 76.721 155.067,76.982 153.108,77.120 151.165 C 77.258 149.221,77.600 146.040,77.880 144.096 C 78.159 142.153,78.389 139.649,78.391 138.533 C 78.392 137.417,78.535 136.239,78.709 135.915 C 78.882 135.591,79.114 134.190,79.224 132.803 C 79.515 129.138,79.068 129.317,87.937 129.317 C 94.250 129.317,95.494 129.394,95.768 129.799 M144.906 129.972 C 145.354 130.809,145.158 132.796,144.555 133.523 C 144.260 133.878,143.076 133.976,139.077 133.976 C 132.668 133.976,132.963 133.757,132.384 138.949 C 131.834 143.887,131.684 143.745,137.189 143.506 C 143.155 143.248,143.924 143.640,143.465 146.704 L 143.254 148.112 137.892 148.120 C 130.637 148.129,130.558 148.205,130.469 155.242 C 130.454 156.424,130.297 157.481,130.120 157.590 C 129.590 157.918,129.755 158.787,130.498 159.578 C 131.171 160.294,131.381 160.321,136.281 160.321 L 141.365 160.321 141.365 162.081 C 141.365 164.886,141.244 164.923,132.533 164.767 C 124.207 164.617,124.562 164.759,124.973 161.755 C 125.141 160.525,125.436 157.855,125.629 155.823 C 125.822 153.791,126.122 151.469,126.297 150.662 C 126.472 149.856,126.733 147.381,126.877 145.163 C 127.020 142.945,127.223 140.993,127.326 140.826 C 127.429 140.659,127.666 138.797,127.852 136.687 C 128.038 134.577,128.372 132.129,128.593 131.245 L 128.996 129.639 133.655 129.478 C 144.166 129.115,144.454 129.128,144.906 129.972 M316.528 129.921 C 316.795 130.399,316.327 137.919,315.997 138.453 C 315.919 138.579,315.700 139.972,315.511 141.550 C 315.109 144.889,314.292 150.465,313.866 152.771 C 313.703 153.655,313.429 156.022,313.257 158.032 C 312.904 162.147,312.670 162.686,311.478 162.134 C 311.043 161.932,310.685 161.622,310.681 161.446 C 310.674 161.136,309.684 159.965,306.653 156.682 C 305.865 155.829,305.221 155.066,305.221 154.986 C 305.221 154.906,304.405 153.869,303.407 152.681 C 302.410 151.494,301.038 149.859,300.360 149.048 C 299.060 147.496,298.144 146.462,296.351 144.527 C 295.751 143.880,295.261 143.240,295.261 143.106 C 295.261 142.607,294.177 141.687,293.588 141.687 C 292.658 141.687,292.105 143.427,291.573 148.022 C 291.312 150.281,290.932 153.574,290.728 155.341 C 290.525 157.108,290.110 159.855,289.806 161.446 L 289.252 164.337 287.580 164.509 C 285.159 164.757,285.092 164.591,285.719 159.903 C 286.007 157.747,286.384 155.261,286.556 154.378 C 286.729 153.494,286.878 151.659,286.888 150.300 C 286.899 148.941,287.042 147.746,287.206 147.644 C 287.371 147.543,287.595 146.631,287.705 145.617 C 288.075 142.201,289.175 135.108,289.488 134.114 C 289.659 133.571,289.801 132.848,289.804 132.507 C 289.816 131.051,290.298 131.081,291.903 132.639 C 293.752 134.432,297.535 138.644,297.967 139.390 C 298.130 139.671,298.998 140.661,299.895 141.590 C 300.792 142.519,302.104 143.965,302.811 144.802 C 304.420 146.707,308.463 150.683,308.793 150.683 C 309.556 150.683,310.317 147.765,310.552 143.936 C 310.655 142.257,310.868 140.450,311.025 139.920 C 311.182 139.390,311.470 137.229,311.663 135.119 C 312.007 131.378,312.497 129.688,313.327 129.389 C 314.188 129.078,316.248 129.421,316.528 129.921 M326.734 129.936 C 327.019 130.469,327.086 131.310,326.945 132.587 C 326.100 140.237,326.119 141.365,327.091 141.365 C 327.618 141.365,334.458 134.250,334.458 133.701 C 334.458 133.499,334.658 133.333,334.903 133.333 C 335.148 133.333,335.605 132.936,335.919 132.450 C 337.371 130.202,339.331 129.055,341.205 129.355 C 343.206 129.674,343.047 130.331,340.241 133.343 C 339.799 133.817,338.643 135.058,337.671 136.100 C 336.699 137.143,335.335 138.646,334.639 139.440 C 333.944 140.234,332.751 141.564,331.989 142.396 C 330.564 143.950,330.243 145.104,331.004 145.934 C 331.521 146.498,332.112 147.421,332.604 148.434 C 332.819 148.876,333.685 150.162,334.529 151.293 C 335.374 152.424,336.064 153.487,336.064 153.656 C 336.064 153.825,336.498 154.511,337.028 155.181 C 337.558 155.850,337.992 156.510,337.992 156.647 C 337.992 156.785,338.232 157.163,338.526 157.487 C 338.819 157.811,339.217 158.348,339.409 158.681 C 339.602 159.013,340.398 160.326,341.178 161.598 C 342.814 164.267,342.724 164.485,339.979 164.493 C 337.714 164.500,337.393 164.285,335.556 161.541 C 334.693 160.252,333.912 159.124,333.820 159.036 C 333.728 158.948,333.220 158.225,332.691 157.430 C 332.162 156.635,331.648 155.912,331.550 155.823 C 331.452 155.735,331.061 155.150,330.680 154.524 C 330.300 153.897,329.676 153.030,329.294 152.596 C 328.912 152.162,328.253 151.265,327.830 150.602 C 326.084 147.869,324.443 150.737,324.015 157.269 C 323.565 164.127,323.105 165.021,320.303 164.480 C 319.518 164.329,318.753 164.198,318.602 164.191 C 318.452 164.183,318.400 163.562,318.486 162.811 C 318.573 162.060,318.814 159.566,319.021 157.269 C 319.229 154.972,319.607 151.969,319.860 150.596 C 320.114 149.223,320.321 147.108,320.321 145.896 C 320.321 144.684,320.522 143.205,320.768 142.610 C 321.014 142.014,321.311 139.863,321.429 137.831 C 321.697 133.192,322.480 129.822,323.373 129.459 C 324.760 128.895,326.294 129.113,326.734 129.936 M108.983 129.832 C 111.062 130.054,112.766 130.427,113.574 130.837 C 114.281 131.196,115.243 131.688,115.712 131.930 C 116.181 132.172,116.796 132.369,117.078 132.369 C 117.360 132.369,117.590 132.586,117.590 132.851 C 117.590 133.116,117.771 133.333,117.992 133.333 C 118.767 133.333,121.214 136.753,122.476 139.598 C 123.701 142.363,124.117 144.318,123.927 146.427 C 123.733 148.582,122.849 152.723,122.414 153.511 C 122.249 153.811,121.738 154.884,121.278 155.895 C 120.041 158.620,116.088 162.892,114.803 162.892 C 114.681 162.892,113.993 163.161,113.274 163.490 C 110.846 164.602,99.349 165.337,97.947 164.470 C 97.510 164.200,97.847 156.695,98.336 155.780 C 98.500 155.474,98.635 154.426,98.635 153.451 C 98.635 152.477,98.842 150.046,99.096 148.049 C 99.349 146.052,99.654 143.116,99.773 141.526 C 99.892 139.936,100.191 137.845,100.437 136.880 C 100.682 135.915,100.884 134.080,100.884 132.802 C 100.884 129.293,101.576 129.039,108.983 129.832 M242.088 129.870 C 246.220 130.361,248.519 131.728,249.835 134.476 C 250.676 136.231,250.702 141.331,249.876 142.245 C 249.569 142.584,249.315 142.995,249.312 143.158 C 249.309 143.321,248.876 143.943,248.348 144.542 C 247.091 145.967,247.135 146.448,248.703 148.432 C 249.426 149.346,250.235 150.732,250.500 151.512 C 250.766 152.293,251.115 153.012,251.275 153.111 C 251.716 153.384,251.624 155.479,251.107 156.937 C 250.854 157.650,250.561 158.634,250.456 159.125 C 249.928 161.586,245.955 163.940,241.424 164.475 C 235.159 165.215,230.767 164.769,231.132 163.430 C 231.237 163.046,231.475 160.996,231.661 158.876 C 231.846 156.755,232.126 154.514,232.283 153.896 C 232.440 153.277,232.661 151.108,232.775 149.076 C 232.889 147.044,233.131 144.898,233.313 144.307 C 233.495 143.716,233.764 141.475,233.911 139.327 C 234.622 128.924,234.577 128.976,242.088 129.870 M269.143 131.968 C 268.354 133.337,267.204 135.398,266.588 136.546 C 265.972 137.695,264.935 139.574,264.284 140.723 C 263.632 141.871,262.886 143.245,262.626 143.775 C 262.366 144.305,261.723 145.462,261.198 146.345 C 260.673 147.229,259.990 148.458,259.680 149.076 C 259.370 149.695,258.945 150.382,258.736 150.604 C 258.527 150.826,258.253 151.332,258.127 151.729 C 258.002 152.125,257.582 152.884,257.194 153.414 C 256.806 153.944,256.163 155.028,255.765 155.823 C 255.368 156.618,254.095 158.976,252.936 161.062 C 250.379 165.668,250.374 165.657,254.718 165.535 C 258.344 165.433,258.022 165.684,260.361 161.125 L 261.926 158.072 263.574 158.029 C 273.640 157.768,273.390 157.681,274.362 161.771 C 275.291 165.683,277.525 166.891,281.228 165.484 L 282.016 165.184 281.450 162.833 C 281.139 161.540,280.503 159.253,280.037 157.751 C 278.910 154.120,278.060 151.261,277.409 148.916 C 276.287 144.875,275.578 142.464,275.304 141.752 C 275.148 141.346,275.020 140.717,275.020 140.355 C 275.020 139.992,274.808 139.240,274.549 138.683 C 274.291 138.126,273.943 137.092,273.776 136.386 C 271.865 128.271,271.484 127.907,269.143 131.968 M162.483 130.653 C 166.435 132.524,168.381 138.028,166.685 142.542 C 165.947 144.506,163.648 147.791,163.012 147.791 C 162.808 147.791,162.125 148.261,161.493 148.835 L 160.345 149.880 160.934 151.516 C 161.258 152.416,161.723 153.528,161.966 153.987 C 162.793 155.544,163.794 157.583,164.683 159.518 C 165.170 160.578,165.673 161.518,165.801 161.606 C 166.193 161.878,166.711 164.161,166.421 164.340 C 164.795 165.345,162.210 164.390,161.301 162.448 C 160.961 161.720,160.394 160.618,160.041 160.000 C 159.689 159.382,158.517 157.036,157.437 154.787 C 154.063 147.761,152.932 148.170,152.282 156.653 C 151.786 163.124,151.376 164.364,149.651 164.595 C 147.702 164.856,146.735 164.389,146.950 163.292 C 147.045 162.807,147.211 160.747,147.317 158.715 C 147.424 156.683,147.648 154.297,147.815 153.414 C 147.982 152.530,148.260 150.434,148.432 148.755 C 148.604 147.076,148.893 144.598,149.075 143.249 C 149.258 141.899,149.544 139.296,149.713 137.466 C 150.034 133.969,150.578 130.550,150.895 130.037 C 151.274 129.423,160.974 129.939,162.483 130.653 M209.934 129.994 C 210.534 130.224,210.675 134.868,210.113 135.917 C 209.933 136.254,209.707 138.160,209.612 140.153 C 209.517 142.145,209.298 144.715,209.125 145.863 C 208.797 148.050,207.934 154.879,207.651 157.529 C 207.383 160.033,207.848 160.320,212.178 160.326 C 217.377 160.332,217.825 160.650,216.995 163.742 C 216.735 164.710,205.015 165.472,202.972 164.654 C 202.323 164.394,202.221 161.210,202.761 158.072 C 202.928 157.100,203.278 154.426,203.539 152.129 C 203.799 149.831,204.151 147.301,204.321 146.506 C 204.492 145.711,204.637 144.176,204.645 143.096 C 204.652 142.016,204.818 140.353,205.012 139.401 C 205.207 138.449,205.532 136.009,205.735 133.978 L 206.104 130.286 207.068 130.081 C 208.413 129.794,209.339 129.766,209.934 129.994 M189.371 131.601 C 189.651 131.708,189.884 132.105,189.888 132.484 C 189.893 132.863,190.337 134.402,190.875 135.904 C 191.412 137.406,191.979 139.324,192.133 140.168 C 192.287 141.011,192.562 142.168,192.744 142.738 C 192.926 143.308,193.368 144.679,193.726 145.784 C 194.084 146.890,194.378 148.020,194.378 148.295 C 194.378 148.571,194.555 149.113,194.771 149.499 C 194.988 149.885,195.333 150.924,195.540 151.807 C 195.746 152.691,196.300 154.715,196.771 156.305 C 199.249 164.669,199.241 164.283,196.948 164.521 C 194.795 164.746,194.117 164.387,193.870 162.895 C 193.768 162.274,193.478 161.222,193.227 160.556 C 192.976 159.890,192.771 159.033,192.771 158.653 C 192.771 156.943,192.192 156.787,185.818 156.787 L 179.928 156.787 179.107 158.088 C 178.655 158.803,178.142 159.707,177.967 160.096 C 176.204 164.004,174.943 165.017,172.297 164.649 C 170.504 164.401,170.490 164.332,171.756 162.088 C 172.355 161.028,173.288 159.293,173.830 158.233 C 174.373 157.173,175.089 155.871,175.421 155.341 C 176.112 154.241,179.227 148.677,179.829 147.470 C 180.049 147.028,180.366 146.450,180.533 146.185 C 180.700 145.920,180.921 145.486,181.025 145.221 C 181.128 144.956,181.500 144.305,181.852 143.775 C 182.203 143.245,182.706 142.351,182.968 141.789 C 183.230 141.227,183.591 140.676,183.770 140.565 C 183.950 140.454,184.096 140.101,184.096 139.779 C 184.096 139.458,184.320 139.010,184.593 138.783 C 184.867 138.556,185.453 137.634,185.896 136.735 C 186.339 135.836,187.061 134.522,187.501 133.815 C 187.941 133.108,188.383 132.277,188.485 131.968 C 188.694 131.331,188.682 131.336,189.371 131.601 M271.429 132.129 C 271.801 132.850,272.508 135.165,273.562 139.116 C 273.869 140.265,274.481 142.434,274.923 143.936 C 275.364 145.438,275.874 147.173,276.055 147.791 C 276.237 148.410,276.632 149.711,276.935 150.683 C 277.682 153.089,278.376 155.496,279.201 158.554 C 279.582 159.968,280.114 161.728,280.383 162.465 C 280.652 163.203,280.775 163.962,280.658 164.152 C 280.412 164.550,277.307 164.614,276.709 164.235 C 276.276 163.959,274.699 159.713,274.699 158.822 C 274.699 157.073,273.706 156.787,267.631 156.787 C 261.380 156.787,261.389 156.784,260.202 159.096 C 259.958 159.571,259.282 160.898,258.699 162.046 C 257.589 164.231,257.688 164.166,254.764 164.639 C 252.159 165.061,252.340 163.447,255.443 158.554 C 255.780 158.024,256.206 157.242,256.392 156.817 C 256.577 156.392,257.124 155.452,257.607 154.729 C 258.090 154.005,258.842 152.655,259.278 151.727 C 259.715 150.799,260.171 150.040,260.292 150.040 C 260.413 150.040,260.675 149.547,260.874 148.944 C 261.073 148.341,261.446 147.767,261.702 147.669 C 261.959 147.571,262.169 147.268,262.169 146.997 C 262.169 146.363,264.139 142.566,264.634 142.247 C 264.841 142.113,265.103 141.581,265.216 141.064 C 265.330 140.548,265.630 139.952,265.884 139.742 C 266.138 139.531,266.345 139.160,266.345 138.916 C 266.345 138.673,266.480 138.474,266.645 138.474 C 266.810 138.474,267.046 138.149,267.171 137.751 C 267.462 136.821,270.616 131.406,270.866 131.406 C 270.971 131.406,271.224 131.731,271.429 132.129 M240.080 134.013 C 239.859 134.240,239.679 134.802,239.679 135.261 C 239.679 135.720,239.527 136.248,239.342 136.433 C 238.845 136.930,238.532 143.489,238.980 144.028 C 240.713 146.117,246.747 142.082,246.747 138.834 C 246.747 135.531,241.966 132.074,240.080 134.013 M105.884 134.483 C 104.971 135.396,104.824 136.017,104.595 139.920 C 104.470 142.040,104.163 144.859,103.911 146.185 C 103.660 147.510,103.453 149.534,103.453 150.683 C 103.452 151.831,103.231 154.128,102.962 155.787 C 102.258 160.126,102.417 160.321,106.624 160.321 C 111.857 160.321,113.699 159.377,117.505 154.738 C 119.463 152.352,120.073 143.897,118.532 140.514 C 118.191 139.765,117.912 139.086,117.912 139.006 C 117.912 138.459,114.407 134.940,113.861 134.940 C 113.655 134.940,113.073 134.724,112.567 134.460 C 111.259 133.777,106.574 133.794,105.884 134.483 M155.630 134.222 C 154.422 135.028,153.408 144.378,154.443 145.164 C 155.645 146.076,159.631 145.405,160.881 144.080 C 162.921 141.917,163.379 137.003,161.687 135.429 C 160.366 134.200,156.744 133.478,155.630 134.222 M243.560 135.274 C 246.724 136.888,245.703 142.254,242.059 143.169 C 240.703 143.509,239.504 142.939,239.589 141.994 C 240.290 134.219,240.568 133.748,243.560 135.274 M114.277 136.604 C 120.982 141.420,119.641 154.562,112.017 158.758 C 110.799 159.428,104.157 159.412,103.943 158.738 C 103.702 157.980,103.990 153.072,104.435 150.361 C 104.594 149.390,104.872 146.932,105.052 144.900 C 105.355 141.491,105.842 137.712,106.200 136.003 C 106.512 134.515,111.930 134.918,114.277 136.604 M159.747 135.462 C 162.707 136.027,162.461 141.812,159.390 143.853 C 158.049 144.744,155.365 144.879,155.054 144.070 C 154.635 142.978,155.234 137.368,155.988 135.313 C 156.142 134.895,156.944 134.927,159.747 135.462 M268.981 143.063 C 268.596 143.473,267.717 144.886,267.028 146.202 C 266.339 147.518,265.544 149.028,265.259 149.558 C 264.086 151.748,265.457 152.769,269.281 152.553 C 272.382 152.378,273.719 150.657,272.095 148.932 C 271.937 148.764,271.807 148.295,271.807 147.889 C 271.807 145.156,269.967 142.013,268.981 143.063 M186.582 143.841 C 186.112 144.512,185.488 145.566,185.194 146.185 C 184.901 146.803,184.534 147.526,184.378 147.791 C 184.222 148.056,183.948 148.635,183.768 149.076 C 183.588 149.518,183.266 150.220,183.053 150.637 C 182.360 151.992,183.601 152.610,187.016 152.610 C 191.398 152.610,191.445 152.419,189.115 144.096 C 188.617 142.318,187.712 142.227,186.582 143.841 M270.408 145.966 C 270.615 146.881,270.949 148.269,271.149 149.050 C 271.700 151.196,271.556 151.325,268.604 151.325 C 265.714 151.325,265.316 150.881,266.667 149.164 C 267.020 148.715,267.309 148.166,267.309 147.945 C 267.309 147.376,269.617 143.887,269.843 144.114 C 269.946 144.216,270.200 145.050,270.408 145.966 M188.341 145.462 C 188.975 147.031,189.859 150.775,189.668 151.084 C 189.587 151.217,188.300 151.325,186.808 151.325 C 183.456 151.325,183.439 151.257,185.770 147.183 C 187.681 143.844,187.686 143.840,188.341 145.462 M238.484 148.599 C 238.002 148.937,237.731 149.554,237.602 150.607 C 237.499 151.444,237.189 153.617,236.913 155.437 C 236.186 160.232,236.581 160.660,241.446 160.353 C 246.299 160.047,248.638 153.915,245.232 150.426 C 243.307 148.454,239.979 147.553,238.484 148.599 M243.404 150.236 C 247.988 152.922,245.869 159.197,240.379 159.197 L 237.912 159.197 237.820 158.072 C 237.668 156.194,238.601 149.988,239.082 149.684 C 239.950 149.134,241.962 149.391,243.404 150.236 " stroke="none" fill="#9dbcd8" fill-rule="evenodd"></path><path id="path4" d="M35.770 184.648 C 35.214 186.398,35.486 191.848,36.154 192.336 C 36.653 192.701,63.198 192.771,199.905 192.771 L 363.062 192.771 363.698 191.727 C 364.644 190.176,364.470 183.942,363.492 184.317 C 363.161 184.445,363.052 185.271,363.052 187.673 C 363.052 190.799,363.037 190.865,362.226 191.173 C 360.824 191.706,38.499 191.591,37.769 191.057 C 37.298 190.712,37.154 190.033,37.023 187.527 C 36.850 184.216,36.305 182.965,35.770 184.648 " stroke="none" fill="#f5cd85" fill-rule="evenodd"></path></g></svg>