<?xml version="1.0" ?><svg id="Layer_1" style="enable-background:new 0 0 128 128;" version="1.1" viewBox="0 0 128 128" xml:space="preserve" xmlns="http://www.w3.org/2000/svg" xmlns:xlink="http://www.w3.org/1999/xlink"><style type="text/css">
	.st0{fill:#7DEABD;}
	.st1{fill:#5FB28C;}
	.st2{fill:#FFF066;}
	.st3{fill:#231F20;}
	.st4{fill:#C9B53A;}
</style><path class="st0" d="M77.9,22.8l-22.4,84.9c-0.5-0.1-5.7-2.8-7.8-3.7c-5.9-2.4-13.5-4.5-19.6-6.4c1.5-4.6,1.8-9.7,0.2-14.6  c-1.8-5.5-5.1-10.6-6-16.5c-1.3-8.2,1.8-16,4.2-23.7c1.1-3.5,2.2-11.5,2-15.1C34.1,30,65.9,10.9,77.9,22.8z"/><path class="st1" d="M99.3,84.3c-1.1,4.4,0.4,9.7,1.7,13.8c-5.4,0.7-11.8,2.4-16.8,4.1c-5.4,1.8-11,4.7-16.5,5.8  c-3.7,0.7-9.3,0.3-12.9-0.8l22.7-84.8c4.8,0.2,13.8,7.1,23.3,5.3c-0.6,3.7,0,12,1,15.8c2.1,8.1,4.8,15.6,3.5,24.1  C104.3,73.3,100.8,78.6,99.3,84.3z"/><path class="st2" d="M69.4,28.6c-3.7,1-5.2,3.5-6,7.2c0.7,2,1.6,4,2.9,4.8c1-0.3,2.2-0.7,3.3-1.3c3.5-1.6,7-3.5,10.6-5.3  c-1.2-0.9-2.3-1.8-3.5-2.9C74.6,29.2,72.6,27.8,69.4,28.6z"/><path class="st2" d="M50.5,30.7c-1.8,0.5-3.3,1.6-4.5,3c0.4,0.2,0.8,0.4,1.2,0.7c4.7,2.6,9.2,5.3,14,6c-0.9-1.9-1.5-3.8-2.3-5.6  C57.1,30.7,55.1,29.2,50.5,30.7z"/><path class="st3" d="M109.3,66.6c0.7-6.6-0.6-13-2.4-19.4c-1.4-5-4.6-12-2-17c0.1-0.2,0.3-0.4,0.3-0.7c0.4-0.8,0.3-1.6,0-2.2  c-0.3-1-1.2-1.7-2.5-1.6c-5.7-0.5-11.6-2.2-17.1-3.9c-6.5-2-12.1-5.4-19-6c-14-1.2-26.6,8.9-40.6,9c-1.2,0-1.9,0.6-2.4,1.4  c-0.5,0.7-0.6,1.7,0,2.7c3,5.1-1,12.8-2.6,17.9c-1.9,6.1-3.3,12.3-2.5,18.7c0.6,5.1,2.4,9.7,4.5,14.3c2.6,6,3.4,10.9,0.7,17.1  c-0.1,0.3-0.2,0.7-0.2,1c-0.2,1.2,0.3,2.6,1.9,3.1c7,2.2,14.3,4.3,21,7.2c6.3,2.7,11.3,4.9,18.5,4.2c5.9-0.6,10.9-3.3,16.4-5.2  c6.6-2.3,13.7-4.8,20.7-5.2c0.4,0.1,0.7,0,1.1-0.1c1.8-0.3,2.5-2,2.2-3.5v-0.1c0-0.1-0.1-0.2-0.1-0.3c0-0.1,0-0.1-0.1-0.2  c-2.5-5.7-2.4-10.5-0.2-16.2C106.9,76.6,108.8,71.9,109.3,66.6z M67.2,21.2c6.6,0.8,12.4,4.4,18.7,6.3c1.3,0.4,2.5,0.7,3.8,1.1  c-1.6,0.6-3.3,1.4-4.9,2.1c-2.8-0.3-5-3.3-7.1-4.9s-4.3-2.7-7-2.5c-4.2,0.2-7.5,2.2-9.6,5.2c-1-1.4-2.2-2.5-3.9-3  c-5.6-2-12.2,1-15.7,5.5c-1.6-0.8-3.2-1.6-4.8-2.3c2.9-0.7,5.8-1.6,8.7-2.5C52.5,23.9,59.6,20.3,67.2,21.2z M66.6,39.4  c-1.2-0.7-1.9-2.5-2.5-4.2c0.7-3.1,2-5.3,5.2-6.2c2.8-0.8,4.4,0.5,6.5,2.2c1,0.8,2,1.7,3,2.5c-3.1,1.6-6.2,3.2-9.2,4.6  C68.5,38.8,67.5,39.2,66.6,39.4z M60.3,39.7c-4.4-0.7-8.4-3.1-12.7-5.5c-0.4-0.2-0.7-0.4-1.1-0.6c1.1-1.2,2.5-2.2,4.1-2.7  c4.2-1.3,6,0,7.6,3.7C58.9,36.3,59.5,38.1,60.3,39.7z M103.7,67.3c-0.9,5.9-3.9,11-5.4,16.7c-1.1,4.4-0.7,8.6,0.6,12.7  c-5.3,0.7-10.6,2.3-15.7,4c-5.4,1.8-10.8,4.8-16.3,5.9c-4.2,0.8-8.9,0.8-12.9-0.7c-2.1-0.8-4-2.1-6.1-3c-5.9-2.4-12.1-4.4-18.2-6.3  c1.5-4.6,1.9-9.2,0.3-14c-1.8-5.6-4.9-10.5-5.8-16.4c-1.3-8.2,1.6-15.8,4-23.5c1.1-3.5,2.2-7.2,2-10.8c5.6,2.2,11,5.1,16.1,8.1  c6.5,3.7,12.7,6.8,20.3,5.2c0.3,0,0.6-0.1,0.9-0.2c10.8-2.7,20.1-11.3,31.2-13.4c-0.6,3.7,0.3,7.6,1.3,11.3  C102.2,51,105,58.8,103.7,67.3z"/><path class="st4" d="M33.4,70.2C33,73.8,36,76,39.3,74.5c2.8-1.3,4.3-4.6,5.3-7.3c0.4-1.1,0.7-2.3,1-3.5c-2.3-0.9-4.8-1.3-7.1-0.2  C35.8,64.7,33.7,67.4,33.4,70.2z"/><path class="st3" d="M56.6,48.1c-3.6,0.4-7.1,2.4-8.7,5.7c-1.2,2.4-1.5,5.1-2,7.7c-3.3-1.2-6.8-1.3-9.8,0.8c-3.1,2.1-5.4,6-4.8,9.9  c0.2,1.4,0.9,2.9,2,3.8c6.6,4.9,16.1,5.2,23.1,1.2c5.9-3.4,11.4-9.4,11.7-16.5C68.4,54.3,63.3,47.3,56.6,48.1z M33.4,70.2  c0.3-2.9,2.4-5.5,5-6.7c2.3-1.1,4.8-0.7,7.1,0.2c-0.2,1.2-0.5,2.4-1,3.5c-1,2.7-2.5,6-5.3,7.3C36,76,33,73.8,33.4,70.2z M61.9,69.9  c-5.4,6.4-14.5,9.5-22.3,6.9c3.7-1.3,5.8-5.4,7.1-8.8c0.8-2.1,1.3-4.3,1.7-6.5c0.4-2.3,0.5-5,1.7-7.1c2.1-3.7,7.5-5.3,11.2-3.1  C68.2,55.6,66.3,64.6,61.9,69.9z"/><path class="st2" d="M61.9,69.9c4.5-5.3,6.3-14.3-0.6-18.6c-3.6-2.3-9.1-0.6-11.2,3.1c-1.2,2.1-1.3,4.7-1.7,7.1  c-0.4,2.2-0.9,4.4-1.7,6.5c-1.3,3.5-3.4,7.5-7.1,8.8C47.4,79.4,56.4,76.3,61.9,69.9z M51,74.4c-0.1,0-0.2,0.1-0.3,0.1  c0.1-0.1,0.1-0.2,0.2-0.3C50.9,74.3,50.9,74.4,51,74.4z"/><path class="st4" d="M72.3,96c-3.5,0.4-5.8-2.6-4.2-5.9c1.3-2.8,4.6-4.3,7.3-5.3c1.1-0.4,2.3-0.7,3.5-1c0.9,2.3,1.3,4.8,0.2,7.1  C77.8,93.5,75.2,95.7,72.3,96z"/><path class="st3" d="M82,61.2c-7.2,0.3-13.1,5.8-16.5,11.7c-4,7.1-3.8,16.6,1.2,23.1c0.8,1.1,2.4,1.8,3.8,2c3.9,0.6,7.8-1.7,9.9-4.8  c2.1-3.1,2-6.5,0.8-9.8c2.7-0.4,5.3-0.8,7.7-2c3.3-1.6,5.3-5.1,5.7-8.7C95.3,66,88.2,60.9,82,61.2z M68.1,90.1  c1.3-2.8,4.6-4.3,7.3-5.3c1.1-0.4,2.3-0.7,3.5-1c0.9,2.3,1.3,4.8,0.2,7.1c-1.2,2.6-3.9,4.7-6.7,5C68.8,96.3,66.5,93.4,68.1,90.1z   M91.3,68.1c2.3,3.6,0.6,9.1-3.1,11.2c-2.1,1.2-4.7,1.3-7.1,1.7c-2.2,0.4-4.4,0.9-6.5,1.7c-3.5,1.3-7.5,3.4-8.8,7.1  C63.2,82,66.3,73,72.7,67.5C77.9,63,87,61.2,91.3,68.1z"/><path class="st2" d="M65.8,89.8c1.3-3.7,5.4-5.8,8.8-7.1c2.1-0.8,4.3-1.3,6.5-1.7c2.3-0.4,5-0.5,7.1-1.7c3.7-2.1,5.3-7.5,3.1-11.2  c-4.3-7-13.4-5.1-18.6-0.6C66.3,72.9,63.2,82,65.8,89.8z M68.3,78.5c-0.1,0.1-0.2,0.1-0.3,0.2c0-0.1,0.1-0.2,0.1-0.3  C68.2,78.4,68.2,78.5,68.3,78.5z"/></svg>