<svg id="svg" version="1.1" xmlns="http://www.w3.org/2000/svg" xmlns:xlink="http://www.w3.org/1999/xlink" width="400" height="300" viewBox="0, 0, 400,300"><g id="svgg"><path id="path0" d="M128.132 97.183 L 128.132 138.852 131.139 140.094 C 132.792 140.777,134.223 141.335,134.319 141.335 C 134.415 141.335,135.999 141.930,137.839 142.657 C 141.716 144.189,158.907 150.840,165.491 153.356 C 167.967 154.302,171.950 155.846,174.344 156.787 C 176.737 157.727,179.066 158.567,179.520 158.652 L 180.345 158.808 180.345 117.259 L 180.345 75.710 179.220 75.222 C 178.601 74.953,176.542 74.136,174.644 73.407 C 171.607 72.239,166.579 70.288,157.389 66.711 C 155.904 66.133,151.110 64.242,146.737 62.509 C 135.928 58.226,128.838 55.514,128.452 55.514 C 128.227 55.514,128.132 67.841,128.132 97.183 M160.090 186.509 C 152.373 187.505,146.472 189.149,141.335 191.733 C 124.120 200.393,124.358 218.293,141.805 227.097 C 156.258 234.390,188.791 234.294,202.251 226.919 C 206.669 224.497,211.853 219.913,211.853 218.428 C 211.853 218.268,206.802 218.155,199.700 218.155 L 187.546 218.155 186.380 219.356 C 182.340 223.519,169.217 224.663,160.261 221.633 C 155.957 220.176,152.454 216.635,152.441 213.728 L 152.438 213.053 180.720 213.001 C 196.275 212.972,209.672 212.939,210.491 212.926 L 211.979 212.903 212.224 211.553 C 213.269 205.788,209.744 198.600,203.620 194.009 C 195.290 187.763,176.049 184.448,160.090 186.509 M254.164 186.500 C 238.371 187.854,228.041 192.642,224.417 200.287 C 222.744 203.815,222.631 205.058,222.722 218.905 L 222.806 231.508 233.608 231.592 C 239.550 231.638,244.701 231.605,245.055 231.519 C 245.698 231.362,245.700 231.331,245.837 219.432 C 245.992 206.035,246.168 204.837,248.358 202.278 C 251.548 198.551,259.165 196.455,269.090 196.572 L 274.119 196.632 274.201 191.797 C 274.297 186.136,274.946 186.825,269.076 186.354 C 264.309 185.972,259.804 186.016,254.164 186.500 M310.128 186.386 C 290.003 188.908,278.604 196.709,277.959 208.402 C 277.114 223.734,295.152 233.274,323.452 232.463 C 332.780 232.196,337.609 231.448,344.486 229.205 C 369.574 221.023,369.521 197.540,344.395 189.233 C 336.268 186.547,319.778 185.176,310.128 186.386 M47.785 187.172 L 36.905 187.254 36.982 209.381 L 37.059 231.508 47.977 231.587 C 55.785 231.643,59.011 231.568,59.305 231.325 C 59.634 231.051,59.715 229.283,59.715 222.319 L 59.715 213.653 77.837 213.653 C 94.086 213.653,95.979 213.702,96.142 214.128 C 96.242 214.389,96.324 218.358,96.324 222.948 C 96.324 230.281,96.382 231.316,96.799 231.476 C 97.972 231.926,118.174 231.671,118.645 231.200 C 119.118 230.727,119.261 187.878,118.791 187.408 C 118.594 187.211,96.595 187.176,96.399 187.372 C 96.338 187.433,96.299 190.854,96.313 194.973 C 96.328 199.092,96.254 202.684,96.150 202.956 C 95.976 203.408,94.392 203.451,77.837 203.451 L 59.715 203.451 59.715 195.779 C 59.715 188.640,59.539 186.799,58.879 187.018 C 58.761 187.057,53.769 187.126,47.785 187.172 M174.159 195.053 C 180.736 195.692,185.365 197.726,187.290 200.824 C 188.263 202.389,188.677 204.050,188.096 204.054 C 181.598 204.103,152.337 204.048,152.279 203.987 C 152.044 203.737,153.584 201.142,154.716 199.883 C 157.110 197.220,161.230 195.559,166.635 195.077 C 170.516 194.731,170.841 194.730,174.159 195.053 M324.574 195.353 C 336.217 196.550,341.950 203.731,339.185 213.653 C 337.416 220.001,330.886 223.397,320.480 223.379 C 308.394 223.358,301.773 218.915,301.069 210.353 C 300.211 199.910,309.743 193.828,324.574 195.353 M269.225 253.186 C 268.450 253.996,267.246 255.276,266.548 256.030 C 265.709 256.937,264.896 257.495,264.148 257.676 C 263.411 257.854,263.041 258.104,263.089 258.392 C 263.129 258.635,262.353 259.547,261.364 260.418 C 260.374 261.288,259.565 262.128,259.565 262.283 C 259.565 262.899,261.278 262.547,261.988 261.786 C 262.388 261.357,263.534 260.353,264.535 259.554 C 266.761 257.777,271.718 252.752,271.718 252.271 C 271.718 251.368,270.553 251.795,269.225 253.186 M261.357 254.366 C 260.949 254.642,260.059 255.351,259.379 255.941 C 258.700 256.531,257.046 257.675,255.704 258.483 C 251.628 260.937,251.656 261.901,255.746 259.906 C 257.104 259.244,258.822 258.606,259.565 258.488 C 260.913 258.274,260.914 258.273,260.085 257.927 L 259.255 257.580 261.210 256.174 C 263.645 254.422,263.783 252.723,261.357 254.366 M283.092 256.494 C 282.911 256.615,282.666 257.119,282.547 257.614 C 282.428 258.110,281.776 259.084,281.098 259.779 C 280.066 260.839,279.948 261.076,280.373 261.239 C 281.169 261.544,282.452 260.853,283.248 259.690 C 284.341 258.090,285.207 257.762,287.805 257.967 C 289.673 258.113,289.962 258.076,289.635 257.731 C 289.395 257.476,288.494 257.301,287.262 257.270 C 285.796 257.232,285.206 257.094,285.009 256.742 C 284.732 256.247,283.666 256.109,283.092 256.494 M271.718 257.193 C 268.502 257.912,266.738 259.365,267.797 260.424 C 268.378 261.005,276.583 261.038,277.504 260.462 C 277.879 260.228,277.108 260.193,274.675 260.334 C 271.028 260.544,269.467 260.352,269.467 259.691 C 269.467 259.183,269.628 259.157,272.239 259.253 C 275.918 259.387,278.543 258.319,277.111 257.271 C 276.484 256.813,273.606 256.771,271.718 257.193 M295.928 257.340 C 289.635 258.717,289.862 260.871,296.310 260.962 C 301.839 261.041,305.026 260.201,305.026 258.665 C 305.026 256.970,300.577 256.322,295.928 257.340 M275.019 257.751 C 275.819 258.077,274.483 258.472,273.180 258.294 L 272.318 258.177 273.068 257.840 C 273.959 257.439,274.224 257.427,275.019 257.751 M302.716 257.958 C 303.822 258.254,303.451 259.280,302.066 259.758 C 299.553 260.624,293.855 260.561,293.556 259.663 C 293.200 258.594,300.217 257.288,302.716 257.958 " stroke="none" fill="#e91e26" fill-rule="evenodd"></path><path id="path1" d="M219.655 66.435 C 219.655 84.818,219.761 95.424,219.944 95.424 C 220.103 95.424,220.947 95.138,221.819 94.789 C 222.692 94.440,224.284 93.846,225.356 93.468 C 226.429 93.090,229.737 91.880,232.708 90.779 C 235.679 89.677,241.620 87.486,245.911 85.910 C 250.203 84.334,255.874 82.245,258.515 81.269 C 261.155 80.292,264.869 78.942,266.767 78.268 C 268.665 77.594,270.591 76.853,271.047 76.621 L 271.877 76.199 271.797 66.983 L 271.718 57.768 270.068 57.129 C 268.190 56.403,258.120 52.450,239.160 44.998 C 231.980 42.176,224.891 39.417,223.406 38.867 C 221.920 38.318,220.469 37.773,220.180 37.656 C 219.682 37.456,219.655 38.945,219.655 66.435 M269.167 102.341 C 267.929 102.833,263.473 104.540,259.265 106.134 C 255.056 107.728,249.722 109.759,247.412 110.646 C 245.101 111.533,241.658 112.850,239.760 113.571 C 237.862 114.293,234.520 115.569,232.333 116.406 C 230.146 117.244,226.587 118.597,224.423 119.413 C 220.570 120.866,220.027 121.118,220.280 121.340 C 220.349 121.400,225.941 123.576,232.708 126.176 C 239.475 128.775,247.104 131.714,249.662 132.706 C 252.221 133.698,255.664 135.023,257.314 135.650 C 264.430 138.356,268.211 139.825,269.567 140.410 C 270.365 140.754,271.209 141.035,271.443 141.035 C 271.805 141.035,271.868 138.120,271.868 121.230 C 271.868 110.338,271.767 101.430,271.643 101.436 C 271.519 101.441,270.405 101.849,269.167 102.341 M112.863 252.109 C 112.540 252.228,111.383 253.406,110.291 254.725 C 108.064 257.418,107.636 257.634,104.051 257.877 C 101.228 258.069,101.203 257.964,103.676 256.287 C 105.132 255.300,105.626 254.788,105.626 254.271 C 105.626 253.343,104.527 253.739,102.597 255.362 C 101.838 256.000,99.857 257.405,98.194 258.484 C 94.085 261.151,93.994 262.540,98.095 260.009 C 99.860 258.919,102.132 258.360,104.726 258.377 L 106.077 258.385 103.826 260.465 C 102.588 261.609,101.710 262.565,101.875 262.589 C 102.893 262.736,103.822 262.369,104.876 261.404 C 105.536 260.799,106.887 259.683,107.877 258.924 C 109.557 257.635,114.629 252.493,114.629 252.078 C 114.629 251.824,113.583 251.843,112.863 252.109 M221.455 253.348 C 221.208 253.549,220.470 254.320,219.815 255.061 C 219.161 255.802,217.233 257.395,215.530 258.601 C 213.828 259.807,212.515 260.922,212.612 261.080 C 212.933 261.599,214.003 261.377,214.925 260.601 C 216.658 259.143,219.523 258.034,222.957 257.491 C 225.021 257.165,225.164 257.623,223.584 259.498 C 221.997 261.379,221.963 262.035,223.458 261.909 C 224.338 261.834,224.569 261.686,224.606 261.171 C 224.631 260.816,225.215 259.886,225.904 259.103 C 228.141 256.562,227.249 255.857,222.985 256.794 C 219.785 257.497,219.690 257.370,221.773 255.167 C 222.608 254.285,223.207 253.428,223.105 253.263 C 222.855 252.857,222.006 252.901,221.455 253.348 M188.629 254.038 C 188.237 255.060,188.432 255.364,189.480 255.364 C 190.859 255.364,191.009 254.996,189.948 254.211 C 188.900 253.437,188.862 253.432,188.629 254.038 M241.582 254.124 C 241.182 254.870,241.435 255.064,242.811 255.064 C 244.141 255.064,244.215 254.921,243.286 254.147 C 242.424 253.427,241.958 253.421,241.582 254.124 M121.661 257.204 C 118.927 258.998,117.396 259.636,114.571 260.156 C 111.095 260.797,111.190 260.582,115.661 257.677 C 117.223 256.662,117.718 255.964,116.875 255.964 C 115.362 255.964,108.981 260.125,109.416 260.828 C 109.707 261.298,115.423 260.928,117.029 260.334 C 118.340 259.850,118.392 259.853,118.791 260.450 C 119.236 261.115,123.290 261.427,122.881 260.765 C 122.779 260.600,122.231 260.465,121.663 260.465 C 119.952 260.465,120.347 259.760,123.054 257.981 C 124.928 256.749,125.468 255.916,124.512 255.732 C 124.254 255.682,122.971 256.345,121.661 257.204 M233.008 256.550 C 228.912 257.630,227.157 258.721,227.157 260.188 C 227.157 261.217,229.096 261.422,232.493 260.754 C 234.097 260.439,234.341 260.463,235.280 261.036 C 236.340 261.682,237.806 261.849,238.509 261.403 C 238.779 261.232,238.513 261.086,237.684 260.954 C 236.184 260.714,236.107 260.195,237.359 258.769 C 239.533 256.293,237.642 255.330,233.008 256.550 M131.883 257.150 C 129.867 257.652,125.431 260.165,125.431 260.805 C 125.431 261.391,126.773 260.978,129.959 259.415 C 133.278 257.786,134.602 257.402,134.361 258.140 C 134.293 258.346,133.640 258.920,132.910 259.415 C 130.943 260.749,132.066 260.715,136.384 259.309 C 138.365 258.664,140.458 258.039,141.035 257.920 L 142.086 257.703 140.834 259.009 C 139.436 260.468,139.149 261.283,139.869 261.748 C 140.530 262.175,141.335 261.814,141.335 261.091 C 141.335 260.752,141.977 259.945,142.836 259.206 C 145.627 256.802,144.516 256.093,139.813 257.277 L 136.756 258.046 136.173 257.305 C 135.487 256.433,134.852 256.410,131.883 257.150 M160.099 257.065 C 158.582 257.398,157.366 257.941,155.673 259.044 C 151.673 261.650,153.054 261.868,157.980 259.408 C 159.790 258.504,161.511 257.764,161.806 257.764 C 162.793 257.764,162.353 258.600,160.915 259.458 C 158.680 260.791,160.182 260.723,164.515 259.295 C 170.348 257.372,170.269 257.374,168.567 259.206 C 166.967 260.928,166.877 261.203,167.765 261.678 C 168.568 262.107,169.242 261.844,169.242 261.101 C 169.242 260.773,169.901 259.955,170.755 259.225 C 173.593 256.798,172.452 256.063,167.742 257.281 C 164.931 258.008,164.884 258.010,164.391 257.439 C 163.694 256.631,162.533 256.530,160.099 257.065 M193.838 257.461 C 193.266 257.954,192.201 258.798,191.471 259.336 C 188.449 261.566,190.421 261.704,194.647 259.558 C 198.841 257.429,201.431 257.374,199.151 259.464 C 197.942 260.572,197.865 261.365,198.967 261.365 C 199.627 261.365,202.217 258.817,202.239 258.146 C 202.277 256.971,200.216 256.654,197.074 257.351 C 196.439 257.492,196.249 257.423,196.249 257.049 C 196.249 256.260,194.980 256.477,193.838 257.461 M237.282 257.077 C 237.347 257.276,236.953 257.627,236.405 257.856 C 235.857 258.086,235.004 258.610,234.509 259.021 C 232.727 260.501,228.957 261.083,228.957 259.878 C 228.957 258.282,236.810 255.640,237.282 257.077 M176.894 257.311 C 172.965 258.377,171.600 259.877,173.750 260.768 C 174.943 261.262,182.592 261.041,183.129 260.497 C 183.421 260.201,182.756 260.166,179.895 260.325 C 177.462 260.461,176.011 260.415,175.420 260.184 C 173.864 259.576,174.982 259.193,178.447 259.146 C 181.765 259.102,183.046 258.754,183.046 257.896 C 183.046 256.867,179.703 256.549,176.894 257.311 M187.397 257.224 C 186.609 257.597,184.767 260.093,185.000 260.471 C 185.618 261.472,186.664 260.757,188.822 257.860 C 189.210 257.339,188.151 256.866,187.397 257.224 M240.510 257.088 C 239.971 257.495,238.260 259.822,238.260 260.147 C 238.260 260.322,238.658 260.465,239.146 260.465 C 240.066 260.465,242.309 258.065,242.069 257.337 C 241.939 256.941,240.920 256.778,240.510 257.088 M180.795 258.065 C 180.693 258.230,180.002 258.365,179.259 258.365 C 178.436 258.365,177.981 258.248,178.095 258.065 C 178.197 257.899,178.888 257.764,179.630 257.764 C 180.454 257.764,180.908 257.881,180.795 258.065 " stroke="none" fill="#241e24" fill-rule="evenodd"></path><path id="path2" d="M0.000 150.038 L 0.000 300.075 200.000 300.075 L 400.000 300.075 400.000 150.038 L 400.000 0.000 200.000 0.000 L 0.000 0.000 0.000 150.038 M221.905 37.978 C 222.896 38.393,225.259 39.323,227.157 40.045 C 229.055 40.767,232.363 42.055,234.509 42.908 C 240.529 45.301,247.269 47.932,256.370 51.443 C 258.327 52.197,260.353 53.012,260.872 53.253 C 261.391 53.494,262.963 54.108,264.366 54.618 C 265.769 55.128,268.100 56.043,269.547 56.652 L 272.176 57.758 272.097 67.178 L 272.018 76.598 269.317 77.577 C 267.832 78.116,264.760 79.246,262.491 80.089 C 251.335 84.230,235.811 89.944,229.407 92.265 C 227.427 92.983,224.484 94.055,222.868 94.647 C 221.253 95.239,219.801 95.724,219.643 95.724 C 219.461 95.724,219.355 84.942,219.355 66.467 C 219.355 43.257,219.432 37.211,219.730 37.216 C 219.936 37.220,220.915 37.563,221.905 37.978 M135.484 57.750 C 137.299 58.442,139.257 59.226,139.835 59.493 C 140.413 59.761,142.236 60.468,143.886 61.066 C 145.536 61.663,147.292 62.346,147.787 62.583 C 148.282 62.819,151.185 63.971,154.239 65.142 C 160.061 67.376,164.292 69.022,170.293 71.391 C 172.273 72.173,175.413 73.403,177.269 74.125 L 180.645 75.438 180.645 117.221 C 180.645 141.285,180.532 159.074,180.378 159.169 C 180.232 159.260,179.455 159.078,178.653 158.765 C 177.851 158.452,176.384 157.894,175.394 157.524 C 174.404 157.154,173.188 156.683,172.693 156.476 C 172.198 156.270,169.430 155.192,166.542 154.080 C 163.653 152.969,159.805 151.480,157.989 150.772 C 153.289 148.938,141.724 144.483,138.185 143.142 C 130.840 140.361,128.557 139.452,128.207 139.167 C 127.811 138.844,127.622 55.524,128.016 55.129 C 128.118 55.028,129.097 55.293,130.192 55.719 C 131.287 56.144,133.668 57.058,135.484 57.750 M272.168 121.230 C 272.168 137.115,272.089 141.335,271.793 141.335 C 271.327 141.334,264.951 138.925,249.212 132.805 C 245.086 131.201,239.820 129.165,237.509 128.282 C 235.199 127.398,231.350 125.919,228.957 124.993 C 226.564 124.068,223.486 122.896,222.117 122.387 C 219.239 121.319,219.188 121.095,221.618 120.186 C 228.956 117.443,231.129 116.618,232.708 115.981 C 233.698 115.582,237.074 114.287,240.210 113.105 C 243.346 111.923,247.397 110.382,249.212 109.682 C 253.952 107.854,263.043 104.373,269.017 102.099 C 270.338 101.596,271.587 101.172,271.793 101.155 C 272.090 101.132,272.168 105.330,272.168 121.230 M183.473 186.490 C 200.568 189.205,210.362 195.988,212.346 206.484 C 212.768 208.719,212.790 212.516,212.383 212.923 C 212.308 212.998,198.936 213.092,182.668 213.131 C 166.399 213.171,152.988 213.304,152.865 213.426 C 152.113 214.178,154.459 217.994,156.574 219.460 C 163.712 224.406,181.232 224.101,186.366 218.941 L 187.435 217.866 199.653 217.848 C 212.892 217.828,212.652 217.806,212.026 218.997 C 203.303 235.575,151.156 238.082,134.663 222.716 C 128.988 217.429,127.022 210.832,129.101 204.051 C 131.904 194.908,143.610 188.126,159.640 186.358 C 161.208 186.185,162.963 185.989,163.541 185.922 C 166.113 185.624,180.623 186.037,183.473 186.490 M333.233 186.469 C 352.086 188.991,363.360 197.513,363.386 209.259 C 363.417 223.662,346.740 232.865,320.630 232.855 C 294.761 232.845,278.275 224.207,277.642 210.331 C 277.016 196.639,289.710 187.945,313.278 185.924 C 316.233 185.671,330.095 186.050,333.233 186.469 M273.579 186.514 L 274.540 186.711 274.629 191.255 C 274.758 197.797,275.353 197.075,269.961 196.912 C 260.445 196.622,253.158 198.322,249.514 201.681 C 246.336 204.610,246.072 206.054,246.066 220.480 L 246.062 231.958 234.394 231.958 L 222.726 231.958 222.616 231.283 C 222.128 228.290,222.865 202.901,223.482 201.433 C 226.951 193.182,236.194 188.220,251.313 186.491 C 254.979 186.072,271.500 186.089,273.579 186.514 M59.945 194.974 L 60.025 203.151 78.020 203.151 L 96.014 203.151 96.094 194.974 L 96.174 186.797 107.446 186.699 C 116.967 186.616,118.773 186.667,119.076 187.032 C 119.347 187.359,119.415 192.807,119.357 209.635 L 119.280 231.808 107.656 231.886 L 96.033 231.965 95.953 223.034 L 95.874 214.104 77.949 214.026 L 60.024 213.949 59.944 222.878 L 59.865 231.808 48.237 231.886 L 36.609 231.965 36.609 209.302 L 36.609 186.640 48.237 186.718 L 59.865 186.797 59.945 194.974 M165.491 195.462 C 160.802 196.237,158.338 197.185,156.018 199.109 C 154.692 200.210,152.738 202.923,152.738 203.664 C 152.738 203.983,156.033 204.041,170.368 203.978 L 187.997 203.901 187.897 203.151 C 187.173 197.698,175.731 193.772,165.491 195.462 M316.129 195.657 C 304.272 197.192,298.186 205.957,302.647 215.073 C 307.966 225.946,332.825 226.145,338.136 215.357 C 344.032 203.380,332.968 193.476,316.129 195.657 M272.417 251.929 C 272.852 252.289,265.725 259.457,264.094 260.301 C 263.637 260.537,262.909 261.196,262.474 261.765 C 261.843 262.593,261.435 262.825,260.441 262.919 C 258.464 263.108,258.556 262.430,260.787 260.382 L 262.716 258.611 260.496 258.774 C 258.691 258.907,257.830 259.164,255.884 260.151 C 253.370 261.427,252.063 261.687,252.063 260.912 C 252.063 260.447,252.386 260.201,257.014 257.128 C 258.500 256.142,260.308 254.862,261.032 254.285 C 262.529 253.092,263.275 253.065,263.407 254.201 C 263.482 254.846,263.223 255.182,261.946 256.099 C 260.038 257.470,260.294 257.785,263.016 257.412 C 265.341 257.094,266.144 256.529,268.171 253.782 C 269.605 251.839,271.374 251.067,272.417 251.929 M114.382 252.888 C 113.155 254.428,108.446 258.960,106.977 260.015 C 106.317 260.489,105.366 261.341,104.865 261.907 C 104.145 262.720,103.711 262.944,102.796 262.976 C 100.739 263.047,101.045 262.458,104.726 259.272 L 105.476 258.623 103.364 258.771 C 101.162 258.925,99.167 259.555,97.735 260.545 C 97.274 260.865,96.349 261.200,95.679 261.289 C 93.725 261.552,94.262 260.564,96.945 258.965 C 98.191 258.222,99.928 257.074,100.806 256.414 C 105.441 252.929,105.429 252.935,105.918 253.848 C 106.281 254.526,105.482 255.479,103.499 256.731 C 101.906 257.737,101.984 257.801,104.588 257.632 C 107.256 257.458,108.046 257.050,109.677 255.000 C 111.884 252.229,112.501 251.763,113.961 251.763 L 115.279 251.763 114.382 252.888 M223.081 252.845 C 223.812 253.126,223.667 253.502,222.197 255.136 C 220.541 256.979,220.545 256.984,223.231 256.419 C 227.571 255.506,228.642 256.492,226.195 259.147 C 225.390 260.020,224.928 260.805,224.920 261.316 C 224.907 262.061,224.815 262.116,223.560 262.116 C 221.834 262.116,221.712 261.611,223.020 259.880 C 223.562 259.162,224.136 258.399,224.295 258.184 C 225.505 256.551,217.784 258.687,215.246 260.688 C 214.083 261.605,212.140 261.774,212.162 260.956 C 212.173 260.590,212.450 260.370,215.454 258.348 C 216.527 257.626,218.374 256.052,219.559 254.849 C 221.659 252.719,222.100 252.469,223.081 252.845 M243.893 254.432 C 244.129 255.028,243.199 255.607,242.286 255.433 C 241.332 255.250,241.075 254.660,241.522 253.678 C 241.890 252.871,243.476 253.375,243.893 254.432 M190.152 253.938 C 191.679 254.978,191.346 255.664,189.313 255.664 C 188.269 255.664,187.926 255.037,188.401 253.994 C 188.810 253.097,188.912 253.094,190.152 253.938 M117.560 256.268 C 117.614 256.554,116.705 257.330,115.097 258.368 C 112.119 260.292,112.162 260.385,115.648 259.572 C 118.604 258.883,119.528 258.463,121.706 256.819 C 122.832 255.968,123.525 255.664,124.333 255.664 C 126.091 255.664,125.785 256.552,123.526 258.013 C 120.996 259.649,120.565 260.163,121.719 260.170 C 122.662 260.175,123.576 260.620,123.271 260.925 C 122.692 261.504,119.495 261.431,118.889 260.825 C 118.302 260.238,118.196 260.229,116.676 260.646 C 112.540 261.779,108.076 261.402,109.226 260.017 C 111.042 257.828,117.319 255.004,117.560 256.268 M237.893 256.131 C 238.797 256.764,238.732 257.419,237.631 258.755 C 236.696 259.889,236.639 260.765,237.500 260.765 C 237.776 260.765,237.961 260.495,237.963 260.090 C 237.972 258.192,242.080 255.523,242.399 257.208 C 242.552 258.018,240.623 260.488,239.691 260.674 C 239.239 260.764,238.933 260.942,239.011 261.068 C 239.208 261.386,238.532 261.894,237.809 261.971 C 236.686 262.090,236.243 261.966,235.149 261.223 C 234.249 260.612,233.916 260.534,233.269 260.780 C 230.543 261.817,226.857 261.386,226.857 260.031 C 226.857 257.671,235.653 254.563,237.893 256.131 M285.071 256.264 C 285.332 256.751,285.700 256.864,287.018 256.864 C 288.768 256.864,290.042 257.292,290.301 257.966 C 290.537 258.581,289.790 258.753,288.474 258.388 C 286.147 257.742,285.382 257.931,283.889 259.526 C 282.351 261.168,281.554 261.665,280.458 261.665 C 279.207 261.665,279.275 261.146,280.704 259.777 C 281.538 258.978,282.138 258.101,282.257 257.508 C 282.584 255.873,284.426 255.058,285.071 256.264 M136.347 257.002 L 137.031 257.741 138.958 257.155 C 144.443 255.488,146.359 256.546,143.020 259.399 C 142.132 260.158,141.423 260.994,141.445 261.256 C 141.511 262.035,140.605 262.439,139.708 262.031 C 138.595 261.523,138.740 260.653,140.171 259.264 C 140.851 258.605,141.322 258.065,141.216 258.065 C 141.111 258.065,139.420 258.601,137.459 259.256 C 132.994 260.749,131.433 261.035,131.433 260.360 C 131.433 260.094,131.973 259.602,132.633 259.265 C 133.755 258.693,134.223 258.065,133.528 258.065 C 133.360 258.065,131.908 258.723,130.302 259.527 C 124.621 262.372,122.883 261.856,127.660 258.742 C 131.083 256.510,135.138 255.698,136.347 257.002 M164.320 257.016 L 165.073 257.769 166.846 257.186 C 172.211 255.425,174.246 256.478,171.043 259.358 C 170.178 260.135,169.542 260.965,169.542 261.316 C 169.542 262.507,167.354 262.508,166.977 261.317 C 166.828 260.850,167.097 260.370,168.086 259.339 C 168.805 258.590,169.190 258.047,168.942 258.132 C 160.445 261.055,156.842 261.519,160.690 259.195 C 161.433 258.746,162.041 258.245,162.041 258.081 C 162.041 257.705,161.666 257.850,157.991 259.654 C 154.623 261.308,153.038 261.729,153.038 260.969 C 153.038 260.454,153.396 260.161,156.303 258.295 C 159.312 256.364,163.069 255.765,164.320 257.016 M182.837 257.012 C 185.064 257.953,182.105 259.557,178.095 259.583 C 175.744 259.599,175.256 259.670,175.844 259.911 C 176.313 260.103,177.917 260.142,180.120 260.015 C 183.170 259.840,183.646 259.874,183.646 260.270 C 183.646 261.189,174.675 261.661,173.200 260.820 C 169.808 258.885,178.830 255.320,182.837 257.012 M196.666 256.716 C 196.933 257.078,197.209 257.108,198.048 256.866 C 200.358 256.201,202.551 256.865,202.551 258.231 C 202.551 259.128,200.004 261.365,198.983 261.365 C 197.520 261.365,197.420 260.556,198.750 259.489 C 201.123 257.585,198.878 257.622,195.297 259.545 C 190.523 262.110,187.353 261.550,191.563 258.886 C 192.242 258.456,193.195 257.690,193.680 257.184 C 194.654 256.167,196.095 255.941,196.666 256.716 M277.344 256.916 C 279.567 258.058,276.846 259.565,272.562 259.565 C 270.970 259.565,269.764 259.662,269.882 259.780 C 270.000 259.898,272.034 259.956,274.402 259.908 C 278.920 259.818,280.174 260.142,277.804 260.787 C 274.024 261.816,267.067 261.125,267.067 259.720 C 267.067 257.631,274.689 255.551,277.344 256.916 M303.826 256.944 C 306.958 258.495,305.912 260.128,301.272 260.936 C 296.237 261.812,291.073 261.182,291.073 259.692 C 291.073 257.525,300.775 255.434,303.826 256.944 M188.747 257.014 C 189.397 257.797,187.662 260.702,186.484 260.803 C 184.919 260.937,184.546 260.828,184.551 260.240 C 184.566 258.739,187.992 256.105,188.747 257.014 M234.509 257.172 C 231.037 257.710,227.612 260.184,230.383 260.152 C 231.827 260.135,233.393 259.571,234.686 258.601 C 235.248 258.179,236.015 257.741,236.388 257.628 C 236.762 257.514,236.991 257.296,236.896 257.143 C 236.707 256.836,236.668 256.837,234.509 257.172 M178.845 258.065 C 178.493 258.292,178.571 258.356,179.202 258.360 C 179.646 258.363,180.093 258.230,180.195 258.065 C 180.432 257.681,179.438 257.681,178.845 258.065 M298.425 258.061 C 292.916 258.956,293.305 260.544,298.875 259.902 C 302.285 259.509,303.837 258.869,302.851 258.261 C 302.341 257.947,299.825 257.834,298.425 258.061 " stroke="none" fill="#fbfbfb" fill-rule="evenodd"></path><path id="path3" d="M128.016 55.129 C 127.615 55.530,127.811 138.844,128.214 139.178 C 128.654 139.544,132.712 141.056,132.859 140.910 C 132.913 140.856,131.871 140.374,130.544 139.840 L 128.132 138.867 128.132 97.191 C 128.132 70.255,128.236 55.514,128.425 55.514 C 128.587 55.514,129.615 55.851,130.712 56.264 C 132.808 57.053,133.429 57.197,132.566 56.695 C 131.548 56.101,128.197 54.948,128.016 55.129 M133.258 57.139 C 133.547 57.428,140.435 60.035,140.435 59.856 C 140.435 59.686,138.822 59.002,135.802 57.891 C 133.442 57.023,133.016 56.897,133.258 57.139 M141.667 60.447 C 141.895 60.675,148.037 63.016,148.139 62.914 C 148.285 62.768,147.165 62.263,144.421 61.237 C 142.061 60.355,141.379 60.159,141.667 60.447 M148.540 63.106 C 148.800 63.387,156.291 66.318,156.701 66.299 C 156.915 66.289,155.436 65.623,153.416 64.819 C 149.523 63.270,148.291 62.838,148.540 63.106 M157.389 66.568 C 157.761 66.924,172.580 72.682,172.732 72.529 C 172.793 72.468,171.189 71.767,169.167 70.970 C 167.146 70.173,164.683 69.190,163.694 68.785 C 160.478 67.468,157.082 66.273,157.389 66.568 M173.143 72.742 C 173.143 72.937,178.016 74.747,178.158 74.605 C 178.228 74.535,177.200 74.059,175.874 73.548 C 173.428 72.605,173.143 72.521,173.143 72.742 M179.370 75.242 L 180.345 75.728 180.345 117.404 L 180.345 159.080 179.670 158.896 C 179.085 158.736,179.065 158.755,179.522 159.042 C 180.644 159.745,180.645 159.705,180.645 117.191 L 180.645 75.378 179.700 75.048 C 178.370 74.584,178.222 74.671,179.370 75.242 M133.258 141.154 C 133.466 141.351,136.931 142.749,137.734 142.961 C 138.428 143.143,138.419 143.120,137.623 142.668 C 136.466 142.010,132.832 140.750,133.258 141.154 M139.494 143.598 C 140.050 143.839,140.590 144.031,140.695 144.025 C 141.085 144.004,139.367 143.157,138.935 143.158 C 138.687 143.159,138.939 143.357,139.494 143.598 M141.335 144.311 C 142.216 144.812,154.596 149.480,154.719 149.357 C 154.788 149.288,151.824 148.063,148.132 146.634 C 142.006 144.263,140.119 143.618,141.335 144.311 M155.139 149.514 C 155.139 149.731,161.474 152.204,161.630 152.048 C 161.706 151.972,160.513 151.427,158.978 150.837 C 155.103 149.345,155.139 149.357,155.139 149.514 M162.341 152.387 C 162.588 152.540,163.128 152.756,163.541 152.866 C 164.062 153.006,164.154 152.982,163.841 152.789 C 163.593 152.636,163.053 152.420,162.641 152.310 C 162.119 152.171,162.028 152.194,162.341 152.387 M164.441 153.114 C 164.441 153.333,171.655 156.127,171.813 155.969 C 171.891 155.891,170.501 155.272,168.723 154.593 C 164.378 152.933,164.441 152.955,164.441 153.114 M172.408 156.298 C 172.565 156.441,173.098 156.699,173.593 156.872 C 174.089 157.045,175.430 157.533,176.575 157.957 C 177.720 158.380,178.708 158.676,178.771 158.613 C 178.882 158.502,172.708 156.039,172.319 156.039 C 172.211 156.039,172.251 156.156,172.408 156.298 M165.266 185.964 C 165.803 186.030,166.680 186.030,167.217 185.964 C 167.753 185.897,167.314 185.842,166.242 185.842 C 165.169 185.842,164.730 185.897,165.266 185.964 M173.676 185.967 C 174.382 186.030,175.462 186.029,176.077 185.965 C 176.691 185.900,176.114 185.848,174.794 185.849 C 173.473 185.850,172.971 185.903,173.676 185.967 M317.404 185.970 C 319.096 186.024,321.864 186.024,323.556 185.970 C 325.248 185.917,323.863 185.873,320.480 185.873 C 317.097 185.873,315.713 185.917,317.404 185.970 M161.369 186.259 C 161.742 186.331,162.282 186.328,162.569 186.253 C 162.856 186.178,162.551 186.119,161.890 186.122 C 161.230 186.126,160.996 186.187,161.369 186.259 M179.224 186.262 C 179.680 186.331,180.355 186.329,180.724 186.258 C 181.093 186.187,180.720 186.130,179.895 186.132 C 179.070 186.135,178.768 186.193,179.224 186.262 M255.589 186.264 C 256.125 186.330,257.003 186.330,257.539 186.264 C 258.076 186.197,257.637 186.143,256.564 186.143 C 255.491 186.143,255.053 186.197,255.589 186.264 M267.597 186.264 C 268.137 186.331,268.947 186.329,269.398 186.261 C 269.849 186.192,269.407 186.138,268.417 186.139 C 267.427 186.141,267.058 186.197,267.597 186.264 M310.653 186.253 C 310.941 186.329,311.414 186.329,311.703 186.253 C 311.992 186.178,311.755 186.116,311.178 186.116 C 310.600 186.116,310.364 186.178,310.653 186.253 M329.111 186.259 C 329.484 186.331,330.024 186.328,330.311 186.253 C 330.598 186.178,330.293 186.119,329.632 186.122 C 328.972 186.126,328.738 186.187,329.111 186.259 M181.920 186.553 C 182.209 186.629,182.682 186.629,182.971 186.553 C 183.260 186.478,183.023 186.416,182.446 186.416 C 181.868 186.416,181.632 186.478,181.920 186.553 M251.991 186.559 C 252.365 186.631,252.905 186.628,253.192 186.553 C 253.479 186.478,253.173 186.419,252.513 186.422 C 251.853 186.426,251.618 186.487,251.991 186.559 M271.643 186.553 C 271.932 186.629,272.404 186.629,272.693 186.553 C 272.982 186.478,272.746 186.416,272.168 186.416 C 271.590 186.416,271.354 186.478,271.643 186.553 M36.682 208.924 L 36.755 231.208 36.834 209.227 L 36.913 187.247 47.639 187.209 C 53.538 187.187,58.668 187.138,59.040 187.099 L 59.715 187.029 59.715 195.240 L 59.715 203.451 77.944 203.378 L 96.174 203.306 78.099 203.226 L 60.025 203.146 59.945 194.971 L 59.865 186.797 48.237 186.718 L 36.609 186.640 36.682 208.924 M96.139 187.079 C 96.048 187.317,96.026 187.756,96.091 188.054 C 96.164 188.393,96.267 188.231,96.364 187.622 C 96.528 186.600,96.421 186.344,96.139 187.079 M97.524 186.958 C 97.112 187.088,101.568 187.203,107.427 187.213 C 113.286 187.224,118.317 187.236,118.606 187.240 C 119.104 187.246,119.131 188.474,119.109 209.449 L 119.085 231.651 107.479 231.735 L 95.874 231.819 107.577 231.813 L 119.280 231.808 119.357 209.635 C 119.414 193.291,119.343 187.354,119.089 187.048 C 118.703 186.583,98.975 186.501,97.524 186.958 M153.598 187.244 C 150.607 187.868,147.520 188.731,147.687 188.897 C 147.750 188.960,149.148 188.687,150.795 188.291 C 152.441 187.895,154.666 187.379,155.739 187.144 C 156.812 186.909,157.352 186.714,156.939 186.711 C 156.527 186.707,155.023 186.947,153.598 187.244 M184.096 186.804 C 184.261 186.865,185.814 187.199,187.547 187.547 C 189.280 187.896,191.348 188.389,192.142 188.644 C 192.937 188.900,193.656 189.040,193.740 188.956 C 193.952 188.744,190.945 187.891,187.593 187.214 C 185.115 186.713,183.251 186.494,184.096 186.804 M248.162 186.858 C 243.717 187.623,238.383 188.971,238.668 189.256 C 238.752 189.340,239.510 189.180,240.353 188.900 C 241.195 188.620,243.871 188.010,246.299 187.544 C 249.800 186.872,251.314 186.315,248.162 186.858 M274.332 191.598 L 274.269 196.699 268.943 196.607 C 266.013 196.556,263.104 196.624,262.479 196.757 C 261.775 196.907,263.851 196.999,267.935 196.999 C 274.295 196.999,274.531 196.978,274.623 196.399 C 274.676 196.069,274.646 193.706,274.557 191.148 L 274.395 186.497 274.332 191.598 M302.812 187.268 C 292.734 189.256,282.851 194.868,280.117 200.156 C 279.418 201.508,279.744 201.234,280.994 199.419 C 284.777 193.926,292.607 189.752,303.226 187.568 C 305.536 187.092,307.022 186.706,306.527 186.708 C 306.032 186.711,304.360 186.962,302.812 187.268 M335.934 187.153 C 337.089 187.399,339.376 187.923,341.016 188.318 C 342.655 188.713,344.042 188.991,344.098 188.935 C 344.385 188.649,335.754 186.619,334.489 186.676 C 334.128 186.692,334.779 186.907,335.934 187.153 M96.153 195.799 C 96.154 199.760,96.196 201.339,96.248 199.308 C 96.300 197.276,96.300 194.036,96.248 192.106 C 96.196 190.176,96.153 191.838,96.153 195.799 M194.749 189.414 C 207.639 195.019,213.268 202.061,212.303 211.377 C 212.190 212.461,212.227 212.729,212.428 212.303 C 213.198 210.670,212.422 205.133,211.000 202.126 C 208.524 196.888,202.509 191.853,196.093 189.645 C 194.226 189.003,193.527 188.883,194.749 189.414 M344.486 189.137 C 344.486 189.208,345.330 189.573,346.362 189.946 C 360.374 195.023,366.446 206.005,361.255 216.879 C 360.049 219.404,356.109 223.855,354.678 224.310 C 354.354 224.412,354.089 224.627,354.089 224.787 C 354.089 226.120,360.204 219.895,361.489 217.254 C 366.146 207.684,362.361 197.915,351.734 192.074 C 349.064 190.606,344.486 188.751,344.486 189.137 M143.435 190.359 C 141.273 191.258,137.001 193.729,136.488 194.378 C 136.153 194.802,136.237 194.790,136.984 194.308 C 139.574 192.639,141.691 191.471,143.511 190.707 C 145.378 189.924,145.887 189.628,145.311 189.660 C 145.188 189.667,144.343 189.982,143.435 190.359 M235.069 190.484 C 234.057 190.932,232.909 191.530,232.518 191.814 C 232.128 192.098,233.023 191.776,234.509 191.098 C 235.994 190.421,237.266 189.818,237.334 189.757 C 237.691 189.444,236.706 189.760,235.069 190.484 M230.302 193.138 C 228.811 194.124,226.308 196.501,225.920 197.299 C 225.759 197.629,226.276 197.213,227.068 196.373 C 227.859 195.534,229.115 194.396,229.857 193.844 C 232.171 192.126,232.412 191.743,230.302 193.138 M169.917 194.964 C 170.371 195.032,171.114 195.032,171.568 194.964 C 172.022 194.895,171.650 194.839,170.743 194.839 C 169.835 194.839,169.464 194.895,169.917 194.964 M134.274 196.174 C 132.119 198.178,129.928 201.245,129.502 202.851 C 129.393 203.263,129.806 202.678,130.420 201.550 C 131.035 200.422,132.473 198.497,133.615 197.274 C 135.903 194.824,136.127 194.450,134.274 196.174 M164.591 195.263 C 158.802 196.064,154.321 199.016,152.507 203.226 C 151.875 204.692,152.565 204.076,153.293 202.524 C 155.049 198.782,159.016 196.487,165.461 195.486 C 166.841 195.271,167.373 195.115,166.692 195.123 C 166.032 195.132,165.086 195.195,164.591 195.263 M174.272 195.261 C 174.645 195.333,175.185 195.330,175.472 195.255 C 175.759 195.180,175.454 195.121,174.794 195.124 C 174.134 195.128,173.899 195.189,174.272 195.261 M316.129 195.353 C 306.262 196.398,300.402 202.234,301.069 210.353 C 301.519 215.826,305.245 220.493,310.278 221.886 C 310.690 222.000,310.028 221.579,308.806 220.949 C 303.269 218.097,300.525 212.815,301.562 207.008 C 302.842 199.848,308.506 196.135,319.280 195.393 C 322.357 195.181,322.599 195.134,320.630 195.132 C 319.310 195.131,317.284 195.230,316.129 195.353 M178.545 196.065 C 184.137 197.572,187.666 200.279,187.912 203.251 C 187.948 203.691,188.094 204.051,188.236 204.051 C 188.677 204.051,188.124 202.165,187.290 200.824 C 185.982 198.720,182.727 196.732,179.126 195.838 C 176.126 195.093,175.642 195.283,178.545 196.065 M325.106 195.656 C 327.617 196.058,331.120 197.054,332.505 197.761 C 333.153 198.091,333.683 198.294,333.683 198.211 C 333.683 197.465,328.182 195.676,325.342 195.498 L 323.331 195.372 325.106 195.656 M259.340 197.356 C 259.629 197.432,260.101 197.432,260.390 197.356 C 260.679 197.281,260.443 197.219,259.865 197.219 C 259.287 197.219,259.051 197.281,259.340 197.356 M257.014 197.749 C 256.250 198.078,257.039 198.078,258.065 197.749 C 258.668 197.556,258.697 197.507,258.215 197.500 C 257.884 197.496,257.344 197.608,257.014 197.749 M224.792 198.899 C 224.038 199.958,222.894 202.817,223.045 203.266 C 223.106 203.450,223.383 202.926,223.660 202.101 C 223.936 201.275,224.491 200.026,224.892 199.325 C 225.728 197.863,225.679 197.654,224.792 198.899 M253.863 198.710 C 250.501 199.991,248.046 202.011,247.101 204.274 C 246.394 205.965,246.602 206.141,247.369 204.501 C 248.539 202.001,250.721 200.271,254.581 198.785 C 255.589 198.396,256.212 198.079,255.964 198.080 C 255.716 198.080,254.771 198.364,253.863 198.710 M335.411 199.694 C 337.215 201.302,338.310 203.020,339.104 205.484 C 339.570 206.930,339.630 207.012,339.483 206.002 C 339.115 203.469,336.513 199.637,334.456 198.601 C 334.114 198.428,334.543 198.920,335.411 199.694 M278.760 202.723 C 274.901 211.727,279.545 221.667,290.090 226.967 C 293.292 228.577,293.146 228.291,289.831 226.459 C 283.312 222.857,279.668 218.700,278.274 213.274 C 277.458 210.098,278.129 203.707,279.455 202.018 C 279.620 201.808,279.672 201.553,279.570 201.451 C 279.468 201.349,279.104 201.921,278.760 202.723 M128.794 205.015 C 128.257 207.203,128.097 209.542,128.388 210.953 C 128.635 212.152,128.670 211.967,128.701 209.302 C 128.720 207.652,128.880 205.783,129.056 205.148 C 129.232 204.514,129.316 203.935,129.243 203.861 C 129.169 203.788,128.967 204.307,128.794 205.015 M245.897 220.705 C 245.897 226.482,245.937 228.802,245.986 225.862 C 246.035 222.922,246.035 218.196,245.986 215.359 C 245.937 212.523,245.896 214.929,245.897 220.705 M128.740 212.815 C 128.677 216.955,134.543 223.755,140.950 226.971 C 143.238 228.120,143.299 227.924,141.044 226.669 C 134.655 223.114,131.164 219.390,129.419 214.271 C 129.050 213.189,128.744 212.533,128.740 212.815 M339.085 213.041 C 339.085 215.111,335.739 219.119,332.671 220.726 C 331.762 221.202,331.064 221.637,331.121 221.693 C 331.310 221.883,334.122 220.325,335.327 219.363 C 337.342 217.757,339.917 213.485,339.265 212.833 C 339.166 212.734,339.085 212.828,339.085 213.041 M152.441 213.728 C 152.449 215.555,154.433 218.369,156.939 220.105 C 158.030 220.861,161.400 222.195,161.633 221.963 C 161.700 221.896,160.969 221.554,160.007 221.204 C 155.435 219.537,150.666 213.794,153.413 213.265 C 153.992 213.154,153.971 213.129,153.263 213.094 C 152.595 213.061,152.439 213.181,152.441 213.728 M59.715 222.652 L 59.715 231.651 48.087 231.735 L 36.459 231.819 48.162 231.813 L 59.865 231.808 59.944 222.878 L 60.024 213.949 77.949 214.026 L 95.874 214.104 96.031 222.806 L 96.188 231.508 96.256 223.055 C 96.293 218.406,96.242 214.389,96.142 214.128 C 95.979 213.702,94.086 213.653,77.837 213.653 L 59.715 213.653 59.715 222.652 M199.059 217.783 C 189.093 217.849,187.258 217.929,186.944 218.308 C 186.686 218.618,186.676 218.755,186.910 218.755 C 187.095 218.755,187.247 218.620,187.247 218.455 C 187.247 218.259,191.610 218.155,199.736 218.155 L 212.224 218.155 211.394 219.280 C 209.196 222.257,206.154 224.808,202.338 226.874 C 200.080 228.095,200.047 228.421,202.296 227.289 C 206.275 225.287,210.752 221.468,212.044 218.974 C 212.495 218.104,212.443 218.032,211.178 217.779 C 210.971 217.738,205.518 217.740,199.059 217.783 M185.726 219.530 C 185.509 219.791,184.446 220.469,183.364 221.038 C 182.281 221.606,181.733 221.985,182.146 221.879 C 183.829 221.449,187.460 219.055,186.430 219.055 C 186.259 219.055,185.943 219.268,185.726 219.530 M162.641 222.356 C 163.053 222.488,163.728 222.593,164.141 222.590 C 164.815 222.585,164.800 222.561,163.991 222.356 C 162.722 222.033,161.632 222.033,162.641 222.356 M179.445 222.356 C 178.851 222.546,178.820 222.596,179.295 222.596 C 179.625 222.596,180.233 222.488,180.645 222.356 C 181.239 222.165,181.270 222.115,180.795 222.115 C 180.465 222.115,179.857 222.223,179.445 222.356 M311.628 222.356 C 311.958 222.497,312.431 222.613,312.678 222.613 C 312.962 222.613,312.906 222.518,312.528 222.356 C 312.198 222.214,311.725 222.098,311.478 222.098 C 311.194 222.098,311.250 222.193,311.628 222.356 M166.242 222.954 C 167.730 223.256,175.803 223.397,176.074 223.126 C 176.168 223.032,174.432 222.955,172.218 222.953 C 170.004 222.952,167.449 222.890,166.542 222.816 L 164.891 222.681 166.242 222.954 M176.597 222.951 C 176.483 223.136,176.786 223.176,177.404 223.058 C 178.731 222.805,178.846 222.656,177.712 222.656 C 177.199 222.656,176.697 222.789,176.597 222.951 M324.531 223.013 C 323.541 223.169,321.043 223.236,318.980 223.161 C 316.176 223.060,315.494 223.101,316.279 223.324 C 317.528 223.679,325.620 223.436,326.932 223.004 C 328.142 222.605,327.092 222.609,324.531 223.013 M351.238 226.419 C 348.538 227.915,348.394 228.221,351.021 226.881 C 352.594 226.078,354.151 225.066,353.788 225.082 C 353.706 225.085,352.558 225.687,351.238 226.419 M143.306 228.034 C 143.681 228.392,149.615 230.365,150.938 230.572 L 151.988 230.736 150.938 230.394 C 150.360 230.205,148.740 229.662,147.337 229.186 C 143.499 227.885,143.000 227.743,143.306 228.034 M196.399 229.264 C 192.855 230.498,192.476 230.815,195.650 229.889 C 197.567 229.330,200.587 228.092,200.000 228.107 C 199.835 228.111,198.215 228.631,196.399 229.264 M292.873 228.179 C 292.873 228.373,297.719 230.065,298.875 230.274 C 299.452 230.379,298.372 229.925,296.474 229.265 C 292.695 227.952,292.873 228.006,292.873 228.179 M346.437 228.551 C 345.776 228.800,344.021 229.390,342.536 229.863 C 341.050 230.336,340.074 230.731,340.366 230.740 C 340.990 230.761,347.132 228.793,347.787 228.362 C 348.427 227.941,347.837 228.024,346.437 228.551 M153.642 231.146 C 153.882 231.410,158.835 232.190,162.745 232.579 C 170.042 233.305,189.165 232.326,190.215 231.172 C 190.315 231.062,189.934 231.060,189.366 231.168 C 180.366 232.886,164.415 232.883,154.539 231.161 C 153.961 231.061,153.557 231.054,153.642 231.146 M302.776 231.177 C 302.776 231.243,303.687 231.456,304.801 231.652 C 314.086 233.284,327.584 233.263,336.602 231.601 C 339.964 230.981,338.365 231.016,334.096 231.656 C 326.011 232.867,314.245 232.798,305.855 231.490 C 302.772 231.009,302.776 231.010,302.776 231.177 M228.432 231.883 C 231.692 231.931,237.026 231.931,240.285 231.883 C 243.545 231.834,240.878 231.795,234.359 231.795 C 227.839 231.795,225.173 231.834,228.432 231.883 M270.023 251.919 C 269.585 252.156,268.752 252.995,268.171 253.782 C 266.189 256.469,265.318 257.104,263.166 257.433 L 261.215 257.732 263.043 257.657 C 265.176 257.571,265.668 257.255,267.957 254.504 C 268.820 253.467,269.952 252.359,270.472 252.042 C 271.566 251.375,271.205 251.276,270.023 251.919 M269.155 255.242 C 267.605 256.823,265.522 258.767,264.526 259.561 C 263.530 260.356,262.388 261.357,261.988 261.786 C 261.459 262.353,260.968 262.562,260.188 262.551 L 259.115 262.537 261.140 260.657 C 263.682 258.298,263.673 258.244,260.782 258.442 C 258.426 258.604,256.068 259.418,254.614 260.573 C 254.284 260.835,254.980 260.574,256.160 259.992 C 257.816 259.176,258.811 258.898,260.511 258.773 L 262.716 258.611 260.794 260.375 C 258.609 262.383,258.486 263.065,260.339 262.913 C 261.256 262.838,261.785 262.541,262.740 261.566 C 263.413 260.878,264.597 259.842,265.369 259.265 C 267.098 257.973,272.346 252.741,272.130 252.525 C 272.044 252.439,270.705 253.662,269.155 255.242 M261.032 254.285 C 260.308 254.862,258.500 256.142,257.014 257.128 C 252.386 260.201,252.063 260.447,252.063 260.912 C 252.063 261.233,252.349 261.352,253.038 261.320 C 253.946 261.279,253.956 261.267,253.188 261.150 C 251.899 260.955,252.160 260.652,255.242 258.771 C 256.825 257.805,258.785 256.443,259.596 255.745 C 261.234 254.336,262.690 253.488,262.978 253.775 C 263.448 254.246,263.040 254.836,261.440 255.998 C 259.062 257.725,259.029 257.764,259.973 257.764 C 260.432 257.764,260.720 257.635,260.620 257.473 C 260.521 257.312,261.128 256.687,261.969 256.083 C 263.225 255.180,263.482 254.845,263.407 254.201 C 263.275 253.065,262.529 253.092,261.032 254.285 M284.082 255.874 C 284.445 255.944,284.821 256.249,284.917 256.550 C 285.058 256.995,285.483 257.120,287.180 257.216 C 288.660 257.299,289.424 257.488,289.796 257.863 C 290.299 258.368,290.261 258.385,288.972 258.230 C 287.678 258.075,287.664 258.081,288.634 258.384 C 289.807 258.751,290.532 258.570,290.301 257.966 C 290.042 257.292,288.768 256.864,287.018 256.864 C 285.700 256.864,285.332 256.751,285.071 256.264 C 284.884 255.914,284.473 255.681,284.085 255.705 L 283.421 255.746 284.082 255.874 M282.749 256.339 C 282.586 256.545,282.356 257.119,282.237 257.614 C 282.119 258.109,281.419 259.092,280.683 259.797 C 279.946 260.503,279.425 261.212,279.525 261.373 C 279.752 261.741,281.178 261.746,281.755 261.381 C 282.037 261.203,281.720 261.165,280.855 261.273 L 279.520 261.439 280.926 259.977 C 281.699 259.173,282.427 258.110,282.543 257.614 C 282.659 257.119,282.886 256.545,283.049 256.339 C 283.211 256.133,283.277 255.964,283.194 255.964 C 283.112 255.964,282.911 256.133,282.749 256.339 M273.518 256.497 C 271.866 256.689,268.642 257.763,268.229 258.260 C 267.903 258.654,268.059 258.631,269.020 258.145 C 272.142 256.564,277.569 256.418,277.569 257.914 C 277.569 258.735,276.259 259.099,273.068 259.163 C 271.335 259.198,269.816 259.235,269.692 259.246 C 269.569 259.256,269.467 259.457,269.467 259.691 C 269.467 260.352,270.963 260.531,274.953 260.349 C 278.116 260.204,279.133 260.547,276.219 260.776 C 275.519 260.831,275.464 260.875,275.971 260.974 C 276.887 261.152,279.130 260.505,278.898 260.130 C 278.778 259.936,277.112 259.854,274.402 259.908 C 272.034 259.956,270.000 259.898,269.882 259.780 C 269.764 259.662,270.970 259.565,272.562 259.565 C 276.070 259.565,277.869 258.998,277.869 257.892 C 277.869 256.821,275.974 256.213,273.518 256.497 M299.175 256.479 C 297.674 256.582,293.677 257.468,293.865 257.655 C 293.930 257.721,294.958 257.570,296.149 257.320 C 302.150 256.057,307.629 257.779,304.221 259.856 C 303.674 260.190,303.432 260.463,303.684 260.464 C 304.474 260.466,305.476 259.560,305.476 258.844 C 305.476 257.188,302.902 256.222,299.175 256.479 M272.623 258.056 C 272.432 258.365,274.631 258.397,275.123 258.093 C 275.338 257.960,274.913 257.851,274.135 257.839 C 273.384 257.828,272.704 257.926,272.623 258.056 M284.771 258.198 C 284.359 258.424,283.742 258.992,283.402 259.462 C 282.226 261.081,282.318 261.211,283.618 259.767 C 284.476 258.812,285.280 258.234,285.971 258.072 C 286.791 257.880,286.857 257.822,286.272 257.807 C 285.859 257.797,285.184 257.973,284.771 258.198 M298.350 257.971 C 298.638 258.047,299.111 258.047,299.400 257.971 C 299.689 257.896,299.452 257.834,298.875 257.834 C 298.297 257.834,298.061 257.896,298.350 257.971 M291.740 258.532 C 290.969 259.072,290.852 260.316,291.547 260.583 C 292.280 260.864,292.483 260.782,291.898 260.441 C 291.114 259.984,291.262 259.044,292.198 258.536 C 292.652 258.290,292.885 258.083,292.715 258.077 C 292.545 258.070,292.106 258.275,291.740 258.532 M302.884 258.569 C 302.945 259.304,300.762 259.859,297.478 259.944 C 294.574 260.019,293.852 259.788,294.807 259.090 C 295.514 258.573,295.271 258.542,294.230 259.016 C 291.452 260.282,297.927 260.932,301.875 259.784 C 303.107 259.425,304.100 258.065,303.130 258.065 C 302.972 258.065,302.861 258.292,302.884 258.569 M267.206 259.298 C 267.072 259.722,267.184 260.095,267.545 260.424 C 268.047 260.881,268.058 260.880,267.701 260.404 C 267.490 260.124,267.405 259.617,267.512 259.279 C 267.620 258.941,267.640 258.665,267.557 258.665 C 267.475 258.665,267.317 258.950,267.206 259.298 M270.743 261.284 C 271.362 261.349,272.374 261.349,272.993 261.284 C 273.612 261.219,273.106 261.166,271.868 261.166 C 270.630 261.166,270.124 261.219,270.743 261.284 M295.349 261.286 C 296.133 261.348,297.416 261.348,298.200 261.286 C 298.983 261.224,298.342 261.173,296.774 261.173 C 295.206 261.173,294.565 261.224,295.349 261.286 " stroke="none" fill="#f09d9f" fill-rule="evenodd"></path><path id="path4" d="M219.555 37.409 C 219.018 37.947,219.340 95.725,219.880 95.700 C 220.194 95.686,220.254 95.616,220.030 95.525 C 219.680 95.384,219.419 37.509,219.768 37.509 C 219.831 37.509,220.385 37.720,221.001 37.977 C 221.617 38.234,222.179 38.386,222.250 38.315 C 222.322 38.243,221.832 37.965,221.162 37.697 C 219.760 37.136,219.818 37.147,219.555 37.409 M233.458 42.687 C 233.693 42.955,238.322 44.749,238.449 44.621 C 238.512 44.559,237.651 44.153,236.536 43.720 C 233.809 42.661,233.281 42.484,233.458 42.687 M243.029 46.539 C 243.755 46.861,244.402 47.071,244.467 47.006 C 244.597 46.876,242.285 45.898,241.929 45.933 C 241.809 45.944,242.304 46.217,243.029 46.539 M249.814 49.168 C 250.475 49.475,251.352 49.813,251.764 49.919 C 252.176 50.026,251.972 49.863,251.312 49.556 C 250.651 49.250,249.773 48.912,249.361 48.805 C 248.949 48.699,249.153 48.862,249.814 49.168 M256.564 51.699 C 256.564 51.906,260.509 53.469,260.658 53.321 C 260.724 53.255,260.066 52.924,259.196 52.586 C 258.326 52.248,257.378 51.876,257.089 51.760 C 256.800 51.644,256.564 51.616,256.564 51.699 M264.091 54.734 C 264.349 54.982,268.073 56.408,268.180 56.301 C 268.242 56.239,267.408 55.834,266.326 55.401 C 264.470 54.658,263.805 54.459,264.091 54.734 M271.343 57.638 C 271.825 57.919,271.868 58.696,271.868 67.072 L 271.868 76.200 271.043 76.648 C 270.061 77.180,270.315 77.267,271.404 76.771 L 272.168 76.423 272.168 67.051 C 272.168 58.781,272.112 57.657,271.693 57.496 C 270.961 57.216,270.758 57.298,271.343 57.638 M263.820 79.264 C 262.942 79.602,262.275 79.929,262.337 79.992 C 262.450 80.104,265.600 78.982,265.841 78.743 C 266.107 78.481,265.353 78.675,263.820 79.264 M255.277 82.426 C 254.157 82.850,253.292 83.250,253.356 83.313 C 253.470 83.427,257.497 81.987,257.739 81.745 C 258.015 81.470,257.215 81.691,255.277 82.426 M247.412 85.382 C 246.661 85.743,246.637 85.785,247.262 85.632 C 248.112 85.424,249.068 84.937,248.612 84.944 C 248.447 84.946,247.907 85.143,247.412 85.382 M239.679 88.139 C 238.561 88.563,237.700 88.963,237.765 89.028 C 237.886 89.149,241.863 87.719,242.119 87.463 C 242.401 87.181,241.670 87.384,239.679 88.139 M231.577 91.140 C 230.459 91.564,229.598 91.964,229.663 92.029 C 229.784 92.149,233.761 90.720,234.017 90.464 C 234.299 90.182,233.568 90.384,231.577 91.140 M223.024 94.286 C 222.153 94.629,221.494 94.962,221.559 95.027 C 221.697 95.166,225.056 93.941,225.056 93.752 C 225.056 93.536,224.670 93.637,223.024 94.286 M270.968 101.450 C 270.616 101.696,270.665 101.723,271.193 101.575 L 271.868 101.385 271.868 121.185 C 271.868 136.744,271.788 141.018,271.493 141.137 C 271.270 141.227,271.331 141.298,271.645 141.312 C 272.144 141.334,272.168 140.250,272.095 121.330 C 272.018 101.244,271.989 100.736,270.968 101.450 M265.116 103.686 C 264.366 104.048,264.341 104.090,264.966 103.937 C 265.817 103.729,266.772 103.242,266.317 103.248 C 266.152 103.251,265.611 103.448,265.116 103.686 M258.118 106.271 C 257.240 106.608,256.573 106.936,256.636 106.998 C 256.749 107.111,259.898 105.989,260.140 105.750 C 260.405 105.488,259.651 105.682,258.118 106.271 M249.513 109.568 C 247.878 110.231,247.266 110.640,248.461 110.271 C 249.564 109.931,251.661 108.970,251.313 108.965 C 251.148 108.962,250.338 109.234,249.513 109.568 M241.477 112.600 C 240.194 113.102,239.196 113.564,239.259 113.627 C 239.392 113.761,244.261 111.936,244.261 111.752 C 244.261 111.543,243.897 111.654,241.477 112.600 M234.426 115.291 C 233.556 115.634,232.897 115.968,232.962 116.032 C 233.100 116.171,236.459 114.946,236.459 114.757 C 236.459 114.541,236.073 114.642,234.426 115.291 M226.708 118.270 C 225.072 118.933,224.461 119.342,225.655 118.973 C 226.758 118.633,228.855 117.673,228.507 117.667 C 228.342 117.664,227.532 117.936,226.708 118.270 M223.406 119.590 C 222.655 119.952,222.631 119.994,223.256 119.841 C 224.106 119.633,225.062 119.146,224.606 119.152 C 224.441 119.155,223.901 119.352,223.406 119.590 M220.016 120.886 C 219.527 121.196,220.029 121.663,221.155 121.945 L 221.905 122.134 221.155 121.773 C 220.095 121.263,220.072 121.230,220.564 120.919 C 220.807 120.765,220.870 120.639,220.705 120.639 C 220.540 120.639,220.230 120.750,220.016 120.886 M227.008 124.187 C 227.669 124.493,228.547 124.831,228.958 124.938 C 229.370 125.045,229.167 124.882,228.506 124.575 C 227.845 124.269,226.967 123.931,226.555 123.824 C 226.143 123.717,226.347 123.881,227.008 124.187 M234.810 127.188 C 235.471 127.494,236.349 127.832,236.760 127.939 C 237.172 128.046,236.969 127.882,236.308 127.576 C 235.647 127.270,234.769 126.932,234.357 126.825 C 233.945 126.718,234.149 126.881,234.810 127.188 M242.611 130.203 C 243.271 130.513,244.149 130.849,244.561 130.950 C 244.974 131.051,244.771 130.883,244.110 130.577 C 243.449 130.270,242.571 129.934,242.159 129.830 C 241.747 129.725,241.950 129.893,242.611 130.203 M250.413 133.204 C 251.073 133.514,251.950 133.850,252.363 133.951 C 252.776 134.052,252.573 133.884,251.912 133.578 C 251.251 133.271,250.373 132.935,249.961 132.831 C 249.549 132.726,249.752 132.894,250.413 133.204 M257.219 135.788 C 257.480 136.049,261.162 137.438,261.280 137.319 C 261.341 137.258,260.506 136.854,259.425 136.421 C 257.494 135.648,256.912 135.481,257.219 135.788 M264.996 138.741 C 265.257 139.036,268.950 140.453,269.090 140.312 C 269.192 140.210,268.375 139.865,265.416 138.763 C 265.086 138.640,264.897 138.630,264.996 138.741 M171.118 185.953 C 171.407 186.029,171.879 186.029,172.168 185.953 C 172.457 185.878,172.221 185.816,171.643 185.816 C 171.065 185.816,170.829 185.878,171.118 185.953 M339.771 209.002 C 339.773 209.827,339.831 210.129,339.900 209.673 C 339.969 209.217,339.967 208.542,339.896 208.173 C 339.825 207.804,339.768 208.177,339.771 209.002 M111.435 253.038 C 110.792 253.740,109.809 254.885,109.251 255.583 C 108.693 256.281,107.976 256.935,107.659 257.036 C 107.341 257.137,107.140 257.277,107.211 257.349 C 107.557 257.695,108.499 256.892,110.301 254.713 C 111.387 253.400,112.569 252.208,112.927 252.063 C 113.381 251.880,113.431 251.795,113.091 251.782 C 112.824 251.772,112.078 252.337,111.435 253.038 M114.629 252.005 C 114.629 252.138,114.019 252.901,113.274 253.701 C 112.529 254.501,111.972 255.208,112.036 255.271 C 112.194 255.429,114.929 252.365,114.929 252.031 C 114.929 251.883,114.861 251.763,114.779 251.763 C 114.696 251.763,114.629 251.872,114.629 252.005 M221.140 253.340 C 220.720 253.710,220.118 254.351,219.805 254.764 C 219.491 255.176,219.817 254.940,220.529 254.239 C 222.902 251.903,224.050 252.760,221.773 255.167 C 219.690 257.370,219.785 257.497,222.985 256.794 C 227.254 255.856,228.111 256.542,225.927 259.148 L 224.697 260.615 226.077 259.161 C 227.628 257.526,227.719 257.195,226.838 256.397 C 226.238 255.854,226.138 255.853,223.652 256.365 C 220.499 257.014,220.418 256.944,222.160 255.081 C 223.670 253.467,223.811 253.125,223.081 252.845 C 222.296 252.544,221.942 252.634,221.140 253.340 M188.439 253.879 C 188.257 254.218,188.169 254.724,188.243 255.004 C 188.352 255.416,188.385 255.398,188.417 254.914 C 188.500 253.644,188.907 253.442,189.900 254.176 C 190.408 254.552,190.741 254.994,190.640 255.158 C 190.528 255.338,190.610 255.361,190.847 255.214 C 191.137 255.035,190.973 254.752,190.218 254.126 C 188.990 253.107,188.861 253.090,188.439 253.879 M241.442 253.738 C 241.161 254.470,241.244 254.673,241.584 254.089 C 241.960 253.444,242.563 253.414,243.061 254.014 C 243.266 254.261,243.571 254.464,243.738 254.464 C 243.905 254.464,243.699 254.194,243.279 253.863 C 242.361 253.141,241.689 253.095,241.442 253.738 M241.530 255.153 C 241.670 255.293,242.240 255.361,242.798 255.303 C 243.786 255.201,243.780 255.195,242.543 255.049 C 241.846 254.967,241.390 255.014,241.530 255.153 M103.601 256.294 C 102.899 256.791,102.326 257.264,102.326 257.345 C 102.326 257.427,102.933 257.075,103.676 256.564 C 104.419 256.053,105.026 255.574,105.026 255.499 C 105.026 255.293,104.969 255.325,103.601 256.294 M116.804 255.871 C 117.459 256.042,117.461 256.207,116.815 256.991 C 116.332 257.577,116.344 257.575,117.002 256.970 C 117.743 256.287,117.634 255.641,116.786 255.699 C 116.329 255.730,116.331 255.747,116.804 255.871 M122.350 256.425 C 121.734 256.843,121.230 257.258,121.230 257.346 C 121.230 257.433,121.602 257.247,122.056 256.930 C 122.509 256.614,123.151 256.204,123.481 256.019 C 123.811 255.834,123.944 255.678,123.776 255.673 C 123.608 255.668,122.966 256.006,122.350 256.425 M124.982 256.003 C 125.107 256.331,124.841 256.758,124.174 257.303 C 123.628 257.748,123.452 257.980,123.784 257.817 C 124.886 257.275,125.585 256.297,125.166 255.882 C 124.873 255.591,124.834 255.616,124.982 256.003 M232.929 256.268 C 231.730 256.582,230.514 256.990,230.228 257.175 C 229.764 257.473,229.773 257.488,230.308 257.311 C 235.505 255.594,238.650 255.637,238.184 257.420 C 238.091 257.775,238.138 257.990,238.288 257.897 C 238.787 257.588,238.567 256.604,237.893 256.131 C 237.026 255.524,235.621 255.563,232.929 256.268 M110.111 257.089 L 109.077 258.215 110.203 257.180 C 111.250 256.218,111.466 255.964,111.237 255.964 C 111.187 255.964,110.680 256.470,110.111 257.089 M114.254 256.734 C 113.470 257.142,112.828 257.543,112.828 257.625 C 112.828 257.759,115.799 256.356,116.104 256.078 C 116.476 255.739,115.499 256.085,114.254 256.734 M217.554 256.891 L 216.504 257.802 217.779 256.993 C 218.481 256.548,219.055 256.135,219.055 256.074 C 219.055 255.769,218.500 256.071,217.554 256.891 M283.154 256.210 C 283.071 256.345,283.400 256.397,283.887 256.326 C 284.373 256.254,284.771 256.144,284.771 256.080 C 284.771 255.851,283.303 255.969,283.154 256.210 M132.633 256.714 C 130.828 257.237,131.750 257.247,133.833 256.727 C 134.741 256.500,135.146 256.317,134.734 256.319 C 134.321 256.321,133.376 256.499,132.633 256.714 M141.083 256.619 C 140.367 256.779,139.843 256.972,139.918 257.047 C 139.994 257.123,140.711 257.038,141.511 256.858 C 143.238 256.472,144.327 256.677,144.360 257.395 C 144.375 257.725,144.440 257.774,144.538 257.529 C 144.983 256.422,143.598 256.058,141.083 256.619 M160.690 256.716 L 159.190 257.131 160.540 256.931 C 162.880 256.585,163.823 256.705,164.318 257.412 C 164.570 257.771,164.896 258.065,165.044 258.065 C 165.192 258.065,165.000 257.727,164.618 257.315 C 163.738 256.365,162.589 256.190,160.690 256.716 M168.990 256.619 C 167.089 257.044,167.644 257.224,169.626 256.826 C 172.670 256.215,173.125 257.198,170.743 259.236 C 169.898 259.958,169.242 260.773,169.242 261.101 C 169.242 261.855,168.573 262.101,167.690 261.672 C 167.024 261.348,167.019 261.354,167.574 261.799 C 168.520 262.557,169.542 262.169,169.542 261.052 C 169.542 260.781,170.218 259.990,171.043 259.294 C 173.740 257.019,172.783 255.772,168.990 256.619 M193.945 256.952 C 193.644 257.331,192.791 258.058,192.048 258.568 C 189.646 260.217,188.907 261.750,190.741 261.278 C 191.185 261.164,191.155 261.128,190.598 261.100 C 189.623 261.052,189.897 260.498,191.471 259.336 C 192.201 258.798,193.266 257.954,193.838 257.461 C 194.952 256.501,196.249 256.260,196.249 257.014 C 196.249 257.288,196.514 257.455,196.924 257.441 C 197.374 257.425,197.449 257.360,197.149 257.247 C 196.902 257.153,196.591 256.894,196.459 256.670 C 196.070 256.011,194.558 256.181,193.945 256.952 M136.108 257.230 C 136.425 257.679,136.875 258.050,137.109 258.055 C 137.343 258.060,137.478 258.031,137.409 257.989 C 137.341 257.948,136.890 257.577,136.408 257.164 L 135.532 256.414 136.108 257.230 M177.644 256.855 C 177.220 256.986,177.871 257.025,179.145 256.945 C 181.545 256.795,183.046 257.161,183.046 257.896 C 183.046 258.749,181.764 259.102,178.502 259.146 C 175.318 259.189,174.480 259.357,174.807 259.886 C 175.038 260.261,175.563 260.243,175.469 259.863 C 175.423 259.678,176.621 259.533,178.559 259.488 C 181.941 259.410,183.487 258.867,183.287 257.828 C 183.077 256.742,179.828 256.182,177.644 256.855 M187.363 257.045 C 186.813 257.490,186.814 257.495,187.389 257.209 C 187.766 257.022,188.175 257.019,188.514 257.200 C 188.807 257.357,189.047 257.418,189.047 257.335 C 189.047 256.828,187.880 256.627,187.363 257.045 M200.049 256.843 C 200.736 256.956,201.485 257.175,201.714 257.331 C 201.942 257.487,201.871 257.378,201.556 257.089 C 201.207 256.769,200.558 256.579,199.892 256.602 L 198.800 256.639 200.049 256.843 M234.659 256.867 C 234.151 257.042,234.418 257.070,235.484 256.956 C 236.933 256.800,237.625 257.134,236.752 257.567 C 236.583 257.651,236.616 257.685,236.827 257.642 C 237.037 257.599,237.209 257.373,237.209 257.139 C 237.209 256.639,235.772 256.486,234.659 256.867 M240.550 256.799 C 240.470 256.929,240.753 257.030,241.178 257.024 C 242.325 257.009,242.299 257.493,241.067 259.137 C 240.285 260.180,240.183 260.412,240.721 259.924 C 241.965 258.796,242.711 257.206,242.160 256.857 C 241.611 256.511,240.748 256.480,240.550 256.799 M127.532 258.893 C 124.944 260.640,124.556 261.171,125.795 261.271 C 126.240 261.307,126.297 261.273,125.956 261.174 C 125.668 261.090,125.431 260.914,125.431 260.782 C 125.431 260.470,129.903 257.575,130.683 257.382 L 131.283 257.234 130.683 257.203 C 130.353 257.185,128.935 257.946,127.532 258.893 M224.347 257.614 C 224.457 257.900,224.243 258.424,223.819 258.905 L 223.106 259.715 223.931 258.987 C 224.784 258.235,224.974 257.635,224.460 257.316 C 224.287 257.210,224.240 257.335,224.347 257.614 M96.774 259.072 C 94.477 260.483,93.900 261.386,95.327 261.335 C 96.160 261.306,96.162 261.302,95.435 261.099 L 94.696 260.893 95.735 260.127 C 96.307 259.705,97.281 259.058,97.899 258.688 C 98.518 258.318,99.025 257.959,99.025 257.890 C 99.025 257.692,98.989 257.711,96.774 259.072 M110.838 258.796 C 109.243 259.870,108.718 260.600,109.287 260.952 C 109.477 261.070,109.536 261.022,109.425 260.842 C 109.236 260.536,110.406 259.354,111.935 258.305 C 112.344 258.025,112.609 257.789,112.524 257.780 C 112.439 257.772,111.681 258.229,110.838 258.796 M133.659 258.032 C 134.161 258.229,134.069 258.368,132.925 259.136 C 131.514 260.084,131.287 260.573,132.204 260.688 C 132.772 260.759,132.773 260.756,132.208 260.516 C 131.699 260.300,131.784 260.170,132.935 259.393 C 134.468 258.359,134.787 257.755,133.783 257.786 C 133.156 257.804,133.143 257.830,133.659 258.032 M141.157 258.019 C 141.243 258.158,140.902 258.665,140.399 259.144 C 139.005 260.470,138.794 261.013,139.407 261.690 C 139.955 262.295,140.883 262.455,141.168 261.993 C 141.260 261.844,141.065 261.792,140.734 261.879 C 138.988 262.335,139.041 260.920,140.840 259.040 C 141.758 258.081,141.929 257.764,141.530 257.764 C 141.238 257.764,141.071 257.879,141.157 258.019 M155.064 259.134 C 153.012 260.478,152.448 261.396,153.713 261.331 C 154.222 261.304,154.259 261.262,153.863 261.158 C 152.986 260.929,153.257 260.558,155.132 259.419 C 156.118 258.820,157.004 258.202,157.100 258.047 C 157.351 257.641,157.298 257.670,155.064 259.134 M162.031 258.140 C 162.026 258.346,161.410 258.886,160.663 259.339 C 159.283 260.177,159.139 260.790,160.333 260.735 C 160.937 260.708,160.930 260.688,160.240 260.495 C 159.518 260.292,159.544 260.252,160.915 259.446 C 161.699 258.985,162.341 258.418,162.341 258.186 C 162.341 257.665,162.044 257.620,162.031 258.140 M169.048 257.971 C 169.162 258.084,168.754 258.689,168.143 259.315 C 167.531 259.942,167.089 260.497,167.161 260.550 C 167.233 260.603,167.885 259.998,168.610 259.206 C 169.619 258.101,169.800 257.764,169.385 257.764 C 169.086 257.764,168.935 257.857,169.048 257.971 M187.715 259.340 C 187.012 260.295,186.839 260.656,187.276 260.258 C 187.931 259.661,189.226 257.764,188.978 257.764 C 188.922 257.764,188.353 258.473,187.715 259.340 M214.179 259.268 C 212.289 260.662,211.716 261.365,212.471 261.365 C 212.646 261.365,212.711 261.239,212.615 261.085 C 212.520 260.930,213.322 260.176,214.398 259.408 C 216.078 258.209,216.606 257.749,216.279 257.769 C 216.238 257.771,215.293 258.446,214.179 259.268 M260.474 258.077 C 261.041 258.435,262.780 258.447,262.998 258.093 C 263.090 257.944,262.461 257.817,261.600 257.810 C 260.523 257.802,260.171 257.885,260.474 258.077 M122.122 258.559 C 120.869 259.393,120.208 260.465,120.948 260.465 C 121.123 260.465,121.189 260.341,121.095 260.189 C 121.001 260.037,121.429 259.497,122.046 258.989 C 123.265 257.984,123.303 257.773,122.122 258.559 M199.050 259.184 C 198.528 259.724,198.199 260.165,198.319 260.165 C 198.598 260.165,200.299 258.399,200.128 258.287 C 200.058 258.241,199.573 258.645,199.050 259.184 M229.932 258.699 C 228.910 259.354,228.579 259.794,229.482 259.297 C 230.171 258.919,231.249 258.085,231.058 258.079 C 230.975 258.077,230.469 258.356,229.932 258.699 M103.963 258.588 L 105.451 258.703 103.363 260.623 C 101.147 262.663,101.079 263.156,103.045 262.926 C 103.821 262.836,104.313 262.500,105.048 261.561 L 106.022 260.315 104.849 261.416 C 103.821 262.380,102.912 262.739,101.875 262.589 C 101.710 262.565,102.588 261.609,103.826 260.465 L 106.077 258.385 104.276 258.429 C 102.500 258.472,102.496 258.474,103.963 258.588 M107.277 259.448 L 106.077 260.522 107.427 259.535 C 108.170 258.993,108.833 258.507,108.902 258.457 C 108.971 258.406,108.903 258.367,108.752 258.369 C 108.601 258.372,107.937 258.857,107.277 259.448 M113.173 259.267 C 111.673 260.354,111.645 260.474,112.903 260.435 C 113.791 260.408,113.812 260.387,113.139 260.199 C 112.408 259.995,112.412 259.986,113.514 259.304 C 114.497 258.697,114.854 258.365,114.524 258.365 C 114.466 258.365,113.858 258.771,113.173 259.267 M142.449 259.595 L 141.185 260.826 142.611 259.682 C 143.395 259.052,144.036 258.499,144.036 258.451 C 144.036 258.168,143.566 258.507,142.449 259.595 M158.065 259.284 C 157.116 259.774,156.339 260.242,156.339 260.324 C 156.339 260.458,159.910 258.758,160.215 258.479 C 160.608 258.119,159.563 258.510,158.065 259.284 M195.874 258.836 C 194.711 259.467,194.842 259.685,196.024 259.084 C 197.155 258.509,197.355 258.360,196.974 258.377 C 196.823 258.383,196.328 258.590,195.874 258.836 M227.324 259.032 C 226.804 259.774,226.713 260.641,227.129 260.898 C 227.278 260.990,227.330 260.796,227.244 260.466 C 227.158 260.136,227.308 259.528,227.579 259.115 C 228.187 258.187,227.966 258.114,227.324 259.032 M238.574 259.100 C 238.194 259.504,237.961 260.035,238.055 260.281 C 238.158 260.549,238.022 260.781,237.718 260.862 C 237.323 260.966,237.343 260.997,237.809 261.001 C 238.140 261.003,238.747 260.897,239.160 260.765 L 239.910 260.525 239.085 260.495 C 238.091 260.459,238.035 259.993,238.912 259.059 C 239.271 258.677,239.497 258.365,239.414 258.365 C 239.332 258.365,238.954 258.695,238.574 259.100 M99.475 259.239 C 98.815 259.547,98.005 260.028,97.674 260.308 C 97.330 260.600,97.563 260.534,98.222 260.153 C 98.853 259.787,99.933 259.312,100.622 259.097 C 101.312 258.881,101.605 258.699,101.275 258.691 C 100.945 258.684,100.135 258.930,99.475 259.239 M118.479 258.815 C 118.397 258.897,117.328 259.223,116.104 259.539 C 114.880 259.855,114.086 260.125,114.341 260.139 C 114.959 260.174,118.178 259.327,118.792 258.968 C 119.060 258.811,119.134 258.679,118.955 258.674 C 118.776 258.669,118.562 258.732,118.479 258.815 M129.332 259.715 C 128.260 260.277,127.487 260.743,127.615 260.751 C 127.934 260.771,131.433 258.992,131.433 258.810 C 131.433 258.609,131.503 258.578,129.332 259.715 M136.140 259.320 C 135.181 259.654,134.449 259.980,134.513 260.044 C 134.577 260.108,135.564 259.834,136.707 259.435 C 137.850 259.036,138.582 258.710,138.335 258.711 C 138.087 258.711,137.100 258.986,136.140 259.320 M172.671 259.398 C 172.466 260.215,172.695 260.768,173.236 260.761 C 173.470 260.758,173.449 260.665,173.178 260.493 C 172.903 260.318,172.828 259.965,172.958 259.447 C 173.066 259.017,173.087 258.665,173.005 258.665 C 172.922 258.665,172.772 258.995,172.671 259.398 M200.935 259.866 C 200.338 260.526,199.850 261.161,199.850 261.276 C 199.850 261.391,199.952 261.357,200.076 261.200 C 200.200 261.044,200.767 260.409,201.335 259.790 C 201.903 259.171,202.290 258.665,202.194 258.665 C 202.099 258.665,201.532 259.205,200.935 259.866 M216.489 259.539 C 215.656 260.017,214.781 260.657,214.544 260.962 C 214.131 261.493,214.139 261.494,214.727 260.995 C 215.065 260.709,216.075 260.070,216.973 259.575 C 217.870 259.080,218.470 258.674,218.305 258.673 C 218.140 258.671,217.323 259.061,216.489 259.539 M234.203 258.973 C 234.098 259.143,233.584 259.479,233.060 259.720 C 232.344 260.050,232.294 260.115,232.858 259.981 C 233.541 259.818,235.062 258.665,234.593 258.665 C 234.484 258.665,234.308 258.804,234.203 258.973 M236.929 259.242 C 236.642 259.560,236.470 260.067,236.548 260.368 C 236.679 260.874,236.692 260.872,236.724 260.339 C 236.744 260.022,236.983 259.515,237.256 259.213 C 237.529 258.912,237.685 258.665,237.602 258.665 C 237.520 258.665,237.217 258.925,236.929 259.242 M164.441 259.265 C 164.041 259.523,164.041 259.556,164.441 259.556 C 164.689 259.556,165.094 259.425,165.341 259.265 C 165.741 259.006,165.741 258.974,165.341 258.974 C 165.094 258.974,164.689 259.105,164.441 259.265 M185.043 259.514 C 184.480 260.136,184.390 260.765,184.864 260.765 C 185.039 260.765,185.093 260.622,184.985 260.446 C 184.876 260.271,185.024 259.866,185.313 259.546 C 185.603 259.226,185.772 258.965,185.689 258.965 C 185.607 258.965,185.316 259.212,185.043 259.514 M176.977 260.385 C 177.683 260.449,178.763 260.448,179.378 260.383 C 179.992 260.319,179.415 260.267,178.095 260.268 C 176.774 260.269,176.271 260.322,176.977 260.385 M229.632 260.380 C 230.086 260.449,230.829 260.449,231.283 260.380 C 231.737 260.311,231.365 260.255,230.458 260.255 C 229.550 260.255,229.179 260.311,229.632 260.380 M224.524 261.215 C 224.632 262.004,222.497 262.297,222.261 261.526 C 222.151 261.166,222.128 261.180,222.164 261.585 C 222.198 261.974,222.520 262.141,223.373 262.211 C 224.761 262.325,225.260 261.955,224.780 261.169 C 224.458 260.643,224.445 260.645,224.524 261.215 M273.447 260.981 C 273.904 261.049,274.579 261.048,274.948 260.976 C 275.317 260.905,274.944 260.849,274.119 260.851 C 273.293 260.853,272.991 260.912,273.447 260.981 M110.646 261.282 C 111.179 261.348,112.124 261.349,112.746 261.284 C 113.369 261.219,112.933 261.165,111.778 261.164 C 110.623 261.162,110.113 261.216,110.646 261.282 M119.955 261.277 C 120.326 261.349,120.934 261.349,121.305 261.277 C 121.677 261.206,121.373 261.147,120.630 261.147 C 119.887 261.147,119.584 261.206,119.955 261.277 M176.369 261.282 C 176.905 261.349,177.783 261.349,178.320 261.282 C 178.856 261.216,178.417 261.161,177.344 261.161 C 176.272 261.161,175.833 261.216,176.369 261.282 M238.763 261.262 C 238.655 261.370,238.058 261.557,237.438 261.678 C 236.370 261.885,236.358 261.898,237.227 261.931 C 237.732 261.950,238.407 261.767,238.727 261.525 C 239.048 261.283,239.231 261.080,239.135 261.075 C 239.039 261.070,238.871 261.154,238.763 261.262 " stroke="none" fill="#979696" fill-rule="evenodd"></path></g></svg>