<svg id="svg" version="1.1" xmlns="http://www.w3.org/2000/svg" xmlns:xlink="http://www.w3.org/1999/xlink" width="400" height="400" viewBox="0, 0, 400,400"><g id="svgg"><path id="path0" d="M266.767 39.366 C 266.675 39.457,264.710 39.741,262.400 39.996 C 256.073 40.695,246.621 42.516,241.800 43.964 C 241.140 44.162,239.250 44.725,237.600 45.215 C 224.792 49.017,205.704 57.231,197.190 62.606 C 196.324 63.153,195.532 63.600,195.429 63.600 C 194.909 63.600,184.824 69.940,181.402 72.419 C 176.661 75.853,175.570 76.764,166.054 85.239 C 139.513 108.876,114.694 143.831,100.899 177.000 C 100.350 178.320,99.676 179.940,99.400 180.600 C 70.212 250.528,93.117 309.275,150.274 311.082 L 157.148 311.299 157.802 309.750 C 158.162 308.897,158.817 307.120,159.257 305.800 C 159.697 304.480,160.209 303.040,160.395 302.600 C 160.580 302.160,161.041 300.810,161.418 299.600 C 161.795 298.390,162.327 296.770,162.600 296.000 C 163.943 292.213,167.904 278.716,168.822 274.800 C 169.002 274.030,169.709 271.240,170.392 268.600 C 171.853 262.953,172.757 259.216,173.198 257.000 C 176.181 242.013,177.165 235.794,177.982 226.777 C 179.877 205.830,176.798 199.225,165.125 199.206 C 158.898 199.195,153.136 200.992,143.800 205.857 C 131.484 212.273,126.751 206.197,135.194 194.809 C 144.717 181.962,193.440 146.418,209.200 140.820 C 217.595 137.838,229.707 138.362,236.200 141.987 C 241.861 145.147,244.400 149.345,244.400 155.542 C 244.400 159.309,244.197 160.039,239.533 173.000 C 238.900 174.760,238.020 177.280,237.577 178.600 C 237.135 179.920,236.602 181.360,236.393 181.800 C 236.185 182.240,235.385 184.490,234.617 186.800 C 233.848 189.110,232.124 194.150,230.786 198.000 C 229.447 201.850,228.200 205.540,228.016 206.200 C 227.831 206.860,226.767 210.190,225.651 213.600 C 224.535 217.010,223.056 221.600,222.365 223.800 C 221.674 226.000,220.963 228.250,220.786 228.800 C 220.609 229.350,220.163 230.880,219.796 232.200 C 219.428 233.520,218.897 235.320,218.614 236.200 C 218.332 237.080,217.785 238.970,217.400 240.400 C 217.015 241.830,216.466 243.720,216.181 244.600 C 215.896 245.480,215.181 248.090,214.592 250.400 C 214.003 252.710,213.286 255.410,212.998 256.400 C 212.486 258.157,211.907 260.517,210.591 266.200 C 210.234 267.740,209.785 269.630,209.592 270.400 C 208.459 274.926,206.289 286.626,205.586 292.000 C 204.712 298.672,204.633 300.551,205.236 300.295 C 210.136 298.210,212.411 297.152,217.444 294.623 C 243.897 281.327,269.573 261.304,292.360 236.200 C 297.779 230.230,299.091 228.703,304.049 222.600 C 319.564 203.500,333.894 179.361,341.568 159.400 C 342.498 156.980,343.516 154.409,343.830 153.686 C 344.143 152.964,344.400 152.181,344.400 151.947 C 344.400 151.713,344.639 150.954,344.930 150.260 C 351.004 135.823,351.234 110.301,345.480 89.200 C 344.279 84.796,341.265 77.211,339.721 74.708 C 339.214 73.887,338.800 73.097,338.800 72.951 C 338.800 72.514,335.604 67.569,333.661 65.000 C 330.214 60.441,321.214 51.955,319.072 51.243 C 318.813 51.157,318.061 50.707,317.401 50.243 C 315.751 49.082,313.409 47.777,310.800 46.563 C 308.838 45.651,307.889 45.233,305.000 44.006 C 304.560 43.820,303.840 43.571,303.400 43.453 C 302.960 43.336,301.340 42.872,299.800 42.423 C 291.355 39.960,268.312 37.828,266.767 39.366 M267.138 63.851 C 281.602 68.012,282.123 85.281,268.341 103.739 C 264.561 108.801,254.637 118.000,252.955 118.000 C 252.794 118.000,252.379 118.253,252.031 118.563 C 250.554 119.879,242.874 123.358,239.094 124.423 C 214.681 131.302,207.064 109.153,225.401 84.610 C 236.054 70.352,255.727 60.567,267.138 63.851 " stroke="none" fill="#b52e32" fill-rule="evenodd"></path><path id="path1" d="M179.000 73.737 C 178.340 74.247,176.270 75.716,174.400 77.001 C 145.945 96.557,115.964 127.516,94.605 159.400 C 90.258 165.889,83.600 176.546,83.600 177.014 C 83.600 177.109,82.854 178.404,81.942 179.893 C 80.387 182.431,71.983 198.834,70.912 201.422 C 70.644 202.070,69.679 204.310,68.767 206.400 C 66.780 210.959,63.506 219.456,62.141 223.600 C 61.597 225.250,60.997 226.960,60.807 227.400 C 60.617 227.840,60.161 229.280,59.794 230.600 C 59.428 231.920,58.886 233.720,58.591 234.600 C 58.128 235.977,56.381 243.020,55.217 248.200 C 51.290 265.666,50.447 285.982,53.050 300.400 C 54.227 306.918,56.814 316.462,57.653 317.380 C 57.844 317.589,58.004 318.039,58.008 318.380 C 58.022 319.432,62.619 328.241,65.011 331.800 C 76.011 348.161,93.912 358.411,115.444 360.675 C 129.135 362.114,146.439 341.950,156.569 312.749 L 157.073 311.298 150.236 311.081 C 103.052 309.588,78.316 270.071,89.468 214.000 C 91.615 203.204,95.702 189.460,99.400 180.600 C 99.676 179.940,100.350 178.320,100.899 177.000 C 114.685 143.851,139.444 108.973,166.039 85.239 C 170.130 81.587,174.630 77.667,176.039 76.526 C 177.447 75.386,179.050 74.087,179.600 73.640 C 180.985 72.514,180.475 72.597,179.000 73.737 M349.293 111.200 C 349.293 111.970,349.375 112.285,349.476 111.900 C 349.576 111.515,349.576 110.885,349.476 110.500 C 349.375 110.115,349.293 110.430,349.293 111.200 M347.232 143.000 C 347.199 143.827,345.862 148.046,344.930 150.260 C 344.639 150.954,344.400 151.713,344.400 151.947 C 344.400 152.181,344.143 152.964,343.830 153.686 C 343.516 154.409,342.498 156.980,341.568 159.400 C 333.894 179.361,319.564 203.500,304.049 222.600 C 299.091 228.703,297.779 230.230,292.360 236.200 C 266.923 264.223,236.123 287.140,207.515 299.330 L 204.863 300.460 204.575 303.526 C 203.604 313.895,205.805 323.093,210.078 326.519 C 212.942 328.815,219.730 328.412,223.695 325.711 C 258.102 302.261,296.935 260.309,316.138 225.843 C 316.764 224.719,317.864 222.810,318.582 221.600 C 321.045 217.452,329.600 200.834,329.600 200.199 C 329.600 200.092,330.410 198.283,331.400 196.178 C 332.390 194.074,333.200 192.180,333.200 191.971 C 333.200 191.761,333.371 191.277,333.581 190.895 C 334.070 190.002,335.404 186.697,337.090 182.200 C 337.420 181.320,337.934 179.970,338.233 179.200 C 338.531 178.430,339.507 175.460,340.401 172.600 C 341.295 169.740,342.282 166.590,342.594 165.600 C 344.316 160.132,347.839 143.644,347.478 142.739 C 347.345 142.406,347.251 142.506,347.232 143.000 " stroke="none" fill="#f4851f" fill-rule="evenodd"></path><path id="path2" d="M0.000 200.000 L 0.000 400.000 200.000 400.000 L 400.000 400.000 400.000 200.000 L 400.000 0.000 200.000 0.000 L 0.000 0.000 0.000 200.000 M286.200 38.858 C 287.520 39.057,289.804 39.383,291.276 39.583 C 292.748 39.783,294.311 40.138,294.750 40.373 C 295.188 40.608,296.048 40.800,296.660 40.800 C 297.272 40.800,298.499 41.048,299.387 41.350 C 300.274 41.653,301.990 42.218,303.200 42.606 C 304.410 42.994,305.571 43.467,305.780 43.656 C 305.989 43.845,306.480 44.000,306.871 44.000 C 307.884 44.000,316.079 48.304,319.400 50.579 C 329.842 57.734,338.314 68.163,342.976 79.600 C 343.559 81.030,344.204 82.560,344.409 83.000 C 346.201 86.840,348.647 97.241,349.772 105.800 C 350.479 111.174,350.622 129.532,349.985 133.000 C 349.783 134.100,349.515 135.900,349.389 137.000 C 349.264 138.100,348.907 140.440,348.596 142.200 C 348.285 143.960,347.833 146.570,347.592 148.000 C 345.471 160.576,338.829 181.565,332.593 195.400 C 332.097 196.500,331.289 198.300,330.796 199.400 C 327.762 206.183,320.963 219.222,317.552 224.800 C 316.947 225.790,315.718 227.860,314.822 229.400 C 312.811 232.855,313.190 232.265,307.368 240.991 C 301.909 249.172,297.297 255.501,291.476 262.800 C 284.918 271.021,280.072 276.506,270.456 286.592 C 266.412 290.832,263.975 293.199,254.200 302.384 C 251.325 305.085,244.943 310.530,240.800 313.817 C 239.150 315.126,237.710 316.296,237.600 316.418 C 237.122 316.949,227.882 323.681,224.600 325.890 C 215.214 332.210,207.300 329.178,204.522 318.200 C 203.685 314.889,203.600 298.890,204.396 294.400 C 204.650 292.970,205.010 290.540,205.197 289.000 C 205.604 285.638,206.541 280.691,208.265 272.800 C 208.577 271.370,209.025 269.300,209.261 268.200 C 209.497 267.100,209.940 265.356,210.245 264.325 C 210.550 263.294,210.800 262.082,210.800 261.633 C 210.800 261.184,211.047 260.138,211.348 259.308 C 211.649 258.479,212.206 256.450,212.584 254.800 C 212.962 253.150,213.410 251.350,213.580 250.800 C 213.749 250.250,214.195 248.720,214.572 247.400 C 214.949 246.080,215.495 244.190,215.787 243.200 C 216.078 242.210,216.622 240.320,216.994 239.000 C 217.366 237.680,218.103 235.160,218.631 233.400 C 219.158 231.640,219.860 229.300,220.190 228.200 C 220.519 227.100,221.302 224.580,221.930 222.600 C 222.557 220.620,223.568 217.380,224.176 215.400 C 224.784 213.420,225.507 211.170,225.784 210.400 C 226.627 208.053,227.190 206.365,228.455 202.400 C 229.122 200.310,229.922 198.009,230.234 197.286 C 230.545 196.564,230.800 195.781,230.800 195.547 C 230.800 195.313,231.043 194.554,231.339 193.860 C 231.636 193.167,232.192 191.610,232.575 190.400 C 232.959 189.190,233.373 187.930,233.495 187.600 C 234.271 185.512,236.172 180.173,236.985 177.800 C 237.512 176.260,238.510 173.470,239.202 171.600 C 239.895 169.730,240.552 167.840,240.664 167.400 C 240.776 166.960,241.027 166.240,241.223 165.800 C 247.249 152.248,242.215 142.632,227.800 140.164 C 218.393 138.553,208.540 140.814,198.800 146.817 C 198.470 147.020,195.803 148.638,192.873 150.411 C 187.884 153.431,178.286 159.797,174.540 162.571 C 173.628 163.247,172.458 164.105,171.940 164.477 C 141.155 186.632,126.779 202.141,132.700 206.809 C 134.847 208.502,137.970 207.877,145.200 204.311 C 150.877 201.510,152.741 200.759,158.000 199.150 C 167.384 196.281,176.882 200.271,178.531 207.778 C 179.997 214.451,178.885 233.437,176.391 244.306 C 176.176 245.244,176.000 246.474,176.000 247.040 C 176.000 247.606,175.738 249.178,175.418 250.534 C 175.097 251.890,174.541 254.440,174.181 256.200 C 173.587 259.101,172.989 261.653,171.978 265.600 C 171.780 266.370,171.337 268.170,170.992 269.600 C 170.385 272.121,169.938 273.803,168.653 278.400 C 168.315 279.610,167.745 281.680,167.387 283.000 C 167.029 284.320,166.596 285.850,166.424 286.400 C 166.253 286.950,165.798 288.480,165.413 289.800 C 165.027 291.120,164.480 292.830,164.196 293.600 C 163.912 294.370,163.317 296.170,162.873 297.600 C 161.773 301.144,158.730 309.711,157.616 312.400 C 157.114 313.610,156.447 315.230,156.133 316.000 C 155.818 316.770,155.390 317.713,155.181 318.095 C 154.971 318.477,154.800 318.958,154.800 319.165 C 154.800 320.182,148.500 333.068,145.713 337.751 C 144.551 339.704,143.600 341.378,143.600 341.471 C 143.600 342.136,136.226 351.244,133.947 353.395 C 130.312 356.824,124.625 360.400,122.808 360.400 C 122.568 360.400,121.912 360.701,121.350 361.070 C 119.988 361.962,109.295 361.062,104.738 359.671 C 104.002 359.446,102.320 358.970,101.000 358.612 C 99.680 358.254,97.880 357.678,97.000 357.332 C 96.120 356.987,95.040 356.569,94.600 356.403 C 78.925 350.502,61.992 333.671,57.574 319.600 C 57.401 319.050,56.871 317.610,56.395 316.400 C 55.489 314.093,55.352 313.646,54.066 308.800 C 50.498 295.346,49.797 273.702,52.454 259.000 C 52.693 257.680,53.042 255.520,53.232 254.200 C 53.535 252.084,54.154 248.979,55.187 244.400 C 57.361 234.758,62.157 220.166,66.822 209.000 C 67.559 207.237,68.864 204.154,69.193 203.400 C 70.427 200.571,77.826 185.643,79.304 183.000 C 80.288 181.240,81.571 178.949,82.155 177.909 C 106.360 134.767,145.696 93.534,187.809 67.159 C 189.354 66.192,190.974 65.175,191.409 64.899 C 191.844 64.624,192.560 64.224,193.000 64.010 C 193.440 63.797,194.700 63.088,195.800 62.436 C 199.178 60.431,209.320 55.216,213.000 53.591 C 214.100 53.106,215.917 52.279,217.039 51.754 C 218.160 51.229,219.270 50.800,219.506 50.800 C 219.742 50.800,220.445 50.541,221.068 50.224 C 222.938 49.274,225.092 48.400,225.566 48.400 C 225.811 48.400,226.323 48.238,226.705 48.041 C 227.719 47.517,232.420 45.814,234.600 45.181 C 235.260 44.990,236.790 44.541,238.000 44.185 C 243.883 42.452,249.058 41.200,251.845 40.835 C 253.191 40.659,254.530 40.367,254.822 40.186 C 255.115 40.006,256.894 39.698,258.777 39.503 C 260.660 39.309,263.280 39.005,264.600 38.829 C 267.876 38.392,283.240 38.412,286.200 38.858 M259.400 64.227 C 259.180 64.318,257.920 64.554,256.600 64.752 C 254.454 65.075,253.284 65.401,250.600 66.425 C 219.838 78.163,203.233 119.954,227.502 124.558 C 230.743 125.172,236.723 124.696,239.400 123.609 C 239.840 123.431,241.100 122.969,242.200 122.582 C 257.326 117.272,274.084 99.612,276.534 86.400 C 276.677 85.630,276.967 84.190,277.179 83.200 C 279.185 73.840,274.636 66.146,266.080 64.426 C 264.015 64.011,260.203 63.898,259.400 64.227 " stroke="none" fill="#fbfbfb" fill-rule="evenodd"></path><path id="path3" d="M263.226 39.238 C 260.124 39.776,260.104 40.156,263.200 39.745 C 266.389 39.322,284.171 39.287,287.200 39.699 C 289.092 39.955,289.232 39.933,288.200 39.537 C 286.678 38.952,266.279 38.708,263.226 39.238 M255.925 40.208 C 255.810 40.323,254.295 40.682,252.558 41.007 C 247.841 41.888,245.578 42.365,244.221 42.766 C 243.549 42.964,241.920 43.427,240.600 43.795 C 237.586 44.635,230.863 46.745,229.800 47.184 C 229.360 47.366,228.100 47.819,227.000 48.191 C 225.900 48.563,224.460 49.111,223.800 49.410 C 223.140 49.708,221.160 50.524,219.400 51.222 C 214.128 53.314,204.522 57.879,204.159 58.466 C 204.039 58.660,205.349 58.115,207.070 57.255 C 209.833 55.875,211.685 55.010,216.200 52.995 C 217.263 52.520,218.845 51.859,221.400 50.821 C 221.840 50.642,223.010 50.185,224.000 49.804 C 224.990 49.424,226.250 48.933,226.800 48.714 C 228.260 48.132,237.069 45.212,239.400 44.538 C 244.523 43.055,254.106 40.972,258.400 40.407 L 260.600 40.118 258.367 40.059 C 257.138 40.026,256.040 40.094,255.925 40.208 M291.200 40.381 C 294.339 40.933,297.367 41.591,298.400 41.945 C 298.950 42.133,300.480 42.603,301.800 42.990 C 316.616 47.326,330.200 58.046,338.194 71.712 C 339.052 73.179,339.814 74.319,339.888 74.245 C 340.135 73.999,336.710 68.230,334.875 65.800 C 327.471 55.996,318.312 49.038,306.217 44.031 C 305.170 43.598,302.874 42.824,298.979 41.592 C 296.670 40.861,293.796 40.315,291.600 40.190 C 289.403 40.064,289.403 40.065,291.200 40.381 M200.000 60.414 C 198.293 61.458,193.114 64.400,192.982 64.400 C 192.438 64.400,179.200 73.043,179.200 73.399 C 179.200 73.495,180.906 72.454,182.990 71.087 C 187.760 67.958,187.641 68.030,194.269 64.221 C 197.311 62.473,200.155 60.808,200.589 60.521 C 201.473 59.937,200.938 59.840,200.000 60.414 M256.000 63.971 C 224.074 71.407,201.151 116.156,224.834 124.812 C 230.996 127.065,246.483 123.506,252.031 118.563 C 252.379 118.253,252.794 118.000,252.955 118.000 C 254.637 118.000,264.561 108.801,268.341 103.739 C 285.749 80.425,278.981 58.619,256.000 63.971 M266.112 64.189 C 275.465 66.170,280.215 75.509,277.003 85.600 C 276.618 86.810,276.049 88.588,275.738 89.552 C 269.215 109.802,242.195 128.797,225.915 124.578 C 208.204 119.989,214.637 90.654,237.076 73.679 C 238.878 72.315,240.484 71.200,240.645 71.200 C 240.806 71.200,241.221 70.949,241.569 70.642 C 242.326 69.972,247.635 67.226,249.600 66.488 C 256.617 63.853,261.392 63.188,266.112 64.189 M177.400 74.635 L 176.200 75.666 177.500 74.806 C 178.215 74.333,178.800 73.868,178.800 73.773 C 178.800 73.473,178.631 73.578,177.400 74.635 M340.000 74.963 C 340.000 75.053,340.473 76.088,341.050 77.263 C 342.286 79.778,342.962 81.313,343.624 83.113 C 344.339 85.055,344.464 84.456,343.766 82.430 C 342.605 79.063,340.000 73.896,340.000 74.963 M344.400 85.115 C 344.400 85.361,344.568 85.976,344.773 86.481 C 345.145 87.397,345.908 90.085,346.826 93.711 C 347.545 96.549,347.712 95.730,347.021 92.759 C 346.074 88.688,344.400 83.805,344.400 85.115 M148.975 96.900 L 147.800 98.200 149.100 97.025 C 150.312 95.930,150.584 95.600,150.275 95.600 C 150.206 95.600,149.621 96.185,148.975 96.900 M347.628 97.233 C 347.644 97.985,347.812 98.960,348.003 99.400 C 348.226 99.915,348.267 99.487,348.118 98.200 C 347.844 95.822,347.589 95.319,347.628 97.233 M145.375 100.100 L 144.200 101.400 145.500 100.225 C 146.712 99.130,146.984 98.800,146.675 98.800 C 146.606 98.800,146.021 99.385,145.375 100.100 M348.493 101.600 C 348.493 102.370,348.575 102.685,348.676 102.300 C 348.776 101.915,348.776 101.285,348.676 100.900 C 348.575 100.515,348.493 100.830,348.493 101.600 M349.115 106.400 C 349.839 115.030,349.288 135.354,348.194 140.400 L 347.977 141.400 348.391 140.459 C 349.792 137.271,350.489 114.787,349.421 107.200 C 348.847 103.125,348.838 103.101,349.115 106.400 M133.995 111.100 L 127.800 117.400 134.100 111.205 C 139.953 105.449,140.581 104.800,140.295 104.800 C 140.237 104.800,137.402 107.635,133.995 111.100 M124.378 121.100 L 123.000 122.600 124.500 121.222 C 125.325 120.463,126.000 119.788,126.000 119.722 C 126.000 119.416,125.662 119.704,124.378 121.100 M117.775 128.500 L 116.600 129.800 117.900 128.625 C 119.112 127.530,119.384 127.200,119.075 127.200 C 119.006 127.200,118.421 127.785,117.775 128.500 M214.000 139.605 C 204.983 141.490,189.464 150.552,167.800 166.581 C 143.126 184.838,131.763 196.130,130.922 203.226 C 130.252 208.887,135.805 210.022,143.800 205.857 C 153.136 200.992,158.898 199.195,165.125 199.206 C 176.798 199.225,179.877 205.830,177.982 226.777 C 177.165 235.794,176.181 242.013,173.198 257.000 C 172.757 259.216,171.853 262.953,170.392 268.600 C 169.709 271.240,169.002 274.030,168.822 274.800 C 167.904 278.716,163.943 292.213,162.600 296.000 C 162.327 296.770,161.795 298.390,161.418 299.600 C 161.041 300.810,160.580 302.160,160.395 302.600 C 160.209 303.040,159.699 304.480,159.261 305.800 C 158.822 307.120,158.092 309.064,157.638 310.120 C 157.183 311.176,157.000 311.924,157.230 311.781 C 157.461 311.639,157.836 311.045,158.065 310.461 C 159.833 305.945,162.394 298.448,164.575 291.400 C 165.187 289.420,165.867 287.260,166.084 286.600 C 166.302 285.940,166.621 284.860,166.793 284.200 C 166.965 283.540,167.505 281.560,167.992 279.800 C 169.243 275.277,170.829 269.249,171.201 267.600 C 171.375 266.830,171.985 264.310,172.558 262.000 C 173.606 257.772,173.844 256.694,174.939 251.200 C 178.394 233.867,179.930 215.007,178.424 208.400 C 176.296 199.063,167.614 196.359,153.800 200.734 C 152.158 201.253,149.077 202.605,146.200 204.068 C 144.880 204.739,142.720 205.836,141.400 206.505 C 137.931 208.264,133.601 208.345,132.166 206.678 C 127.843 201.655,138.575 189.172,163.200 170.583 C 164.630 169.503,165.980 168.483,166.200 168.315 C 168.422 166.622,178.330 159.543,181.507 157.380 C 184.699 155.206,184.993 155.015,189.166 152.400 C 190.746 151.410,192.795 150.108,193.719 149.506 C 194.644 148.905,195.670 148.288,196.000 148.136 C 196.330 147.983,197.230 147.468,198.000 146.991 C 198.770 146.514,201.110 145.268,203.200 144.221 C 205.290 143.175,207.337 142.142,207.749 141.926 C 211.880 139.757,220.451 138.869,228.400 139.787 L 230.200 139.995 228.200 139.405 C 225.471 138.600,218.323 138.701,214.000 139.605 M231.800 140.647 C 241.870 144.458,245.442 150.272,243.443 159.600 C 242.975 161.782,242.333 163.792,240.501 168.800 C 239.385 171.851,237.802 176.303,237.015 178.600 C 236.488 180.140,235.489 182.930,234.797 184.800 C 234.104 186.670,233.381 188.740,233.190 189.400 C 232.999 190.060,230.964 196.180,228.668 203.000 C 225.005 213.881,221.587 224.430,220.308 228.800 C 220.083 229.570,219.675 230.920,219.402 231.800 C 219.129 232.680,218.584 234.480,218.191 235.800 C 217.798 237.120,217.253 238.920,216.980 239.800 C 216.706 240.680,216.295 242.120,216.065 243.000 C 215.836 243.880,215.394 245.500,215.083 246.600 C 214.773 247.700,214.208 249.770,213.827 251.200 C 213.447 252.630,212.882 254.700,212.572 255.800 C 211.794 258.556,210.380 264.267,209.997 266.200 C 209.822 267.080,209.389 269.060,209.034 270.600 C 206.274 282.574,204.376 294.664,204.463 299.726 L 204.525 303.400 204.822 299.400 C 205.136 295.157,205.779 289.904,206.388 286.600 C 206.591 285.500,207.053 282.980,207.414 281.000 C 208.127 277.089,209.048 272.616,209.596 270.400 C 209.787 269.630,210.234 267.740,210.591 266.200 C 211.907 260.517,212.486 258.157,212.998 256.400 C 213.286 255.410,214.003 252.710,214.592 250.400 C 215.181 248.090,215.896 245.480,216.181 244.600 C 216.466 243.720,217.015 241.830,217.400 240.400 C 217.785 238.970,218.332 237.080,218.614 236.200 C 218.897 235.320,219.428 233.520,219.796 232.200 C 220.163 230.880,220.609 229.350,220.786 228.800 C 220.963 228.250,221.674 226.000,222.365 223.800 C 223.056 221.600,224.535 217.010,225.651 213.600 C 226.767 210.190,227.831 206.860,228.016 206.200 C 228.200 205.540,229.447 201.850,230.786 198.000 C 232.124 194.150,233.848 189.110,234.617 186.800 C 235.385 184.490,236.185 182.240,236.393 181.800 C 236.602 181.360,237.135 179.920,237.577 178.600 C 238.020 177.280,238.900 174.760,239.533 173.000 C 244.208 160.007,244.401 159.310,244.396 155.480 C 244.386 149.174,241.559 144.668,235.871 141.892 C 233.009 140.496,231.679 139.996,230.881 140.021 C 230.507 140.032,230.920 140.314,231.800 140.647 M52.101 266.600 C 52.105 267.480,52.187 267.793,52.283 267.295 C 52.379 266.798,52.375 266.078,52.275 265.695 C 52.175 265.313,52.096 265.720,52.101 266.600 M51.366 280.800 C 51.366 284.870,51.425 286.535,51.498 284.500 C 51.571 282.465,51.571 279.135,51.498 277.100 C 51.425 275.065,51.366 276.730,51.366 280.800 M273.600 282.200 C 272.628 283.190,271.923 284.000,272.033 284.000 C 272.143 284.000,273.028 283.190,274.000 282.200 C 274.972 281.210,275.677 280.400,275.567 280.400 C 275.457 280.400,274.572 281.210,273.600 282.200 M256.985 298.900 L 255.000 301.000 257.100 299.015 C 259.051 297.171,259.383 296.800,259.085 296.800 C 259.022 296.800,258.077 297.745,256.985 298.900 M252.175 303.300 L 251.000 304.600 252.300 303.425 C 253.015 302.779,253.600 302.194,253.600 302.125 C 253.600 301.816,253.270 302.088,252.175 303.300 M204.493 314.000 C 204.493 314.770,204.575 315.085,204.676 314.700 C 204.776 314.315,204.776 313.685,204.676 313.300 C 204.575 312.915,204.493 313.230,204.493 314.000 M233.185 318.829 L 231.800 320.058 233.300 318.981 C 234.626 318.030,235.057 317.600,234.685 317.600 C 234.622 317.600,233.947 318.153,233.185 318.829 M214.500 328.287 C 215.105 328.378,216.095 328.378,216.700 328.287 C 217.305 328.195,216.810 328.120,215.600 328.120 C 214.390 328.120,213.895 328.195,214.500 328.287 M133.986 352.300 L 131.800 354.600 134.100 352.414 C 136.237 350.382,136.583 350.000,136.286 350.000 C 136.224 350.000,135.189 351.035,133.986 352.300 " stroke="none" fill="#dd9d9b" fill-rule="evenodd"></path><path id="path4" d="M270.900 38.698 C 273.265 38.769,277.135 38.769,279.500 38.698 C 281.865 38.628,279.930 38.570,275.200 38.570 C 270.470 38.570,268.535 38.628,270.900 38.698 M261.800 39.203 C 261.285 39.426,261.713 39.467,263.000 39.318 C 264.100 39.191,265.075 39.023,265.167 38.944 C 265.514 38.645,262.564 38.872,261.800 39.203 M285.233 38.944 C 285.325 39.024,286.210 39.206,287.200 39.350 C 288.458 39.533,288.819 39.491,288.400 39.212 C 287.860 38.853,284.832 38.597,285.233 38.944 M254.800 40.236 C 254.030 40.552,253.850 40.702,254.400 40.569 C 254.950 40.436,256.660 40.190,258.200 40.022 L 261.000 39.717 258.600 39.689 C 257.280 39.674,255.570 39.920,254.800 40.236 M290.105 39.887 C 290.714 39.979,291.614 39.977,292.105 39.882 C 292.597 39.787,292.100 39.711,291.000 39.714 C 289.900 39.717,289.497 39.795,290.105 39.887 M248.400 41.461 L 247.000 42.026 248.400 41.768 C 249.170 41.626,250.430 41.371,251.200 41.201 L 252.600 40.892 251.200 40.894 C 250.430 40.895,249.170 41.150,248.400 41.461 M298.200 41.412 C 300.273 42.158,300.994 42.140,299.254 41.384 C 298.514 41.063,297.614 40.808,297.254 40.818 C 296.894 40.827,297.320 41.095,298.200 41.412 M243.600 42.625 C 242.830 42.916,242.470 43.162,242.800 43.171 C 243.130 43.181,244.120 42.929,245.000 42.612 C 245.880 42.295,246.240 42.049,245.800 42.065 C 245.360 42.082,244.370 42.334,243.600 42.625 M302.346 42.616 C 303.086 42.937,303.896 43.193,304.146 43.184 C 304.396 43.176,303.994 42.906,303.254 42.584 C 302.514 42.263,301.704 42.007,301.454 42.016 C 301.204 42.024,301.606 42.294,302.346 42.616 M240.000 43.600 C 239.670 43.813,238.950 44.015,238.400 44.048 C 237.581 44.098,237.548 44.138,238.215 44.271 C 238.663 44.360,239.653 44.163,240.415 43.832 C 241.177 43.502,241.530 43.227,241.200 43.222 C 240.870 43.217,240.330 43.387,240.000 43.600 M307.000 44.289 C 307.440 44.398,307.980 44.628,308.200 44.801 C 308.734 45.222,311.600 46.402,311.600 46.201 C 311.600 45.868,307.502 44.002,306.867 44.046 C 306.375 44.081,306.410 44.144,307.000 44.289 M232.800 45.800 C 231.522 46.530,231.796 46.534,233.800 45.812 C 234.680 45.495,235.040 45.234,234.600 45.232 C 234.160 45.230,233.350 45.486,232.800 45.800 M229.200 47.000 C 228.565 47.363,228.427 47.577,228.820 47.586 C 229.161 47.594,229.611 47.437,229.820 47.239 C 230.029 47.040,230.560 46.791,231.000 46.685 L 231.800 46.493 231.000 46.461 C 230.560 46.443,229.750 46.686,229.200 47.000 M314.433 47.752 C 315.005 48.272,319.200 50.785,319.200 50.607 C 319.200 50.345,314.958 47.600,314.553 47.600 C 314.395 47.600,314.342 47.668,314.433 47.752 M223.400 49.200 C 223.264 49.420,222.838 49.600,222.453 49.600 C 222.068 49.600,221.404 49.861,220.976 50.179 C 220.322 50.667,220.484 50.663,222.000 50.151 C 223.823 49.536,224.969 48.800,224.104 48.800 C 223.853 48.800,223.536 48.980,223.400 49.200 M217.824 51.413 C 216.841 52.156,217.147 52.157,218.854 51.416 C 219.786 51.011,219.954 50.830,219.400 50.828 C 218.960 50.827,218.251 51.090,217.824 51.413 M320.570 51.688 C 325.113 55.228,329.023 58.806,331.576 61.758 C 334.332 64.946,335.820 66.415,334.129 64.279 C 330.550 59.757,323.715 53.289,320.600 51.475 L 319.400 50.776 320.570 51.688 M215.200 52.600 C 214.650 52.914,214.380 53.172,214.600 53.172 C 214.820 53.172,215.450 52.914,216.000 52.600 C 216.550 52.286,216.820 52.028,216.600 52.028 C 216.380 52.028,215.750 52.286,215.200 52.600 M212.800 53.617 C 212.470 53.821,211.159 54.464,209.887 55.047 C 208.614 55.630,207.647 56.181,207.738 56.272 C 207.894 56.428,213.508 53.825,213.934 53.399 C 214.269 53.064,213.438 53.224,212.800 53.617 M206.180 56.759 C 205.971 56.957,204.303 57.875,202.474 58.800 C 200.645 59.725,199.222 60.555,199.312 60.646 C 199.485 60.818,205.226 57.903,206.589 56.951 C 207.023 56.648,207.194 56.400,206.969 56.400 C 206.744 56.400,206.389 56.562,206.180 56.759 M194.800 63.000 C 194.030 63.525,193.197 63.964,192.949 63.977 C 192.701 63.990,192.260 64.286,191.970 64.636 C 191.661 65.009,192.262 64.818,193.421 64.177 C 195.896 62.808,197.094 61.993,196.589 62.023 C 196.375 62.036,195.570 62.475,194.800 63.000 M261.305 63.887 C 261.914 63.979,262.814 63.977,263.305 63.882 C 263.797 63.787,263.300 63.711,262.200 63.714 C 261.100 63.717,260.697 63.795,261.305 63.887 M256.400 64.400 C 255.050 64.684,255.043 64.695,256.200 64.700 C 256.860 64.703,257.940 64.568,258.600 64.400 C 260.260 63.978,258.407 63.978,256.400 64.400 M189.100 66.229 C 188.275 66.770,187.600 67.320,187.600 67.452 C 187.600 67.672,188.575 67.114,190.589 65.739 C 192.008 64.770,190.640 65.221,189.100 66.229 M252.000 65.600 C 251.176 65.864,251.141 65.926,251.800 65.954 C 252.240 65.973,252.870 65.813,253.200 65.600 C 253.901 65.147,253.414 65.147,252.000 65.600 M335.600 66.800 C 336.070 67.460,336.544 68.000,336.654 68.000 C 336.764 68.000,336.470 67.460,336.000 66.800 C 335.530 66.140,335.056 65.600,334.946 65.600 C 334.836 65.600,335.130 66.140,335.600 66.800 M247.424 67.413 C 246.425 68.168,246.795 68.163,248.254 67.402 C 248.884 67.074,249.130 66.810,248.800 66.815 C 248.470 66.821,247.851 67.090,247.424 67.413 M180.400 71.923 C 141.070 98.418,104.803 137.542,82.155 177.909 C 81.571 178.949,80.288 181.240,79.304 183.000 C 77.826 185.643,70.427 200.571,69.193 203.400 C 68.864 204.154,67.559 207.237,66.822 209.000 C 62.157 220.166,57.361 234.758,55.187 244.400 C 54.154 248.979,53.535 252.084,53.232 254.200 C 53.042 255.520,52.693 257.680,52.454 259.000 C 51.352 265.100,51.000 270.420,51.000 281.000 C 51.000 295.189,51.681 300.383,55.197 313.000 C 55.380 313.660,55.920 315.190,56.395 316.400 C 56.871 317.610,57.401 319.050,57.574 319.600 C 61.992 333.671,78.925 350.502,94.600 356.403 C 95.040 356.569,96.120 356.987,97.000 357.332 C 97.880 357.678,99.680 358.254,101.000 358.612 C 102.320 358.970,104.002 359.446,104.738 359.671 C 109.295 361.062,119.988 361.962,121.350 361.070 C 121.912 360.701,122.568 360.400,122.808 360.400 C 124.625 360.400,130.312 356.824,133.947 353.395 C 136.226 351.244,143.600 342.136,143.600 341.471 C 143.600 341.378,144.551 339.704,145.713 337.751 C 148.500 333.068,154.800 320.182,154.800 319.165 C 154.800 318.958,154.971 318.477,155.181 318.095 C 155.390 317.713,155.855 316.680,156.214 315.800 C 156.573 314.920,157.122 313.609,157.433 312.886 C 158.152 311.220,158.146 310.981,157.400 311.600 C 157.070 311.874,156.800 312.280,156.800 312.502 C 156.800 312.725,155.611 315.718,154.159 319.153 C 142.307 347.182,130.020 360.800,116.583 360.800 C 109.047 360.800,96.441 357.171,87.434 352.409 C 84.704 350.965,80.519 348.302,78.935 347.000 C 74.354 343.236,68.707 337.401,65.981 333.615 C 63.551 330.241,58.000 320.054,58.000 318.968 C 58.000 318.832,57.752 318.154,57.449 317.460 C 56.926 316.265,56.258 314.330,55.289 311.200 C 51.146 297.826,50.137 275.061,52.984 259.200 C 53.280 257.550,53.736 254.940,53.996 253.400 C 54.687 249.319,56.347 242.143,57.791 237.000 C 58.099 235.900,58.825 233.312,59.404 231.249 C 59.983 229.186,60.609 227.206,60.794 226.849 C 60.979 226.492,61.499 225.030,61.950 223.600 C 63.641 218.228,65.964 212.305,69.481 204.400 C 70.019 203.190,70.736 201.570,71.074 200.800 C 72.090 198.484,78.330 185.946,79.535 183.800 C 80.153 182.700,81.245 180.720,81.963 179.400 C 82.681 178.080,84.918 174.332,86.934 171.070 C 88.950 167.809,90.780 164.839,91.000 164.470 C 91.481 163.664,94.589 159.061,97.798 154.400 C 101.302 149.311,106.539 142.269,109.960 138.048 C 116.294 130.231,117.332 128.996,121.882 123.867 C 133.634 110.617,150.585 94.774,164.565 83.972 C 168.726 80.757,170.507 79.469,180.748 72.270 C 184.548 69.599,185.617 68.749,185.100 68.812 C 185.045 68.819,182.930 70.219,180.400 71.923 M242.500 69.996 C 241.785 70.432,241.200 70.875,241.200 70.981 C 241.200 71.086,241.830 70.801,242.600 70.347 C 243.370 69.893,244.000 69.449,244.000 69.360 C 244.000 69.105,243.874 69.158,242.500 69.996 M275.200 70.400 C 275.670 71.060,276.144 71.600,276.254 71.600 C 276.364 71.600,276.070 71.060,275.600 70.400 C 275.130 69.740,274.656 69.200,274.546 69.200 C 274.436 69.200,274.730 69.740,275.200 70.400 M340.035 74.289 C 341.201 76.538,342.228 78.306,342.317 78.216 C 342.501 78.032,338.912 71.214,338.309 70.600 C 338.092 70.380,338.869 72.040,340.035 74.289 M230.388 79.500 L 227.800 82.200 230.500 79.612 C 233.008 77.207,233.383 76.800,233.088 76.800 C 233.027 76.800,231.812 78.015,230.388 79.500 M277.709 78.800 C 277.709 79.790,277.787 80.195,277.882 79.700 C 277.978 79.205,277.978 78.395,277.882 77.900 C 277.787 77.405,277.709 77.810,277.709 78.800 M342.428 79.000 C 342.428 79.220,342.686 79.850,343.000 80.400 C 343.314 80.950,343.572 81.220,343.572 81.000 C 343.572 80.780,343.314 80.150,343.000 79.600 C 342.686 79.050,342.428 78.780,342.428 79.000 M343.732 82.200 C 343.846 82.640,344.554 84.800,345.305 87.000 C 346.057 89.200,346.913 92.162,347.208 93.583 C 347.503 95.004,347.822 95.935,347.916 95.653 C 348.200 94.800,345.184 84.365,344.085 82.400 C 343.682 81.678,343.583 81.623,343.732 82.200 M277.260 82.867 C 277.227 83.454,277.096 84.264,276.970 84.667 C 276.752 85.360,276.765 85.361,277.195 84.690 C 277.446 84.299,277.577 83.489,277.486 82.890 L 277.320 81.800 277.260 82.867 M222.176 90.038 C 221.608 90.939,221.207 91.740,221.285 91.819 C 221.364 91.898,221.913 91.161,222.505 90.181 C 223.855 87.945,223.574 87.823,222.176 90.038 M274.324 92.214 C 273.733 93.636,273.330 94.800,273.429 94.800 C 273.707 94.800,275.634 90.300,275.510 89.943 C 275.449 89.770,274.916 90.792,274.324 92.214 M348.246 98.400 C 348.390 99.390,348.641 100.920,348.804 101.800 L 349.100 103.400 349.144 101.800 C 349.168 100.920,348.917 99.390,348.587 98.400 L 347.985 96.600 348.246 98.400 M269.600 100.800 C 269.130 101.460,268.836 102.000,268.946 102.000 C 269.056 102.000,269.530 101.460,270.000 100.800 C 270.470 100.140,270.764 99.600,270.654 99.600 C 270.544 99.600,270.070 100.140,269.600 100.800 M216.229 104.229 C 216.081 104.815,216.038 105.372,216.132 105.466 C 216.227 105.560,216.424 105.158,216.571 104.571 C 216.719 103.985,216.762 103.428,216.668 103.334 C 216.573 103.240,216.376 103.642,216.229 104.229 M265.600 106.000 C 264.679 107.100,264.016 108.000,264.126 108.000 C 264.236 108.000,265.079 107.100,266.000 106.000 C 266.921 104.900,267.584 104.000,267.474 104.000 C 267.364 104.000,266.521 104.900,265.600 106.000 M349.524 106.800 C 349.890 110.778,349.879 131.206,349.508 134.000 C 349.260 135.874,349.284 136.022,349.668 135.000 C 350.419 133.000,350.550 110.903,349.834 107.000 L 349.247 103.800 349.524 106.800 M215.742 109.800 C 215.741 111.780,215.808 112.640,215.892 111.712 C 215.976 110.784,215.977 109.164,215.895 108.112 C 215.812 107.060,215.743 107.820,215.742 109.800 M260.581 111.300 L 259.000 113.000 260.700 111.419 C 262.281 109.948,262.584 109.600,262.281 109.600 C 262.216 109.600,261.451 110.365,260.581 111.300 M219.800 121.200 C 220.659 122.080,221.452 122.800,221.562 122.800 C 221.672 122.800,221.059 122.080,220.200 121.200 C 219.341 120.320,218.548 119.600,218.438 119.600 C 218.328 119.600,218.941 120.320,219.800 121.200 M226.800 124.780 C 227.799 125.120,230.282 125.332,229.967 125.051 C 229.875 124.969,228.900 124.799,227.800 124.672 C 226.451 124.516,226.126 124.551,226.800 124.780 M232.100 125.076 C 232.485 125.176,233.115 125.176,233.500 125.076 C 233.885 124.975,233.570 124.893,232.800 124.893 C 232.030 124.893,231.715 124.975,232.100 125.076 M348.708 139.000 C 348.148 142.075,347.532 145.221,347.024 147.600 C 346.719 149.030,346.252 151.280,345.987 152.600 C 344.566 159.665,340.237 174.611,338.024 180.092 C 337.822 180.591,337.171 182.350,336.577 184.000 C 335.983 185.650,335.232 187.630,334.908 188.400 C 334.584 189.170,334.173 190.160,333.995 190.600 C 333.817 191.040,333.316 192.210,332.882 193.200 C 332.447 194.190,331.666 195.990,331.146 197.200 C 327.980 204.570,318.205 223.098,314.304 229.125 C 313.922 229.716,313.485 230.470,313.333 230.800 C 312.727 232.117,303.617 245.714,300.067 250.600 C 283.446 273.471,261.315 296.769,240.400 313.413 C 238.750 314.726,237.181 315.980,236.914 316.200 C 236.647 316.420,236.195 316.791,235.911 317.025 C 234.749 317.981,227.593 323.179,224.693 325.173 C 220.673 327.937,216.570 328.905,212.750 327.988 C 206.638 326.522,204.690 321.393,204.400 306.000 L 204.200 295.400 203.867 303.200 C 203.317 316.105,204.564 322.185,208.584 326.205 C 212.568 330.189,218.385 330.074,224.600 325.890 C 227.882 323.681,237.122 316.949,237.600 316.418 C 237.710 316.296,239.150 315.126,240.800 313.817 C 244.943 310.530,251.325 305.085,254.200 302.384 C 263.975 293.199,266.412 290.832,270.456 286.592 C 280.072 276.506,284.918 271.021,291.476 262.800 C 297.297 255.501,301.909 249.172,307.368 240.991 C 313.190 232.265,312.811 232.855,314.822 229.400 C 315.718 227.860,316.947 225.790,317.552 224.800 C 320.963 219.222,327.762 206.183,330.796 199.400 C 331.289 198.300,332.097 196.500,332.593 195.400 C 338.829 181.565,345.471 160.576,347.592 148.000 C 347.833 146.570,348.313 143.930,348.659 142.133 C 349.005 140.335,349.207 138.625,349.107 138.333 C 349.008 138.040,348.828 138.340,348.708 139.000 M220.300 139.493 C 221.235 139.577,222.765 139.577,223.700 139.493 C 224.635 139.409,223.870 139.340,222.000 139.340 C 220.130 139.340,219.365 139.409,220.300 139.493 M213.700 140.276 C 214.085 140.376,214.715 140.376,215.100 140.276 C 215.485 140.175,215.170 140.093,214.400 140.093 C 213.630 140.093,213.315 140.175,213.700 140.276 M228.500 140.276 C 228.885 140.376,229.515 140.376,229.900 140.276 C 230.285 140.175,229.970 140.093,229.200 140.093 C 228.430 140.093,228.115 140.175,228.500 140.276 M208.176 141.822 C 207.412 142.434,207.413 142.438,208.200 142.076 C 208.640 141.874,209.270 141.608,209.600 141.486 C 210.118 141.293,210.115 141.259,209.576 141.232 C 209.234 141.214,208.604 141.480,208.176 141.822 M240.629 146.438 C 241.273 147.229,241.881 147.808,241.979 147.725 C 242.078 147.642,241.551 146.995,240.809 146.287 L 239.458 145.000 240.629 146.438 M192.900 149.996 C 192.185 150.432,191.600 150.875,191.600 150.981 C 191.600 151.086,192.230 150.801,193.000 150.347 C 193.770 149.893,194.400 149.449,194.400 149.360 C 194.400 149.105,194.274 149.158,192.900 149.996 M243.462 152.600 C 243.596 153.480,243.772 154.275,243.853 154.367 C 244.156 154.710,243.929 152.568,243.581 151.800 C 243.329 151.242,243.293 151.485,243.462 152.600 M243.440 157.640 C 243.293 158.557,243.252 159.385,243.347 159.480 C 243.442 159.576,243.646 158.910,243.800 158.000 C 243.954 157.090,243.996 156.262,243.893 156.160 C 243.790 156.057,243.587 156.723,243.440 157.640 M181.000 157.835 L 179.800 158.866 181.100 158.006 C 181.815 157.533,182.400 157.068,182.400 156.973 C 182.400 156.673,182.231 156.778,181.000 157.835 M177.893 159.814 C 177.072 160.372,176.400 160.915,176.400 161.020 C 176.400 161.125,177.120 160.735,178.000 160.153 C 179.397 159.228,179.870 158.800,179.493 158.800 C 179.434 158.800,178.714 159.256,177.893 159.814 M242.491 162.100 C 241.810 163.984,241.904 164.494,242.626 162.830 C 242.953 162.077,243.166 161.299,243.101 161.102 C 243.035 160.905,242.760 161.354,242.491 162.100 M170.200 165.435 L 169.000 166.466 170.400 165.563 C 172.196 164.404,172.201 164.400,171.767 164.402 C 171.565 164.403,170.860 164.868,170.200 165.435 M163.600 170.249 C 161.034 172.256,160.664 172.763,162.918 171.183 C 164.600 170.004,165.985 168.760,165.549 168.821 C 165.467 168.832,164.590 169.475,163.600 170.249 M238.315 173.810 C 238.192 174.245,237.969 174.960,237.820 175.400 C 237.671 175.840,237.842 175.694,238.200 175.076 C 238.558 174.458,238.781 173.742,238.695 173.486 C 238.610 173.230,238.439 173.376,238.315 173.810 M150.589 180.631 L 148.600 182.461 150.700 180.768 C 152.584 179.249,153.038 178.800,152.689 178.800 C 152.628 178.800,151.683 179.624,150.589 180.631 M235.665 181.417 C 235.409 181.978,235.207 182.654,235.216 182.919 C 235.224 183.183,235.497 182.788,235.822 182.039 C 236.505 180.465,236.361 179.890,235.665 181.417 M144.000 186.442 L 139.800 190.472 144.100 186.574 C 147.938 183.096,148.655 182.385,148.300 182.406 C 148.245 182.409,146.310 184.225,144.000 186.442 M232.715 189.810 C 232.592 190.245,232.369 190.960,232.220 191.400 C 232.071 191.840,232.242 191.694,232.600 191.076 C 232.958 190.458,233.181 189.742,233.095 189.486 C 233.010 189.230,232.839 189.376,232.715 189.810 M137.381 192.900 L 135.800 194.600 137.500 193.019 C 139.081 191.548,139.384 191.200,139.081 191.200 C 139.016 191.200,138.251 191.965,137.381 192.900 M134.153 196.900 C 132.776 199.236,132.686 199.435,133.387 198.600 C 134.200 197.632,134.900 196.400,134.638 196.400 C 134.533 196.400,134.315 196.625,134.153 196.900 M230.065 197.417 C 229.809 197.978,229.608 198.744,229.618 199.119 C 229.627 199.493,229.889 199.087,230.200 198.215 C 230.845 196.404,230.759 195.894,230.065 197.417 M163.113 198.695 C 164.276 198.776,166.076 198.776,167.113 198.693 C 168.151 198.611,167.200 198.545,165.000 198.546 C 162.800 198.547,161.951 198.614,163.113 198.695 M158.000 199.218 C 157.562 199.515,157.724 199.552,158.600 199.356 C 160.071 199.027,160.390 198.798,159.367 198.806 C 158.945 198.809,158.330 198.995,158.000 199.218 M151.200 201.400 C 150.650 201.714,150.380 201.972,150.600 201.972 C 150.820 201.972,151.450 201.714,152.000 201.400 C 152.550 201.086,152.820 200.828,152.600 200.828 C 152.380 200.828,151.750 201.086,151.200 201.400 M175.440 202.377 C 176.122 203.160,176.977 204.245,177.340 204.789 C 177.703 205.333,178.000 205.571,178.000 205.317 C 178.000 205.063,177.145 203.978,176.100 202.905 C 175.055 201.832,174.758 201.595,175.440 202.377 M131.309 204.000 C 131.309 204.990,131.387 205.395,131.482 204.900 C 131.578 204.405,131.578 203.595,131.482 203.100 C 131.387 202.605,131.309 203.010,131.309 204.000 M226.865 207.017 C 226.609 207.578,226.407 208.254,226.416 208.519 C 226.424 208.783,226.697 208.388,227.022 207.639 C 227.705 206.065,227.561 205.490,226.865 207.017 M139.400 207.014 C 138.740 207.317,138.470 207.566,138.800 207.568 C 139.130 207.570,139.850 207.314,140.400 207.000 C 141.665 206.277,140.989 206.287,139.400 207.014 M178.068 207.000 C 178.062 207.440,178.211 208.160,178.400 208.600 C 178.838 209.619,178.838 208.568,178.400 207.200 C 178.143 206.396,178.077 206.357,178.068 207.000 M135.105 207.883 C 135.602 207.979,136.322 207.975,136.705 207.875 C 137.087 207.775,136.680 207.696,135.800 207.701 C 134.920 207.705,134.607 207.787,135.105 207.883 M225.665 210.617 C 225.409 211.178,225.207 211.854,225.216 212.119 C 225.224 212.383,225.497 211.988,225.822 211.239 C 226.505 209.665,226.361 209.090,225.665 210.617 M178.928 212.400 C 178.928 213.830,179.001 214.415,179.089 213.700 C 179.178 212.985,179.178 211.815,179.089 211.100 C 179.001 210.385,178.928 210.970,178.928 212.400 M223.912 216.000 C 223.776 216.550,223.550 217.450,223.410 218.000 C 223.252 218.622,223.397 218.479,223.792 217.621 C 224.142 216.862,224.368 215.962,224.294 215.621 C 224.210 215.231,224.068 215.372,223.912 216.000 M178.942 222.600 C 178.941 224.580,179.008 225.440,179.092 224.512 C 179.176 223.584,179.177 221.964,179.095 220.912 C 179.012 219.860,178.943 220.620,178.942 222.600 M178.493 228.000 C 178.493 228.770,178.575 229.085,178.676 228.700 C 178.776 228.315,178.776 227.685,178.676 227.300 C 178.575 226.915,178.493 227.230,178.493 228.000 M178.093 230.800 C 178.093 231.570,178.175 231.885,178.276 231.500 C 178.376 231.115,178.376 230.485,178.276 230.100 C 178.175 229.715,178.093 230.030,178.093 230.800 M177.660 234.850 C 177.627 235.428,177.511 236.507,177.401 237.250 L 177.203 238.600 177.624 237.257 C 177.855 236.519,177.972 235.439,177.882 234.857 L 177.720 233.800 177.660 234.850 M176.250 243.650 C 175.917 245.317,176.240 245.640,176.600 244.000 C 176.752 243.309,176.793 242.659,176.691 242.558 C 176.589 242.456,176.391 242.947,176.250 243.650 M175.701 247.400 C 175.705 248.280,175.787 248.593,175.883 248.095 C 175.979 247.598,175.975 246.878,175.875 246.495 C 175.775 246.113,175.696 246.520,175.701 247.400 M212.846 253.667 C 212.821 254.034,212.696 254.664,212.570 255.067 C 212.352 255.762,212.363 255.763,212.797 255.087 C 213.048 254.696,213.173 254.066,213.073 253.687 C 212.911 253.068,212.888 253.066,212.846 253.667 M211.246 259.639 C 211.001 260.343,210.812 261.208,210.827 261.560 C 210.841 261.912,211.104 261.397,211.409 260.416 C 212.049 258.362,211.915 257.722,211.246 259.639 M169.923 272.400 C 169.783 273.170,169.560 274.160,169.428 274.600 C 169.296 275.040,169.471 274.793,169.815 274.051 C 170.160 273.308,170.383 272.318,170.311 271.851 C 170.217 271.245,170.105 271.403,169.923 272.400 M206.656 279.684 C 206.521 280.188,206.427 280.960,206.446 281.400 C 206.465 281.840,206.645 281.498,206.846 280.640 C 207.236 278.978,207.070 278.140,206.656 279.684 M205.309 288.400 C 205.309 289.390,205.387 289.795,205.482 289.300 C 205.578 288.805,205.578 287.995,205.482 287.500 C 205.387 287.005,205.309 287.410,205.309 288.400 M164.332 292.000 C 164.206 292.550,163.978 293.360,163.826 293.800 C 163.674 294.240,163.842 294.095,164.199 293.477 C 164.557 292.859,164.785 292.049,164.705 291.677 C 164.602 291.194,164.495 291.287,164.332 292.000 M204.600 292.800 C 204.446 293.710,204.404 294.538,204.507 294.640 C 204.610 294.743,204.813 294.077,204.960 293.160 C 205.107 292.243,205.148 291.415,205.053 291.320 C 204.958 291.224,204.754 291.890,204.600 292.800 M158.715 308.610 C 158.592 309.045,158.369 309.760,158.220 310.200 C 158.071 310.640,158.242 310.494,158.600 309.876 C 158.958 309.258,159.181 308.542,159.095 308.286 C 159.010 308.030,158.839 308.176,158.715 308.610 " stroke="none" fill="#fbc99f" fill-rule="evenodd"></path></g></svg>