<svg id="svg" version="1.1" xmlns="http://www.w3.org/2000/svg" xmlns:xlink="http://www.w3.org/1999/xlink" width="400" height="400" viewBox="0, 0, 400,400"><g id="svgg"><path id="path0" d="M100.400 200.201 L 100.400 300.002 200.100 299.901 L 299.800 299.800 299.901 200.100 L 300.002 100.400 200.201 100.400 L 100.400 100.400 100.400 200.201 M285.901 200.101 L 286.002 286.002 200.101 285.901 L 114.200 285.800 114.097 200.400 C 114.041 153.430,114.081 114.775,114.185 114.499 C 114.337 114.100,131.728 114.019,200.088 114.099 L 285.800 114.200 285.901 200.101 M136.182 136.502 C 136.076 136.779,136.036 143.034,136.094 150.403 L 136.200 163.800 200.105 163.901 L 264.010 164.002 263.905 150.101 L 263.800 136.200 200.088 136.099 C 149.139 136.018,136.337 136.099,136.182 136.502 M136.182 186.503 C 136.076 186.779,136.036 193.034,136.094 200.403 L 136.200 213.800 178.700 213.902 L 221.200 214.004 221.200 200.002 L 221.200 186.000 178.787 186.000 C 145.098 186.000,136.335 186.103,136.182 186.503 M136.184 236.498 C 136.077 236.777,136.036 243.034,136.094 250.403 L 136.200 263.800 150.105 263.905 L 164.010 264.010 163.905 250.105 L 163.800 236.200 150.089 236.095 C 139.296 236.012,136.337 236.098,136.184 236.498 " stroke="none" fill="#fcfcfc" fill-rule="evenodd"></path><path id="path1" d="M114.480 114.480 C 113.922 115.038,113.774 284.624,114.330 285.501 C 114.584 285.900,132.027 285.981,200.224 285.901 L 285.800 285.800 285.901 200.224 C 285.981 132.027,285.900 114.584,285.501 114.330 C 284.624 113.774,115.038 113.922,114.480 114.480 M285.400 200.000 L 285.400 285.400 200.000 285.400 L 114.600 285.400 114.497 200.400 C 114.441 153.650,114.481 115.175,114.585 114.899 C 114.737 114.500,132.048 114.419,200.088 114.499 L 285.400 114.600 285.400 200.000 M135.783 136.101 C 135.676 136.378,135.637 142.814,135.695 150.402 L 135.800 164.200 200.105 164.301 L 264.410 164.402 264.305 150.101 L 264.200 135.800 200.088 135.699 C 148.843 135.618,135.937 135.699,135.783 136.101 M264.000 150.000 L 264.000 164.000 200.000 164.000 L 136.000 164.000 136.000 150.000 L 136.000 136.000 200.000 136.000 L 264.000 136.000 264.000 150.000 M135.783 186.101 C 135.676 186.378,135.637 192.814,135.695 200.402 L 135.800 214.200 178.600 214.200 L 221.400 214.200 221.400 200.000 L 221.400 185.800 178.688 185.698 C 144.620 185.617,135.937 185.698,135.783 186.101 M221.200 200.000 L 221.200 214.000 178.600 214.000 L 136.000 214.000 136.000 200.000 L 136.000 186.000 178.600 186.000 L 221.200 186.000 221.200 200.000 M135.784 236.097 C 135.677 236.377,135.637 242.814,135.695 250.402 L 135.800 264.200 150.105 264.305 L 164.410 264.410 164.305 250.105 L 164.200 235.800 150.089 235.695 C 138.980 235.612,135.937 235.698,135.784 236.097 M164.000 250.000 L 164.000 264.000 150.000 264.000 L 136.000 264.000 136.000 250.000 L 136.000 236.000 150.000 236.000 L 164.000 236.000 164.000 250.000 " stroke="none" fill="#cc7c84" fill-rule="evenodd"></path><path id="path2" d="M0.000 200.000 L 0.000 400.000 200.000 400.000 L 400.000 400.000 400.000 200.000 L 400.000 0.000 200.000 0.000 L 0.000 0.000 0.000 200.000 M299.901 99.930 C 300.300 100.184,300.381 120.507,300.301 200.224 L 300.200 300.200 200.224 300.301 C 120.507 300.381,100.184 300.300,99.930 299.901 C 99.373 299.024,99.522 100.638,100.080 100.080 C 100.638 99.522,299.024 99.373,299.901 99.930 M114.800 200.000 L 114.800 285.200 200.000 285.200 L 285.200 285.200 285.200 200.000 L 285.200 114.800 200.000 114.800 L 114.800 114.800 114.800 200.000 M264.320 135.680 C 264.675 136.035,264.800 139.769,264.800 150.000 C 264.800 160.231,264.675 163.965,264.320 164.320 C 263.622 165.018,136.378 165.018,135.680 164.320 C 134.992 163.632,134.992 136.368,135.680 135.680 C 136.378 134.982,263.622 134.982,264.320 135.680 M221.400 200.000 L 221.400 214.600 178.843 214.702 C 147.729 214.776,136.140 214.682,135.743 214.353 C 134.996 213.733,134.937 186.423,135.682 185.678 C 136.053 185.307,145.966 185.220,178.782 185.298 L 221.400 185.400 221.400 200.000 M164.320 235.680 C 165.008 236.368,165.008 263.632,164.320 264.320 C 163.632 265.008,136.368 265.008,135.680 264.320 C 134.992 263.632,134.992 236.368,135.680 235.680 C 136.368 234.992,163.632 234.992,164.320 235.680 " stroke="none" fill="#9c1c2c" fill-rule="evenodd"></path><path id="path3" d="" stroke="none" fill="#ccc8100" fill-rule="evenodd"></path><path id="path4" d="M150.100 99.900 C 177.545 99.957,222.455 99.957,249.900 99.900 C 277.345 99.843,254.890 99.797,200.000 99.797 C 145.110 99.797,122.655 99.843,150.100 99.900 M300.099 199.899 L 300.000 299.998 199.900 300.100 L 99.800 300.202 199.913 300.301 C 279.708 300.380,300.064 300.299,300.215 299.900 C 300.319 299.625,300.358 254.490,300.302 199.600 L 300.198 99.800 300.099 199.899 M99.797 200.000 C 99.797 254.890,99.843 277.345,99.900 249.900 C 99.957 222.455,99.957 177.545,99.900 150.100 C 99.843 122.655,99.797 145.110,99.797 200.000 M114.585 114.899 C 114.481 115.175,114.441 153.650,114.497 200.400 L 114.600 285.400 200.000 285.400 L 285.400 285.400 285.400 200.000 L 285.400 114.600 200.088 114.499 C 132.048 114.419,114.737 114.500,114.585 114.899 M285.200 200.000 L 285.200 285.200 200.000 285.200 L 114.800 285.200 114.800 200.000 L 114.800 114.800 200.000 114.800 L 285.200 114.800 285.200 200.000 M135.680 135.680 C 134.992 136.368,134.992 163.632,135.680 164.320 C 136.050 164.690,150.810 164.778,200.180 164.702 L 264.200 164.604 200.000 164.402 L 135.800 164.200 135.800 150.000 L 135.800 135.800 200.000 135.800 L 264.200 135.800 264.408 150.000 L 264.615 164.200 264.708 150.180 C 264.777 139.704,264.679 136.039,264.320 135.680 C 263.622 134.982,136.378 134.982,135.680 135.680 M135.680 185.680 C 134.992 186.368,134.992 213.632,135.680 214.320 C 136.225 214.865,221.002 215.043,221.338 214.500 C 221.440 214.335,202.236 214.200,178.662 214.200 L 135.800 214.200 135.800 200.000 L 135.800 185.800 178.662 185.800 C 202.236 185.800,221.440 185.665,221.338 185.500 C 221.002 184.957,136.225 185.135,135.680 185.680 M135.680 235.680 C 134.992 236.368,134.992 263.632,135.680 264.320 C 136.039 264.679,139.704 264.777,150.180 264.708 L 164.200 264.615 150.000 264.408 L 135.800 264.200 135.800 250.000 L 135.800 235.800 150.000 235.800 L 164.200 235.800 164.408 250.000 L 164.615 264.200 164.708 250.180 C 164.777 239.704,164.679 236.039,164.320 235.680 C 163.965 235.325,160.231 235.200,150.000 235.200 C 139.769 235.200,136.035 235.325,135.680 235.680 " stroke="none" fill="#cc5854" fill-rule="evenodd"></path></g></svg>