<svg id="svg" version="1.1" xmlns="http://www.w3.org/2000/svg" xmlns:xlink="http://www.w3.org/1999/xlink" width="400" height="400" viewBox="0, 0, 400,400"><g id="svgg"><path id="path0" d="M164.083 152.099 C 155.807 153.235,150.327 158.889,148.956 167.708 C 148.533 170.431,148.912 170.208,144.692 170.208 L 141.042 170.208 141.042 173.021 L 141.042 175.833 144.792 175.833 L 148.542 175.833 148.542 203.438 L 148.542 231.042 152.708 231.042 L 156.875 231.042 156.875 203.438 L 156.875 175.833 166.510 175.836 L 176.146 175.839 174.961 176.883 C 156.425 193.224,163.935 227.498,187.214 232.809 C 206.138 237.126,223.934 218.397,220.857 197.404 C 220.618 195.777,220.687 195.532,221.184 196.241 C 223.156 199.056,226.482 201.175,234.376 204.643 C 246.927 210.156,250.152 213.241,249.346 218.958 C 247.869 229.434,231.987 230.501,220.365 220.904 L 218.750 219.571 218.750 224.652 L 218.750 229.734 219.948 230.372 C 223.796 232.422,230.869 233.624,236.181 233.131 C 249.329 231.910,256.463 225.626,256.529 215.208 C 256.574 208.102,253.097 203.617,244.280 199.409 C 227.454 191.377,226.283 190.474,226.259 185.507 C 226.228 178.987,230.667 175.305,238.542 175.320 C 246.443 175.336,247.852 176.650,252.714 188.542 C 253.768 191.120,255.520 195.385,256.608 198.021 C 262.072 211.259,266.580 222.228,267.064 223.462 C 267.416 224.358,264.132 231.735,258.528 242.641 C 257.046 245.525,255.833 247.935,255.833 247.996 C 255.833 248.056,257.661 248.106,259.895 248.106 L 263.957 248.106 264.249 247.543 C 264.871 246.338,273.134 226.424,281.599 205.729 C 284.177 199.427,286.349 194.204,286.426 194.123 C 286.504 194.042,286.885 194.589,287.274 195.340 C 289.249 199.149,292.350 201.203,303.914 206.365 C 311.980 209.965,315.273 213.050,315.576 217.289 C 316.023 223.534,310.870 227.593,302.500 227.590 C 296.191 227.587,292.718 226.133,286.201 220.764 C 284.856 219.656,283.704 218.750,283.642 218.750 C 283.580 218.750,283.538 221.047,283.549 223.853 L 283.569 228.957 284.441 229.555 C 290.549 233.745,302.167 234.638,310.731 231.578 C 317.986 228.984,322.020 224.040,322.662 216.953 C 323.364 209.198,319.761 204.054,310.529 199.632 C 294.296 191.857,292.708 190.628,292.708 185.838 C 292.708 174.924,305.285 171.858,317.240 179.858 L 319.583 181.427 319.583 176.891 L 319.583 172.356 318.073 171.920 C 307.488 168.867,295.553 170.413,289.997 175.557 C 287.787 177.603,287.253 178.547,285.124 184.167 C 284.494 185.828,283.031 189.578,281.872 192.500 C 280.712 195.422,279.404 198.750,278.963 199.896 C 278.523 201.042,277.213 204.370,276.052 207.292 C 274.891 210.214,273.643 213.378,273.279 214.323 C 272.504 216.331,272.465 216.353,271.976 215.052 C 271.771 214.508,269.518 208.813,266.970 202.396 C 258.294 180.555,257.454 178.437,256.319 175.521 C 254.972 172.061,255.218 172.361,253.309 171.863 C 244.830 169.653,235.838 169.691,229.479 171.964 C 222.655 174.402,218.964 178.956,218.573 185.417 L 218.428 187.813 217.528 186.061 C 212.226 175.735,202.117 169.255,192.292 169.886 C 186.549 170.255,156.930 170.234,156.786 169.861 C 156.204 168.345,156.800 163.456,157.810 161.464 C 160.653 155.854,170.649 155.815,177.221 161.390 L 178.550 162.518 178.494 157.978 L 178.438 153.438 176.858 152.988 C 174.011 152.179,167.039 151.694,164.083 152.099 M77.136 191.615 L 77.188 230.938 81.927 230.993 L 86.667 231.049 86.667 191.671 L 86.667 152.292 81.876 152.292 L 77.084 152.292 77.136 191.615 M120.391 170.009 C 113.596 170.504,108.701 172.807,104.938 177.280 C 104.628 177.648,104.367 177.871,104.357 177.776 C 104.283 177.069,104.246 175.974,104.209 173.490 L 104.167 170.625 100.104 170.625 L 96.042 170.625 96.042 200.833 L 96.042 231.042 100.208 231.042 L 104.375 231.042 104.375 208.743 C 104.375 182.570,104.173 184.496,107.265 181.188 C 115.009 172.903,128.807 175.428,130.935 185.521 C 131.195 186.753,131.243 190.392,131.246 209.010 L 131.250 231.042 135.417 231.042 L 139.583 231.042 139.583 207.061 C 139.583 180.899,139.628 181.947,138.397 179.494 C 135.085 172.896,128.486 169.420,120.391 170.009 M196.958 176.751 C 212.672 182.083,217.166 209.121,204.547 222.406 C 191.819 235.804,173.291 223.716,173.240 201.979 C 173.199 184.844,184.714 172.596,196.958 176.751 " stroke="none" fill="#f7f9fa" fill-rule="evenodd"></path><path id="path1" d="M0.000 200.000 L 0.000 400.000 200.000 400.000 L 400.000 400.000 400.000 200.000 L 400.000 0.000 200.000 0.000 L 0.000 0.000 0.000 200.000 M171.197 151.884 C 174.220 152.100,177.964 152.875,178.480 153.391 C 178.690 153.601,178.718 154.628,178.612 158.164 L 178.476 162.670 176.845 161.342 C 170.329 156.038,160.841 156.175,157.967 161.614 C 157.036 163.377,156.306 169.084,156.932 169.710 C 156.975 169.752,164.456 169.766,173.557 169.740 C 197.473 169.670,196.122 169.651,198.021 170.084 C 206.344 171.981,213.115 177.364,217.438 185.521 L 218.321 187.188 218.329 186.042 C 218.396 175.991,226.741 170.110,240.938 170.107 C 246.540 170.106,246.826 170.140,252.431 171.484 L 255.174 172.141 256.635 175.810 C 257.439 177.828,259.470 182.948,261.150 187.188 C 265.283 197.618,270.450 210.642,271.560 213.426 L 272.470 215.706 273.004 214.498 C 273.298 213.833,273.765 212.667,274.041 211.905 C 274.318 211.144,275.733 207.521,277.186 203.854 C 278.639 200.188,280.762 194.797,281.905 191.875 C 283.048 188.953,284.364 185.625,284.828 184.479 C 285.293 183.333,285.857 181.833,286.081 181.146 C 289.047 172.057,302.005 167.812,316.214 171.273 C 317.626 171.617,319.012 172.003,319.293 172.131 L 319.804 172.364 319.783 176.908 C 319.772 179.407,319.692 181.495,319.605 181.549 C 319.519 181.603,318.752 181.155,317.901 180.554 C 313.476 177.429,310.336 176.080,306.492 175.651 C 298.566 174.766,292.930 178.870,292.919 185.535 C 292.911 190.528,294.302 191.630,310.371 199.356 C 319.273 203.637,322.660 207.804,322.830 214.688 C 323.031 222.790,319.327 228.355,311.654 231.477 C 303.357 234.854,291.010 234.139,284.712 229.917 L 283.438 229.063 283.400 223.802 C 283.356 217.699,283.181 217.996,285.625 220.030 C 292.383 225.658,295.788 227.242,301.563 227.445 C 310.230 227.750,315.879 223.561,315.349 217.220 C 314.976 212.770,311.378 209.667,301.918 205.638 C 292.821 201.764,289.192 199.291,287.145 195.573 C 286.474 194.353,286.444 194.353,285.971 195.574 C 285.760 196.118,285.505 196.750,285.404 196.979 C 285.303 197.208,284.554 199.036,283.740 201.042 C 282.926 203.047,281.758 205.906,281.145 207.396 C 280.532 208.885,279.125 212.307,278.019 215.000 C 273.772 225.339,273.063 227.054,272.035 229.479 C 271.453 230.854,270.623 232.870,270.191 233.958 C 269.090 236.734,265.085 246.162,264.526 247.292 L 264.063 248.229 259.844 248.286 C 257.290 248.320,255.625 248.264,255.625 248.145 C 255.625 248.036,257.105 245.011,258.914 241.422 C 262.316 234.673,263.624 231.947,265.835 227.000 L 267.129 224.105 266.606 222.834 C 266.319 222.135,265.568 220.297,264.939 218.750 C 263.608 215.481,261.985 211.537,259.624 205.833 C 256.138 197.412,253.868 191.892,252.811 189.271 C 248.368 178.253,247.200 176.765,242.188 175.731 C 233.359 173.909,226.458 178.177,226.458 185.461 C 226.458 189.831,227.839 191.179,236.771 195.524 C 246.385 200.201,247.253 200.648,249.154 201.900 C 256.713 206.880,258.953 214.958,255.007 223.010 C 250.187 232.847,232.556 236.725,220.208 230.663 L 218.646 229.896 218.590 224.635 C 218.560 221.742,218.613 219.375,218.710 219.375 C 218.806 219.375,219.488 219.899,220.224 220.540 C 231.344 230.215,247.280 229.367,249.209 218.998 C 250.179 213.780,246.418 210.027,235.571 205.393 C 228.202 202.244,224.970 200.412,222.529 197.998 L 220.996 196.481 221.129 197.668 C 223.377 217.675,208.529 235.124,190.596 233.548 C 165.796 231.369,155.308 197.127,173.586 178.009 L 175.466 176.042 166.275 176.042 L 157.083 176.042 157.083 203.646 L 157.083 231.250 152.708 231.250 L 148.333 231.250 148.333 203.646 L 148.333 176.042 144.578 176.042 L 140.822 176.042 140.880 172.969 L 140.938 169.896 144.670 169.792 L 148.403 169.688 148.475 169.063 C 149.899 156.755,157.629 150.911,171.197 151.884 M86.667 191.690 L 86.667 231.250 81.875 231.250 L 77.083 231.250 77.083 191.671 L 77.083 152.092 81.302 152.036 C 83.622 152.005,85.779 152.013,86.094 152.055 L 86.667 152.131 86.667 191.690 M126.366 170.002 C 131.363 171.040,136.209 174.749,138.498 179.287 C 139.853 181.975,139.792 180.643,139.792 207.165 L 139.792 231.250 135.424 231.250 L 131.056 231.250 130.997 208.490 L 130.938 185.729 130.432 184.299 C 126.914 174.356,112.549 173.645,105.999 183.090 C 104.496 185.257,104.583 183.673,104.583 208.745 L 104.583 231.250 100.208 231.250 L 95.833 231.250 95.833 200.833 L 95.833 170.417 99.988 170.417 C 102.273 170.417,104.191 170.496,104.251 170.593 C 104.311 170.689,104.371 172.236,104.386 174.030 C 104.400 175.824,104.427 177.291,104.446 177.291 C 104.464 177.290,105.182 176.622,106.042 175.806 C 111.162 170.943,119.469 168.571,126.366 170.002 M188.988 176.566 C 170.530 181.727,167.523 214.905,184.565 225.370 C 200.634 235.239,217.126 213.402,209.993 191.702 C 206.463 180.963,197.181 174.275,188.988 176.566 " stroke="none" fill="#2373bc" fill-rule="evenodd"></path><path id="path2" d="M164.847 157.441 C 165.163 157.489,165.632 157.488,165.888 157.438 C 166.145 157.389,165.885 157.350,165.313 157.351 C 164.740 157.353,164.530 157.393,164.847 157.441 M192.450 169.731 C 192.709 169.781,193.084 169.779,193.284 169.726 C 193.483 169.674,193.271 169.634,192.813 169.636 C 192.354 169.638,192.191 169.681,192.450 169.731 M104.226 171.771 C 104.228 172.344,104.268 172.553,104.316 172.237 C 104.364 171.920,104.363 171.451,104.313 171.195 C 104.264 170.939,104.225 171.198,104.226 171.771 M222.383 176.094 L 221.771 176.771 222.448 176.159 C 223.079 175.589,223.221 175.417,223.060 175.417 C 223.024 175.417,222.719 175.721,222.383 176.094 M148.434 203.333 C 148.434 218.057,148.459 224.081,148.490 216.719 C 148.520 209.357,148.520 197.310,148.490 189.948 C 148.459 182.586,148.434 188.609,148.434 203.333 M174.049 177.552 L 173.438 178.229 174.115 177.617 C 174.487 177.281,174.792 176.976,174.792 176.940 C 174.792 176.779,174.620 176.921,174.049 177.552 M139.635 207.027 L 139.583 231.033 135.573 231.094 L 131.563 231.155 135.579 231.203 C 138.637 231.239,139.620 231.188,139.696 230.990 C 139.750 230.846,139.770 219.995,139.740 206.875 L 139.686 183.021 139.635 207.027 M104.475 209.063 C 104.475 220.865,104.500 225.662,104.531 219.724 C 104.562 213.785,104.562 204.129,104.531 198.265 C 104.500 192.402,104.475 197.260,104.475 209.063 M164.423 199.167 C 164.423 199.568,164.466 199.732,164.519 199.531 C 164.571 199.331,164.571 199.003,164.519 198.802 C 164.466 198.602,164.423 198.766,164.423 199.167 M173.173 200.000 C 173.173 200.401,173.216 200.565,173.269 200.365 C 173.321 200.164,173.321 199.836,173.269 199.635 C 173.216 199.435,173.173 199.599,173.173 200.000 M211.715 203.542 C 211.715 203.943,211.758 204.107,211.810 203.906 C 211.863 203.706,211.863 203.378,211.810 203.177 C 211.758 202.977,211.715 203.141,211.715 203.542 M318.533 204.844 C 319.396 205.764,319.583 205.929,319.583 205.773 C 319.583 205.739,319.138 205.294,318.594 204.783 L 317.604 203.854 318.533 204.844 M256.723 214.792 C 256.723 215.307,256.764 215.518,256.814 215.260 C 256.863 215.003,256.863 214.581,256.814 214.323 C 256.764 214.065,256.723 214.276,256.723 214.792 M180.938 222.708 C 181.385 223.167,181.798 223.542,181.855 223.542 C 181.913 223.542,181.593 223.167,181.146 222.708 C 180.698 222.250,180.285 221.875,180.228 221.875 C 180.171 221.875,180.490 222.250,180.938 222.708 M79.833 231.197 C 80.830 231.235,82.518 231.235,83.583 231.197 C 84.649 231.159,83.833 231.128,81.771 231.128 C 79.708 231.128,78.836 231.159,79.833 231.197 M98.281 231.197 C 99.227 231.235,100.773 231.235,101.719 231.197 C 102.664 231.158,101.891 231.126,100.000 231.126 C 98.109 231.126,97.336 231.158,98.281 231.197 M151.292 231.197 C 152.288 231.235,153.976 231.235,155.042 231.197 C 156.107 231.159,155.292 231.128,153.229 231.128 C 151.167 231.128,150.295 231.159,151.292 231.197 " stroke="none" fill="#7badd8" fill-rule="evenodd"></path><path id="path3" d="M169.115 152.022 C 169.372 152.072,169.794 152.072,170.052 152.022 C 170.310 151.972,170.099 151.932,169.583 151.932 C 169.068 151.932,168.857 151.972,169.115 152.022 M79.647 152.239 C 81.000 152.275,83.156 152.275,84.439 152.239 C 85.721 152.202,84.615 152.173,81.979 152.173 C 79.344 152.173,78.294 152.203,79.647 152.239 M166.510 157.435 C 166.711 157.488,167.039 157.488,167.240 157.435 C 167.440 157.383,167.276 157.340,166.875 157.340 C 166.474 157.340,166.310 157.383,166.510 157.435 M121.409 169.939 C 121.668 169.989,122.043 169.987,122.242 169.935 C 122.441 169.883,122.229 169.842,121.771 169.844 C 121.313 169.847,121.150 169.889,121.409 169.939 M140.924 170.271 C 140.867 170.421,140.850 171.757,140.886 173.240 L 140.951 175.938 140.996 173.078 L 141.042 170.218 144.740 170.156 L 148.438 170.094 144.733 170.047 C 141.847 170.010,141.006 170.060,140.924 170.271 M164.859 170.156 C 169.308 170.188,176.527 170.188,180.901 170.156 C 185.275 170.125,181.635 170.099,172.813 170.099 C 163.990 170.099,160.411 170.125,164.859 170.156 M240.156 170.154 C 240.758 170.196,241.742 170.196,242.344 170.154 C 242.945 170.112,242.453 170.077,241.250 170.077 C 240.047 170.077,239.555 170.112,240.156 170.154 M305.365 170.363 C 306.081 170.403,307.253 170.403,307.969 170.363 C 308.685 170.322,308.099 170.289,306.667 170.289 C 305.234 170.289,304.648 170.322,305.365 170.363 M95.936 200.830 C 95.937 227.623,95.974 231.143,96.250 231.163 C 96.428 231.176,96.451 231.148,96.303 231.099 C 96.097 231.030,96.032 224.695,95.989 200.766 L 95.935 170.521 95.936 200.830 M104.241 174.479 C 104.240 175.510,104.275 175.959,104.319 175.475 C 104.363 174.992,104.363 174.148,104.320 173.600 C 104.277 173.052,104.241 173.448,104.241 174.479 M106.344 175.677 L 105.521 176.563 106.406 175.739 C 106.893 175.286,107.292 174.888,107.292 174.854 C 107.292 174.696,107.110 174.854,106.344 175.677 M289.572 175.781 L 288.854 176.563 289.635 175.845 C 290.363 175.176,290.512 175.000,290.353 175.000 C 290.319 175.000,289.967 175.352,289.572 175.781 M156.976 203.438 C 156.976 218.677,157.001 224.881,157.031 217.223 C 157.062 209.566,157.062 197.097,157.031 189.515 C 157.001 181.933,156.976 188.198,156.976 203.438 M117.972 176.191 C 118.288 176.239,118.757 176.238,119.013 176.188 C 119.270 176.139,119.010 176.100,118.438 176.101 C 117.865 176.103,117.655 176.143,117.972 176.191 M218.301 186.374 C 218.261 187.016,218.299 187.584,218.385 187.637 C 218.471 187.690,218.542 187.165,218.542 186.471 C 218.542 184.886,218.395 184.827,218.301 186.374 M131.144 208.837 C 131.146 228.459,131.183 231.121,131.458 231.196 C 131.689 231.259,131.703 231.233,131.511 231.098 C 131.308 230.954,131.240 226.148,131.197 208.738 L 131.143 186.563 131.144 208.837 M294.375 190.690 C 294.375 190.726,294.680 191.031,295.052 191.367 L 295.729 191.979 295.117 191.302 C 294.547 190.671,294.375 190.529,294.375 190.690 M164.451 201.771 C 164.452 202.917,164.487 203.359,164.529 202.753 C 164.571 202.148,164.571 201.211,164.528 200.670 C 164.485 200.130,164.451 200.625,164.451 201.771 M221.090 200.417 C 221.090 200.818,221.133 200.982,221.185 200.781 C 221.238 200.581,221.238 200.253,221.185 200.052 C 221.133 199.852,221.090 200.016,221.090 200.417 M221.094 202.813 C 221.097 203.271,221.139 203.434,221.189 203.175 C 221.239 202.916,221.237 202.541,221.185 202.341 C 221.133 202.142,221.092 202.354,221.094 202.813 M252.396 204.792 C 252.960 205.365,253.469 205.833,253.526 205.833 C 253.583 205.833,253.168 205.365,252.604 204.792 C 252.040 204.219,251.531 203.750,251.474 203.750 C 251.417 203.750,251.832 204.219,252.396 204.792 M173.173 204.583 C 173.173 204.984,173.216 205.148,173.269 204.948 C 173.321 204.747,173.321 204.419,173.269 204.219 C 173.216 204.018,173.173 204.182,173.173 204.583 M322.757 215.833 C 322.757 216.234,322.800 216.398,322.852 216.198 C 322.904 215.997,322.904 215.669,322.852 215.469 C 322.800 215.268,322.757 215.432,322.757 215.833 M218.632 224.583 C 218.632 227.391,218.661 228.539,218.697 227.135 C 218.733 225.732,218.733 223.435,218.697 222.031 C 218.661 220.628,218.632 221.776,218.632 224.583 M312.905 224.115 L 312.188 224.896 312.969 224.178 C 313.696 223.510,313.846 223.333,313.687 223.333 C 313.652 223.333,313.300 223.685,312.905 224.115 M173.646 225.208 C 174.326 225.896,174.930 226.458,174.987 226.458 C 175.044 226.458,174.534 225.896,173.854 225.208 C 173.174 224.521,172.570 223.958,172.513 223.958 C 172.456 223.958,172.966 224.521,173.646 225.208 M212.383 224.635 L 211.771 225.313 212.448 224.701 C 212.820 224.364,213.125 224.059,213.125 224.024 C 213.125 223.863,212.953 224.004,212.383 224.635 M210.924 226.094 L 210.313 226.771 210.990 226.159 C 211.621 225.589,211.762 225.417,211.601 225.417 C 211.566 225.417,211.261 225.721,210.924 226.094 M251.868 227.031 L 250.729 228.229 251.927 227.090 C 252.586 226.464,253.125 225.925,253.125 225.893 C 253.125 225.738,252.926 225.918,251.868 227.031 M231.302 233.269 C 231.503 233.321,231.831 233.321,232.031 233.269 C 232.232 233.216,232.068 233.173,231.667 233.173 C 231.266 233.173,231.102 233.216,231.302 233.269 M297.760 233.477 C 297.961 233.529,298.289 233.529,298.490 233.477 C 298.690 233.425,298.526 233.382,298.125 233.382 C 297.724 233.382,297.560 233.425,297.760 233.477 M300.885 233.477 C 301.086 233.529,301.414 233.529,301.615 233.477 C 301.815 233.425,301.651 233.382,301.250 233.382 C 300.849 233.382,300.685 233.425,300.885 233.477 " stroke="none" fill="#89bde4" fill-rule="evenodd"></path><path id="path4" d="M166.198 151.820 C 166.799 151.862,167.784 151.862,168.385 151.820 C 168.987 151.778,168.495 151.744,167.292 151.744 C 166.089 151.744,165.596 151.778,166.198 151.820 M171.719 152.019 C 171.919 152.071,172.247 152.071,172.448 152.019 C 172.648 151.966,172.484 151.923,172.083 151.923 C 171.682 151.923,171.518 151.966,171.719 152.019 M178.613 155.104 C 178.614 156.021,178.650 156.370,178.694 155.880 C 178.738 155.390,178.738 154.640,178.693 154.213 C 178.648 153.787,178.612 154.188,178.613 155.104 M156.715 168.125 C 156.715 168.526,156.758 168.690,156.810 168.490 C 156.863 168.289,156.863 167.961,156.810 167.760 C 156.758 167.560,156.715 167.724,156.715 168.125 M144.688 169.792 L 140.938 169.910 144.740 169.955 C 147.165 169.984,148.542 169.925,148.542 169.792 C 148.542 169.677,148.518 169.603,148.490 169.628 C 148.461 169.653,146.750 169.726,144.688 169.792 M190.680 169.733 C 190.997 169.781,191.465 169.779,191.722 169.730 C 191.978 169.681,191.719 169.641,191.146 169.643 C 190.573 169.644,190.363 169.685,190.680 169.733 M194.013 169.733 C 194.330 169.781,194.799 169.779,195.055 169.730 C 195.311 169.681,195.052 169.641,194.479 169.643 C 193.906 169.644,193.697 169.685,194.013 169.733 M119.117 169.939 C 119.376 169.989,119.751 169.987,119.950 169.935 C 120.150 169.883,119.938 169.842,119.479 169.844 C 119.021 169.847,118.858 169.889,119.117 169.939 M164.620 169.948 C 168.937 169.979,176.062 169.979,180.453 169.948 C 184.845 169.916,181.313 169.891,172.604 169.891 C 163.896 169.891,160.303 169.916,164.620 169.948 M237.240 170.147 C 237.497 170.197,237.919 170.197,238.177 170.147 C 238.435 170.097,238.224 170.057,237.708 170.057 C 237.193 170.057,236.982 170.097,237.240 170.147 M243.805 170.149 C 244.122 170.197,244.590 170.196,244.847 170.147 C 245.103 170.097,244.844 170.058,244.271 170.060 C 243.698 170.061,243.488 170.102,243.805 170.149 M305.787 170.153 C 306.277 170.197,307.027 170.196,307.453 170.151 C 307.880 170.107,307.479 170.071,306.563 170.071 C 305.646 170.072,305.297 170.109,305.787 170.153 M310.052 170.352 C 310.253 170.404,310.581 170.404,310.781 170.352 C 310.982 170.300,310.818 170.257,310.417 170.257 C 310.016 170.257,309.852 170.300,310.052 170.352 M97.188 170.560 C 100.765 170.710,104.328 170.716,104.239 170.573 C 104.186 170.487,102.249 170.435,99.936 170.458 C 97.622 170.481,96.385 170.527,97.188 170.560 M319.672 176.563 C 319.672 178.969,319.702 179.925,319.739 178.687 C 319.776 177.449,319.776 175.480,319.739 174.312 C 319.702 173.143,319.671 174.156,319.672 176.563 M105.625 176.146 C 105.119 176.661,104.752 177.083,104.809 177.083 C 104.866 177.083,105.327 176.661,105.833 176.146 C 106.339 175.630,106.707 175.208,106.649 175.208 C 106.592 175.208,106.131 175.630,105.625 176.146 M142.656 175.989 C 143.716 176.026,145.451 176.026,146.510 175.989 C 147.570 175.951,146.703 175.920,144.583 175.920 C 142.464 175.920,141.596 175.951,142.656 175.989 M166.228 175.990 L 175.477 176.046 175.082 176.513 L 174.688 176.979 175.156 176.582 C 175.414 176.364,175.625 176.106,175.625 176.009 C 175.625 175.913,171.430 175.856,166.302 175.883 L 156.979 175.933 166.228 175.990 M191.823 176.189 C 192.081 176.238,192.503 176.238,192.760 176.189 C 193.018 176.139,192.807 176.098,192.292 176.098 C 191.776 176.098,191.565 176.139,191.823 176.189 M210.833 176.979 C 211.222 177.380,211.587 177.708,211.644 177.708 C 211.702 177.708,211.430 177.380,211.042 176.979 C 210.653 176.578,210.288 176.250,210.231 176.250 C 210.173 176.250,210.445 176.578,210.833 176.979 M246.667 177.565 C 246.667 177.601,246.971 177.906,247.344 178.242 L 248.021 178.854 247.409 178.177 C 246.839 177.546,246.667 177.404,246.667 177.565 M295.405 178.698 L 294.688 179.479 295.469 178.761 C 296.196 178.093,296.346 177.917,296.187 177.917 C 296.152 177.917,295.800 178.268,295.405 178.698 M172.799 178.802 L 172.188 179.479 172.865 178.867 C 173.237 178.531,173.542 178.226,173.542 178.190 C 173.542 178.029,173.370 178.171,172.799 178.802 M180.716 181.302 L 180.104 181.979 180.781 181.367 C 181.154 181.031,181.458 180.726,181.458 180.690 C 181.458 180.529,181.286 180.671,180.716 181.302 M226.303 185.313 C 226.305 185.771,226.348 185.934,226.397 185.675 C 226.447 185.416,226.445 185.041,226.393 184.841 C 226.341 184.642,226.300 184.854,226.303 185.313 M295.000 191.146 C 295.389 191.547,295.754 191.875,295.811 191.875 C 295.868 191.875,295.597 191.547,295.208 191.146 C 294.820 190.745,294.455 190.417,294.397 190.417 C 294.340 190.417,294.611 190.745,295.000 191.146 M286.402 194.309 C 286.348 194.403,286.491 194.667,286.720 194.896 L 287.137 195.313 286.874 194.792 C 286.536 194.123,286.519 194.106,286.402 194.309 M173.190 201.771 C 173.191 202.458,173.230 202.714,173.276 202.340 C 173.322 201.966,173.321 201.403,173.274 201.090 C 173.226 200.777,173.188 201.083,173.190 201.771 M211.723 202.083 C 211.723 202.599,211.764 202.810,211.814 202.552 C 211.863 202.294,211.863 201.872,211.814 201.615 C 211.764 201.357,211.723 201.568,211.723 202.083 M252.292 204.479 C 252.680 204.880,253.045 205.208,253.103 205.208 C 253.160 205.208,252.889 204.880,252.500 204.479 C 252.111 204.078,251.746 203.750,251.689 203.750 C 251.632 203.750,251.903 204.078,252.292 204.479 M221.090 204.792 C 221.090 205.193,221.133 205.357,221.185 205.156 C 221.238 204.956,221.238 204.628,221.185 204.427 C 221.133 204.227,221.090 204.391,221.090 204.792 M256.715 216.250 C 256.715 216.651,256.758 216.815,256.810 216.615 C 256.863 216.414,256.863 216.086,256.810 215.885 C 256.758 215.685,256.715 215.849,256.715 216.250 M283.421 224.167 C 283.421 226.516,283.452 227.477,283.489 226.302 C 283.526 225.128,283.526 223.206,283.489 222.031 C 283.452 220.857,283.421 221.818,283.421 224.167 M246.549 224.010 L 245.938 224.688 246.615 224.076 C 247.246 223.505,247.387 223.333,247.226 223.333 C 247.191 223.333,246.886 223.638,246.549 224.010 M211.555 225.677 L 210.521 226.771 211.615 225.737 C 212.631 224.776,212.804 224.583,212.648 224.583 C 212.615 224.583,212.123 225.076,211.555 225.677 M174.063 225.833 C 174.627 226.406,175.135 226.875,175.193 226.875 C 175.250 226.875,174.835 226.406,174.271 225.833 C 173.707 225.260,173.198 224.792,173.141 224.792 C 173.083 224.792,173.498 225.260,174.063 225.833 M252.072 227.031 L 251.354 227.813 252.135 227.095 C 252.565 226.700,252.917 226.348,252.917 226.313 C 252.917 226.154,252.740 226.304,252.072 227.031 M317.383 227.969 L 316.771 228.646 317.448 228.034 C 318.079 227.464,318.221 227.292,318.060 227.292 C 318.024 227.292,317.719 227.596,317.383 227.969 M301.827 227.651 C 302.201 227.697,302.764 227.696,303.077 227.649 C 303.390 227.601,303.083 227.563,302.396 227.565 C 301.708 227.566,301.452 227.605,301.827 227.651 M229.534 233.272 C 229.793 233.322,230.168 233.320,230.367 233.268 C 230.566 233.216,230.354 233.175,229.896 233.178 C 229.438 233.180,229.275 233.223,229.534 233.272 M236.825 233.272 C 237.084 233.322,237.459 233.320,237.659 233.268 C 237.858 233.216,237.646 233.175,237.188 233.178 C 236.729 233.180,236.566 233.223,236.825 233.272 M232.767 233.487 C 233.314 233.530,234.158 233.529,234.642 233.486 C 235.125 233.442,234.677 233.407,233.646 233.407 C 232.615 233.408,232.219 233.444,232.767 233.487 M295.885 233.477 C 296.086 233.529,296.414 233.529,296.615 233.477 C 296.815 233.425,296.651 233.382,296.250 233.382 C 295.849 233.382,295.685 233.425,295.885 233.477 M302.760 233.477 C 302.961 233.529,303.289 233.529,303.490 233.477 C 303.690 233.425,303.526 233.382,303.125 233.382 C 302.724 233.382,302.560 233.425,302.760 233.477 M192.347 233.691 C 192.663 233.739,193.132 233.738,193.388 233.688 C 193.645 233.639,193.385 233.600,192.813 233.601 C 192.240 233.603,192.030 233.643,192.347 233.691 M257.656 248.280 C 258.831 248.318,260.753 248.318,261.927 248.280 C 263.102 248.243,262.141 248.213,259.792 248.213 C 257.443 248.213,256.482 248.243,257.656 248.280 " stroke="none" fill="#4c8cc7" fill-rule="evenodd"></path></g></svg>