<?xml version="1.0" encoding="UTF-8" standalone="no"?>
<!-- Created with Inkscape (http://www.inkscape.org/) -->

<svg
   version="1.1"
   id="svg2"
   width="257.33334"
   height="257.33334"
   viewBox="0 0 257.33334 257.33334"
   sodipodi:docname="ITC_Limited.eps"
   xmlns:inkscape="http://www.inkscape.org/namespaces/inkscape"
   xmlns:sodipodi="http://sodipodi.sourceforge.net/DTD/sodipodi-0.dtd"
   xmlns="http://www.w3.org/2000/svg"
   xmlns:svg="http://www.w3.org/2000/svg">
  <defs
     id="defs6" />
  <sodipodi:namedview
     id="namedview4"
     pagecolor="#ffffff"
     bordercolor="#000000"
     borderopacity="0.25"
     inkscape:showpageshadow="2"
     inkscape:pageopacity="0.0"
     inkscape:pagecheckerboard="0"
     inkscape:deskcolor="#d1d1d1" />
  <g
     id="g8"
     inkscape:groupmode="layer"
     inkscape:label="ink_ext_XXXXXX"
     transform="matrix(1.3333333,0,0,-1.3333333,0,257.33333)">
    <g
       id="g10"
       transform="scale(0.1)">
      <path
         d="M 0,1927.56 H 1927.56 V 0 H 0 v 1927.56"
         style="fill:#ffffff;fill-opacity:1;fill-rule:evenodd;stroke:none"
         id="path12" />
      <path
         d="m 1563.52,258.09 c 0,30.59 7.66,55.996 28.29,55.996 17.4,0 30.35,-22.41 30.35,-55.996 0,-35.672 -13.12,-55.414 -29.31,-55.414 -16.2,0 -29.33,11.793 -29.33,55.414 z m -31.54,-0.891 c 0,34.184 27.26,62.188 55.41,62.188 14.18,0 25.36,-7.172 32.97,-18.649 0.55,-0.179 1.5,-0.332 1.73,0.707 l -0.06,46.754 c 0,5.106 -2.84,10.074 -9.16,11.442 -6.48,1.386 -14.26,0.894 -14.26,0.894 -1.23,0 -2.23,1 -2.23,2.235 0,1.23 1.05,2.226 2.28,2.226 l 43.15,3.055 c 0,0 8.39,2.152 8.39,-5.141 0,-7.285 -0.11,-12.996 -0.11,-12.996 l -0.07,-133.687 c 0,-5.118 1.53,-10.801 7.86,-12.168 6.47,-1.391 14.25,-0.899 14.25,-0.899 1.23,0 2.23,-1 2.23,-2.23 0,-1.219 -1.03,-2.227 -2.26,-2.227 l -41.82,-2.043 c 0,0 -8.28,-1.652 -8.18,5.379 0.11,7.285 0.11,12.996 0.11,12.996 -0.11,0.723 -0.69,1.27 -1.48,1.27 -0.5,0 -0.93,-0.305 -1.18,-0.692 -8.8,-12.179 -21.65,-19.715 -36.57,-19.715 -28.17,0 -51,27.129 -51,61.301 z m -59.53,56.446 c 5.9,0 22.86,-0.27 23.88,-27.415 0.88,-23.57 -3.24,-20.628 -15.63,-20.921 -12.36,-0.293 -28.28,0 -28.28,0 -3.24,0 -8.58,-1.36 -7.08,8.543 1.48,9.742 3.18,39.793 27.11,39.793 z m -0.33,-119.008 c -32.81,0 -59.45,27.801 -59.45,62.101 0,30.543 26.6,62.086 59.42,62.086 0,0 51.19,1.946 51.64,-53.222 0.02,-1.704 0.09,-5.528 -3.23,-5.309 l -71.62,-0.055 c 0,0 -4.72,0.653 -4.67,-4.656 0.05,-4.355 -6.08,-56.535 34.06,-54.934 33.38,1.336 38.06,33.379 38.06,33.379 0,0 0.5,4.332 3.49,4.137 2.97,-0.191 2.86,-2.844 2.74,-5.57 -0.13,-2.723 -6.19,-37.125 -50.44,-37.957 z m -103.31,166.566 v -41.015 c 0,-3.286 3.29,-3.766 3.29,-3.766 h 29.25 c 0.28,0.012 0.57,0.051 0.88,0.051 1.7,0 3.11,-1.391 3.11,-3.106 0,-1.719 -1.41,-3.109 -3.11,-3.109 -0.44,0 -0.87,0.094 -1.24,0.254 h -27.28 c -4.66,0 -4.72,-4.469 -4.72,-4.469 v -90.375 c 0,0 -0.36,-13.852 14.57,-14.031 23.69,-0.282 21.55,33.07 21.55,33.07 0.26,1.508 1.54,2.691 3.1,2.691 1.56,0 2.86,-1.183 3.05,-2.691 0.06,-3.191 0.22,-42.187 -34.33,-42.016 -36.83,0.18 -37.18,24.946 -37.01,27.813 v 84.277 c 0,5.977 -3.4,5.731 -3.4,5.731 h -13.16 c -0.38,-0.16 -0.8,-0.254 -1.23,-0.254 -1.72,0 -3.11,1.39 -3.11,3.109 0,1.715 1.39,3.106 3.11,3.106 0.19,0 0.41,-0.02 0.61,-0.063 9.82,-0.469 18.87,2.957 27.93,13.145 8.58,9.644 11.83,29.89 12.2,32.3 -0.03,0.165 -0.04,0.329 -0.04,0.516 0,1.715 1.39,3.109 3.1,3.109 1.73,0 3.11,-1.394 3.11,-3.109 0,-0.414 -0.08,-0.805 -0.23,-1.168 z M 991.184,311.367 c 0,7.297 -8.391,5.145 -8.391,5.145 l -41.883,-2.137 c -1.23,0 -2.258,-1 -2.258,-2.227 0,-1.234 0.993,-2.23 2.231,-2.23 0,0 6.461,-0.574 12.937,-1.98 6.328,-1.364 9.063,-4.446 9.063,-9.559 V 214.27 c 0,-5.114 -2.735,-8.211 -9.063,-9.575 -6.476,-1.402 -13.086,-3.375 -13.086,-3.375 -1.234,0 -2.234,-0.988 -2.234,-2.211 0,-1.23 1.027,-2.23 2.258,-2.23 h 73.652 c 1.22,0 2.26,1 2.26,2.23 0,1.223 -1,2.211 -2.23,2.211 0,0 -8.22,0.977 -14.698,2.371 -6.324,1.368 -8.668,4.071 -8.668,9.172 v 85.516 c 0,0 0.11,5.703 0.11,12.988 z m -31.176,38.719 c 0,9.035 7.324,16.363 16.347,16.363 9.04,0 16.364,-7.328 16.364,-16.363 0,-9.039 -7.324,-16.359 -16.364,-16.359 -9.023,0 -16.347,7.32 -16.347,16.359 z M 1309.3,311.367 c 0,7.297 -8.4,5.145 -8.4,5.145 l -41.88,-2.137 c -1.23,0 -2.26,-1 -2.26,-2.227 0,-1.234 1,-2.23 2.23,-2.23 0,0 6.46,-0.574 12.94,-1.98 6.33,-1.364 9.06,-4.446 9.06,-9.559 V 214.27 c 0,-5.114 -2.73,-8.211 -9.06,-9.575 -6.48,-1.402 -13.09,-3.375 -13.09,-3.375 -1.25,0 -2.23,-0.988 -2.23,-2.211 0,-1.23 1.03,-2.23 2.26,-2.23 h 73.63 c 1.23,0 2.27,1 2.27,2.23 0,1.223 -0.99,2.211 -2.22,2.211 0,0 -8.23,0.977 -14.7,2.371 -6.33,1.368 -8.67,4.071 -8.67,9.172 v 85.516 c 0,0 0.12,5.703 0.12,12.988 z m -31.18,38.719 c 0,9.035 7.31,16.363 16.34,16.363 9.04,0 16.37,-7.328 16.37,-16.363 0,-9.039 -7.33,-16.359 -16.37,-16.359 -9.03,0 -16.34,7.32 -16.34,16.359 z m -128.04,-53.563 c 0.44,-1.062 0.8,-2.242 1.09,-3.492 0.71,-1.648 1.53,-3.129 2.21,-3.129 1.55,0 3.1,4.411 4.42,6.621 1.32,2.204 15.64,21.422 34.95,22.18 19.3,0.746 32.18,-5.527 39.4,-21.078 2.86,-6.18 1.76,-24.375 1.76,-24.375 l -1.44,-60.344 c 0,-5.101 2.73,-8.203 9.06,-9.562 6.47,-1.403 11.11,-1.981 11.11,-1.981 1.24,0 2.23,-0.996 2.23,-2.222 0,-1.239 -1.04,-2.231 -2.27,-2.231 h -70.52 c -1.23,0 -2.26,0.992 -2.26,2.231 0,1.226 1,2.222 2.23,2.222 0,0 5.25,0.578 11.71,1.981 6.34,1.359 9.06,4.461 9.06,9.562 l 0.04,70.594 c 0,0 3.57,26.141 -15.2,26.141 -17.55,0 -27,-19.868 -30.3,-27.922 -2.02,-4.899 -4.05,-14.399 -5.07,-23.172 v -45.641 c 0,-5.101 2.74,-8.203 9.07,-9.562 6.47,-1.403 11.1,-1.981 11.1,-1.981 1.24,0 2.23,-0.996 2.23,-2.222 0,-1.239 -1.03,-2.231 -2.26,-2.231 h -70.52 c -1.23,0 -2.26,0.992 -2.26,2.231 0,1.226 0.99,2.222 2.23,2.222 0,0 5.24,0.578 11.71,1.981 6.32,1.359 9.06,4.461 9.06,9.562 l 0.04,70.594 c 0,0 2.33,26.805 -15.2,26.141 -17.54,-0.661 -26.47,-19.653 -29.77,-27.696 -2.34,-5.66 -4.56,-18.023 -5.29,-28.097 v -40.942 c 0,-5.101 2.73,-8.203 9.06,-9.562 6.47,-1.403 11.11,-1.981 11.11,-1.981 1.23,0 2.22,-0.996 2.22,-2.222 0,-1.239 -1.02,-2.231 -2.25,-2.231 h -73.12 c -1.23,0 -2.26,0.992 -2.26,2.231 0,1.226 1,2.222 2.23,2.222 0,0 7.83,0.578 14.3,1.981 6.33,1.359 9.06,4.461 9.06,9.562 v 85.512 c 0,5.105 -2.73,8.203 -9.06,9.562 -6.47,1.403 -12.94,1.977 -12.94,1.977 -1.23,0 -2.23,1 -2.23,2.231 0,1.226 1.03,3.191 2.26,3.191 l 43.34,2.144 c 0,0 8.39,1.18 8.39,-6.113 0,-7.293 -0.11,-12.992 -0.11,-12.992 v -6.258 c 0.48,-0.562 0.92,-0.941 1.3,-0.941 1.56,0 3.1,4.207 4.42,6.406 1.33,2.215 15.12,20.32 34.42,21.078 19.3,0.746 30.81,-6.394 37.51,-22.18 z M 846.836,344.73 V 214.289 c 0,-5.57 2.973,-8.934 9.844,-10.41 4.578,-0.992 9.91,-1.719 13.066,-1.676 3.942,0.039 24.977,1.219 35.559,8.836 9.863,7.113 16.683,19.774 20.043,33.578 3.355,13.824 2.965,14.41 2.965,14.41 0,0 0.39,5.442 2.765,5.243 2.36,-0.192 2.953,-3.469 2.754,-5.829 -0.191,-2.371 0,-57.582 0,-57.582 0,0 0.965,-3.914 -4.172,-3.914 l -138.828,-0.054 c -1.336,0 -2.453,1.086 -2.453,2.418 0,1.339 1.078,2.433 2.422,2.433 0,0 8.512,0.625 15.543,2.137 6.875,1.476 9.847,4.84 9.847,10.41 V 344.73 c 0,5.547 -2.972,8.915 -9.847,10.399 -7.031,1.519 -15.543,2.137 -15.543,2.137 -1.344,0 -2.422,1.089 -2.422,2.422 0,1.339 1.117,2.429 2.453,2.429 h 85.367 c 1.332,0 2.453,-1.09 2.453,-2.429 0,-1.333 -1.078,-2.422 -2.422,-2.422 0,0 -12.503,-0.618 -19.55,-2.137 -6.871,-1.484 -9.844,-4.852 -9.844,-10.399 z M 693.148,304.785 c 0,0 0.2,-4.457 -1.781,-4.512 -1.988,-0.054 -2.734,2.043 -3.437,4.293 -0.692,2.247 -5.617,18.375 -9.746,26.043 -4.129,7.664 -16.5,35.657 -45.09,33.891 -28.59,-1.766 -33.891,-21.516 -37.434,-36.258 -3.535,-14.734 -5.004,-48.629 -4.715,-55.406 0.297,-6.777 -3.246,-75.449 45.387,-73.68 48.633,1.774 52.758,45.098 52.758,56.59 0.289,1.481 0.301,3.027 2.5,3.078 2.199,0.039 5.359,0.332 5.41,-3.301 0.047,-3.628 -2.312,-27.781 -12.328,-39.863 -10.027,-12.086 -21.813,-20.031 -48.633,-21.508 -26.824,-1.484 -55.703,20.34 -61.594,30.942 -5.902,10.609 -19.168,26.82 -17.98,58.949 1.172,32.121 22.691,61.012 35.953,70.734 13.254,9.723 27.41,14.434 40.676,14.434 13.254,0 25.617,-3.059 38.605,-12.965 11.196,-8.543 13.266,2.063 13.848,3.543 0.594,1.473 1.562,7.981 4.297,7.981 2.726,0 2.492,-2.856 2.492,-3.446 z M 466.781,352.637 V 214.289 c 0,-5.559 2.961,-8.922 9.836,-10.398 7.043,-1.524 19.586,-2.149 19.586,-2.149 1.344,0 2.422,-1.082 2.422,-2.426 0,-1.339 -1.117,-2.418 -2.449,-2.418 h -92.219 c -1.336,0 -2.449,1.079 -2.449,2.418 0,1.344 1.078,2.426 2.422,2.426 0,0 8.511,0.625 15.543,2.149 6.879,1.476 16.664,4.839 16.664,10.398 l 0.031,138.859 c -0.316,4.262 -2.906,4.137 -2.906,4.137 0,0 -7.364,1.121 -16.883,-1.879 -9.887,-3.097 -18.047,-16.047 -23.879,-29.914 -5.387,-12.812 -8.145,-28.691 -8.145,-28.691 0,-1.59 -1.32,-2.875 -2.898,-2.875 -1.594,0 -2.879,1.285 -2.879,2.875 v 66.246 h 70.602 4.144 70.602 v -66.246 c 0,-1.59 -1.289,-2.875 -2.875,-2.875 -1.578,0 -2.906,1.285 -2.906,2.875 0,0 -1.946,14.672 -7.805,28.883 -6.106,14.777 -13.485,27.89 -25.067,30.23 -9.796,1.981 -16.019,1.371 -16.019,1.371 0,0 -2.156,-0.855 -2.473,-4.648 z M 311.625,345 c 0,5.559 2.969,8.918 9.848,10.402 7.031,1.52 15.543,2.145 15.543,2.145 1.343,0 2.422,1.09 2.422,2.426 0,1.336 -1.122,2.418 -2.461,2.418 h -81.356 c -1.332,0 -2.449,-1.082 -2.449,-2.418 0,-1.336 1.078,-2.426 2.41,-2.426 0,0 8.523,-0.625 15.555,-2.145 6.875,-1.484 9.843,-4.843 9.843,-10.402 V 214.559 c 0,-5.559 -2.968,-8.911 -9.843,-10.399 -7.032,-1.523 -15.555,-2.144 -15.555,-2.144 -1.332,0 -2.41,-1.086 -2.41,-2.422 0,-1.336 1.117,-2.418 2.449,-2.418 h 81.356 c 1.339,0 2.461,1.082 2.461,2.418 0,1.336 -1.079,2.422 -2.422,2.422 0,0 -8.512,0.621 -15.543,2.144 -6.879,1.488 -9.848,4.84 -9.848,10.399 V 345"
         style="fill:#2c376f;fill-opacity:1;fill-rule:evenodd;stroke:none"
         id="path14" />
      <path
         d="m 1266.91,756.32 c -8.58,0 -15.53,-6.953 -15.53,-15.527 0,-2.656 0.78,-5.047 1.95,-7.215 l 47.49,-87.937 c 6.39,-12.653 19.8,-21.098 34.95,-21.098 h 200.37 l 137.88,-155.516 h -464.97 c -1.75,-0.183 -3.53,-0.273 -5.32,-0.273 -25.18,0 -46.14,17.973 -50.8,41.793 l -81.39,325.945 c -0.52,2.551 -0.81,5.164 -0.81,7.84 0,20.016 16.22,36.231 36.23,36.231 1.11,0 2.22,-0.051 3.3,-0.153 h 198.36 L 1419.1,756.32 Z M 792.203,880.289 731.84,742.852 808.414,742.738 726.523,468.875 h 237.434 l -0.059,274.578 h 75.122 l -20.11,136.836 z m -173.039,0 H 749.277 L 524.129,468.875 H 252.906 Z M 972.211,1812.53 1740.02,468.762 1070.24,1185.02 Z M 954.75,1812.38 187.543,469.176 856.945,1185.8 954.75,1812.38"
         style="fill:#2c376f;fill-opacity:1;fill-rule:evenodd;stroke:none"
         id="path16" />
    </g>
  </g>
</svg>
