<svg id="svg" version="1.1" xmlns="http://www.w3.org/2000/svg" xmlns:xlink="http://www.w3.org/1999/xlink" width="400" height="400" viewBox="0, 0, 400,400"><g id="svgg"><path id="path0" d="M193.000 86.611 C 186.969 87.711,182.870 89.298,177.600 92.574 C 169.740 97.459,163.150 105.633,160.165 114.200 C 159.188 117.003,159.175 117.008,156.133 115.895 C 147.998 112.917,137.095 112.908,128.600 115.871 C 102.725 124.896,91.765 156.681,106.524 179.892 C 107.946 182.128,108.040 181.918,104.500 184.414 C 96.953 189.736,90.582 198.268,88.231 206.200 C 87.002 210.350,86.860 210.935,86.425 213.646 C 82.745 236.576,98.564 258.413,121.900 262.617 C 126.110 263.375,125.866 262.980,125.140 267.863 C 124.543 271.875,125.797 281.906,127.218 284.495 C 127.428 284.877,127.600 285.382,127.600 285.618 C 127.600 287.722,133.646 297.443,137.292 301.202 C 145.223 309.378,156.135 314.000,167.506 314.000 C 178.367 314.000,188.603 309.877,196.694 302.245 C 200.048 299.081,199.290 299.110,202.407 302.023 C 225.184 323.309,259.623 315.435,271.611 286.200 C 271.924 285.435,272.519 283.357,273.671 279.000 C 274.019 277.684,274.188 274.661,274.165 270.158 L 274.131 263.316 278.143 262.614 C 280.350 262.228,282.526 261.775,282.978 261.607 C 283.430 261.439,284.520 261.078,285.400 260.804 C 296.062 257.480,308.133 245.628,311.310 235.364 C 313.371 228.705,313.983 225.161,313.992 219.824 C 314.017 205.729,306.810 192.001,295.300 184.219 C 291.931 181.942,292.022 182.215,293.727 179.508 C 296.419 175.233,297.920 171.315,299.556 164.294 C 300.097 161.974,300.145 151.251,299.624 149.246 C 299.417 148.451,298.958 146.630,298.604 145.200 C 296.494 136.683,290.753 128.185,282.797 121.800 C 272.993 113.933,256.215 111.378,243.911 115.878 C 240.884 116.985,240.572 116.919,240.191 115.095 C 238.981 109.306,230.519 97.695,224.907 94.123 C 224.298 93.736,223.710 93.324,223.600 93.209 C 223.309 92.905,221.773 92.046,218.600 90.413 C 211.032 86.520,201.371 85.085,193.000 86.611 M204.400 116.355 C 207.526 118.842,207.532 118.873,207.568 134.651 C 207.594 146.228,207.495 148.953,207.006 150.124 C 204.308 156.582,195.762 156.538,192.979 150.051 C 191.914 147.569,192.148 121.727,193.258 119.367 C 195.326 114.967,200.796 113.489,204.400 116.355 M140.691 146.307 C 142.559 147.283,146.922 150.961,154.799 158.200 C 156.236 159.520,158.423 161.500,159.659 162.600 C 162.552 165.174,163.600 167.043,163.600 169.628 C 163.600 177.078,155.444 179.544,149.800 173.801 C 149.360 173.353,148.280 172.375,147.400 171.627 C 145.384 169.914,140.218 165.321,138.822 164.000 C 138.240 163.450,136.532 161.920,135.024 160.600 C 131.308 157.346,130.400 155.831,130.400 152.888 C 130.400 147.196,135.794 143.747,140.691 146.307 M264.067 145.952 C 267.478 147.433,268.800 149.357,268.800 152.839 C 268.800 156.400,267.322 158.254,258.600 165.633 C 257.720 166.378,256.634 167.350,256.186 167.793 C 255.739 168.237,253.759 170.039,251.786 171.798 C 249.814 173.557,248.110 175.091,248.000 175.207 C 244.250 179.165,236.711 176.552,235.818 170.984 C 235.167 166.933,236.011 165.741,245.605 157.165 C 247.472 155.495,250.859 152.467,253.131 150.435 C 258.846 145.324,260.787 144.529,264.067 145.952 M150.240 210.336 C 156.216 214.685,153.930 222.334,146.109 224.162 C 144.399 224.561,142.640 225.025,142.200 225.193 C 141.760 225.360,139.960 225.810,138.200 226.193 C 136.440 226.575,134.640 227.024,134.200 227.190 C 133.422 227.485,130.840 228.164,128.000 228.822 C 127.230 229.001,125.880 229.334,125.000 229.564 C 118.142 231.351,112.474 225.908,114.970 219.933 C 116.348 216.637,118.060 215.716,126.800 213.573 C 132.043 212.288,134.870 211.589,136.400 211.200 C 137.170 211.004,138.935 210.584,140.322 210.267 C 141.708 209.950,142.953 209.580,143.088 209.445 C 143.899 208.635,148.730 209.236,150.240 210.336 M260.000 210.170 C 266.594 211.880,270.426 212.824,271.800 213.078 C 272.460 213.201,273.180 213.438,273.400 213.605 C 273.620 213.773,274.745 214.037,275.900 214.193 C 277.054 214.348,278.100 214.638,278.223 214.837 C 278.346 215.037,278.890 215.200,279.432 215.200 C 283.800 215.200,287.227 222.129,284.856 226.168 C 282.951 229.413,277.460 230.999,273.926 229.324 C 273.417 229.083,271.425 228.506,269.500 228.043 C 267.575 227.579,264.425 226.821,262.500 226.357 C 260.575 225.894,258.640 225.373,258.200 225.201 C 257.760 225.029,255.983 224.557,254.252 224.152 C 248.597 222.830,245.707 218.963,247.046 214.513 C 248.545 209.533,252.471 208.217,260.000 210.170 M179.206 248.741 C 181.608 250.019,182.950 252.372,182.948 255.299 C 182.945 257.925,172.833 279.598,170.089 282.859 C 168.397 284.870,163.745 286.406,163.000 285.200 C 162.864 284.980,162.465 284.800,162.114 284.800 C 158.977 284.800,156.132 278.519,157.700 275.055 C 162.687 264.040,169.966 250.488,171.531 249.307 C 173.629 247.723,176.847 247.486,179.206 248.741 M227.858 248.654 C 229.519 249.442,230.763 251.247,233.476 256.800 C 234.604 259.110,237.164 264.300,239.164 268.333 C 243.783 277.650,244.001 280.020,240.536 283.263 C 238.547 285.124,234.476 286.294,233.800 285.200 C 233.664 284.980,233.265 284.800,232.914 284.800 C 230.105 284.800,217.186 260.432,217.213 255.184 C 217.242 249.586,222.729 246.220,227.858 248.654 " stroke="none" fill="#044ca4" fill-rule="evenodd"></path><path id="path1" d="M198.156 115.570 C 195.879 116.130,194.120 117.852,193.264 120.360 C 192.455 122.730,192.673 147.758,193.522 149.958 C 195.912 156.154,204.999 155.711,206.776 149.311 C 207.380 147.134,207.342 122.130,206.731 120.360 C 205.438 116.610,201.921 114.645,198.156 115.570 M134.600 146.467 C 130.245 148.875,129.424 155.870,133.200 158.400 C 133.578 158.654,143.971 167.971,144.800 168.800 C 153.785 177.785,159.230 179.015,162.411 172.778 C 164.415 168.851,163.277 166.440,156.570 160.400 C 153.760 157.870,151.267 155.620,151.030 155.400 C 150.794 155.180,148.980 153.560,147.000 151.800 C 145.020 150.040,143.310 148.488,143.200 148.351 C 141.587 146.340,136.746 145.280,134.600 146.467 M258.200 146.751 C 257.540 147.162,254.660 149.619,251.800 152.211 C 248.940 154.803,245.170 158.200,243.421 159.762 C 238.163 164.457,237.224 165.445,236.599 166.942 C 234.643 171.623,238.001 176.579,243.097 176.531 C 245.576 176.507,246.756 175.812,251.217 171.748 C 252.876 170.237,255.840 167.560,257.802 165.800 C 268.719 156.009,268.200 156.651,268.200 152.945 C 268.200 147.361,262.694 143.950,258.200 146.751 M137.000 211.478 C 129.152 213.540,125.965 214.359,124.000 214.819 C 123.230 215.000,121.794 215.349,120.808 215.596 C 114.606 217.150,112.885 224.479,117.835 228.254 C 119.720 229.691,122.940 229.743,127.800 228.416 C 129.560 227.936,135.017 226.527,139.927 225.287 C 151.591 222.339,154.267 220.179,152.847 214.856 C 151.369 209.312,147.987 208.591,137.000 211.478 M250.860 210.279 C 244.111 213.604,246.721 221.847,255.200 223.984 C 257.070 224.455,262.830 225.911,268.000 227.220 C 278.591 229.900,279.185 229.964,281.637 228.670 C 285.874 226.435,286.454 221.070,282.863 217.333 C 281.882 216.311,275.929 214.453,268.400 212.817 C 267.630 212.650,264.536 211.857,261.525 211.056 C 255.531 209.462,252.906 209.270,250.860 210.279 M172.607 249.001 C 170.382 250.210,169.944 250.988,159.562 272.200 C 155.395 280.714,160.933 288.080,168.268 283.781 C 170.104 282.706,181.301 261.531,182.452 256.959 C 183.853 251.397,177.559 246.311,172.607 249.001 M221.248 249.062 C 218.723 250.348,217.504 252.591,217.694 255.600 C 217.867 258.340,228.186 280.215,230.479 282.703 C 234.694 287.278,242.163 284.278,242.189 278.000 C 242.203 274.583,231.194 251.751,228.565 249.746 C 226.718 248.338,223.298 248.018,221.248 249.062 " stroke="none" fill="#f9d30a" fill-rule="evenodd"></path><path id="path2" d="M0.000 200.000 L 0.000 400.000 200.000 400.000 L 400.000 400.000 400.000 200.000 L 400.000 0.000 200.000 0.000 L 0.000 0.000 0.000 200.000 M205.017 85.819 C 207.647 86.160,210.430 86.637,211.200 86.880 C 222.373 90.407,230.381 96.412,236.431 105.800 C 237.883 108.053,240.366 113.332,240.656 114.782 C 240.949 116.245,240.856 116.239,244.714 115.046 C 260.593 110.137,275.955 114.003,288.088 125.962 C 290.007 127.853,291.893 129.985,292.279 130.700 C 292.666 131.415,293.101 132.000,293.246 132.000 C 293.687 132.000,298.365 141.699,298.648 143.200 C 298.794 143.970,299.043 144.780,299.203 145.000 C 301.126 147.652,301.059 163.420,299.103 168.400 C 298.973 168.730,298.753 169.515,298.615 170.144 C 298.173 172.149,295.984 176.909,294.149 179.853 L 292.870 181.906 295.659 183.812 C 310.308 193.822,318.838 216.734,313.227 231.000 C 313.054 231.440,312.582 232.880,312.178 234.200 C 309.769 242.079,303.427 250.657,296.200 255.815 C 293.525 257.724,287.671 260.800,286.713 260.800 C 286.409 260.800,285.989 260.950,285.780 261.132 C 285.107 261.721,277.424 263.600,275.689 263.600 L 274.589 263.600 274.740 269.423 C 274.883 274.970,274.117 281.727,273.201 283.000 C 273.042 283.220,272.805 283.966,272.675 284.659 C 270.746 294.859,257.253 308.675,245.800 312.178 C 244.480 312.582,243.040 313.052,242.600 313.223 C 238.160 314.946,223.312 314.939,221.000 313.211 C 220.780 313.047,220.028 312.804,219.329 312.672 C 218.631 312.540,217.191 312.048,216.129 311.578 C 215.068 311.108,213.527 310.426,212.705 310.062 C 211.882 309.698,211.207 309.265,211.205 309.100 C 211.202 308.935,210.960 308.800,210.666 308.800 C 209.638 308.800,204.355 304.783,201.330 301.700 C 199.723 300.063,199.686 300.067,197.781 302.031 C 176.357 324.129,138.550 315.746,127.289 286.400 C 124.734 279.742,123.599 268.866,125.004 264.500 C 125.254 263.723,125.151 263.600,124.252 263.600 C 122.568 263.600,114.879 261.709,114.220 261.132 C 114.011 260.950,113.589 260.800,113.283 260.800 C 112.367 260.800,106.436 257.666,103.825 255.803 C 96.625 250.665,90.299 242.111,87.849 234.200 C 87.440 232.880,86.946 231.350,86.751 230.800 C 86.436 229.911,86.052 227.395,85.348 221.600 C 83.856 209.328,92.442 192.210,104.246 183.926 L 107.093 181.928 105.217 178.664 C 100.152 169.848,98.207 159.476,99.825 149.900 C 100.979 143.067,103.045 137.842,106.979 131.800 C 109.519 127.898,116.340 121.357,120.000 119.314 C 120.770 118.884,122.233 118.068,123.251 117.501 C 125.102 116.470,130.915 114.478,134.506 113.643 C 136.979 113.068,147.834 113.070,150.294 113.646 C 151.342 113.891,153.589 114.521,155.286 115.046 C 159.196 116.255,158.936 116.303,159.542 114.249 C 163.686 100.214,178.818 87.948,194.600 85.831 C 199.941 85.114,199.575 85.115,205.017 85.819 " stroke="none" fill="#f3f3fb" fill-rule="evenodd"></path><path id="path3" d="M196.800 85.600 C 195.586 85.789,196.628 85.882,200.000 85.886 C 203.813 85.892,204.525 85.819,203.000 85.582 C 200.645 85.215,199.251 85.219,196.800 85.600 M190.696 86.384 C 189.868 86.544,189.081 86.786,188.946 86.921 C 188.668 87.199,191.287 86.824,192.800 86.369 C 194.130 85.970,192.784 85.979,190.696 86.384 M207.200 86.350 C 208.745 86.845,211.484 87.212,210.800 86.832 C 210.470 86.649,209.300 86.394,208.200 86.264 C 206.960 86.119,206.580 86.151,207.200 86.350 M212.200 87.600 C 213.396 88.114,214.395 88.114,213.600 87.600 C 213.270 87.387,212.640 87.222,212.200 87.234 L 211.400 87.256 212.200 87.600 M184.100 88.412 C 182.761 88.951,183.011 89.224,184.400 88.740 C 185.060 88.510,185.600 88.249,185.600 88.161 C 185.600 87.924,185.113 88.005,184.100 88.412 M214.400 88.134 C 214.400 88.237,214.981 88.524,215.691 88.772 C 216.401 89.019,216.806 89.057,216.591 88.856 C 216.135 88.429,214.400 87.858,214.400 88.134 M180.700 90.027 C 179.875 90.463,179.200 90.908,179.200 91.018 C 179.200 91.196,182.359 89.719,182.767 89.351 C 183.227 88.934,182.025 89.328,180.700 90.027 M217.233 89.351 C 217.642 89.721,220.800 91.195,220.800 91.016 C 220.800 90.789,217.781 89.200,217.349 89.200 C 217.194 89.200,217.142 89.268,217.233 89.351 M176.369 92.701 C 175.142 93.526,173.432 94.814,172.569 95.565 C 170.824 97.084,171.404 96.735,175.454 93.831 C 178.425 91.700,179.058 91.199,178.780 91.201 C 178.681 91.202,177.596 91.877,176.369 92.701 M221.800 91.842 C 223.252 92.961,224.224 93.292,223.000 92.250 C 222.340 91.688,221.620 91.228,221.400 91.227 C 221.180 91.226,221.360 91.503,221.800 91.842 M224.400 93.307 C 224.400 93.395,225.120 94.045,226.000 94.752 C 226.880 95.459,227.596 95.894,227.591 95.719 C 227.583 95.404,224.400 92.999,224.400 93.307 M230.209 98.363 C 231.314 99.593,232.818 101.320,233.551 102.200 C 234.283 103.080,234.686 103.411,234.446 102.935 C 234.206 102.460,232.703 100.733,231.105 99.099 C 229.507 97.464,229.104 97.133,230.209 98.363 M168.950 98.900 C 167.379 100.591,164.501 104.345,165.653 103.200 C 166.788 102.073,170.898 97.200,170.714 97.200 C 170.613 97.200,169.819 97.965,168.950 98.900 M163.687 105.700 C 162.637 107.250,161.626 109.307,162.194 108.740 C 162.589 108.344,165.152 104.000,164.990 104.000 C 164.907 104.000,164.320 104.765,163.687 105.700 M236.079 106.004 C 236.764 107.107,237.394 107.939,237.479 107.855 C 237.690 107.643,235.468 104.028,235.117 104.013 C 234.961 104.006,235.394 104.902,236.079 106.004 M160.411 111.771 C 159.817 113.334,159.934 113.580,160.647 112.265 C 160.986 111.640,161.164 111.030,161.042 110.909 C 160.921 110.788,160.637 111.176,160.411 111.771 M238.802 110.900 C 238.803 110.955,239.265 112.080,239.828 113.400 C 240.391 114.720,240.756 115.339,240.638 114.777 C 240.264 112.992,238.783 109.864,238.802 110.900 M135.000 113.614 C 134.478 113.848,134.963 113.888,136.400 113.732 C 137.610 113.600,138.675 113.426,138.767 113.346 C 139.121 113.036,135.757 113.275,135.000 113.614 M145.633 113.344 C 145.725 113.424,146.880 113.595,148.200 113.724 C 149.724 113.874,150.308 113.831,149.800 113.608 C 149.043 113.275,145.279 113.037,145.633 113.344 M250.200 113.614 C 249.678 113.848,250.163 113.888,251.600 113.732 C 252.810 113.600,253.875 113.426,253.967 113.346 C 254.321 113.036,250.957 113.275,250.200 113.614 M261.233 113.350 C 261.325 113.432,262.480 113.604,263.800 113.731 C 265.355 113.880,265.848 113.842,265.200 113.621 C 264.214 113.284,260.910 113.059,261.233 113.350 M130.856 114.459 C 130.117 114.672,129.590 114.923,129.685 115.018 C 129.780 115.113,130.654 114.940,131.629 114.635 C 133.618 114.011,132.945 113.858,130.856 114.459 M152.986 114.616 C 154.079 114.916,155.040 115.093,155.124 115.010 C 155.324 114.810,152.369 113.995,151.600 114.038 C 151.270 114.056,151.894 114.317,152.986 114.616 M246.056 114.459 C 245.317 114.672,244.783 114.917,244.870 115.003 C 244.957 115.090,245.921 114.916,247.014 114.616 C 248.106 114.317,248.640 114.072,248.200 114.072 C 247.760 114.072,246.795 114.246,246.056 114.459 M267.400 114.339 C 268.637 114.868,270.710 115.277,270.000 114.851 C 269.670 114.654,268.770 114.380,268.000 114.244 C 267.056 114.077,266.860 114.108,267.400 114.339 M125.300 116.412 C 123.961 116.951,124.211 117.224,125.600 116.740 C 126.260 116.510,126.800 116.249,126.800 116.161 C 126.800 115.924,126.313 116.005,125.300 116.412 M273.200 116.134 C 273.200 116.237,273.781 116.524,274.491 116.772 C 275.201 117.019,275.606 117.057,275.391 116.856 C 274.935 116.429,273.200 115.858,273.200 116.134 M278.600 118.868 C 280.140 119.782,282.056 121.041,282.858 121.665 C 283.659 122.289,284.450 122.800,284.615 122.800 C 284.780 122.800,284.094 122.173,283.090 121.406 C 281.079 119.871,276.657 117.199,276.133 117.202 C 275.950 117.203,277.060 117.953,278.600 118.868 M117.430 121.011 C 114.585 123.159,114.836 123.413,117.746 121.331 C 120.350 119.468,120.660 119.197,120.180 119.211 C 119.971 119.217,118.734 120.027,117.430 121.011 M111.243 126.627 C 109.459 128.512,107.801 130.447,107.558 130.927 C 107.316 131.407,107.715 131.080,108.446 130.200 C 109.176 129.320,110.935 127.385,112.353 125.900 C 113.771 124.415,114.831 123.200,114.709 123.200 C 114.587 123.200,113.027 124.742,111.243 126.627 M287.800 126.000 C 289.328 127.540,290.669 128.800,290.779 128.800 C 290.889 128.800,289.728 127.540,288.200 126.000 C 286.672 124.460,285.331 123.200,285.221 123.200 C 285.111 123.200,286.272 124.460,287.800 126.000 M291.663 130.400 C 292.151 131.060,292.617 131.600,292.698 131.600 C 292.779 131.600,292.526 131.060,292.136 130.400 C 291.746 129.740,291.281 129.200,291.102 129.200 C 290.923 129.200,291.175 129.740,291.663 130.400 M106.075 133.184 C 105.094 134.511,104.878 135.450,105.842 134.200 C 106.578 133.245,107.284 132.000,107.089 132.000 C 107.013 132.000,106.557 132.533,106.075 133.184 M293.663 133.417 C 294.123 134.196,294.572 134.761,294.662 134.671 C 294.886 134.447,293.469 132.006,293.113 132.003 C 292.956 132.001,293.203 132.638,293.663 133.417 M103.980 136.839 C 103.520 137.740,103.213 138.546,103.297 138.630 C 103.381 138.714,103.841 137.976,104.319 136.991 C 105.409 134.747,105.115 134.615,103.980 136.839 M102.379 140.255 C 102.158 140.836,102.052 141.385,102.143 141.476 C 102.233 141.567,102.499 141.092,102.733 140.420 C 103.253 138.928,102.939 138.782,102.379 140.255 M297.689 141.492 C 298.181 142.843,298.659 143.875,298.750 143.784 C 298.957 143.576,297.619 139.936,297.144 139.417 C 296.951 139.206,297.197 140.140,297.689 141.492 M101.473 142.553 C 101.323 142.945,101.211 143.566,101.225 143.933 C 101.242 144.375,101.381 144.274,101.637 143.634 C 101.849 143.103,101.961 142.482,101.885 142.254 C 101.809 142.027,101.624 142.161,101.473 142.553 M100.658 145.470 C 100.539 145.871,100.349 146.920,100.234 147.800 C 100.075 149.029,100.157 148.893,100.590 147.210 C 101.105 145.210,101.161 143.761,100.658 145.470 M299.040 145.866 C 299.408 147.399,299.600 147.544,299.600 146.290 C 299.600 145.717,299.413 145.132,299.184 144.990 C 298.911 144.821,298.862 145.123,299.040 145.866 M300.200 156.800 C 300.200 160.965,300.316 163.326,300.465 162.200 C 300.811 159.591,300.814 153.485,300.470 151.200 C 300.321 150.208,300.200 152.724,300.200 156.800 M99.457 151.900 C 99.148 153.766,99.207 160.194,99.547 161.775 C 99.686 162.421,99.800 160.126,99.800 156.675 C 99.800 149.723,99.805 149.793,99.457 151.900 M100.253 165.600 C 100.384 166.590,100.647 167.670,100.838 168.000 C 101.224 168.666,100.882 166.455,100.343 164.800 C 100.129 164.144,100.098 164.420,100.253 165.600 M299.254 166.467 C 299.225 166.834,299.084 167.464,298.941 167.867 C 298.741 168.433,298.795 168.496,299.175 168.146 C 299.446 167.897,299.587 167.267,299.488 166.746 C 299.390 166.226,299.284 166.100,299.254 166.467 M298.080 170.680 C 297.488 172.609,297.775 172.895,298.400 171.000 C 298.664 170.201,298.802 169.469,298.707 169.374 C 298.612 169.278,298.330 169.866,298.080 170.680 M102.241 172.365 C 102.648 173.911,103.631 176.103,103.828 175.905 C 103.928 175.805,103.554 174.751,102.998 173.562 C 102.442 172.373,102.102 171.834,102.241 172.365 M295.407 176.884 C 294.806 178.048,293.955 179.630,293.517 180.400 C 292.819 181.627,292.813 181.688,293.464 180.898 C 294.447 179.704,296.895 175.162,296.674 174.941 C 296.579 174.845,296.009 175.720,295.407 176.884 M104.800 178.000 C 105.249 178.880,105.706 179.600,105.816 179.600 C 105.926 179.600,105.649 178.880,105.200 178.000 C 104.751 177.120,104.294 176.400,104.184 176.400 C 104.074 176.400,104.351 177.120,104.800 178.000 M106.527 180.945 C 107.136 181.874,107.097 181.925,104.273 183.901 C 99.412 187.304,90.363 197.297,91.297 198.231 C 91.397 198.331,92.174 197.285,93.024 195.908 C 95.092 192.559,100.249 187.250,104.286 184.316 C 107.541 181.950,107.565 181.919,106.940 180.964 C 106.592 180.434,106.218 180.000,106.108 180.000 C 105.998 180.000,106.187 180.425,106.527 180.945 M292.861 182.173 C 293.004 182.328,294.264 183.255,295.661 184.234 C 298.964 186.549,303.637 191.149,305.886 194.300 C 307.656 196.780,308.425 197.542,307.597 195.995 C 306.102 193.201,300.578 187.419,296.609 184.493 C 294.358 182.834,292.284 181.550,292.861 182.173 M89.980 200.439 C 89.520 201.340,89.213 202.146,89.297 202.230 C 89.381 202.314,89.841 201.576,90.319 200.591 C 91.409 198.347,91.115 198.215,89.980 200.439 M311.267 204.020 C 311.501 204.692,311.767 205.167,311.857 205.076 C 312.056 204.878,311.301 202.800,311.031 202.800 C 310.927 202.800,311.033 203.349,311.267 204.020 M87.646 206.039 C 87.401 206.743,87.213 207.518,87.228 207.760 C 87.244 208.002,87.514 207.496,87.830 206.635 C 88.145 205.774,88.333 205.000,88.248 204.915 C 88.162 204.829,87.892 205.335,87.646 206.039 M312.056 206.000 C 312.056 206.330,312.211 206.960,312.400 207.400 C 312.617 207.904,312.744 207.978,312.744 207.600 C 312.744 207.270,312.589 206.640,312.400 206.200 C 312.183 205.696,312.056 205.622,312.056 206.000 M86.439 210.392 C 86.198 211.518,86.018 212.746,86.040 213.120 C 86.062 213.494,86.333 212.646,86.641 211.235 C 86.950 209.824,87.129 208.596,87.040 208.507 C 86.951 208.418,86.681 209.266,86.439 210.392 M312.846 208.800 C 312.865 209.130,313.024 209.850,313.200 210.400 L 313.520 211.400 313.554 210.400 C 313.573 209.850,313.413 209.130,313.200 208.800 C 312.855 208.267,312.816 208.267,312.846 208.800 M314.157 220.000 C 314.161 226.096,314.189 226.348,314.521 223.300 C 314.735 221.337,314.733 218.663,314.517 216.700 C 314.181 213.650,314.154 213.901,314.157 220.000 M85.418 218.100 C 85.279 219.915,85.333 222.210,85.538 223.200 C 85.850 224.702,85.920 224.154,85.956 219.900 C 86.006 214.050,85.786 213.313,85.418 218.100 M86.248 228.200 C 86.373 229.300,86.641 230.470,86.844 230.800 C 87.235 231.440,87.152 230.866,86.408 227.800 C 86.032 226.247,86.027 226.259,86.248 228.200 M313.423 228.300 C 313.277 229.125,313.057 230.160,312.934 230.600 C 312.785 231.132,312.844 231.266,313.108 231.000 C 313.512 230.594,314.200 226.800,313.869 226.800 C 313.770 226.800,313.569 227.475,313.423 228.300 M312.044 233.644 C 311.798 234.351,311.666 235.000,311.752 235.085 C 311.838 235.171,312.109 234.662,312.356 233.956 C 312.602 233.249,312.734 232.600,312.648 232.515 C 312.562 232.429,312.291 232.938,312.044 233.644 M88.219 235.401 C 88.375 236.060,88.657 236.768,88.845 236.973 C 89.032 237.178,89.015 236.749,88.805 236.019 C 88.318 234.318,87.844 233.819,88.219 235.401 M309.681 239.409 C 309.202 240.394,308.894 241.200,308.997 241.200 C 309.268 241.200,310.884 237.951,310.703 237.770 C 310.619 237.686,310.159 238.424,309.681 239.409 M91.200 241.808 C 91.200 242.183,93.158 245.127,93.581 245.388 C 93.808 245.529,93.428 244.734,92.737 243.622 C 91.562 241.731,91.200 241.304,91.200 241.808 M307.391 243.522 C 306.739 244.555,305.437 246.345,304.498 247.500 C 302.714 249.694,302.519 250.404,304.223 248.500 C 305.548 247.020,308.930 241.996,308.733 241.800 C 308.647 241.714,308.043 242.489,307.391 243.522 M94.875 247.305 C 97.276 250.678,104.099 256.491,107.600 258.149 C 109.105 258.861,108.835 258.656,105.053 256.218 C 103.704 255.348,100.660 252.703,98.289 250.340 C 95.917 247.978,94.381 246.612,94.875 247.305 M175.105 248.283 C 175.602 248.379,176.322 248.375,176.705 248.275 C 177.087 248.175,176.680 248.096,175.800 248.101 C 174.920 248.105,174.607 248.187,175.105 248.283 M223.700 248.276 C 224.085 248.376,224.715 248.376,225.100 248.276 C 225.485 248.175,225.170 248.093,224.400 248.093 C 223.630 248.093,223.315 248.175,223.700 248.276 M298.853 253.203 C 297.453 254.477,295.154 256.193,293.744 257.017 C 292.335 257.841,291.268 258.602,291.373 258.707 C 291.653 258.986,297.907 254.699,299.967 252.816 C 300.939 251.928,301.659 251.131,301.567 251.044 C 301.475 250.958,300.254 251.930,298.853 253.203 M109.200 258.976 C 109.200 259.180,112.748 260.807,113.151 260.788 C 113.514 260.770,112.205 260.045,110.596 259.373 C 109.828 259.052,109.200 258.873,109.200 258.976 M114.227 261.155 C 114.652 261.544,117.129 262.196,116.754 261.820 C 116.619 261.686,115.911 261.404,115.181 261.195 C 114.451 260.985,114.022 260.968,114.227 261.155 M284.500 261.248 C 283.785 261.454,283.200 261.711,283.200 261.819 C 283.200 262.109,285.338 261.553,285.780 261.148 C 286.216 260.749,286.230 260.748,284.500 261.248 M117.800 262.400 C 118.240 262.589,119.050 262.738,119.600 262.732 L 120.600 262.720 119.600 262.400 C 119.050 262.224,118.240 262.074,117.800 262.068 L 117.000 262.056 117.800 262.400 M280.800 262.400 C 279.996 262.657,279.957 262.723,280.600 262.732 C 281.040 262.738,281.760 262.589,282.200 262.400 C 283.219 261.962,282.168 261.962,280.800 262.400 M121.800 263.180 C 122.561 263.526,125.517 263.764,125.167 263.451 C 125.075 263.369,124.100 263.193,123.000 263.059 C 121.654 262.895,121.261 262.935,121.800 263.180 M275.878 263.093 C 274.007 263.287,273.942 263.467,274.393 267.200 L 274.755 270.200 274.615 266.900 L 274.476 263.600 275.938 263.572 C 276.742 263.556,277.760 263.389,278.200 263.200 L 279.000 262.856 278.200 262.895 C 277.760 262.917,276.715 263.006,275.878 263.093 M124.650 266.050 C 124.331 267.643,124.397 275.105,124.740 276.324 C 124.883 276.832,125.000 274.447,125.000 271.024 C 125.000 264.183,125.006 264.270,124.650 266.050 M274.474 273.444 C 274.433 274.348,274.313 275.968,274.206 277.044 L 274.012 279.000 274.422 277.400 C 274.648 276.520,274.768 274.900,274.690 273.800 C 274.557 271.933,274.543 271.909,274.474 273.444 M125.268 279.200 C 125.262 279.750,125.411 280.560,125.600 281.000 L 125.944 281.800 125.932 281.000 C 125.926 280.560,125.776 279.750,125.600 279.200 L 125.280 278.200 125.268 279.200 M273.421 280.628 C 273.274 281.414,273.047 282.359,272.918 282.728 C 272.757 283.188,272.814 283.274,273.100 283.000 C 273.528 282.590,274.224 279.200,273.880 279.200 C 273.775 279.200,273.568 279.843,273.421 280.628 M126.244 283.200 C 126.380 283.970,126.654 284.870,126.851 285.200 C 127.277 285.910,126.868 283.837,126.339 282.600 C 126.108 282.060,126.077 282.256,126.244 283.200 M271.689 286.508 C 271.197 287.860,270.951 288.794,271.144 288.583 C 271.619 288.064,272.957 284.424,272.750 284.216 C 272.659 284.125,272.181 285.157,271.689 286.508 M128.012 288.111 C 127.877 291.690,138.102 303.808,144.886 308.111 C 147.236 309.602,146.318 308.682,143.342 306.564 C 137.570 302.456,132.996 297.234,129.712 291.003 C 128.783 289.241,128.018 287.940,128.012 288.111 M269.681 291.009 C 269.202 291.994,268.894 292.800,268.997 292.800 C 269.268 292.800,270.884 289.551,270.703 289.370 C 270.619 289.286,270.159 290.024,269.681 291.009 M266.462 296.150 C 263.374 300.468,259.716 303.975,253.986 308.112 C 253.330 308.585,253.271 308.697,253.809 308.446 C 257.798 306.588,266.047 298.396,268.449 293.909 C 269.204 292.498,268.531 293.258,266.462 296.150 M197.600 301.717 C 196.390 302.873,194.590 304.508,193.600 305.351 C 192.347 306.418,192.214 306.607,193.161 305.972 C 193.909 305.470,195.663 303.991,197.058 302.686 C 199.356 300.536,200.800 299.934,200.800 301.125 C 200.800 301.317,201.745 302.252,202.900 303.201 C 204.990 304.920,204.988 304.916,202.412 302.264 C 200.988 300.799,199.818 299.604,199.812 299.608 C 199.805 299.612,198.810 300.562,197.600 301.717 M205.200 305.104 C 205.200 305.589,210.373 308.960,210.667 308.666 C 210.813 308.520,210.743 308.400,210.511 308.400 C 210.278 308.400,208.988 307.590,207.644 306.601 C 206.300 305.611,205.200 304.938,205.200 305.104 M190.297 307.566 C 188.925 308.445,188.560 308.801,189.033 308.798 C 189.235 308.797,189.940 308.353,190.600 307.812 C 191.999 306.666,191.867 306.559,190.297 307.566 M186.400 309.800 C 185.410 310.330,184.742 310.772,184.916 310.782 C 185.341 310.806,188.400 309.234,188.400 308.992 C 188.400 308.727,188.417 308.720,186.400 309.800 M211.210 309.106 C 211.222 309.466,214.033 310.901,214.267 310.666 C 214.359 310.574,213.707 310.119,212.817 309.656 C 211.928 309.192,211.204 308.945,211.210 309.106 M250.800 309.800 C 249.810 310.330,249.142 310.772,249.316 310.782 C 249.741 310.806,252.800 309.234,252.800 308.992 C 252.800 308.727,252.817 308.720,250.800 309.800 M150.800 311.031 C 150.800 311.301,152.878 312.056,153.076 311.857 C 153.167 311.767,152.692 311.501,152.020 311.267 C 151.349 311.033,150.800 310.927,150.800 311.031 M182.800 311.431 L 181.800 312.033 182.800 311.772 C 183.350 311.628,183.971 311.350,184.180 311.155 C 184.791 310.584,183.914 310.759,182.800 311.431 M215.417 311.144 C 215.936 311.619,219.576 312.957,219.784 312.750 C 219.875 312.659,218.843 312.181,217.492 311.689 C 216.140 311.197,215.206 310.951,215.417 311.144 M244.800 312.200 C 244.030 312.497,243.670 312.745,244.000 312.752 C 244.330 312.758,245.140 312.517,245.800 312.214 C 247.345 311.507,246.626 311.497,244.800 312.200 M179.800 312.400 C 179.296 312.617,179.222 312.744,179.600 312.744 C 179.930 312.744,180.560 312.589,181.000 312.400 C 181.504 312.183,181.578 312.056,181.200 312.056 C 180.870 312.056,180.240 312.211,179.800 312.400 M156.800 313.194 C 157.130 313.411,157.835 313.591,158.367 313.594 C 159.651 313.602,159.325 313.375,157.600 313.058 C 156.615 312.877,156.378 312.918,156.800 313.194 M176.800 313.200 L 175.800 313.520 176.800 313.554 C 177.350 313.573,178.070 313.413,178.400 313.200 C 179.164 312.706,178.342 312.706,176.800 313.200 M221.013 313.146 C 221.226 313.344,222.300 313.611,223.400 313.739 C 224.642 313.883,225.021 313.850,224.400 313.651 C 222.560 313.063,220.611 312.772,221.013 313.146 M241.200 313.200 L 240.200 313.520 241.276 313.560 C 241.868 313.582,242.464 313.420,242.600 313.200 C 242.881 312.745,242.620 312.745,241.200 313.200 M164.500 314.510 C 166.280 314.710,168.920 314.708,170.700 314.505 C 173.525 314.182,173.251 314.151,167.600 314.156 C 161.953 314.160,161.676 314.191,164.500 314.510 M228.710 314.519 C 230.433 314.732,232.962 314.731,234.910 314.517 C 238.012 314.176,237.845 314.156,232.000 314.158 C 226.439 314.160,226.100 314.198,228.710 314.519 " stroke="none" fill="#96b0bf" fill-rule="evenodd"></path><path id="path4" d="M229.600 98.200 C 230.795 99.410,231.863 100.400,231.973 100.400 C 232.083 100.400,231.195 99.410,230.000 98.200 C 228.805 96.990,227.737 96.000,227.627 96.000 C 227.517 96.000,228.405 96.990,229.600 98.200 M170.181 98.100 L 168.600 99.800 170.300 98.219 C 171.881 96.748,172.184 96.400,171.881 96.400 C 171.816 96.400,171.051 97.165,170.181 98.100 M140.512 113.495 C 141.564 113.577,143.184 113.576,144.112 113.492 C 145.040 113.408,144.180 113.341,142.200 113.342 C 140.220 113.343,139.460 113.412,140.512 113.495 M255.700 113.494 C 256.745 113.576,258.455 113.576,259.500 113.494 C 260.545 113.412,259.690 113.344,257.600 113.344 C 255.510 113.344,254.655 113.412,255.700 113.494 M132.600 114.400 C 132.096 114.617,132.022 114.744,132.400 114.744 C 132.730 114.744,133.360 114.589,133.800 114.400 C 134.304 114.183,134.378 114.056,134.000 114.056 C 133.670 114.056,133.040 114.211,132.600 114.400 M266.200 114.400 C 266.640 114.589,267.270 114.744,267.600 114.744 C 267.978 114.744,267.904 114.617,267.400 114.400 C 266.960 114.211,266.330 114.056,266.000 114.056 C 265.622 114.056,265.696 114.183,266.200 114.400 M197.895 115.128 C 196.181 115.549,194.201 117.359,193.258 119.367 C 192.148 121.727,191.914 147.569,192.979 150.051 C 195.762 156.538,204.308 156.582,207.006 150.124 C 208.091 147.526,207.804 121.084,206.668 119.034 C 204.907 115.857,201.359 114.278,197.895 115.128 M204.123 116.657 C 207.073 118.565,207.200 119.325,207.200 135.049 C 207.200 147.826,207.144 148.940,206.437 150.316 C 203.551 155.925,196.312 155.874,193.566 150.225 C 192.535 148.104,192.383 122.296,193.387 119.892 C 194.145 118.080,196.168 116.064,197.531 115.765 C 198.119 115.636,198.780 115.466,199.000 115.388 C 199.933 115.055,202.712 115.744,204.123 116.657 M159.200 115.977 C 159.200 116.323,158.847 116.412,158.100 116.254 C 157.049 116.032,157.041 116.042,157.913 116.478 C 158.845 116.943,160.089 116.356,159.473 115.740 C 159.323 115.590,159.200 115.696,159.200 115.977 M240.406 115.913 C 240.397 116.659,241.437 116.938,242.276 116.414 C 242.907 116.020,242.878 115.996,242.050 116.224 C 241.442 116.391,240.976 116.290,240.756 115.943 C 240.492 115.526,240.411 115.519,240.406 115.913 M112.589 125.700 L 109.800 128.600 112.700 125.811 C 115.394 123.220,115.783 122.800,115.489 122.800 C 115.428 122.800,114.123 124.105,112.589 125.700 M287.400 126.000 C 289.150 127.760,290.671 129.200,290.781 129.200 C 290.891 129.200,289.550 127.760,287.800 126.000 C 286.050 124.240,284.529 122.800,284.419 122.800 C 284.309 122.800,285.650 124.240,287.400 126.000 M135.800 145.572 C 135.276 145.778,135.787 145.876,137.283 145.857 C 138.539 145.840,139.349 145.688,139.083 145.519 C 138.475 145.133,136.847 145.159,135.800 145.572 M260.101 145.529 C 259.817 145.709,260.464 145.846,261.600 145.846 C 262.736 145.846,263.383 145.709,263.099 145.529 C 262.825 145.355,262.150 145.212,261.600 145.212 C 261.050 145.212,260.375 145.355,260.101 145.529 M133.548 146.674 C 130.491 148.571,129.384 153.607,131.342 156.708 C 132.243 158.135,137.202 162.800,137.818 162.800 C 137.980 162.800,137.248 162.035,136.192 161.100 C 135.135 160.165,133.879 159.040,133.401 158.600 C 129.773 155.262,129.824 150.252,133.516 147.208 C 135.139 145.871,135.150 145.680,133.548 146.674 M141.200 146.673 C 142.117 147.340,145.819 150.612,154.200 158.166 C 160.357 163.715,160.800 164.091,160.775 163.747 C 160.760 163.556,159.705 162.500,158.429 161.400 C 157.153 160.300,153.097 156.700,149.414 153.400 C 145.732 150.100,142.152 147.073,141.460 146.673 C 140.242 145.971,140.234 145.971,141.200 146.673 M257.298 146.900 C 255.393 148.240,245.261 157.345,245.228 157.747 C 245.199 158.101,246.900 156.663,250.800 153.035 C 252.010 151.910,254.170 150.012,255.600 148.818 C 257.030 147.624,258.371 146.501,258.580 146.323 C 259.360 145.659,258.532 146.032,257.298 146.900 M264.400 146.102 C 264.400 146.183,264.940 146.649,265.600 147.137 C 266.260 147.625,266.800 147.877,266.800 147.698 C 266.800 147.519,266.260 147.054,265.600 146.664 C 264.940 146.274,264.400 146.021,264.400 146.102 M267.216 148.200 C 267.223 148.420,267.486 149.050,267.800 149.600 C 269.805 153.108,268.354 156.404,262.506 161.628 C 259.936 163.922,255.940 167.510,253.624 169.600 C 251.309 171.690,248.976 173.793,248.440 174.273 C 247.302 175.294,245.565 176.179,243.600 176.739 C 242.271 177.118,242.291 177.127,244.000 176.907 C 245.540 176.708,247.277 175.970,248.000 175.207 C 248.110 175.091,249.814 173.557,251.786 171.798 C 253.759 170.039,255.739 168.237,256.186 167.793 C 256.634 167.350,257.720 166.378,258.600 165.633 C 268.769 157.030,270.729 153.584,268.001 149.110 C 267.562 148.389,267.209 147.980,267.216 148.200 M300.146 156.600 C 300.147 158.800,300.214 159.649,300.295 158.487 C 300.376 157.324,300.376 155.524,300.293 154.487 C 300.211 153.449,300.145 154.400,300.146 156.600 M99.744 156.800 C 99.744 158.890,99.812 159.745,99.894 158.700 C 99.976 157.655,99.976 155.945,99.894 154.900 C 99.812 153.855,99.744 154.710,99.744 156.800 M240.256 162.096 C 237.472 164.772,236.001 166.478,236.026 167.000 C 236.057 167.625,236.181 167.536,236.596 166.593 C 237.099 165.447,239.259 163.245,243.164 159.893 C 244.130 159.064,244.831 158.297,244.722 158.189 C 244.613 158.080,242.604 159.838,240.256 162.096 M299.400 164.400 C 299.248 165.091,299.207 165.741,299.309 165.842 C 299.411 165.944,299.609 165.453,299.750 164.750 C 300.083 163.083,299.760 162.760,299.400 164.400 M139.200 164.364 C 139.200 164.604,139.335 164.806,139.500 164.814 C 139.665 164.821,140.790 165.731,142.000 166.836 C 146.160 170.636,148.800 172.879,148.800 172.614 C 148.800 172.468,148.222 171.865,147.515 171.274 C 146.808 170.683,145.233 169.278,144.015 168.151 C 140.593 164.984,139.200 163.889,139.200 164.364 M162.286 166.006 C 162.402 166.450,162.655 166.910,162.848 167.030 C 163.042 167.149,163.200 168.281,163.200 169.544 C 163.200 173.027,161.269 175.685,158.200 176.428 C 157.091 176.696,157.076 176.721,158.007 176.759 C 161.845 176.915,164.961 170.451,162.971 166.461 C 162.250 165.016,161.980 164.837,162.286 166.006 M235.693 169.600 C 235.693 170.370,235.775 170.685,235.876 170.300 C 235.976 169.915,235.976 169.285,235.876 168.900 C 235.775 168.515,235.693 168.830,235.693 169.600 M236.033 172.011 C 235.942 173.707,239.301 176.815,241.189 176.782 C 242.030 176.768,241.942 176.673,240.662 176.217 C 238.811 175.556,237.314 174.225,236.596 172.600 C 236.304 171.940,236.051 171.675,236.033 172.011 M149.200 172.966 C 149.200 174.011,153.236 176.675,155.200 176.927 C 157.017 177.160,156.273 176.748,153.967 176.244 C 153.398 176.120,152.093 175.279,151.067 174.375 C 150.040 173.471,149.200 172.837,149.200 172.966 M142.883 209.540 C 142.595 209.723,143.340 209.788,144.564 209.686 C 153.787 208.922,156.760 220.841,147.939 223.217 C 146.087 223.715,146.054 224.129,147.896 223.761 C 153.892 222.562,155.374 214.073,150.240 210.336 C 148.636 209.168,144.222 208.691,142.883 209.540 M250.600 209.948 C 245.952 212.835,245.409 218.404,249.431 221.944 C 250.993 223.318,253.084 224.241,253.564 223.767 C 253.654 223.678,253.167 223.493,252.482 223.356 C 243.827 221.625,246.225 209.124,255.102 209.694 C 256.770 209.801,257.828 209.737,257.529 209.548 C 256.492 208.890,251.874 209.157,250.600 209.948 M139.400 210.400 C 138.311 210.677,138.293 210.707,139.200 210.725 C 139.750 210.735,140.560 210.589,141.000 210.400 C 141.986 209.976,141.066 209.976,139.400 210.400 M258.884 210.204 C 259.040 210.368,259.850 210.647,260.684 210.824 C 261.518 211.002,262.989 211.345,263.953 211.588 C 264.917 211.830,265.793 211.940,265.900 211.833 C 266.007 211.726,265.578 211.534,264.947 211.406 C 264.316 211.277,263.260 211.013,262.600 210.819 C 260.560 210.218,258.586 209.892,258.884 210.204 M136.296 211.184 C 135.468 211.344,134.658 211.610,134.496 211.773 C 134.079 212.193,137.317 211.580,137.780 211.151 C 137.989 210.958,138.079 210.821,137.980 210.846 C 137.881 210.871,137.123 211.023,136.296 211.184 M131.400 212.419 C 130.740 212.604,129.345 212.960,128.300 213.210 C 127.255 213.460,126.400 213.742,126.400 213.837 C 126.400 214.132,129.779 213.517,130.180 213.149 C 130.389 212.957,131.019 212.797,131.580 212.794 C 132.141 212.791,132.870 212.613,133.200 212.400 C 133.968 211.904,133.205 211.912,131.400 212.419 M267.200 212.379 C 267.530 212.604,268.259 212.791,268.820 212.794 C 269.381 212.797,270.011 212.957,270.220 213.148 C 270.763 213.645,273.671 214.039,273.385 213.576 C 273.257 213.369,272.702 213.200,272.150 213.200 C 271.599 213.200,270.844 213.044,270.474 212.853 C 269.419 212.309,266.471 211.883,267.200 212.379 M123.200 214.468 C 122.430 214.681,121.303 214.953,120.695 215.074 C 120.087 215.194,119.493 215.449,119.375 215.640 C 119.108 216.072,121.658 215.624,122.180 215.147 C 122.389 214.956,123.019 214.797,123.580 214.794 C 124.141 214.791,124.870 214.613,125.200 214.400 C 125.991 213.889,125.201 213.916,123.200 214.468 M275.000 214.373 C 275.440 214.577,276.259 214.756,276.820 214.772 C 277.381 214.787,278.011 214.956,278.220 215.147 C 278.787 215.665,281.289 216.068,280.996 215.594 C 280.862 215.377,280.259 215.200,279.656 215.200 C 279.053 215.200,278.389 215.039,278.180 214.841 C 277.971 214.644,276.990 214.374,276.000 214.243 C 274.742 214.075,274.441 214.114,275.000 214.373 M116.851 217.271 C 113.976 220.083,113.743 226.158,116.446 227.829 C 116.978 228.157,116.892 227.892,115.800 225.838 C 114.101 222.643,114.711 219.521,117.481 217.238 C 118.307 216.557,118.795 216.000,118.567 216.000 C 118.339 216.000,117.567 216.572,116.851 217.271 M282.344 216.667 C 287.211 220.221,285.899 227.396,280.000 229.489 L 278.600 229.986 279.998 229.783 C 286.073 228.903,287.708 218.932,282.200 216.352 C 281.629 216.084,281.670 216.174,282.344 216.667 M314.101 220.200 C 314.105 221.080,314.187 221.393,314.283 220.895 C 314.379 220.398,314.375 219.678,314.275 219.295 C 314.175 218.913,314.096 219.320,314.101 220.200 M143.200 224.473 C 142.430 224.688,141.213 224.959,140.496 225.076 C 139.779 225.193,139.100 225.438,138.987 225.621 C 138.724 226.047,141.676 225.610,142.180 225.148 C 142.389 224.957,143.019 224.787,143.580 224.772 C 144.141 224.756,144.960 224.589,145.400 224.400 L 146.200 224.056 145.400 224.069 C 144.960 224.076,143.970 224.258,143.200 224.473 M255.000 224.381 C 255.440 224.581,256.259 224.756,256.820 224.772 C 257.381 224.787,258.011 224.957,258.220 225.148 C 258.429 225.339,259.320 225.595,260.200 225.716 C 261.173 225.849,261.486 225.812,261.000 225.620 C 258.656 224.694,253.210 223.570,255.000 224.381 M135.600 226.416 C 132.760 227.072,131.131 227.536,130.919 227.748 C 130.554 228.113,133.773 227.521,134.180 227.148 C 134.389 226.957,135.019 226.787,135.580 226.772 C 136.141 226.756,136.960 226.589,137.400 226.400 C 138.401 225.970,137.495 225.978,135.600 226.416 M263.800 226.591 C 267.513 227.638,269.305 228.029,269.500 227.833 C 269.607 227.726,269.178 227.534,268.547 227.406 C 267.916 227.277,266.860 227.009,266.200 226.810 C 265.540 226.611,264.280 226.353,263.400 226.237 C 261.935 226.044,261.969 226.074,263.800 226.591 M117.200 228.292 C 117.200 228.720,120.224 230.011,121.103 229.958 C 121.486 229.935,121.170 229.708,120.400 229.454 C 119.630 229.200,118.595 228.763,118.100 228.482 C 117.605 228.201,117.200 228.116,117.200 228.292 M127.600 228.461 C 126.830 228.670,125.405 229.012,124.433 229.221 C 123.461 229.430,122.561 229.715,122.433 229.854 C 122.167 230.142,124.804 229.727,126.600 229.198 C 127.260 229.004,128.430 228.673,129.200 228.463 C 129.970 228.253,130.240 228.082,129.800 228.082 C 129.360 228.082,128.370 228.253,127.600 228.461 M270.600 228.368 C 271.040 228.574,271.859 228.756,272.420 228.772 C 272.981 228.787,273.611 228.959,273.820 229.153 C 274.029 229.348,275.100 229.608,276.200 229.732 C 278.017 229.937,278.072 229.921,276.800 229.556 C 276.030 229.336,274.860 228.996,274.200 228.802 C 272.280 228.236,269.646 227.919,270.600 228.368 M312.446 231.267 C 312.421 231.634,312.296 232.264,312.170 232.667 C 311.952 233.362,311.963 233.363,312.397 232.687 C 312.648 232.296,312.773 231.666,312.673 231.287 C 312.511 230.668,312.488 230.666,312.446 231.267 M171.531 249.316 C 169.945 250.522,165.590 257.723,166.124 258.257 C 166.214 258.348,167.148 256.712,168.199 254.624 C 170.282 250.482,170.702 249.977,173.035 248.813 C 173.896 248.383,174.299 248.025,173.931 248.016 C 173.563 248.007,172.483 248.592,171.531 249.316 M178.115 248.530 C 179.846 249.341,181.954 251.525,182.360 252.929 C 182.570 253.655,182.743 253.877,182.764 253.447 C 182.848 251.686,180.203 248.804,178.000 248.256 C 177.090 248.030,177.100 248.055,178.115 248.530 M221.600 248.289 C 220.445 248.722,218.794 250.063,218.350 250.928 C 218.039 251.533,218.377 251.355,219.451 250.348 C 220.303 249.550,221.540 248.709,222.200 248.480 C 222.860 248.251,223.130 248.063,222.800 248.063 C 222.470 248.063,221.930 248.165,221.600 248.289 M226.000 248.400 C 226.330 248.613,226.900 248.791,227.266 248.794 C 228.016 248.801,231.200 252.231,231.200 253.033 C 231.200 253.319,231.378 253.663,231.595 253.797 C 232.203 254.173,231.605 252.806,230.351 250.954 C 229.738 250.049,228.616 249.014,227.858 248.654 C 226.315 247.922,224.977 247.739,226.000 248.400 M217.467 252.267 C 217.099 252.635,217.129 258.309,217.500 258.538 C 217.665 258.640,217.800 257.211,217.800 255.362 C 217.800 253.513,217.785 252.000,217.767 252.000 C 217.748 252.000,217.613 252.120,217.467 252.267 M182.610 256.272 C 182.448 257.356,180.995 260.832,179.159 264.532 C 177.415 268.046,176.059 270.992,176.146 271.079 C 176.524 271.457,182.748 258.052,183.008 256.300 C 183.164 255.255,183.201 254.400,183.091 254.400 C 182.981 254.400,182.765 255.242,182.610 256.272 M232.000 254.589 C 232.000 254.693,234.361 259.560,237.247 265.404 C 242.475 275.992,242.493 276.039,242.322 278.409 C 241.869 284.666,235.154 287.138,230.643 282.709 C 229.787 281.868,228.992 281.274,228.877 281.389 C 228.510 281.757,232.004 284.800,232.793 284.800 C 233.211 284.800,233.664 284.980,233.800 285.200 C 234.476 286.294,238.547 285.124,240.536 283.263 C 243.983 280.036,243.774 277.628,239.256 268.533 C 237.307 264.610,234.948 259.825,234.014 257.900 C 232.507 254.793,232.000 253.960,232.000 254.589 M164.967 260.268 C 164.581 261.110,164.195 261.935,164.109 262.100 C 164.023 262.265,164.035 262.400,164.136 262.400 C 164.436 262.400,166.053 259.120,165.853 258.919 C 165.751 258.818,165.353 259.425,164.967 260.268 M218.109 259.500 C 218.195 259.665,218.581 260.490,218.967 261.332 C 219.353 262.175,219.751 262.782,219.853 262.681 C 220.053 262.480,218.436 259.200,218.136 259.200 C 218.035 259.200,218.023 259.335,218.109 259.500 M160.851 268.524 C 159.283 271.688,158.006 274.440,158.012 274.639 C 158.019 274.838,159.374 272.320,161.023 269.044 C 162.672 265.768,163.949 263.016,163.862 262.928 C 163.774 262.841,162.420 265.359,160.851 268.524 M125.301 264.600 C 125.305 265.480,125.387 265.793,125.483 265.295 C 125.579 264.798,125.575 264.078,125.475 263.695 C 125.375 263.313,125.296 263.720,125.301 264.600 M220.000 263.388 C 220.000 263.730,221.677 266.800,221.864 266.800 C 221.965 266.800,221.977 266.665,221.891 266.500 C 221.805 266.335,221.426 265.525,221.048 264.700 C 220.444 263.378,220.000 262.822,220.000 263.388 M124.893 267.600 C 124.893 268.370,124.975 268.685,125.076 268.300 C 125.176 267.915,125.176 267.285,125.076 266.900 C 124.975 266.515,124.893 266.830,124.893 267.600 M222.000 267.388 C 222.000 267.730,223.677 270.800,223.864 270.800 C 223.965 270.800,223.977 270.665,223.891 270.500 C 223.805 270.335,223.426 269.525,223.048 268.700 C 222.444 267.378,222.000 266.822,222.000 267.388 M224.000 271.416 C 224.000 271.817,225.615 274.800,225.832 274.800 C 225.950 274.800,225.977 274.665,225.891 274.500 C 225.805 274.335,225.426 273.525,225.048 272.700 C 224.432 271.353,224.000 270.823,224.000 271.416 M172.962 277.032 C 168.635 285.739,164.334 287.442,159.312 282.437 C 158.369 281.497,158.033 281.306,158.341 281.884 C 158.932 282.995,161.267 284.800,162.114 284.800 C 162.465 284.800,162.864 284.980,163.000 285.200 C 163.687 286.312,168.216 284.944,169.909 283.113 C 171.062 281.865,176.331 271.600,175.818 271.600 C 175.732 271.600,174.447 274.044,172.962 277.032 M157.467 275.467 C 157.106 275.828,157.138 279.684,157.508 280.264 C 157.670 280.520,157.802 279.485,157.802 277.965 C 157.801 276.445,157.785 275.201,157.767 275.201 C 157.748 275.200,157.613 275.320,157.467 275.467 M226.000 275.416 C 226.000 275.817,227.615 278.800,227.832 278.800 C 227.950 278.800,227.977 278.665,227.891 278.500 C 227.805 278.335,227.426 277.525,227.048 276.700 C 226.432 275.353,226.000 274.823,226.000 275.416 M125.293 277.200 C 125.293 277.970,125.375 278.285,125.476 277.900 C 125.576 277.515,125.576 276.885,125.476 276.500 C 125.375 276.115,125.293 276.430,125.293 277.200 M197.385 301.700 L 195.400 303.800 197.500 301.815 C 198.655 300.723,199.600 299.778,199.600 299.715 C 199.600 299.417,199.229 299.749,197.385 301.700 M191.281 306.572 C 189.423 307.885,189.162 308.261,190.731 307.362 C 191.463 306.943,192.250 306.375,192.480 306.100 C 193.071 305.393,192.793 305.502,191.281 306.572 M160.000 313.600 C 160.550 313.776,161.360 313.920,161.800 313.920 C 162.433 313.920,162.392 313.854,161.600 313.600 C 161.050 313.424,160.240 313.280,159.800 313.280 C 159.167 313.280,159.208 313.346,160.000 313.600 M166.705 314.283 C 167.202 314.379,167.922 314.375,168.305 314.275 C 168.687 314.175,168.280 314.096,167.400 314.101 C 166.520 314.105,166.207 314.187,166.705 314.283 M231.105 314.283 C 231.602 314.379,232.322 314.375,232.705 314.275 C 233.087 314.175,232.680 314.096,231.800 314.101 C 230.920 314.105,230.607 314.187,231.105 314.283 " stroke="none" fill="#70908c" fill-rule="evenodd"></path></g></svg>