<svg id="svg" version="1.1" xmlns="http://www.w3.org/2000/svg" xmlns:xlink="http://www.w3.org/1999/xlink" width="400" height="364.6" viewBox="0, 0, 400,364.6"><g id="svgg"><path id="path0" d="M307.410 247.050 L 307.400 283.600 312.499 283.600 L 317.598 283.600 317.649 259.442 L 317.700 235.284 341.500 259.645 C 354.590 273.043,366.043 284.745,366.950 285.649 L 368.600 287.291 368.600 250.546 L 368.600 213.800 363.501 213.800 L 358.402 213.800 358.351 238.308 L 358.300 262.816 335.600 239.486 C 323.115 226.654,311.667 214.883,310.160 213.328 L 307.420 210.500 307.410 247.050 M120.842 211.350 C 120.733 211.653,117.700 218.425,114.100 226.400 C 110.501 234.375,106.542 243.150,105.303 245.900 C 104.064 248.650,99.754 258.211,95.725 267.147 C 91.696 276.082,88.400 283.441,88.400 283.500 C 88.400 283.559,90.790 283.583,93.710 283.553 L 99.020 283.500 109.113 261.000 C 114.664 248.625,119.632 237.535,120.153 236.356 C 120.674 235.177,121.146 234.209,121.202 234.206 C 121.259 234.203,126.343 245.315,132.502 258.900 L 143.699 283.600 149.066 283.600 C 152.061 283.600,154.404 283.522,154.367 283.425 C 153.815 281.972,121.307 210.800,121.196 210.800 C 121.110 210.800,120.950 211.048,120.842 211.350 M267.169 213.750 C 266.448 215.373,259.096 231.696,250.830 250.025 C 242.563 268.354,235.800 283.406,235.800 283.475 C 235.800 283.544,238.174 283.600,241.075 283.600 L 246.350 283.600 250.235 274.950 C 252.371 270.193,257.355 259.078,261.310 250.252 C 265.264 241.426,268.545 234.205,268.600 234.205 C 268.655 234.206,273.736 245.320,279.890 258.903 L 291.080 283.600 296.452 283.600 C 299.406 283.600,301.788 283.532,301.745 283.450 C 301.702 283.368,294.257 266.988,285.201 247.050 C 276.146 227.113,268.678 210.800,268.607 210.800 C 268.536 210.800,267.889 212.128,267.169 213.750 M31.494 214.047 C 31.441 214.186,31.420 229.870,31.449 248.900 L 31.500 283.500 36.600 283.500 L 41.700 283.500 41.800 267.133 L 41.900 250.765 56.800 267.171 L 71.700 283.577 78.287 283.588 L 84.875 283.600 84.355 283.050 C 81.408 279.929,51.010 246.275,51.049 246.175 C 51.077 246.102,58.345 239.093,67.200 230.600 C 76.055 222.106,83.614 214.852,83.997 214.479 L 84.693 213.800 77.497 213.813 L 70.300 213.825 56.100 227.459 L 41.900 241.092 41.800 227.496 L 41.700 213.900 36.645 213.847 C 32.709 213.805,31.569 213.849,31.494 214.047 M160.292 214.050 C 160.240 214.188,160.220 229.870,160.249 248.900 L 160.300 283.500 176.553 283.551 L 192.807 283.602 192.753 278.551 L 192.700 273.500 181.550 273.448 L 170.400 273.397 170.400 243.598 L 170.400 213.800 165.394 213.800 C 161.573 213.800,160.365 213.859,160.292 214.050 M189.453 214.047 C 189.508 214.186,194.603 222.695,200.776 232.956 L 212.000 251.611 212.000 267.606 L 212.000 283.600 217.200 283.600 L 222.400 283.600 222.401 267.550 L 222.401 251.500 227.070 243.800 C 232.073 235.549,244.997 214.198,245.138 213.950 C 245.185 213.868,242.666 213.800,239.541 213.800 L 233.859 213.800 229.301 221.350 C 226.794 225.503,223.114 231.619,221.122 234.942 C 219.130 238.265,217.423 240.961,217.328 240.934 C 217.234 240.908,213.450 234.814,208.919 227.393 L 200.682 213.900 195.019 213.847 C 190.514 213.805,189.375 213.846,189.453 214.047 M358.854 297.411 C 355.230 298.126,353.180 300.964,354.071 304.031 C 354.699 306.188,356.139 307.116,360.700 308.302 C 365.726 309.609,366.951 310.626,366.208 312.877 C 364.833 317.042,355.645 315.611,355.604 311.225 C 355.600 310.800,355.534 310.763,354.975 310.875 C 354.631 310.944,354.091 311.000,353.775 311.000 C 353.059 311.000,352.987 311.836,353.572 313.374 C 356.145 320.147,368.807 318.838,368.794 311.800 C 368.788 308.601,367.172 307.234,361.819 305.898 C 357.194 304.744,356.400 304.240,356.400 302.461 C 356.400 298.530,364.586 298.556,365.576 302.489 C 365.788 303.331,365.868 303.429,366.258 303.324 C 366.501 303.259,367.038 303.204,367.450 303.203 C 368.385 303.199,368.471 302.490,367.728 300.896 C 366.426 298.099,362.727 296.646,358.854 297.411 M39.759 305.550 C 39.693 314.413,39.691 314.426,38.279 315.097 C 36.188 316.089,34.018 314.694,34.004 312.350 C 34.000 311.550,33.403 311.364,32.025 311.733 C 31.327 311.919,31.503 313.941,32.348 315.442 C 34.019 318.412,39.576 318.543,41.408 315.656 C 42.319 314.219,42.400 313.364,42.400 305.190 L 42.400 297.600 41.109 297.600 L 39.817 297.600 39.759 305.550 M66.800 307.500 L 66.800 317.400 74.210 317.400 L 81.620 317.400 81.560 316.250 L 81.500 315.100 75.450 315.047 L 69.400 314.994 69.400 311.697 L 69.400 308.400 74.900 308.400 L 80.400 308.400 80.400 307.200 L 80.400 306.000 74.900 306.000 L 69.400 306.000 69.400 303.003 L 69.400 300.006 75.250 299.953 L 81.100 299.900 81.160 298.750 L 81.220 297.600 74.010 297.600 L 66.800 297.600 66.800 307.500 M103.472 297.940 C 103.529 298.138,104.133 300.415,104.814 303.000 C 105.494 305.585,106.540 309.545,107.137 311.800 C 107.734 314.055,108.311 316.238,108.419 316.650 L 108.615 317.400 109.960 317.400 L 111.304 317.400 113.697 308.785 C 115.256 303.174,116.140 300.297,116.234 300.535 C 116.312 300.736,116.818 302.520,117.357 304.500 C 117.896 306.480,118.914 310.195,119.619 312.756 L 120.900 317.411 122.188 317.356 L 123.475 317.300 123.712 316.400 C 124.031 315.185,127.484 302.621,128.215 300.015 C 128.537 298.869,128.800 297.856,128.800 297.765 C 128.800 297.674,128.215 297.600,127.500 297.600 C 126.785 297.600,126.200 297.643,126.200 297.695 C 126.200 297.747,125.343 301.325,124.297 305.645 C 123.250 309.965,122.340 313.725,122.275 314.000 C 122.192 314.353,122.018 313.822,121.686 312.200 C 121.427 310.935,120.447 307.174,119.508 303.843 C 118.568 300.511,117.800 297.744,117.800 297.693 C 117.800 297.642,117.084 297.600,116.208 297.600 L 114.617 297.600 114.221 298.950 C 113.817 300.329,110.639 311.690,110.150 313.500 L 109.880 314.500 109.536 312.800 C 109.347 311.865,108.491 308.085,107.634 304.400 L 106.076 297.700 104.721 297.640 C 103.498 297.587,103.377 297.616,103.472 297.940 M151.400 307.497 L 151.400 317.400 158.810 317.400 L 166.220 317.400 166.160 316.250 C 166.116 315.403,166.021 315.093,165.800 315.073 C 165.635 315.058,162.913 315.036,159.750 315.023 L 154.000 315.000 154.000 311.703 L 154.000 308.406 159.450 308.353 L 164.900 308.300 164.960 307.150 L 165.020 306.000 159.510 306.000 L 154.000 306.000 154.000 303.000 L 154.000 300.000 159.796 300.000 L 165.592 300.000 165.711 299.528 C 165.776 299.268,165.800 298.750,165.765 298.378 L 165.700 297.700 158.550 297.647 L 151.400 297.595 151.400 307.497 M189.600 307.500 L 189.600 317.400 195.810 317.400 L 202.020 317.400 201.960 316.250 L 201.900 315.100 197.050 315.046 L 192.200 314.993 192.200 306.296 L 192.200 297.600 190.900 297.600 L 189.600 297.600 189.600 307.500 M234.600 307.500 L 234.600 317.400 240.810 317.400 L 247.020 317.400 246.960 316.250 L 246.900 315.100 242.050 315.046 L 237.200 314.993 237.200 306.296 L 237.200 297.600 235.900 297.600 L 234.600 297.600 234.600 307.500 M270.400 307.500 L 270.400 317.400 277.810 317.400 L 285.220 317.400 285.160 316.250 L 285.100 315.100 279.050 315.047 L 273.000 314.994 273.000 311.697 L 273.000 308.400 278.500 308.400 L 284.000 308.400 284.000 307.200 L 284.000 306.000 278.500 306.000 L 273.000 306.000 273.000 303.000 L 273.000 300.000 278.900 300.000 L 284.800 300.000 284.800 298.800 L 284.800 297.600 277.600 297.600 L 270.400 297.600 270.400 307.500 M309.200 307.484 L 309.200 317.400 310.500 317.400 L 311.800 317.400 311.800 312.984 L 311.800 308.567 314.268 308.634 C 317.753 308.727,318.130 309.044,321.913 315.071 C 323.478 317.564,323.296 317.437,325.181 317.359 L 326.624 317.300 324.662 314.200 C 322.865 311.360,321.138 309.267,320.100 308.670 C 319.648 308.410,319.709 308.371,321.131 308.007 C 325.748 306.827,326.484 300.225,322.221 298.226 C 321.101 297.701,321.093 297.700,315.150 297.634 L 309.200 297.569 309.200 307.484 M320.779 300.300 C 323.049 301.637,322.846 304.765,320.418 305.868 C 319.614 306.233,319.022 306.295,315.650 306.364 L 311.800 306.442 311.800 303.107 L 311.800 299.771 315.950 299.836 C 319.671 299.893,320.170 299.941,320.779 300.300 " stroke="none" fill="#fbfaf9" fill-rule="evenodd"></path><path id="path1" d="M0.000 182.300 L 0.000 364.600 200.000 364.600 L 400.000 364.600 400.000 182.300 L 400.000 0.000 200.000 0.000 L 0.000 0.000 0.000 182.300 M237.110 57.750 C 234.934 79.213,224.381 98.127,206.103 113.321 C 204.942 114.286,204.016 115.135,204.046 115.206 C 204.076 115.278,205.253 116.261,206.662 117.390 C 223.578 130.948,234.842 150.844,237.100 171.150 C 237.264 172.627,237.429 172.571,234.285 172.107 C 225.096 170.753,219.258 170.217,211.300 169.996 C 203.336 169.775,199.227 169.454,193.400 168.595 C 173.309 165.637,161.369 158.446,159.533 148.200 C 159.359 147.230,159.326 138.625,159.402 114.300 L 159.505 81.700 159.971 80.400 C 163.858 69.559,176.716 64.179,205.400 61.392 C 208.978 61.044,227.114 58.163,234.900 56.705 C 237.384 56.240,237.268 56.185,237.110 57.750 M332.833 236.475 L 358.100 262.450 358.200 238.075 L 358.300 213.700 363.450 213.647 L 368.600 213.593 368.600 250.497 C 368.600 270.793,368.570 287.400,368.533 287.400 C 368.495 287.400,357.043 275.706,343.083 261.413 L 317.700 235.426 317.649 259.513 L 317.598 283.600 312.399 283.600 L 307.200 283.600 307.200 246.983 C 307.200 224.925,307.273 210.393,307.383 210.433 C 307.484 210.470,318.936 222.189,332.833 236.475 M124.920 218.404 C 126.844 222.637,128.606 226.505,128.836 227.000 C 129.066 227.495,129.926 229.385,130.748 231.200 C 131.569 233.015,132.467 234.995,132.744 235.600 C 133.020 236.205,137.970 247.095,143.745 259.800 C 149.519 272.505,154.327 283.058,154.429 283.250 C 154.603 283.579,154.288 283.600,149.094 283.600 L 143.575 283.600 142.966 282.250 C 142.068 280.260,133.640 261.679,127.294 247.700 C 124.248 240.990,121.664 235.246,121.553 234.935 C 121.266 234.133,121.394 233.890,117.353 242.900 C 115.331 247.410,110.398 258.413,106.391 267.350 L 99.106 283.600 93.650 283.600 L 88.195 283.600 88.473 282.950 C 88.626 282.593,93.808 271.095,99.988 257.400 C 106.169 243.705,113.444 227.572,116.156 221.548 C 118.868 215.524,121.163 210.621,121.255 210.652 C 121.347 210.682,122.997 214.171,124.920 218.404 M269.086 211.350 C 269.284 211.763,270.345 214.080,271.444 216.500 C 272.543 218.920,273.667 221.395,273.943 222.000 C 274.218 222.605,277.819 230.525,281.943 239.600 C 286.068 248.675,289.627 256.505,289.852 257.000 C 290.077 257.495,292.857 263.604,296.030 270.576 C 299.204 277.548,301.800 283.332,301.800 283.429 C 301.800 283.529,299.420 283.583,296.357 283.553 L 290.914 283.500 289.281 279.900 C 283.840 267.908,271.788 241.332,270.393 238.250 C 269.484 236.243,268.675 234.600,268.595 234.600 C 268.514 234.600,267.815 236.018,267.041 237.750 C 266.266 239.482,264.401 243.645,262.895 247.000 C 261.389 250.355,259.229 255.170,258.095 257.700 C 256.961 260.230,254.357 266.035,252.307 270.600 C 250.258 275.165,248.114 279.957,247.543 281.250 L 246.505 283.600 241.031 283.600 C 236.729 283.600,235.580 283.546,235.662 283.350 C 235.720 283.213,238.572 276.890,241.999 269.300 C 250.428 250.634,249.929 251.740,257.205 235.600 C 260.750 227.735,264.301 219.860,265.096 218.100 C 265.891 216.340,266.974 213.933,267.504 212.750 C 268.589 210.325,268.592 210.322,269.086 211.350 M41.849 227.268 L 41.900 240.936 56.172 227.268 L 70.444 213.600 77.639 213.600 C 81.596 213.600,84.803 213.677,84.767 213.771 C 84.730 213.866,77.185 221.158,68.000 229.977 C 58.815 238.796,51.310 246.131,51.323 246.277 C 51.336 246.423,58.873 254.831,68.073 264.962 C 77.273 275.093,84.800 283.431,84.800 283.491 C 84.800 283.551,81.836 283.600,78.213 283.600 L 71.626 283.600 56.763 267.265 L 41.900 250.930 41.849 267.265 L 41.798 283.600 36.599 283.600 L 31.400 283.600 31.400 248.600 L 31.400 213.600 36.599 213.600 L 41.797 213.600 41.849 227.268 M170.400 243.500 L 170.400 273.400 181.700 273.400 L 193.000 273.400 193.000 278.500 L 193.000 283.600 176.600 283.600 L 160.200 283.600 160.200 248.600 L 160.200 213.600 165.300 213.600 L 170.400 213.600 170.400 243.500 M202.514 216.700 C 203.521 218.350,207.227 224.422,210.750 230.193 C 214.273 235.963,217.233 240.707,217.328 240.734 C 217.422 240.761,218.479 239.145,219.676 237.142 C 220.873 235.139,224.552 229.023,227.852 223.550 L 233.853 213.600 239.550 213.600 C 244.959 213.600,245.242 213.618,245.152 213.964 C 245.099 214.164,243.070 217.606,240.641 221.614 C 238.213 225.621,233.116 234.030,229.315 240.300 L 222.404 251.700 222.402 267.650 L 222.400 283.600 217.200 283.600 L 212.000 283.600 212.000 267.710 L 212.000 251.819 200.708 233.047 C 194.497 222.722,189.357 214.121,189.285 213.934 C 189.164 213.618,189.560 213.598,194.919 213.647 L 200.682 213.700 202.514 216.700 M364.481 297.724 C 366.936 298.665,369.559 302.843,367.963 303.271 C 366.848 303.569,365.600 303.422,365.600 302.992 C 365.600 299.592,358.569 298.296,356.837 301.377 C 355.615 303.551,356.634 304.447,361.854 305.786 C 365.236 306.654,366.180 307.043,367.306 308.032 C 369.638 310.080,369.454 313.953,366.922 316.120 C 364.100 318.536,357.809 318.344,355.076 315.759 C 353.421 314.194,352.401 311.207,353.427 310.932 C 354.883 310.542,355.571 310.750,355.807 311.650 C 357.016 316.264,366.200 316.611,366.200 312.043 C 366.200 310.290,365.103 309.544,361.000 308.505 C 355.440 307.097,353.809 305.781,353.809 302.700 C 353.809 298.409,359.430 295.788,364.481 297.724 M42.558 304.400 C 42.654 315.862,42.022 317.482,37.349 317.760 C 33.868 317.966,31.848 316.352,31.489 313.076 C 31.335 311.674,31.324 311.687,32.820 311.501 L 33.940 311.361 34.066 312.277 C 34.425 314.898,36.248 316.028,38.347 314.931 C 39.685 314.231,39.693 314.182,39.766 305.341 L 39.832 297.382 41.166 297.441 L 42.500 297.500 42.558 304.400 M81.200 298.700 L 81.200 300.000 75.300 300.000 L 69.400 300.000 69.400 302.900 L 69.400 305.800 74.900 305.800 L 80.400 305.800 80.400 307.100 L 80.400 308.400 74.900 308.400 L 69.400 308.400 69.400 311.700 L 69.400 315.000 75.500 315.000 L 81.600 315.000 81.600 316.302 L 81.600 317.605 74.150 317.552 L 66.700 317.500 66.648 307.700 C 66.619 302.310,66.639 297.788,66.692 297.650 C 66.766 297.456,68.413 297.400,73.994 297.400 L 81.200 297.400 81.200 298.700 M106.095 297.592 C 106.212 297.781,109.401 311.435,109.740 313.200 L 109.914 314.100 110.563 311.600 C 110.920 310.225,111.953 306.490,112.859 303.300 L 114.506 297.500 116.142 297.442 L 117.778 297.384 118.177 298.742 C 119.669 303.821,121.312 309.821,121.697 311.600 C 121.946 312.755,122.200 313.565,122.260 313.400 C 122.321 313.235,123.193 309.680,124.200 305.500 C 125.207 301.320,126.065 297.788,126.109 297.650 C 126.196 297.372,128.706 297.286,128.872 297.555 C 128.961 297.699,123.709 317.062,123.480 317.432 C 123.266 317.778,121.027 317.625,120.830 317.250 C 120.729 317.058,119.628 313.219,118.383 308.719 C 117.139 304.220,116.094 300.620,116.062 300.719 C 115.996 300.925,111.898 315.695,111.584 316.859 L 111.380 317.617 109.956 317.559 L 108.532 317.500 105.898 307.600 C 104.449 302.155,103.299 297.632,103.343 297.550 C 103.462 297.329,105.956 297.367,106.095 297.592 M165.800 298.700 L 165.800 300.000 159.900 300.000 L 154.000 300.000 154.000 302.900 L 154.000 305.800 159.500 305.800 L 165.000 305.800 165.000 307.100 L 165.000 308.400 159.500 308.400 L 154.000 308.400 154.000 311.700 L 154.000 315.000 160.100 315.000 L 166.200 315.000 166.200 316.302 L 166.200 317.605 158.750 317.552 L 151.300 317.500 151.248 307.700 C 151.219 302.310,151.239 297.788,151.292 297.650 C 151.366 297.456,153.013 297.400,158.594 297.400 L 165.800 297.400 165.800 298.700 M192.352 306.250 L 192.404 315.000 197.312 315.000 L 202.219 315.000 202.160 316.250 L 202.100 317.500 195.850 317.553 L 189.600 317.606 189.600 307.494 L 189.600 297.382 190.950 297.441 L 192.300 297.500 192.352 306.250 M237.352 306.250 L 237.404 315.000 242.202 315.000 L 247.000 315.000 247.000 316.303 L 247.000 317.606 240.750 317.553 L 234.500 317.500 234.448 307.700 C 234.387 296.276,234.228 297.366,235.947 297.441 L 237.300 297.500 237.352 306.250 M284.960 298.750 L 285.019 300.000 279.110 300.000 L 273.200 300.000 273.200 302.897 L 273.200 305.794 278.650 305.847 L 284.100 305.900 284.160 307.150 L 284.219 308.400 278.710 308.400 L 273.200 308.400 273.200 311.700 L 273.200 315.000 279.310 315.000 L 285.419 315.000 285.360 316.250 L 285.300 317.500 277.850 317.552 L 270.400 317.605 270.400 307.500 L 270.400 297.395 277.650 297.448 L 284.900 297.500 284.960 298.750 M319.952 297.593 C 326.376 298.332,327.253 306.249,321.120 308.137 L 320.038 308.471 320.795 309.019 C 321.837 309.774,326.800 316.761,326.800 317.473 C 326.800 317.551,326.021 317.590,325.069 317.558 L 323.337 317.500 321.350 314.400 C 317.873 308.978,317.646 308.800,314.212 308.800 L 312.008 308.800 311.954 313.150 L 311.900 317.500 310.550 317.559 L 309.200 317.618 309.200 307.509 L 309.200 297.400 313.750 297.402 C 316.253 297.402,319.043 297.489,319.952 297.593 M312.000 302.994 L 312.000 306.230 315.950 306.165 C 321.031 306.081,322.200 305.489,322.200 303.000 C 322.200 300.539,320.982 299.932,315.850 299.832 L 312.000 299.758 312.000 302.994 " stroke="none" fill="#d31c23" fill-rule="evenodd"></path><path id="path2" d="M234.200 56.936 C 221.862 59.086,209.789 61.045,207.300 61.300 C 197.652 62.290,195.777 62.516,191.400 63.219 C 181.350 64.833,170.810 68.277,172.068 69.535 C 172.153 69.619,172.305 69.556,172.408 69.394 C 172.518 69.219,172.595 69.196,172.597 69.335 C 172.599 69.465,172.353 69.769,172.050 70.010 C 171.633 70.344,171.596 70.420,171.900 70.327 C 172.329 70.196,172.357 131.575,171.929 132.450 C 171.815 132.681,171.836 132.800,171.990 132.800 C 172.119 132.800,172.179 132.872,172.125 132.960 C 170.301 135.911,191.042 124.688,200.764 117.464 C 221.969 101.706,234.259 81.732,236.878 58.771 C 237.176 56.155,237.482 56.364,234.200 56.936 M205.800 117.774 C 205.800 117.912,205.697 117.960,205.569 117.881 C 205.425 117.792,205.393 117.826,205.483 117.972 C 205.563 118.101,205.725 118.146,205.845 118.072 C 205.974 117.992,206.004 118.031,205.919 118.169 C 205.841 118.296,205.644 118.400,205.482 118.400 C 205.117 118.400,203.123 119.390,203.037 119.614 C 203.002 119.704,202.665 119.880,202.287 120.004 C 201.909 120.129,201.600 120.314,201.600 120.416 C 201.600 120.517,201.462 120.600,201.294 120.600 C 201.125 120.600,200.933 120.742,200.866 120.916 C 200.793 121.106,200.596 121.193,200.372 121.135 C 200.167 121.081,199.932 121.146,199.850 121.278 C 199.767 121.411,199.205 121.765,198.600 122.064 C 197.995 122.364,197.140 122.832,196.700 123.103 C 196.260 123.375,195.765 123.659,195.600 123.734 C 195.435 123.809,195.255 123.922,195.200 123.985 C 195.145 124.048,194.474 124.414,193.708 124.797 C 192.943 125.181,192.017 125.698,191.650 125.947 C 191.283 126.196,190.845 126.400,190.678 126.400 C 190.510 126.400,190.079 126.625,189.719 126.899 C 189.359 127.174,188.780 127.498,188.432 127.619 C 188.084 127.740,187.800 127.919,187.800 128.017 C 187.800 128.115,187.508 128.334,187.150 128.505 C 185.916 129.093,185.400 129.423,185.400 129.623 C 185.400 129.733,185.315 129.771,185.212 129.707 C 184.988 129.569,182.746 130.679,182.912 130.846 C 182.975 130.909,182.728 131.059,182.363 131.180 C 181.999 131.301,181.178 131.715,180.540 132.100 C 179.902 132.485,179.298 132.800,179.199 132.800 C 179.033 132.800,177.779 133.566,177.298 133.960 C 177.187 134.051,176.287 134.522,175.298 135.007 C 174.309 135.492,173.470 135.958,173.433 136.044 C 173.397 136.130,173.239 136.200,173.083 136.200 C 172.928 136.200,172.800 136.276,172.800 136.368 C 172.800 136.460,172.428 136.659,171.974 136.809 C 171.519 136.959,171.041 137.187,170.912 137.317 C 170.782 137.446,169.737 138.061,168.588 138.683 C 167.440 139.304,166.388 139.962,166.250 140.145 C 166.113 140.327,166.000 140.426,166.000 140.363 C 166.000 140.301,165.725 140.307,165.390 140.375 C 165.054 140.444,164.807 140.559,164.840 140.632 C 164.914 140.794,163.884 141.623,163.545 141.674 C 162.936 141.766,160.868 144.307,159.951 146.088 C 158.981 147.973,160.425 152.212,163.245 155.756 C 170.115 164.392,189.956 169.982,213.800 170.000 C 218.103 170.003,226.724 170.857,234.974 172.096 C 237.361 172.455,237.235 172.683,236.687 169.000 C 233.761 149.341,223.271 131.070,207.604 118.340 C 207.441 118.208,207.239 118.123,207.154 118.150 C 207.069 118.178,207.000 118.129,207.000 118.043 C 207.000 117.956,206.818 117.871,206.596 117.855 C 206.343 117.836,206.236 117.914,206.311 118.062 C 206.376 118.193,206.288 118.125,206.115 117.912 C 205.937 117.692,205.800 117.632,205.800 117.774 " stroke="none" fill="#f6c708" fill-rule="evenodd"></path><path id="path3" d="M206.450 61.338 C 206.643 61.388,206.957 61.388,207.150 61.338 C 207.343 61.288,207.185 61.246,206.800 61.246 C 206.415 61.246,206.257 61.288,206.450 61.338 M204.650 61.538 C 204.843 61.588,205.157 61.588,205.350 61.538 C 205.543 61.488,205.385 61.446,205.000 61.446 C 204.615 61.446,204.458 61.488,204.650 61.538 M173.600 67.797 C 173.435 67.892,172.355 68.423,171.200 68.976 C 165.918 71.504,162.116 75.099,160.555 79.039 C 160.280 79.732,159.932 80.615,159.781 81.000 C 159.525 81.654,159.127 146.677,159.377 147.000 C 159.420 147.055,159.489 147.005,159.531 146.890 C 160.001 145.588,162.877 141.765,163.445 141.685 C 163.876 141.625,164.935 140.807,164.800 140.640 C 164.745 140.572,164.993 140.457,165.350 140.383 C 165.708 140.310,166.000 140.301,166.000 140.363 C 166.000 140.426,166.113 140.327,166.250 140.145 C 166.388 139.962,167.440 139.304,168.588 138.683 C 169.737 138.061,170.782 137.446,170.912 137.317 C 171.041 137.187,171.519 136.959,171.974 136.809 C 172.428 136.659,172.800 136.460,172.800 136.368 C 172.800 136.276,172.928 136.200,173.083 136.200 C 173.239 136.200,173.397 136.130,173.433 136.044 C 173.470 135.958,174.309 135.492,175.298 135.007 C 176.287 134.522,177.187 134.051,177.298 133.960 C 177.779 133.566,179.033 132.800,179.199 132.800 C 179.298 132.800,179.902 132.485,180.540 132.100 C 181.178 131.715,181.999 131.301,182.363 131.180 C 182.728 131.059,182.975 130.909,182.912 130.846 C 182.746 130.679,184.988 129.569,185.212 129.707 C 185.315 129.771,185.400 129.733,185.400 129.623 C 185.400 129.423,185.916 129.093,187.150 128.505 C 187.508 128.334,187.800 128.115,187.800 128.017 C 187.800 127.919,188.084 127.740,188.432 127.619 C 188.780 127.498,189.359 127.174,189.719 126.899 C 190.079 126.625,190.510 126.400,190.678 126.400 C 190.845 126.400,191.283 126.196,191.650 125.947 C 192.017 125.698,192.943 125.181,193.708 124.797 C 194.474 124.414,195.145 124.048,195.200 123.985 C 195.255 123.922,195.435 123.809,195.600 123.734 C 195.765 123.659,196.260 123.375,196.700 123.103 C 197.140 122.832,197.995 122.364,198.600 122.064 C 199.205 121.765,199.770 121.406,199.855 121.268 C 199.941 121.130,200.154 121.072,200.330 121.139 C 200.520 121.212,200.725 121.127,200.835 120.931 C 200.937 120.749,201.150 120.600,201.310 120.600 C 201.469 120.600,201.600 120.517,201.600 120.416 C 201.600 120.314,201.909 120.129,202.287 120.004 C 202.665 119.880,203.002 119.704,203.037 119.614 C 203.123 119.390,205.117 118.400,205.482 118.400 C 205.644 118.400,205.841 118.296,205.919 118.169 C 206.004 118.031,205.974 117.992,205.845 118.072 C 205.725 118.146,205.563 118.101,205.483 117.972 C 205.393 117.826,205.425 117.792,205.569 117.881 C 205.697 117.960,205.800 117.912,205.800 117.774 C 205.800 117.632,205.937 117.692,206.115 117.912 C 206.288 118.125,206.376 118.193,206.311 118.062 C 206.236 117.914,206.343 117.836,206.596 117.855 C 206.818 117.871,207.000 117.961,207.000 118.054 C 207.000 118.147,207.091 118.168,207.201 118.099 C 207.312 118.031,207.454 118.108,207.517 118.272 C 207.622 118.546,208.200 118.904,208.200 118.695 C 208.200 118.645,207.278 117.871,206.150 116.977 C 205.023 116.082,204.065 115.319,204.021 115.280 C 203.978 115.241,204.064 115.050,204.213 114.855 C 204.361 114.660,204.172 114.782,203.791 115.126 C 198.900 119.555,180.138 130.753,173.333 133.305 C 172.389 133.659,171.797 133.490,172.125 132.960 C 172.179 132.872,172.119 132.800,171.990 132.800 C 171.836 132.800,171.815 132.681,171.929 132.450 C 172.357 131.575,172.329 70.196,171.900 70.327 C 171.596 70.420,171.633 70.344,172.050 70.010 C 172.353 69.769,172.599 69.465,172.597 69.335 C 172.595 69.196,172.518 69.219,172.408 69.394 C 172.305 69.556,172.153 69.619,172.068 69.535 C 171.814 69.281,172.254 68.787,173.204 68.256 C 173.697 67.981,174.138 67.721,174.183 67.678 C 174.338 67.533,173.903 67.622,173.600 67.797 M216.887 102.850 L 216.300 103.500 216.950 102.913 C 217.556 102.365,217.692 102.200,217.537 102.200 C 217.503 102.200,217.210 102.493,216.887 102.850 M213.097 106.850 L 210.500 109.500 213.150 106.903 C 214.607 105.474,215.800 104.282,215.800 104.253 C 215.800 104.109,215.510 104.388,213.097 106.850 M209.087 110.650 L 208.500 111.300 209.150 110.713 C 209.756 110.165,209.892 110.000,209.737 110.000 C 209.703 110.000,209.410 110.293,209.087 110.650 M208.400 118.863 C 208.400 118.897,208.693 119.190,209.050 119.513 L 209.700 120.100 209.113 119.450 C 208.565 118.844,208.400 118.708,208.400 118.863 M210.900 121.200 C 211.330 121.640,211.726 122.000,211.781 122.000 C 211.836 122.000,211.530 121.640,211.100 121.200 C 210.670 120.760,210.274 120.400,210.219 120.400 C 210.164 120.400,210.470 120.760,210.900 121.200 M216.000 126.300 C 216.373 126.685,216.723 127.000,216.778 127.000 C 216.833 127.000,216.573 126.685,216.200 126.300 C 215.827 125.915,215.477 125.600,215.422 125.600 C 215.367 125.600,215.627 125.915,216.000 126.300 M201.250 169.538 C 201.442 169.588,201.758 169.588,201.950 169.538 C 202.143 169.488,201.985 169.446,201.600 169.446 C 201.215 169.446,201.058 169.488,201.250 169.538 M203.950 169.741 C 204.197 169.789,204.603 169.789,204.850 169.741 C 205.097 169.693,204.895 169.654,204.400 169.654 C 203.905 169.654,203.703 169.693,203.950 169.741 M207.550 169.945 C 207.907 169.989,208.493 169.989,208.850 169.945 C 209.207 169.900,208.915 169.864,208.200 169.864 C 207.485 169.864,207.193 169.900,207.550 169.945 M216.253 170.144 C 216.557 170.189,217.007 170.188,217.253 170.141 C 217.499 170.093,217.250 170.056,216.700 170.057 C 216.150 170.059,215.949 170.098,216.253 170.144 M219.250 170.338 C 219.443 170.388,219.757 170.388,219.950 170.338 C 220.143 170.288,219.985 170.246,219.600 170.246 C 219.215 170.246,219.058 170.288,219.250 170.338 " stroke="none" fill="#ce8816" fill-rule="evenodd"></path><path id="path4" d="M307.249 247.050 L 307.299 283.700 307.350 247.107 L 307.401 210.515 308.551 211.607 L 309.700 212.700 308.607 211.550 C 308.006 210.918,307.443 210.400,307.357 210.400 C 307.271 210.400,307.222 226.893,307.249 247.050 M31.400 213.750 C 31.400 213.832,33.740 213.900,36.600 213.900 C 39.460 213.900,41.800 213.832,41.800 213.750 C 41.800 213.668,39.460 213.600,36.600 213.600 C 33.740 213.600,31.400 213.668,31.400 213.750 M77.479 213.750 L 84.657 213.805 84.279 214.253 L 83.900 214.700 84.350 214.319 C 84.598 214.109,84.800 213.862,84.800 213.769 C 84.800 213.676,81.538 213.621,77.550 213.647 L 70.300 213.695 77.479 213.750 M160.200 213.750 C 160.200 213.832,161.707 213.877,163.550 213.849 C 169.894 213.751,170.487 213.683,165.350 213.642 C 162.518 213.619,160.200 213.668,160.200 213.750 M189.200 213.750 C 189.200 213.832,191.730 213.875,194.822 213.844 C 199.157 213.801,200.519 213.846,200.772 214.044 C 201.064 214.272,201.070 214.262,200.826 213.950 C 200.537 213.582,189.200 213.386,189.200 213.750 M233.731 213.750 C 233.679 213.832,235.362 213.877,237.469 213.849 C 244.619 213.753,245.317 213.684,239.562 213.642 C 236.406 213.619,233.782 213.668,233.731 213.750 M358.333 213.733 C 358.260 213.807,358.200 224.807,358.200 238.179 L 358.200 262.492 356.250 260.596 L 354.300 258.700 356.300 260.754 L 358.300 262.808 358.351 238.307 L 358.402 213.807 363.551 213.750 L 368.700 213.693 363.583 213.646 C 360.769 213.621,358.407 213.660,358.333 213.733 M67.596 216.350 L 65.900 218.100 67.650 216.404 C 69.275 214.830,69.491 214.600,69.346 214.600 C 69.316 214.600,68.528 215.388,67.596 216.350 M313.997 217.250 C 316.503 219.805,316.800 220.091,316.800 219.947 C 316.800 219.918,315.563 218.681,314.050 217.197 L 311.300 214.500 313.997 217.250 M80.596 217.750 L 78.700 219.700 80.650 217.804 C 81.723 216.761,82.600 215.884,82.600 215.854 C 82.600 215.709,82.357 215.939,80.596 217.750 M62.796 220.950 L 61.100 222.700 62.850 221.004 C 64.475 219.430,64.691 219.200,64.546 219.200 C 64.516 219.200,63.728 219.988,62.796 220.950 M75.596 222.550 L 73.700 224.500 75.650 222.604 C 77.461 220.843,77.691 220.600,77.546 220.600 C 77.516 220.600,76.639 221.478,75.596 222.550 M321.197 224.650 C 323.703 227.205,324.000 227.491,324.000 227.347 C 324.000 227.318,322.763 226.081,321.250 224.597 L 318.500 221.900 321.197 224.650 M58.096 225.450 L 56.300 227.300 58.150 225.504 C 59.868 223.836,60.091 223.600,59.946 223.600 C 59.916 223.600,59.084 224.433,58.096 225.450 M70.596 227.350 L 68.700 229.300 70.650 227.404 C 72.461 225.643,72.691 225.400,72.546 225.400 C 72.516 225.400,71.639 226.278,70.596 227.350 M53.396 229.950 L 51.700 231.700 53.450 230.004 C 55.075 228.430,55.291 228.200,55.146 228.200 C 55.116 228.200,54.328 228.988,53.396 229.950 M328.300 232.000 C 329.837 233.540,331.140 234.800,331.195 234.800 C 331.250 234.800,330.037 233.540,328.500 232.000 C 326.963 230.460,325.660 229.200,325.605 229.200 C 325.550 229.200,326.763 230.460,328.300 232.000 M65.596 232.150 L 63.700 234.100 65.650 232.204 C 66.723 231.161,67.600 230.284,67.600 230.254 C 67.600 230.109,67.357 230.339,65.596 232.150 M48.696 234.450 L 46.900 236.300 48.750 234.504 C 50.468 232.836,50.691 232.600,50.546 232.600 C 50.516 232.600,49.684 233.433,48.696 234.450 M268.321 234.516 C 268.139 234.992,268.181 235.138,268.403 234.800 C 268.578 234.533,268.622 234.533,268.797 234.800 C 269.019 235.138,269.061 234.992,268.879 234.516 C 268.812 234.342,268.686 234.200,268.600 234.200 C 268.514 234.200,268.388 234.342,268.321 234.516 M60.496 237.050 L 58.700 238.900 60.550 237.104 C 62.268 235.436,62.491 235.200,62.346 235.200 C 62.316 235.200,61.484 236.032,60.496 237.050 M335.500 239.400 C 337.037 240.940,338.340 242.200,338.395 242.200 C 338.450 242.200,337.237 240.940,335.700 239.400 C 334.163 237.860,332.860 236.600,332.805 236.600 C 332.750 236.600,333.963 237.860,335.500 239.400 M43.996 238.950 L 42.300 240.700 44.050 239.004 C 45.675 237.430,45.891 237.200,45.746 237.200 C 45.716 237.200,44.928 237.988,43.996 238.950 M323.700 241.600 C 325.457 243.360,326.940 244.800,326.995 244.800 C 327.050 244.800,325.657 243.360,323.900 241.600 C 322.143 239.840,320.660 238.400,320.605 238.400 C 320.550 238.400,321.943 239.840,323.700 241.600 M55.496 241.850 L 53.700 243.700 55.550 241.904 C 57.268 240.236,57.491 240.000,57.346 240.000 C 57.316 240.000,56.484 240.832,55.496 241.850 M342.700 246.800 C 344.237 248.340,345.540 249.600,345.595 249.600 C 345.650 249.600,344.437 248.340,342.900 246.800 C 341.363 245.260,340.060 244.000,340.005 244.000 C 339.950 244.000,341.163 245.260,342.700 246.800 M51.600 245.500 C 51.038 246.079,50.967 246.244,51.190 246.450 C 51.406 246.651,51.429 246.648,51.307 246.433 C 51.210 246.262,51.394 245.919,51.817 245.483 C 52.181 245.107,52.433 244.800,52.378 244.800 C 52.323 244.800,51.973 245.115,51.600 245.500 M332.200 250.300 C 334.012 252.115,335.540 253.600,335.595 253.600 C 335.650 253.600,334.212 252.115,332.400 250.300 C 330.588 248.485,329.060 247.000,329.005 247.000 C 328.950 247.000,330.388 248.485,332.200 250.300 M52.500 248.000 C 52.930 248.440,53.326 248.800,53.381 248.800 C 53.436 248.800,53.130 248.440,52.700 248.000 C 52.270 247.560,51.874 247.200,51.819 247.200 C 51.764 247.200,52.070 247.560,52.500 248.000 M54.500 250.200 C 54.930 250.640,55.326 251.000,55.381 251.000 C 55.436 251.000,55.130 250.640,54.700 250.200 C 54.270 249.760,53.874 249.400,53.819 249.400 C 53.764 249.400,54.070 249.760,54.500 250.200 M42.400 251.500 C 42.773 251.885,43.123 252.200,43.178 252.200 C 43.233 252.200,42.973 251.885,42.600 251.500 C 42.227 251.115,41.877 250.800,41.822 250.800 C 41.767 250.800,42.027 251.115,42.400 251.500 M349.900 254.200 C 351.437 255.740,352.740 257.000,352.795 257.000 C 352.850 257.000,351.637 255.740,350.100 254.200 C 348.563 252.660,347.260 251.400,347.205 251.400 C 347.150 251.400,348.363 252.660,349.900 254.200 M56.500 252.400 C 56.930 252.840,57.326 253.200,57.381 253.200 C 57.436 253.200,57.130 252.840,56.700 252.400 C 56.270 251.960,55.874 251.600,55.819 251.600 C 55.764 251.600,56.070 251.960,56.500 252.400 M44.300 253.600 C 44.730 254.040,45.126 254.400,45.181 254.400 C 45.236 254.400,44.930 254.040,44.500 253.600 C 44.070 253.160,43.674 252.800,43.619 252.800 C 43.564 252.800,43.870 253.160,44.300 253.600 M58.500 254.600 C 58.930 255.040,59.326 255.400,59.381 255.400 C 59.436 255.400,59.130 255.040,58.700 254.600 C 58.270 254.160,57.874 253.800,57.819 253.800 C 57.764 253.800,58.070 254.160,58.500 254.600 M46.300 255.800 C 46.730 256.240,47.126 256.600,47.181 256.600 C 47.236 256.600,46.930 256.240,46.500 255.800 C 46.070 255.360,45.674 255.000,45.619 255.000 C 45.564 255.000,45.870 255.360,46.300 255.800 M340.700 259.000 C 342.457 260.760,343.940 262.200,343.995 262.200 C 344.050 262.200,342.657 260.760,340.900 259.000 C 339.143 257.240,337.660 255.800,337.605 255.800 C 337.550 255.800,338.943 257.240,340.700 259.000 M60.400 256.700 C 60.773 257.085,61.123 257.400,61.178 257.400 C 61.233 257.400,60.973 257.085,60.600 256.700 C 60.227 256.315,59.877 256.000,59.822 256.000 C 59.767 256.000,60.027 256.315,60.400 256.700 M48.300 258.000 C 48.730 258.440,49.126 258.800,49.181 258.800 C 49.236 258.800,48.930 258.440,48.500 258.000 C 48.070 257.560,47.674 257.200,47.619 257.200 C 47.564 257.200,47.870 257.560,48.300 258.000 M62.400 258.900 C 62.773 259.285,63.123 259.600,63.178 259.600 C 63.233 259.600,62.973 259.285,62.600 258.900 C 62.227 258.515,61.877 258.200,61.822 258.200 C 61.767 258.200,62.027 258.515,62.400 258.900 M50.392 260.250 C 50.882 260.772,51.310 261.200,51.342 261.200 C 51.492 261.200,51.333 261.020,50.450 260.192 L 49.500 259.300 50.392 260.250 M64.300 261.000 C 64.730 261.440,65.126 261.800,65.181 261.800 C 65.236 261.800,64.930 261.440,64.500 261.000 C 64.070 260.560,63.674 260.200,63.619 260.200 C 63.564 260.200,63.870 260.560,64.300 261.000 M52.500 262.600 C 52.930 263.040,53.326 263.400,53.381 263.400 C 53.436 263.400,53.130 263.040,52.700 262.600 C 52.270 262.160,51.874 261.800,51.819 261.800 C 51.764 261.800,52.070 262.160,52.500 262.600 M66.300 263.200 C 66.730 263.640,67.126 264.000,67.181 264.000 C 67.236 264.000,66.930 263.640,66.500 263.200 C 66.070 262.760,65.674 262.400,65.619 262.400 C 65.564 262.400,65.870 262.760,66.300 263.200 M54.500 264.800 C 54.930 265.240,55.326 265.600,55.381 265.600 C 55.436 265.600,55.130 265.240,54.700 264.800 C 54.270 264.360,53.874 264.000,53.819 264.000 C 53.764 264.000,54.070 264.360,54.500 264.800 M349.200 267.700 C 351.012 269.515,352.540 271.000,352.595 271.000 C 352.650 271.000,351.212 269.515,349.400 267.700 C 347.588 265.885,346.060 264.400,346.005 264.400 C 345.950 264.400,347.388 265.885,349.200 267.700 M68.300 265.400 C 68.730 265.840,69.126 266.200,69.181 266.200 C 69.236 266.200,68.930 265.840,68.500 265.400 C 68.070 264.960,67.674 264.600,67.619 264.600 C 67.564 264.600,67.870 264.960,68.300 265.400 M56.500 267.000 C 56.930 267.440,57.326 267.800,57.381 267.800 C 57.436 267.800,57.130 267.440,56.700 267.000 C 56.270 266.560,55.874 266.200,55.819 266.200 C 55.764 266.200,56.070 266.560,56.500 267.000 M70.300 267.600 C 70.730 268.040,71.126 268.400,71.181 268.400 C 71.236 268.400,70.930 268.040,70.500 267.600 C 70.070 267.160,69.674 266.800,69.619 266.800 C 69.564 266.800,69.870 267.160,70.300 267.600 M58.500 269.200 C 58.930 269.640,59.326 270.000,59.381 270.000 C 59.436 270.000,59.130 269.640,58.700 269.200 C 58.270 268.760,57.874 268.400,57.819 268.400 C 57.764 268.400,58.070 268.760,58.500 269.200 M72.300 269.800 C 72.730 270.240,73.126 270.600,73.181 270.600 C 73.236 270.600,72.930 270.240,72.500 269.800 C 72.070 269.360,71.674 269.000,71.619 269.000 C 71.564 269.000,71.870 269.360,72.300 269.800 M60.500 271.400 C 60.930 271.840,61.326 272.200,61.381 272.200 C 61.436 272.200,61.130 271.840,60.700 271.400 C 60.270 270.960,59.874 270.600,59.819 270.600 C 59.764 270.600,60.070 270.960,60.500 271.400 M74.200 271.900 C 74.573 272.285,74.923 272.600,74.978 272.600 C 75.033 272.600,74.773 272.285,74.400 271.900 C 74.027 271.515,73.677 271.200,73.622 271.200 C 73.567 271.200,73.827 271.515,74.200 271.900 M62.500 273.600 C 62.930 274.040,63.326 274.400,63.381 274.400 C 63.436 274.400,63.130 274.040,62.700 273.600 C 62.270 273.160,61.874 272.800,61.819 272.800 C 61.764 272.800,62.070 273.160,62.500 273.600 M76.100 274.000 C 76.530 274.440,76.926 274.800,76.981 274.800 C 77.036 274.800,76.730 274.440,76.300 274.000 C 75.870 273.560,75.474 273.200,75.419 273.200 C 75.364 273.200,75.670 273.560,76.100 274.000 M357.700 276.400 C 359.457 278.160,360.940 279.600,360.995 279.600 C 361.050 279.600,359.657 278.160,357.900 276.400 C 356.143 274.640,354.660 273.200,354.605 273.200 C 354.550 273.200,355.943 274.640,357.700 276.400 M192.751 276.750 C 192.849 283.094,192.917 283.687,192.958 278.550 C 192.981 275.718,192.933 273.400,192.850 273.400 C 192.768 273.400,192.723 274.907,192.751 276.750 M64.500 275.800 C 64.930 276.240,65.326 276.600,65.381 276.600 C 65.436 276.600,65.130 276.240,64.700 275.800 C 64.270 275.360,63.874 275.000,63.819 275.000 C 63.764 275.000,64.070 275.360,64.500 275.800 M78.100 276.200 C 78.530 276.640,78.926 277.000,78.981 277.000 C 79.036 277.000,78.730 276.640,78.300 276.200 C 77.870 275.760,77.474 275.400,77.419 275.400 C 77.364 275.400,77.670 275.760,78.100 276.200 M66.500 278.000 C 66.930 278.440,67.326 278.800,67.381 278.800 C 67.436 278.800,67.130 278.440,66.700 278.000 C 66.270 277.560,65.874 277.200,65.819 277.200 C 65.764 277.200,66.070 277.560,66.500 278.000 M80.100 278.400 C 80.530 278.840,80.926 279.200,80.981 279.200 C 81.036 279.200,80.730 278.840,80.300 278.400 C 79.870 277.960,79.474 277.600,79.419 277.600 C 79.364 277.600,79.670 277.960,80.100 278.400 M68.500 280.200 C 68.930 280.640,69.326 281.000,69.381 281.000 C 69.436 281.000,69.130 280.640,68.700 280.200 C 68.270 279.760,67.874 279.400,67.819 279.400 C 67.764 279.400,68.070 279.760,68.500 280.200 M82.100 280.600 C 82.530 281.040,82.926 281.400,82.981 281.400 C 83.036 281.400,82.730 281.040,82.300 280.600 C 81.870 280.160,81.474 279.800,81.419 279.800 C 81.364 279.800,81.670 280.160,82.100 280.600 M70.500 282.400 C 70.930 282.840,71.326 283.200,71.381 283.200 C 71.436 283.200,71.130 282.840,70.700 282.400 C 70.270 281.960,69.874 281.600,69.819 281.600 C 69.764 281.600,70.070 281.960,70.500 282.400 M365.700 284.600 C 367.237 286.140,368.540 287.400,368.595 287.400 C 368.650 287.400,367.437 286.140,365.900 284.600 C 364.363 283.060,363.060 281.800,363.005 281.800 C 362.950 281.800,364.163 283.060,365.700 284.600 M84.000 282.700 C 84.373 283.085,84.723 283.400,84.778 283.400 C 84.833 283.400,84.573 283.085,84.200 282.700 C 83.827 282.315,83.477 282.000,83.422 282.000 C 83.367 282.000,83.627 282.315,84.000 282.700 M41.148 297.545 L 42.395 297.618 42.451 304.859 L 42.507 312.100 42.504 304.800 L 42.500 297.500 41.200 297.486 L 39.900 297.473 41.148 297.545 M66.692 297.650 C 66.639 297.788,66.619 302.310,66.648 307.700 L 66.700 317.500 74.100 317.504 L 81.500 317.507 74.150 317.451 L 66.800 317.395 66.800 307.500 L 66.800 297.605 74.050 297.550 L 81.300 297.495 74.044 297.447 C 68.388 297.410,66.766 297.455,66.692 297.650 M103.331 297.550 C 103.280 297.632,103.896 297.700,104.700 297.700 C 105.504 297.700,106.120 297.632,106.069 297.550 C 106.018 297.468,105.402 297.400,104.700 297.400 C 103.998 297.400,103.382 297.468,103.331 297.550 M114.533 297.533 C 114.460 297.607,114.401 297.764,114.403 297.883 C 114.405 298.019,114.464 298.010,114.559 297.859 C 114.651 297.715,115.352 297.591,116.306 297.549 L 117.900 297.480 116.283 297.440 C 115.394 297.418,114.607 297.460,114.533 297.533 M126.073 297.699 C 126.005 297.874,126.007 298.073,126.075 298.142 C 126.144 298.211,126.200 298.117,126.200 297.933 C 126.200 297.548,128.682 297.429,128.868 297.805 C 128.924 297.918,128.947 297.895,128.919 297.755 C 128.837 297.343,126.229 297.292,126.073 297.699 M151.292 297.650 C 151.239 297.788,151.219 302.310,151.248 307.700 L 151.300 317.500 158.700 317.504 L 166.100 317.507 158.750 317.451 L 151.400 317.395 151.400 307.493 L 151.400 297.590 158.600 297.645 C 162.560 297.675,165.800 297.632,165.800 297.550 C 165.800 297.270,151.399 297.369,151.292 297.650 M190.948 297.545 L 192.196 297.618 192.251 306.259 L 192.306 314.900 192.303 306.200 L 192.300 297.500 191.000 297.486 L 189.700 297.473 190.948 297.545 M234.495 297.641 C 234.441 297.783,234.419 302.310,234.448 307.700 L 234.500 317.500 240.750 317.504 L 247.000 317.509 240.800 317.451 L 234.600 317.394 234.600 307.497 L 234.600 297.600 235.898 297.600 L 237.196 297.600 237.251 306.250 L 237.306 314.900 237.303 306.200 L 237.300 297.500 235.947 297.441 C 234.979 297.398,234.566 297.455,234.495 297.641 M277.590 297.549 L 284.781 297.605 284.855 298.752 L 284.929 299.900 284.914 298.700 L 284.900 297.500 277.650 297.496 L 270.400 297.492 277.590 297.549 M311.662 297.550 C 313.071 297.584,315.321 297.584,316.662 297.549 C 318.003 297.515,316.850 297.487,314.100 297.487 C 311.350 297.487,310.253 297.515,311.662 297.550 M355.189 299.150 L 354.500 299.900 355.250 299.211 C 355.663 298.832,356.000 298.494,356.000 298.461 C 356.000 298.308,355.831 298.452,355.189 299.150 M311.845 303.050 L 311.800 306.400 315.250 306.355 L 318.700 306.310 315.355 306.250 L 312.010 306.190 311.950 302.945 L 311.889 299.700 311.845 303.050 M273.044 302.950 L 273.000 306.000 278.490 306.000 L 283.981 306.000 284.056 307.201 L 284.131 308.402 284.116 307.151 L 284.100 305.900 278.655 305.847 L 273.211 305.794 273.150 302.847 L 273.088 299.900 273.044 302.950 M321.423 300.890 C 321.600 301.116,321.845 301.480,321.967 301.700 C 322.088 301.920,322.191 301.989,322.194 301.853 C 322.197 301.717,321.953 301.353,321.650 301.044 C 321.348 300.734,321.245 300.665,321.423 300.890 M356.678 301.306 C 356.495 301.585,356.382 301.849,356.427 301.893 C 356.471 301.938,356.659 301.710,356.844 301.387 C 357.257 300.668,357.135 300.609,356.678 301.306 M325.060 303.000 C 325.060 303.605,325.097 303.853,325.143 303.550 C 325.189 303.248,325.189 302.752,325.143 302.450 C 325.097 302.147,325.060 302.395,325.060 303.000 M322.254 303.000 C 322.254 303.495,322.293 303.697,322.341 303.450 C 322.389 303.203,322.389 302.798,322.341 302.550 C 322.293 302.303,322.254 302.505,322.254 303.000 M366.752 303.341 C 367.001 303.389,367.361 303.387,367.552 303.337 C 367.744 303.287,367.540 303.248,367.100 303.250 C 366.660 303.253,366.504 303.294,366.752 303.341 M355.100 306.000 C 355.530 306.440,355.926 306.800,355.981 306.800 C 356.036 306.800,355.730 306.440,355.300 306.000 C 354.870 305.560,354.474 305.200,354.419 305.200 C 354.364 305.200,354.670 305.560,355.100 306.000 M72.162 305.950 C 73.736 305.983,76.256 305.983,77.762 305.949 C 79.268 305.916,77.980 305.888,74.900 305.888 C 71.820 305.888,70.588 305.916,72.162 305.950 M156.762 305.950 C 158.336 305.983,160.856 305.983,162.362 305.949 C 163.868 305.916,162.580 305.888,159.500 305.888 C 156.420 305.888,155.188 305.916,156.762 305.950 M367.400 308.300 C 367.773 308.685,368.123 309.000,368.178 309.000 C 368.233 309.000,367.973 308.685,367.600 308.300 C 367.227 307.915,366.877 307.600,366.822 307.600 C 366.767 307.600,367.027 307.915,367.400 308.300 M319.906 308.390 C 319.842 308.494,319.994 308.679,320.244 308.801 C 320.665 309.005,320.672 308.999,320.336 308.728 C 319.983 308.444,319.983 308.432,320.336 308.341 C 320.648 308.260,320.652 308.243,320.362 308.223 C 320.176 308.210,319.971 308.285,319.906 308.390 M273.082 311.700 C 273.082 313.570,273.112 314.362,273.149 313.460 C 273.186 312.558,273.186 311.028,273.149 310.060 C 273.112 309.092,273.082 309.830,273.082 311.700 M311.800 312.991 L 311.800 317.382 310.499 317.456 L 309.198 317.530 310.549 317.515 L 311.900 317.500 311.954 313.157 L 312.008 308.813 314.254 308.749 L 316.500 308.686 314.150 308.643 L 311.800 308.600 311.800 312.991 M321.400 309.700 C 321.773 310.085,322.123 310.400,322.178 310.400 C 322.233 310.400,321.973 310.085,321.600 309.700 C 321.227 309.315,320.877 309.000,320.822 309.000 C 320.767 309.000,321.027 309.315,321.400 309.700 M353.850 310.938 C 354.043 310.988,354.358 310.988,354.550 310.938 C 354.743 310.888,354.585 310.846,354.200 310.846 C 353.815 310.846,353.658 310.888,353.850 310.938 M368.860 311.800 C 368.860 312.405,368.897 312.653,368.943 312.350 C 368.989 312.048,368.989 311.553,368.943 311.250 C 368.897 310.947,368.860 311.195,368.860 311.800 M353.046 311.600 C 353.046 311.985,353.088 312.143,353.138 311.950 C 353.188 311.757,353.188 311.443,353.138 311.250 C 353.088 311.058,353.046 311.215,353.046 311.600 M33.050 311.538 C 33.242 311.588,33.557 311.588,33.750 311.538 C 33.943 311.488,33.785 311.446,33.400 311.446 C 33.015 311.446,32.858 311.488,33.050 311.538 M366.246 312.000 C 366.246 312.385,366.288 312.543,366.338 312.350 C 366.388 312.158,366.388 311.843,366.338 311.650 C 366.288 311.457,366.246 311.615,366.246 312.000 M31.479 311.883 C 31.419 312.039,31.408 312.421,31.455 312.733 C 31.528 313.219,31.544 313.195,31.570 312.565 C 31.591 312.049,31.705 311.802,31.950 311.738 C 32.278 311.652,32.278 311.645,31.944 311.623 C 31.748 311.610,31.539 311.727,31.479 311.883 M122.146 313.521 C 122.066 313.601,122.003 313.854,122.006 314.083 C 122.012 314.468,122.028 314.473,122.220 314.142 C 122.444 313.758,122.387 313.280,122.146 313.521 M201.968 316.197 L 202.035 317.394 195.818 317.451 L 189.600 317.509 195.850 317.504 L 202.100 317.500 202.160 316.250 C 202.192 315.563,202.147 315.000,202.060 315.000 C 201.972 314.999,201.930 315.538,201.968 316.197 M285.168 316.197 L 285.235 317.395 277.768 317.451 L 270.300 317.508 277.800 317.504 L 285.300 317.500 285.360 316.250 C 285.392 315.563,285.347 315.000,285.260 315.000 C 285.172 314.999,285.130 315.538,285.168 316.197 M360.250 315.338 C 360.443 315.388,360.757 315.388,360.950 315.338 C 361.143 315.288,360.985 315.246,360.600 315.246 C 360.215 315.246,360.058 315.288,360.250 315.338 M361.850 315.338 C 362.043 315.388,362.358 315.388,362.550 315.338 C 362.743 315.288,362.585 315.246,362.200 315.246 C 361.815 315.246,361.658 315.288,361.850 315.338 M367.087 315.850 L 366.500 316.500 367.150 315.913 C 367.756 315.365,367.892 315.200,367.737 315.200 C 367.703 315.200,367.410 315.493,367.087 315.850 M326.396 316.950 C 326.653 317.481,323.773 317.661,323.200 317.150 C 322.961 316.937,322.959 316.952,323.184 317.250 C 323.399 317.534,323.763 317.600,325.124 317.600 C 326.870 317.600,327.004 317.531,326.489 316.888 C 326.190 316.515,326.187 316.518,326.396 316.950 M108.451 317.200 C 108.513 317.431,108.876 317.504,110.016 317.516 L 111.500 317.531 110.106 317.456 C 109.334 317.414,108.635 317.273,108.540 317.140 C 108.420 316.971,108.394 316.989,108.451 317.200 M122.200 317.400 L 120.900 317.531 122.138 317.565 C 122.819 317.584,123.432 317.510,123.500 317.400 C 123.568 317.290,123.596 317.216,123.562 317.235 C 123.528 317.254,122.915 317.328,122.200 317.400 " stroke="none" fill="#d96f6c" fill-rule="evenodd"></path></g></svg>