<?xml version="1.0" encoding="UTF-8"?>
<!DOCTYPE svg PUBLIC "-//W3C//DTD SVG 1.1//EN" "http://www.w3.org/Graphics/SVG/1.1/DTD/svg11.dtd">
<svg xmlns="http://www.w3.org/2000/svg" version="1.1" width="512px" height="512px" style="shape-rendering:geometricPrecision; text-rendering:geometricPrecision; image-rendering:optimizeQuality; fill-rule:evenodd; clip-rule:evenodd" xmlns:xlink="http://www.w3.org/1999/xlink">
<g><path style="opacity:1" fill="#f7941d" d="M -0.5,-0.5 C 170.167,-0.5 340.833,-0.5 511.5,-0.5C 511.5,170.167 511.5,340.833 511.5,511.5C 340.833,511.5 170.167,511.5 -0.5,511.5C -0.5,340.833 -0.5,170.167 -0.5,-0.5 Z"/></g>
<g><path style="opacity:1" fill="#fffdfb" d="M 248.5,187.5 C 260.472,186.558 268.639,191.558 273,202.5C 274.217,219.949 266.051,228.116 248.5,227C 236.569,222.647 231.736,214.147 234,201.5C 236.774,194.557 241.607,189.89 248.5,187.5 Z"/></g>
<g><path style="opacity:1" fill="#fce1bf" d="M 443.5,212.5 C 431.167,212.5 418.833,212.5 406.5,212.5C 406.737,213.791 406.404,214.791 405.5,215.5C 405.5,214.167 405.5,212.833 405.5,211.5C 418.344,211.171 431.011,211.505 443.5,212.5 Z"/></g>
<g><path style="opacity:1" fill="#fffefe" d="M 443.5,212.5 C 443.5,219.167 443.5,225.833 443.5,232.5C 448.305,233.487 453.305,233.821 458.5,233.5C 458.5,239.167 458.5,244.833 458.5,250.5C 453.305,250.179 448.305,250.513 443.5,251.5C 443.333,266.837 443.5,282.17 444,297.5C 444.833,301 447,303.167 450.5,304C 453.817,304.498 457.15,304.665 460.5,304.5C 460.5,310.5 460.5,316.5 460.5,322.5C 448.179,323.452 435.846,323.619 423.5,323C 413.194,321.359 406.694,315.525 404,305.5C 403.5,287.503 403.333,269.503 403.5,251.5C 400.5,251.5 397.5,251.5 394.5,251.5C 394.5,245.167 394.5,238.833 394.5,232.5C 397.833,232.5 401.167,232.5 404.5,232.5C 404.76,226.828 405.093,221.161 405.5,215.5C 406.404,214.791 406.737,213.791 406.5,212.5C 418.833,212.5 431.167,212.5 443.5,212.5 Z"/></g>
<g><path style="opacity:1" fill="#fffefd" d="M 51.5,251.5 C 51.5,245.5 51.5,239.5 51.5,233.5C 67.8333,233.5 84.1667,233.5 100.5,233.5C 100.334,237.514 100.501,241.514 101,245.5C 110.894,232.089 124.061,227.589 140.5,232C 144.363,233.181 147.863,235.014 151,237.5C 153.194,240.554 154.861,243.888 156,247.5C 160.042,239.791 166.209,234.624 174.5,232C 181.833,231.333 189.167,231.333 196.5,232C 205.027,233.86 210.194,239.027 212,247.5C 212.333,265.833 212.667,284.167 213,302.5C 215.481,304.314 218.315,304.98 221.5,304.5C 221.5,310.5 221.5,316.5 221.5,322.5C 203.167,322.5 184.833,322.5 166.5,322.5C 166.5,316.5 166.5,310.5 166.5,304.5C 168.144,304.714 169.644,304.38 171,303.5C 171.667,287.5 171.667,271.5 171,255.5C 169.537,253.115 167.371,252.115 164.5,252.5C 160.417,252.408 157.917,254.408 157,258.5C 156.333,273.167 156.333,287.833 157,302.5C 158.401,304.192 160.234,304.859 162.5,304.5C 162.5,310.5 162.5,316.5 162.5,322.5C 145.167,322.5 127.833,322.5 110.5,322.5C 110.5,316.5 110.5,310.5 110.5,304.5C 112.144,304.714 113.644,304.38 115,303.5C 115.667,287.5 115.667,271.5 115,255.5C 113.537,253.115 111.371,252.115 108.5,252.5C 104.823,252.336 102.323,254.003 101,257.5C 100.333,272.833 100.333,288.167 101,303.5C 102.699,304.406 104.533,304.739 106.5,304.5C 106.5,310.5 106.5,316.5 106.5,322.5C 87.8333,322.5 69.1667,322.5 50.5,322.5C 50.5,316.5 50.5,310.5 50.5,304.5C 53.4475,304.777 56.2809,304.444 59,303.5C 59.6667,286.5 59.6667,269.5 59,252.5C 56.6194,251.565 54.1194,251.232 51.5,251.5 Z"/></g>
<g><path style="opacity:1" fill="#fffefd" d="M 285.5,233.5 C 301.833,233.5 318.167,233.5 334.5,233.5C 334.334,237.846 334.501,242.179 335,246.5C 335.717,245.956 336.217,245.289 336.5,244.5C 340.312,237.916 345.979,233.75 353.5,232C 360.833,231.333 368.167,231.333 375.5,232C 384,233.833 389.167,239 391,247.5C 391.333,265.833 391.667,284.167 392,302.5C 394.481,304.314 397.315,304.98 400.5,304.5C 400.5,310.5 400.5,316.5 400.5,322.5C 381.833,322.5 363.167,322.5 344.5,322.5C 344.5,316.5 344.5,310.5 344.5,304.5C 346.467,304.739 348.301,304.406 350,303.5C 350.667,287.5 350.667,271.5 350,255.5C 348.537,253.115 346.371,252.115 343.5,252.5C 338.634,252.863 335.8,255.529 335,260.5C 334.333,274.5 334.333,288.5 335,302.5C 336.789,304.229 338.956,304.896 341.5,304.5C 341.5,310.5 341.5,316.5 341.5,322.5C 322.833,322.5 304.167,322.5 285.5,322.5C 285.5,316.5 285.5,310.5 285.5,304.5C 288.685,304.98 291.519,304.314 294,302.5C 294.667,286.167 294.667,269.833 294,253.5C 291.519,251.686 288.685,251.02 285.5,251.5C 285.5,245.5 285.5,239.5 285.5,233.5 Z"/></g>
<g><path style="opacity:1" fill="#fcdcb5" d="M 100.5,233.5 C 84.1667,233.5 67.8333,233.5 51.5,233.5C 51.5,239.5 51.5,245.5 51.5,251.5C 50.5098,245.355 50.1765,239.022 50.5,232.5C 67.3417,232.17 84.0084,232.503 100.5,233.5 Z"/></g>
<g><path style="opacity:1" fill="#fcd9ae" d="M 285.5,233.5 C 301.992,232.503 318.658,232.17 335.5,232.5C 335.183,236.702 335.517,240.702 336.5,244.5C 336.217,245.289 335.717,245.956 335,246.5C 334.501,242.179 334.334,237.846 334.5,233.5C 318.167,233.5 301.833,233.5 285.5,233.5 Z"/></g>
<g><path style="opacity:1" fill="#fffefd" d="M 224.5,232.5 C 240.833,232.5 257.167,232.5 273.5,232.5C 273.333,255.836 273.5,279.169 274,302.5C 276.481,304.314 279.315,304.98 282.5,304.5C 282.5,310.5 282.5,316.5 282.5,322.5C 263.167,322.5 243.833,322.5 224.5,322.5C 224.5,316.5 224.5,310.5 224.5,304.5C 227.685,304.98 230.519,304.314 233,302.5C 233.667,286.167 233.667,269.833 233,253.5C 230.519,251.686 227.685,251.02 224.5,251.5C 224.5,245.167 224.5,238.833 224.5,232.5 Z"/></g>
<g><path style="opacity:1" fill="#fde7ce" d="M 443.5,232.5 C 448.833,232.5 454.167,232.5 459.5,232.5C 459.5,238.833 459.5,245.167 459.5,251.5C 454.167,251.5 448.833,251.5 443.5,251.5C 448.305,250.513 453.305,250.179 458.5,250.5C 458.5,244.833 458.5,239.167 458.5,233.5C 453.305,233.821 448.305,233.487 443.5,232.5 Z"/></g>
</svg>
