<svg id="svg" version="1.1" xmlns="http://www.w3.org/2000/svg" xmlns:xlink="http://www.w3.org/1999/xlink" width="400" height="400" viewBox="0, 0, 400,400"><g id="svgg"><path id="path0" d="M174.600 136.831 C 164.089 137.346,150.587 138.713,137.600 140.577 C 135.290 140.908,132.500 141.344,131.400 141.545 C 130.300 141.746,127.870 142.127,126.000 142.392 C 124.130 142.656,122.240 143.025,121.800 143.212 C 121.360 143.398,120.370 143.645,119.600 143.760 C 117.290 144.105,112.642 145.036,112.000 145.281 C 110.975 145.674,105.726 146.800,104.923 146.800 C 104.503 146.800,103.989 146.947,103.780 147.126 C 103.571 147.305,102.050 147.771,100.400 148.160 C 98.750 148.550,97.040 149.014,96.600 149.191 C 95.079 149.803,91.506 150.800,90.834 150.800 C 90.463 150.800,89.989 150.952,89.780 151.137 C 89.571 151.323,88.320 151.787,87.000 152.168 C 84.710 152.829,83.335 153.331,81.987 153.996 C 81.650 154.162,80.750 154.432,79.987 154.595 C 79.224 154.759,78.420 155.021,78.200 155.179 C 77.980 155.337,77.170 155.703,76.400 155.993 C 75.630 156.283,74.370 156.781,73.600 157.101 C 72.830 157.420,71.840 157.831,71.400 158.013 C 69.163 158.939,64.771 160.965,63.000 161.888 C 61.900 162.461,60.100 163.396,59.000 163.965 C 57.900 164.534,56.910 165.090,56.800 165.200 C 56.690 165.310,55.970 165.744,55.200 166.165 C 53.309 167.198,47.993 170.750,47.298 171.445 C 46.990 171.753,46.363 172.206,45.905 172.451 C 43.180 173.909,34.899 182.578,33.727 185.200 C 33.579 185.530,33.341 185.890,33.197 186.000 C 31.450 187.338,29.088 195.386,29.088 200.000 C 29.088 204.773,31.633 213.192,33.300 213.933 C 33.465 214.007,33.600 214.239,33.600 214.450 C 33.600 215.965,42.436 225.300,46.206 227.768 C 46.852 228.190,47.731 228.863,48.160 229.263 C 48.590 229.664,49.269 230.095,49.671 230.222 C 50.072 230.350,50.400 230.622,50.400 230.827 C 50.400 231.032,50.648 231.200,50.951 231.200 C 51.254 231.200,51.712 231.453,51.969 231.763 C 52.226 232.073,53.014 232.618,53.718 232.974 C 55.190 233.718,56.510 234.505,56.800 234.811 C 57.132 235.161,69.262 241.200,69.633 241.200 C 69.823 241.200,70.928 241.626,72.089 242.146 C 73.250 242.667,75.010 243.411,76.000 243.801 C 76.990 244.190,78.340 244.736,79.000 245.013 C 81.412 246.027,94.901 250.400,95.616 250.400 C 96.021 250.400,96.464 250.580,96.600 250.800 C 96.736 251.020,97.255 251.200,97.752 251.200 C 98.250 251.200,99.455 251.449,100.429 251.753 C 102.625 252.439,104.595 252.956,108.200 253.792 C 109.740 254.150,111.630 254.599,112.400 254.791 C 113.170 254.983,115.330 255.437,117.200 255.800 C 119.070 256.163,121.230 256.618,122.000 256.811 C 123.866 257.278,132.742 258.783,136.000 259.185 C 141.236 259.831,145.848 260.466,147.800 260.809 C 149.494 261.106,154.471 261.582,166.400 262.586 C 183.245 264.003,218.188 264.007,233.400 262.593 C 234.500 262.491,238.820 262.124,243.000 261.779 C 247.180 261.434,251.500 260.989,252.600 260.790 C 253.700 260.591,257.030 260.136,260.000 259.779 C 262.970 259.421,266.030 258.978,266.800 258.794 C 267.570 258.609,270.090 258.162,272.400 257.800 C 274.710 257.438,277.230 256.988,278.000 256.801 C 278.770 256.614,280.930 256.163,282.800 255.800 C 284.670 255.437,286.830 254.983,287.600 254.791 C 288.370 254.599,290.260 254.150,291.800 253.792 C 295.405 252.956,297.375 252.439,299.571 251.753 C 300.545 251.449,301.673 251.200,302.077 251.200 C 302.480 251.200,303.123 251.037,303.505 250.838 C 303.887 250.638,305.370 250.168,306.800 249.793 C 308.230 249.418,309.760 248.967,310.200 248.790 C 310.640 248.613,311.990 248.158,313.200 247.779 C 314.410 247.401,315.760 246.949,316.200 246.776 C 316.640 246.604,317.900 246.156,319.000 245.782 C 320.100 245.408,321.763 244.764,322.696 244.351 C 323.628 243.938,324.495 243.600,324.621 243.600 C 324.748 243.600,325.785 243.175,326.926 242.655 C 328.067 242.135,329.439 241.573,329.975 241.404 C 331.413 240.953,342.978 235.068,343.133 234.708 C 343.207 234.539,343.436 234.400,343.643 234.400 C 344.141 234.400,348.696 231.537,352.200 229.022 C 361.392 222.424,368.119 214.046,369.962 206.900 C 370.203 205.965,370.580 204.504,370.800 203.654 C 371.020 202.803,371.200 201.159,371.200 200.000 C 371.200 198.841,371.020 197.197,370.800 196.346 C 370.580 195.496,370.203 194.035,369.962 193.100 C 368.465 187.295,362.425 178.956,355.984 173.800 C 349.439 168.561,341.082 163.574,332.200 159.609 C 330.660 158.922,329.087 158.188,328.705 157.980 C 328.323 157.771,327.738 157.600,327.405 157.600 C 327.072 157.600,326.800 157.442,326.800 157.250 C 326.800 157.058,326.273 156.795,325.629 156.666 C 324.986 156.537,323.681 156.087,322.729 155.665 C 321.778 155.243,320.100 154.592,319.000 154.218 C 317.900 153.844,316.640 153.386,316.200 153.199 C 315.760 153.013,314.320 152.549,313.000 152.168 C 311.680 151.787,310.429 151.323,310.220 151.137 C 310.011 150.952,309.537 150.800,309.166 150.800 C 308.494 150.800,304.921 149.803,303.400 149.191 C 302.960 149.014,301.250 148.550,299.600 148.160 C 297.950 147.771,296.429 147.305,296.220 147.126 C 296.011 146.947,295.497 146.800,295.077 146.800 C 294.274 146.800,289.025 145.674,288.000 145.281 C 287.364 145.038,282.751 144.113,280.400 143.757 C 279.630 143.641,278.730 143.435,278.400 143.301 C 277.736 143.030,272.911 142.182,269.800 141.789 C 268.700 141.651,267.440 141.388,267.000 141.205 C 266.560 141.023,264.310 140.659,262.000 140.397 C 259.690 140.135,256.630 139.753,255.200 139.549 C 247.762 138.486,235.463 137.384,224.800 136.824 C 217.158 136.422,182.842 136.427,174.600 136.831 M218.600 143.145 C 221.900 143.373,226.760 143.844,229.400 144.190 C 232.040 144.537,234.920 144.912,235.800 145.023 C 237.533 145.243,243.459 146.218,245.400 146.602 C 249.179 147.351,250.450 147.616,252.800 148.149 C 257.092 149.121,262.148 150.424,263.000 150.779 C 263.440 150.962,264.970 151.432,266.400 151.823 C 267.830 152.215,269.171 152.685,269.380 152.868 C 269.589 153.050,270.039 153.201,270.380 153.203 C 270.962 153.206,277.151 155.431,279.800 156.590 C 280.460 156.879,281.854 157.449,282.899 157.858 C 283.943 158.266,284.798 158.735,284.799 158.900 C 284.799 159.065,285.063 159.200,285.384 159.200 C 285.942 159.200,292.384 162.352,292.800 162.829 C 292.910 162.955,293.332 163.181,293.738 163.331 C 294.641 163.665,302.869 169.136,304.792 170.681 C 309.443 174.418,316.800 182.565,316.800 183.979 C 316.800 184.210,316.950 184.400,317.134 184.400 C 317.648 184.400,320.465 190.807,320.700 192.510 C 320.814 193.340,321.064 194.116,321.254 194.233 C 321.706 194.513,321.706 205.487,321.254 205.767 C 321.064 205.884,320.814 206.660,320.700 207.490 C 320.465 209.193,317.648 215.600,317.134 215.600 C 316.950 215.600,316.800 215.853,316.800 216.162 C 316.800 217.445,307.971 227.293,305.673 228.574 C 305.303 228.780,304.746 229.201,304.435 229.511 C 303.124 230.816,296.376 235.332,294.000 236.494 C 293.450 236.764,292.910 237.081,292.800 237.199 C 292.332 237.704,285.986 240.800,285.420 240.800 C 285.079 240.800,284.799 240.935,284.799 241.100 C 284.798 241.265,283.943 241.734,282.899 242.143 C 281.854 242.551,280.280 243.203,279.400 243.591 C 278.520 243.978,277.350 244.431,276.800 244.597 C 276.250 244.762,275.620 245.023,275.400 245.176 C 275.180 245.329,273.920 245.782,272.600 246.183 C 271.280 246.584,269.840 247.058,269.400 247.236 C 267.767 247.897,264.753 248.800,264.181 248.800 C 263.855 248.800,263.277 248.958,262.895 249.151 C 261.768 249.720,259.529 250.349,257.600 250.639 C 256.610 250.788,255.620 251.042,255.400 251.204 C 255.180 251.367,254.460 251.597,253.800 251.716 C 253.140 251.834,251.160 252.230,249.400 252.594 C 244.098 253.692,242.749 253.931,239.200 254.399 C 237.330 254.645,235.247 255.016,234.572 255.223 C 233.896 255.430,232.600 255.600,231.691 255.600 C 230.783 255.600,229.176 255.780,228.120 255.999 C 219.650 257.759,182.948 257.768,171.600 256.012 C 170.170 255.791,168.280 255.520,167.400 255.411 C 166.520 255.301,164.270 255.022,162.400 254.791 C 160.530 254.560,158.478 254.198,157.840 253.986 C 157.202 253.774,156.088 253.600,155.364 253.600 C 154.640 253.600,153.936 253.420,153.800 253.200 C 153.664 252.980,153.004 252.800,152.334 252.800 C 151.090 252.800,146.048 251.762,144.600 251.208 C 144.160 251.040,142.360 250.579,140.600 250.184 C 138.840 249.789,137.229 249.316,137.020 249.133 C 136.811 248.950,136.322 248.800,135.934 248.800 C 135.154 248.800,131.751 247.767,130.787 247.238 C 130.450 247.053,129.550 246.766,128.787 246.601 C 128.024 246.436,126.680 245.978,125.800 245.583 C 124.920 245.188,123.750 244.737,123.200 244.580 C 122.650 244.424,121.480 243.978,120.600 243.591 C 119.720 243.203,118.146 242.551,117.101 242.143 C 116.057 241.734,115.202 241.265,115.201 241.100 C 115.201 240.935,114.940 240.800,114.622 240.800 C 114.303 240.800,112.638 240.058,110.922 239.152 C 109.205 238.245,107.260 237.227,106.600 236.889 C 98.194 232.587,83.200 219.221,83.200 216.030 C 83.200 215.793,83.049 215.600,82.865 215.600 C 82.486 215.600,80.332 210.978,79.649 208.700 C 79.402 207.875,79.020 206.602,78.800 205.872 C 78.580 205.141,78.400 202.499,78.400 200.000 C 78.400 197.501,78.580 194.859,78.800 194.128 C 79.020 193.398,79.402 192.125,79.649 191.300 C 80.332 189.022,82.486 184.400,82.865 184.400 C 83.049 184.400,83.200 184.212,83.200 183.983 C 83.200 181.662,93.095 171.910,100.400 167.032 C 105.481 163.640,113.576 159.200,114.681 159.200 C 114.966 159.200,115.201 159.065,115.201 158.900 C 115.202 158.735,116.057 158.266,117.101 157.858 C 118.146 157.449,119.540 156.891,120.200 156.618 C 120.860 156.344,122.030 155.892,122.800 155.613 C 123.570 155.334,124.740 154.878,125.400 154.599 C 126.060 154.320,127.320 153.866,128.200 153.591 C 129.080 153.315,130.160 152.944,130.600 152.766 C 131.040 152.588,132.480 152.141,133.800 151.772 C 135.120 151.402,136.560 150.957,137.000 150.783 C 137.440 150.608,139.060 150.168,140.600 149.804 C 142.140 149.440,144.030 148.978,144.800 148.778 C 148.418 147.834,149.949 147.485,151.800 147.181 C 152.900 147.001,155.240 146.568,157.000 146.219 C 164.014 144.829,177.311 143.219,182.216 143.165 C 183.967 143.146,186.300 142.983,187.400 142.803 C 189.990 142.379,210.851 142.608,218.600 143.145 " stroke="none" fill="#045ca4" fill-rule="evenodd"></path><path id="path1" d="M0.000 200.000 L 0.000 400.000 200.000 400.000 L 400.000 400.000 400.000 200.000 L 400.000 0.000 200.000 0.000 L 0.000 0.000 0.000 200.000 M213.600 135.609 C 236.210 136.600,248.665 137.717,264.800 140.202 C 273.217 141.499,274.272 141.685,281.800 143.200 C 284.201 143.683,289.214 144.797,290.800 145.200 C 291.570 145.396,293.280 145.822,294.600 146.147 C 299.271 147.298,304.635 148.751,307.400 149.614 C 313.201 151.425,318.643 153.263,319.860 153.821 C 320.554 154.140,321.321 154.400,321.566 154.400 C 321.811 154.400,322.323 154.565,322.705 154.766 C 323.768 155.327,326.293 156.400,326.549 156.400 C 326.674 156.400,327.817 156.863,329.088 157.430 C 330.360 157.996,332.030 158.737,332.800 159.075 C 334.744 159.930,341.313 163.228,341.800 163.594 C 342.020 163.759,343.280 164.482,344.600 165.200 C 351.541 168.978,360.550 176.393,364.863 181.879 C 373.771 193.210,373.773 206.451,364.870 218.139 C 361.509 222.551,351.315 230.996,345.000 234.600 C 342.116 236.246,332.047 241.334,330.400 241.978 C 329.630 242.279,328.050 242.947,326.888 243.462 C 325.727 243.978,324.674 244.400,324.549 244.400 C 324.423 244.400,323.754 244.653,323.060 244.962 C 322.367 245.272,320.900 245.827,319.800 246.198 C 318.700 246.568,317.530 246.998,317.200 247.154 C 316.870 247.310,315.520 247.769,314.200 248.175 C 312.880 248.580,311.440 249.057,311.000 249.234 C 310.560 249.412,309.120 249.859,307.800 250.228 C 306.480 250.598,305.040 251.042,304.600 251.216 C 303.592 251.615,294.231 254.009,290.600 254.797 C 289.720 254.987,287.740 255.435,286.200 255.792 C 284.660 256.149,282.590 256.601,281.600 256.796 C 280.610 256.992,278.360 257.444,276.600 257.800 C 273.165 258.494,271.853 258.701,262.600 260.010 C 259.300 260.477,255.700 261.020,254.600 261.217 C 250.721 261.911,240.406 262.846,226.000 263.808 C 202.570 265.372,165.998 264.194,145.600 261.218 C 144.170 261.010,140.750 260.550,138.000 260.197 C 135.250 259.843,132.447 259.385,131.772 259.177 C 131.096 258.970,130.106 258.800,129.572 258.800 C 128.566 258.801,122.857 257.811,120.400 257.211 C 119.630 257.023,117.560 256.577,115.800 256.220 C 114.040 255.863,111.970 255.404,111.200 255.200 C 110.430 254.996,108.270 254.476,106.400 254.045 C 101.707 252.963,99.163 252.280,91.800 250.128 C 90.700 249.806,89.440 249.389,89.000 249.200 C 88.560 249.011,87.210 248.561,86.000 248.200 C 84.790 247.839,83.440 247.398,83.000 247.221 C 82.560 247.044,80.400 246.222,78.200 245.394 C 76.000 244.566,73.300 243.489,72.200 243.000 C 71.100 242.510,69.782 241.979,69.270 241.819 C 67.986 241.416,57.380 235.989,55.308 234.674 C 54.377 234.083,53.447 233.600,53.241 233.600 C 53.035 233.600,52.807 233.465,52.733 233.300 C 52.660 233.135,51.070 231.970,49.200 230.710 C 39.752 224.347,32.569 216.284,30.038 209.200 C 23.728 191.546,35.457 174.743,63.800 160.832 C 69.753 157.911,73.037 156.400,73.435 156.400 C 73.569 156.400,74.336 156.112,75.140 155.759 C 77.185 154.862,77.919 154.579,80.200 153.811 C 81.300 153.441,82.560 152.987,83.000 152.802 C 84.229 152.286,89.521 150.558,92.200 149.798 C 93.520 149.424,95.050 148.962,95.600 148.772 C 96.760 148.371,101.924 146.984,105.400 146.139 C 106.720 145.819,108.430 145.396,109.200 145.200 C 114.988 143.730,125.382 141.738,135.400 140.179 C 159.655 136.406,190.564 134.600,213.600 135.609 M189.200 143.440 C 184.177 143.596,171.010 144.690,168.200 145.185 C 167.100 145.379,164.130 145.831,161.600 146.190 C 159.070 146.549,156.280 147.004,155.400 147.202 C 154.520 147.399,152.360 147.844,150.600 148.191 C 148.840 148.537,146.770 148.987,146.000 149.189 C 145.230 149.392,143.340 149.856,141.800 150.220 C 140.260 150.584,138.640 151.023,138.200 151.197 C 137.760 151.370,136.230 151.821,134.800 152.200 C 133.370 152.579,131.840 153.034,131.400 153.213 C 130.960 153.392,129.700 153.841,128.600 154.211 C 127.500 154.582,126.240 155.024,125.800 155.194 C 125.360 155.365,124.190 155.817,123.200 156.200 C 119.070 157.796,117.778 158.364,112.600 160.858 C 108.655 162.759,98.907 168.476,98.400 169.188 C 98.290 169.342,97.897 169.633,97.527 169.835 C 95.207 171.099,89.039 177.119,85.474 181.600 C 80.516 187.832,77.748 197.925,79.249 204.294 C 81.709 214.730,86.105 221.088,96.800 229.676 C 101.401 233.371,112.780 239.659,120.400 242.717 C 120.950 242.938,122.057 243.407,122.860 243.759 C 123.664 244.112,124.573 244.400,124.880 244.400 C 125.188 244.400,125.611 244.544,125.820 244.719 C 126.029 244.895,127.190 245.360,128.400 245.753 C 129.610 246.146,130.960 246.615,131.400 246.794 C 131.840 246.973,133.280 247.422,134.600 247.792 C 135.920 248.162,137.450 248.614,138.000 248.798 C 138.550 248.982,140.260 249.430,141.800 249.795 C 145.584 250.690,147.109 251.062,149.000 251.549 C 149.880 251.775,151.770 252.167,153.200 252.420 C 154.630 252.672,156.610 253.024,157.600 253.200 C 171.817 255.741,181.706 256.514,200.000 256.514 C 221.625 256.514,231.708 255.497,252.600 251.209 C 254.409 250.837,260.690 249.179,264.000 248.198 C 265.210 247.839,266.560 247.453,267.000 247.340 C 267.440 247.226,268.160 246.983,268.600 246.800 C 269.040 246.616,271.110 245.883,273.200 245.170 C 275.290 244.457,277.900 243.480,279.000 242.999 C 280.100 242.518,281.630 241.880,282.400 241.580 C 293.493 237.265,307.079 227.780,313.296 220.009 C 321.954 209.188,323.387 197.761,317.509 186.410 C 314.414 180.434,308.176 173.677,301.600 169.179 C 300.170 168.200,298.910 167.306,298.800 167.191 C 297.839 166.185,284.959 159.274,282.800 158.605 C 282.250 158.435,281.080 157.968,280.200 157.567 C 278.027 156.576,274.692 155.294,271.800 154.337 C 270.480 153.900,269.040 153.395,268.600 153.215 C 267.298 152.681,262.053 151.199,258.400 150.333 C 256.530 149.890,254.687 149.364,254.305 149.164 C 253.923 148.964,253.293 148.802,252.905 148.805 C 252.251 148.810,248.058 147.977,244.800 147.195 C 244.030 147.010,241.240 146.563,238.600 146.201 C 235.960 145.840,232.900 145.382,231.800 145.183 C 225.123 143.981,202.108 143.039,189.200 143.440 M122.147 173.526 C 122.506 174.806,122.800 176.210,122.800 176.646 C 122.800 177.083,122.950 177.611,123.133 177.820 C 123.316 178.029,123.789 179.640,124.184 181.400 C 124.579 183.160,125.046 184.960,125.221 185.400 C 125.396 185.840,125.655 186.740,125.795 187.400 C 125.935 188.060,126.264 189.621,126.525 190.868 C 126.786 192.115,127.135 193.270,127.300 193.435 C 127.465 193.599,127.600 194.153,127.600 194.667 C 127.600 195.180,127.780 195.600,128.000 195.600 C 128.258 195.600,128.400 191.264,128.400 183.391 L 128.400 171.182 135.700 171.291 L 143.000 171.400 143.103 200.100 L 143.205 228.800 136.194 228.800 C 128.106 228.800,129.033 229.337,127.572 223.800 C 126.347 219.152,126.158 218.455,125.408 215.800 C 125.036 214.480,124.586 212.860,124.408 212.200 C 124.231 211.540,123.776 209.920,123.398 208.600 C 123.020 207.280,122.620 205.705,122.510 205.100 C 121.891 201.707,121.600 205.324,121.600 216.400 L 121.600 228.800 114.200 228.800 L 106.800 228.800 106.800 200.267 C 106.800 184.573,106.920 171.613,107.067 171.467 C 107.213 171.320,110.520 171.200,114.414 171.200 L 121.495 171.200 122.147 173.526 M176.548 172.100 C 176.681 172.595,176.792 173.527,176.795 174.172 C 176.798 174.816,176.970 175.896,177.179 176.572 C 177.387 177.247,177.831 179.510,178.165 181.600 C 179.147 187.737,179.207 188.096,179.635 190.400 C 179.860 191.610,180.300 194.220,180.614 196.200 C 180.928 198.180,181.347 200.700,181.545 201.800 C 181.743 202.900,182.120 205.240,182.383 207.000 C 182.646 208.760,183.011 210.830,183.194 211.600 C 183.775 214.045,184.384 217.728,184.651 220.406 C 184.793 221.833,185.040 223.180,185.200 223.400 C 185.360 223.620,185.602 224.925,185.739 226.300 L 185.988 228.800 178.984 228.800 L 171.980 228.800 171.590 227.774 C 171.376 227.210,171.200 225.910,171.200 224.886 C 171.200 223.861,170.979 222.073,170.709 220.912 L 170.218 218.800 167.577 218.800 L 164.935 218.800 164.483 223.413 C 163.906 229.309,164.627 228.800,156.843 228.800 C 148.943 228.800,149.637 229.168,150.270 225.313 C 150.552 223.601,150.883 221.570,151.006 220.800 C 151.529 217.538,152.457 212.056,152.800 210.200 C 153.003 209.100,153.453 206.490,153.800 204.400 C 154.147 202.310,154.597 199.700,154.800 198.600 C 155.003 197.500,155.453 194.890,155.800 192.800 C 156.147 190.710,156.598 188.100,156.804 187.000 C 157.009 185.900,157.467 183.200,157.820 181.000 C 158.173 178.800,158.628 176.349,158.831 175.554 C 159.034 174.758,159.200 173.573,159.200 172.920 C 159.200 171.172,159.059 171.200,168.020 171.200 C 176.275 171.200,176.308 171.203,176.548 172.100 M214.818 176.600 C 214.938 179.460,215.073 181.426,215.118 180.969 C 215.240 179.732,217.451 176.591,219.339 174.971 C 227.401 168.057,246.647 171.085,248.669 179.585 C 248.802 180.143,249.039 180.780,249.195 181.000 C 249.849 181.918,250.442 186.432,250.325 189.600 L 250.200 193.000 243.600 193.114 C 234.413 193.273,235.200 193.750,235.200 188.021 C 235.200 182.148,233.990 180.527,230.719 182.019 C 228.877 182.859,228.800 183.584,228.800 200.000 C 228.800 216.877,228.850 217.280,231.039 218.009 C 234.232 219.073,235.200 217.662,235.200 211.946 C 235.200 206.255,234.417 206.727,243.600 206.886 L 250.200 207.000 250.325 210.400 C 250.442 213.568,249.849 218.082,249.195 219.000 C 249.039 219.220,248.802 219.857,248.669 220.415 C 248.072 222.923,243.994 226.360,239.600 228.059 C 237.667 228.806,226.735 228.807,224.800 228.060 C 221.562 226.810,219.130 225.309,218.091 223.920 C 217.811 223.546,217.345 223.002,217.054 222.711 C 214.429 220.086,214.200 218.240,214.200 199.700 L 214.200 182.800 210.900 182.800 L 207.600 182.800 207.600 205.809 L 207.600 228.818 200.100 228.709 L 192.600 228.600 192.497 205.716 L 192.393 182.831 188.897 182.716 L 185.400 182.600 185.287 177.421 C 185.226 174.573,185.266 172.006,185.377 171.716 C 185.540 171.292,188.391 171.210,200.089 171.295 L 214.600 171.400 214.818 176.600 M281.627 171.819 C 291.697 174.688,293.165 178.273,293.165 200.000 C 293.165 219.679,291.946 223.884,285.400 226.794 C 281.520 228.519,281.053 228.600,275.000 228.600 C 268.001 228.600,266.026 228.077,262.502 225.292 C 257.347 221.218,257.000 219.621,257.000 200.000 C 257.000 180.486,257.272 179.144,262.068 175.032 C 266.195 171.493,275.258 170.004,281.627 171.819 M273.020 182.544 C 271.677 183.887,271.512 186.304,271.675 202.200 C 271.841 218.432,271.976 218.921,276.053 218.129 C 278.144 217.723,278.200 217.241,278.200 199.705 L 278.200 183.531 277.078 182.565 C 275.658 181.344,274.227 181.336,273.020 182.544 M167.600 190.836 C 167.600 192.689,167.433 194.787,167.229 195.498 C 167.025 196.209,166.813 198.998,166.758 201.695 L 166.657 206.600 167.972 206.729 L 169.287 206.857 169.075 203.729 C 168.958 202.008,168.670 197.737,168.436 194.238 C 167.962 187.167,167.600 185.695,167.600 190.836 " stroke="none" fill="#f3f3fb" fill-rule="evenodd"></path><path id="path2" d="M107.384 172.100 C 107.279 172.375,107.240 185.110,107.296 200.400 L 107.400 228.200 114.300 228.309 L 121.200 228.419 121.200 215.033 C 121.200 207.671,121.357 201.550,121.548 201.432 C 121.857 201.241,122.618 203.598,124.571 210.800 C 124.899 212.010,125.629 214.664,126.194 216.697 C 126.758 218.731,127.657 222.020,128.192 224.006 C 128.726 225.992,129.272 227.793,129.405 228.009 C 129.547 228.238,132.367 228.400,136.224 228.400 L 142.800 228.400 142.800 200.000 L 142.800 171.600 135.800 171.600 L 128.800 171.600 128.800 184.976 C 128.800 196.821,128.524 200.764,127.895 197.895 C 127.787 197.403,126.765 193.400,125.622 189.000 C 122.521 177.052,121.200 171.897,121.200 171.741 C 121.200 171.292,107.557 171.647,107.384 172.100 M160.000 171.817 C 160.000 171.936,159.752 173.331,159.449 174.917 C 159.146 176.503,158.702 178.970,158.463 180.400 C 158.224 181.830,157.745 184.620,157.399 186.600 C 157.053 188.580,156.601 191.190,156.394 192.400 C 156.187 193.610,155.737 196.220,155.394 198.200 C 155.051 200.180,154.601 202.790,154.394 204.000 C 154.187 205.210,153.737 207.820,153.394 209.800 C 153.051 211.780,152.602 214.390,152.397 215.600 C 152.191 216.810,151.761 219.240,151.442 221.000 C 151.122 222.760,150.739 225.145,150.592 226.300 L 150.325 228.400 156.736 228.400 C 164.154 228.400,163.386 228.956,163.985 223.155 C 164.540 217.787,164.389 218.000,167.629 218.000 C 170.998 218.000,170.954 217.935,171.609 223.900 L 172.104 228.400 178.652 228.400 L 185.200 228.400 185.200 227.240 C 185.200 226.602,184.831 223.947,184.380 221.340 C 182.936 212.995,181.667 205.536,180.819 200.400 C 180.364 197.650,179.812 194.410,179.592 193.200 C 179.372 191.990,178.827 188.840,178.380 186.200 C 177.933 183.560,177.215 179.357,176.784 176.860 C 176.353 174.363,176.000 172.158,176.000 171.960 C 176.000 171.759,172.478 171.600,168.000 171.600 C 163.600 171.600,160.000 171.698,160.000 171.817 M186.000 177.000 L 186.000 182.400 189.397 182.400 L 192.793 182.400 192.897 205.300 L 193.000 228.200 200.000 228.200 L 207.000 228.200 207.103 205.300 L 207.207 182.400 210.603 182.400 L 214.000 182.400 214.000 177.000 L 214.000 171.600 200.000 171.600 L 186.000 171.600 186.000 177.000 M228.000 171.832 C 222.002 172.900,218.167 175.510,216.108 179.928 C 213.621 185.262,213.612 214.679,216.095 220.072 C 218.807 225.961,223.334 228.204,232.400 228.153 C 244.576 228.084,249.700 223.084,249.776 211.200 L 249.800 207.400 243.000 207.400 L 236.200 207.400 235.965 211.804 C 235.610 218.480,233.190 220.818,229.722 217.835 L 228.600 216.869 228.600 200.000 L 228.600 183.131 229.722 182.165 C 233.192 179.181,235.645 181.547,235.979 188.200 L 236.200 192.600 243.000 192.600 L 249.800 192.600 249.940 190.400 C 250.521 181.266,246.706 174.876,239.200 172.407 C 237.749 171.930,229.756 171.520,228.000 171.832 M270.800 171.840 C 262.834 173.264,258.680 177.414,257.625 185.005 C 257.070 188.992,257.076 211.043,257.632 215.071 C 258.897 224.218,264.362 228.243,275.400 228.156 C 286.068 228.072,290.782 224.528,292.385 215.388 C 293.314 210.089,292.790 184.346,291.693 181.400 C 288.939 174.005,280.442 170.117,270.800 171.840 M276.822 181.612 C 278.724 182.630,278.800 183.337,278.800 200.000 C 278.800 213.167,278.704 215.824,278.196 216.808 C 276.730 219.642,272.990 219.510,271.766 216.581 C 270.939 214.601,270.936 185.407,271.763 183.428 C 272.625 181.363,274.859 180.561,276.822 181.612 M168.780 192.400 C 169.018 195.810,169.327 200.535,169.466 202.900 L 169.720 207.200 167.801 207.200 L 165.881 207.200 166.136 203.900 C 166.276 202.085,166.582 197.360,166.817 193.400 C 167.051 189.440,167.355 185.390,167.492 184.400 L 167.741 182.600 168.045 184.400 C 168.212 185.390,168.543 188.990,168.780 192.400 " stroke="none" fill="#dc302f" fill-rule="evenodd"></path><path id="path3" d="M180.860 136.006 C 175.723 136.194,171.463 136.404,171.393 136.474 C 171.324 136.543,184.257 136.600,200.133 136.600 C 216.010 136.600,227.560 136.486,225.800 136.346 C 219.973 135.882,190.357 135.658,180.860 136.006 M161.800 137.219 C 151.716 138.178,148.983 138.485,148.802 138.682 C 148.538 138.967,156.366 138.427,159.200 137.964 C 160.410 137.766,162.750 137.586,164.400 137.562 C 166.050 137.539,167.850 137.376,168.400 137.200 C 169.699 136.784,166.272 136.794,161.800 137.219 M231.600 137.167 C 232.150 137.361,233.950 137.539,235.600 137.562 C 237.250 137.586,239.590 137.766,240.800 137.964 C 242.010 138.162,244.890 138.422,247.200 138.543 C 250.319 138.706,250.834 138.674,249.200 138.419 C 243.215 137.486,229.801 136.531,231.600 137.167 M144.800 139.064 C 144.250 139.149,141.730 139.502,139.200 139.849 C 136.670 140.196,134.510 140.573,134.400 140.688 C 134.106 140.995,140.250 140.387,141.729 139.963 C 142.425 139.763,143.896 139.597,144.997 139.594 C 146.099 139.591,147.270 139.413,147.600 139.200 C 148.229 138.794,146.947 138.731,144.800 139.064 M252.560 139.093 C 252.721 139.254,253.966 139.502,255.326 139.644 C 256.687 139.786,259.373 140.118,261.297 140.381 C 263.220 140.645,265.110 140.796,265.497 140.717 C 265.883 140.638,263.320 140.174,259.800 139.686 C 252.796 138.713,252.125 138.658,252.560 139.093 M127.600 141.646 C 125.290 142.062,123.220 142.489,123.000 142.596 C 122.358 142.907,127.611 142.341,128.964 141.953 C 129.641 141.759,130.736 141.597,131.397 141.594 C 132.059 141.591,132.870 141.413,133.200 141.200 C 134.082 140.630,132.586 140.749,127.600 141.646 M266.966 141.145 C 267.121 141.395,267.804 141.600,268.484 141.600 C 269.164 141.600,271.125 141.885,272.843 142.233 C 274.560 142.581,276.288 142.797,276.683 142.713 C 277.289 142.583,274.378 141.978,268.042 140.917 C 267.084 140.756,266.767 140.823,266.966 141.145 M187.600 142.760 C 186.610 142.892,192.190 143.000,200.000 143.000 C 207.810 143.000,213.300 142.881,212.200 142.735 C 209.741 142.409,190.082 142.429,187.600 142.760 M116.834 143.719 C 114.762 144.179,113.264 144.621,113.504 144.701 C 113.744 144.781,114.899 144.642,116.070 144.391 C 117.242 144.141,118.920 143.842,119.800 143.727 C 120.680 143.612,121.571 143.356,121.780 143.159 C 122.340 142.630,121.102 142.770,116.834 143.719 M278.166 143.145 C 278.321 143.395,279.078 143.600,279.850 143.600 C 280.621 143.600,281.556 143.762,281.926 143.960 C 282.297 144.157,283.680 144.424,285.000 144.553 C 287.498 144.797,286.924 144.544,283.000 143.671 C 279.044 142.791,277.868 142.663,278.166 143.145 M172.800 143.867 C 166.430 144.592,165.072 144.806,165.312 145.045 C 165.419 145.152,167.372 145.034,169.653 144.782 C 171.934 144.530,176.410 144.094,179.600 143.812 C 185.343 143.305,185.363 143.300,181.600 143.299 C 179.510 143.298,175.550 143.554,172.800 143.867 M220.800 143.823 C 224.210 144.106,228.530 144.530,230.400 144.766 C 234.328 145.260,235.025 145.292,234.692 144.958 C 234.265 144.531,221.109 143.208,217.800 143.259 C 215.090 143.301,215.549 143.388,220.800 143.823 M107.800 145.795 C 105.820 146.304,104.567 146.739,105.016 146.761 C 105.465 146.782,106.869 146.530,108.135 146.200 C 109.402 145.870,110.780 145.600,111.196 145.600 C 111.612 145.600,112.064 145.420,112.200 145.200 C 112.541 144.648,111.942 144.729,107.800 145.795 M287.800 145.200 C 287.936 145.420,288.388 145.600,288.804 145.600 C 289.220 145.600,290.598 145.870,291.865 146.200 C 293.131 146.530,294.535 146.783,294.984 146.762 C 295.433 146.742,294.090 146.295,292.000 145.770 C 287.666 144.681,287.462 144.653,287.800 145.200 M158.400 145.870 C 153.985 146.725,153.358 146.884,153.800 147.039 C 154.020 147.116,156.630 146.751,159.600 146.228 C 162.902 145.647,164.301 145.280,163.200 145.283 C 162.210 145.287,160.050 145.551,158.400 145.870 M240.400 146.210 C 246.934 147.328,254.095 148.866,259.143 150.234 C 261.201 150.792,262.982 151.152,263.100 151.034 C 263.364 150.770,263.061 150.669,258.800 149.594 C 252.792 148.080,248.222 147.095,243.941 146.393 C 242.698 146.189,240.898 145.842,239.941 145.621 C 238.983 145.400,237.480 145.235,236.600 145.253 C 235.690 145.272,237.330 145.685,240.400 146.210 M100.405 147.652 C 97.425 148.452,96.554 148.810,97.633 148.789 C 98.516 148.773,103.542 147.391,103.854 147.079 C 104.262 146.671,103.734 146.759,100.405 147.652 M296.112 147.032 C 296.476 147.412,301.517 148.791,302.400 148.753 C 302.730 148.739,301.920 148.388,300.600 147.974 C 297.472 146.993,295.722 146.626,296.112 147.032 M148.400 147.838 C 147.190 148.148,145.570 148.569,144.800 148.773 C 144.030 148.976,142.140 149.440,140.600 149.804 C 139.060 150.168,137.440 150.608,137.000 150.783 C 136.560 150.957,135.120 151.402,133.800 151.772 C 132.480 152.141,131.040 152.588,130.600 152.766 C 130.160 152.944,129.080 153.315,128.200 153.591 C 127.320 153.866,126.060 154.320,125.400 154.599 C 124.740 154.878,123.570 155.334,122.800 155.613 C 122.030 155.892,120.860 156.344,120.200 156.618 C 119.540 156.891,118.146 157.449,117.101 157.858 C 116.057 158.266,115.202 158.737,115.201 158.905 C 115.201 159.073,115.875 158.921,116.700 158.568 C 127.430 153.967,137.445 150.848,151.800 147.638 L 153.400 147.280 152.000 147.277 C 151.230 147.274,149.610 147.527,148.400 147.838 M93.000 149.793 C 91.460 150.310,90.560 150.740,91.000 150.749 C 91.440 150.758,92.520 150.505,93.400 150.188 C 94.280 149.871,95.304 149.609,95.676 149.606 C 96.048 149.603,96.464 149.420,96.600 149.200 C 96.966 148.608,96.117 148.748,93.000 149.793 M303.400 149.200 C 303.536 149.420,303.952 149.603,304.324 149.606 C 304.696 149.609,305.720 149.871,306.600 150.188 C 307.480 150.505,308.560 150.761,309.000 150.755 L 309.800 150.746 309.000 150.413 C 306.233 149.264,303.007 148.565,303.400 149.200 M86.876 151.670 C 85.487 152.118,84.442 152.575,84.553 152.687 C 84.798 152.931,89.244 151.613,89.780 151.137 C 90.344 150.637,89.723 150.751,86.876 151.670 M310.200 151.092 C 310.713 151.583,315.183 152.951,315.438 152.695 C 315.544 152.589,314.769 152.228,313.716 151.893 C 310.313 150.810,309.777 150.688,310.200 151.092 M266.366 152.233 C 267.998 152.765,269.419 153.115,269.524 153.010 C 269.629 152.905,269.464 152.740,269.157 152.644 C 268.851 152.547,267.713 152.183,266.629 151.834 C 265.545 151.485,264.375 151.215,264.029 151.232 C 263.683 151.250,264.735 151.700,266.366 152.233 M81.236 153.627 C 80.046 154.049,78.966 154.507,78.836 154.644 C 78.468 155.033,81.352 154.361,81.780 153.958 C 81.989 153.761,82.473 153.600,82.856 153.600 C 83.239 153.600,83.664 153.420,83.800 153.200 C 84.131 152.665,83.782 152.723,81.236 153.627 M316.220 153.119 C 316.788 153.596,320.810 154.924,321.028 154.706 C 321.131 154.602,320.206 154.131,318.972 153.659 C 316.647 152.769,315.546 152.553,316.220 153.119 M275.800 155.569 C 279.100 156.860,282.475 158.208,283.300 158.564 C 284.125 158.920,284.799 159.073,284.799 158.905 C 284.798 158.737,283.943 158.266,282.899 157.858 C 281.854 157.449,280.460 156.879,279.800 156.590 C 277.132 155.423,270.962 153.206,270.400 153.213 C 270.070 153.218,272.500 154.278,275.800 155.569 M73.200 156.746 C 66.788 159.428,64.689 160.422,64.930 160.663 C 65.044 160.777,66.366 160.302,67.869 159.607 C 69.371 158.913,70.960 158.195,71.400 158.013 C 71.840 157.831,72.830 157.420,73.600 157.101 C 74.370 156.781,75.630 156.284,76.400 155.996 C 77.868 155.446,78.852 154.791,78.180 154.811 C 77.971 154.818,75.730 155.688,73.200 156.746 M321.600 154.968 C 321.600 155.259,324.276 156.370,325.577 156.618 C 326.260 156.749,326.068 156.565,324.998 156.065 C 322.997 155.129,321.600 154.678,321.600 154.968 M326.800 157.200 C 326.800 157.420,327.072 157.600,327.405 157.600 C 327.738 157.600,328.323 157.771,328.705 157.980 C 329.087 158.188,330.660 158.922,332.200 159.609 C 341.082 163.574,349.439 168.561,355.984 173.800 C 362.587 179.086,368.615 187.503,370.037 193.424 C 370.852 196.817,371.223 197.606,370.966 195.400 C 369.640 184.036,355.359 170.024,335.541 160.642 C 327.623 156.894,326.800 156.570,326.800 157.200 M111.400 160.570 C 100.712 166.272,96.122 169.477,90.174 175.393 C 86.638 178.909,83.200 183.144,83.200 183.983 C 83.200 184.212,83.049 184.400,82.865 184.400 C 82.491 184.400,80.326 189.030,79.686 191.200 C 79.458 191.970,79.076 193.243,78.836 194.028 C 78.335 195.669,78.253 204.749,78.732 205.504 C 78.908 205.781,78.973 203.947,78.877 201.429 C 78.295 186.228,89.530 172.250,111.200 161.217 C 115.011 159.277,115.163 159.182,114.367 159.245 C 114.055 159.269,112.720 159.866,111.400 160.570 M289.600 161.654 C 295.454 164.753,295.174 164.590,299.267 167.270 C 309.461 173.943,316.694 182.320,319.860 191.120 C 320.546 193.029,320.774 193.397,320.652 192.400 C 320.456 190.804,317.640 184.400,317.134 184.400 C 316.950 184.400,316.800 184.210,316.800 183.979 C 316.800 182.565,309.443 174.418,304.792 170.681 C 302.869 169.136,294.641 163.665,293.738 163.331 C 293.332 163.181,292.910 162.955,292.800 162.829 C 292.419 162.393,285.966 159.200,285.484 159.209 C 285.218 159.215,287.070 160.315,289.600 161.654 M60.800 162.451 C 49.789 168.403,33.463 181.196,34.963 182.697 C 35.117 182.850,35.724 182.351,36.313 181.588 C 38.242 179.086,44.315 173.302,45.905 172.451 C 46.363 172.206,46.990 171.753,47.298 171.445 C 47.993 170.750,53.309 167.198,55.200 166.165 C 55.970 165.744,56.690 165.310,56.800 165.200 C 56.910 165.090,57.990 164.484,59.200 163.854 C 63.564 161.582,64.400 161.117,64.400 160.960 C 64.400 160.599,63.654 160.908,60.800 162.451 M33.368 184.851 C 30.947 188.686,29.436 192.394,28.987 195.600 C 28.801 196.929,28.847 197.243,29.162 196.800 C 29.396 196.470,29.593 195.750,29.600 195.200 C 29.621 193.408,32.600 186.000,33.299 186.000 C 33.465 186.000,33.600 185.789,33.600 185.531 C 33.600 185.274,33.899 184.733,34.264 184.329 C 34.630 183.925,34.823 183.489,34.693 183.360 C 34.564 183.230,33.967 183.902,33.368 184.851 M321.000 200.000 C 321.000 203.258,321.135 205.840,321.300 205.738 C 321.465 205.636,321.600 203.054,321.600 200.000 C 321.600 196.946,321.465 194.364,321.300 194.262 C 321.135 194.160,321.000 196.742,321.000 200.000 M371.328 200.000 C 371.328 201.430,371.401 202.015,371.489 201.300 C 371.578 200.585,371.578 199.415,371.489 198.700 C 371.401 197.985,371.328 198.570,371.328 200.000 M28.509 200.000 C 28.509 200.990,28.587 201.395,28.682 200.900 C 28.778 200.405,28.778 199.595,28.682 199.100 C 28.587 198.605,28.509 199.010,28.509 200.000 M28.987 204.400 C 30.954 218.460,52.631 236.630,77.200 244.813 C 77.750 244.996,79.730 245.712,81.600 246.402 C 85.487 247.838,86.932 248.326,91.400 249.712 C 95.838 251.088,96.920 251.318,96.610 250.816 C 96.468 250.587,96.021 250.400,95.616 250.400 C 94.901 250.400,81.412 246.027,79.000 245.013 C 78.340 244.736,76.990 244.190,76.000 243.801 C 75.010 243.411,73.250 242.667,72.089 242.146 C 70.928 241.626,69.823 241.200,69.633 241.200 C 69.262 241.200,57.132 235.161,56.800 234.811 C 56.510 234.505,55.190 233.718,53.718 232.974 C 53.014 232.618,52.226 232.073,51.969 231.763 C 51.712 231.453,51.254 231.200,50.951 231.200 C 50.648 231.200,50.400 231.032,50.400 230.827 C 50.400 230.622,50.072 230.350,49.671 230.222 C 49.269 230.095,48.590 229.664,48.160 229.263 C 47.731 228.863,46.852 228.190,46.206 227.768 C 42.436 225.300,33.600 215.965,33.600 214.450 C 33.600 214.239,33.465 214.007,33.300 213.933 C 32.434 213.548,29.621 206.606,29.600 204.800 C 29.593 204.250,29.396 203.530,29.162 203.200 C 28.847 202.757,28.801 203.071,28.987 204.400 M370.632 204.200 C 368.728 214.376,360.681 223.969,346.710 232.716 C 345.230 233.642,343.850 234.400,343.643 234.400 C 343.436 234.400,343.207 234.539,343.133 234.708 C 342.978 235.068,331.413 240.953,329.975 241.404 C 329.439 241.573,328.067 242.135,326.926 242.655 C 325.785 243.175,324.748 243.600,324.621 243.600 C 324.495 243.600,323.628 243.938,322.696 244.351 C 321.763 244.764,320.100 245.408,319.000 245.782 C 317.900 246.156,316.640 246.604,316.200 246.776 C 315.532 247.039,313.748 247.618,310.443 248.646 C 310.136 248.741,309.980 248.913,310.095 249.028 C 310.684 249.617,326.940 243.450,335.019 239.572 C 354.635 230.158,367.651 218.032,370.632 206.398 C 370.974 205.064,371.181 203.664,371.092 203.286 C 371.004 202.909,370.797 203.320,370.632 204.200 M79.223 207.051 C 79.187 208.363,82.275 215.600,82.870 215.600 C 83.052 215.600,83.200 215.793,83.200 216.030 C 83.200 217.338,90.759 225.778,94.754 228.930 C 99.034 232.307,106.297 237.036,106.655 236.678 C 106.769 236.564,105.994 235.974,104.931 235.367 C 92.704 228.381,83.533 218.569,80.176 208.880 C 79.665 207.406,79.236 206.583,79.223 207.051 M320.190 207.700 C 320.040 208.415,319.227 210.485,318.384 212.300 C 317.541 214.115,316.990 215.600,317.160 215.600 C 317.600 215.600,320.440 209.250,320.693 207.700 C 320.809 206.985,320.805 206.400,320.684 206.400 C 320.563 206.400,320.341 206.985,320.190 207.700 M315.194 217.900 C 311.107 223.689,297.948 235.121,295.272 235.209 C 295.122 235.214,294.550 235.570,294.000 236.000 C 292.551 237.134,293.552 236.978,295.286 235.800 C 296.095 235.250,296.862 234.800,296.990 234.800 C 297.268 234.800,304.513 229.618,304.800 229.213 C 304.910 229.058,305.303 228.767,305.673 228.565 C 308.279 227.146,318.032 216.000,316.668 216.000 C 316.595 216.000,315.932 216.855,315.194 217.900 M107.430 237.190 C 108.021 237.781,113.976 240.802,114.522 240.787 C 114.943 240.776,107.678 236.812,107.220 236.803 C 107.121 236.802,107.215 236.975,107.430 237.190 M288.800 238.821 C 286.710 239.887,285.234 240.769,285.520 240.780 C 285.920 240.795,291.892 237.943,292.767 237.319 C 293.940 236.482,291.786 237.297,288.800 238.821 M115.201 241.095 C 115.203 241.417,118.328 242.809,119.004 242.788 C 119.503 242.773,118.412 242.131,116.596 241.373 C 115.828 241.052,115.201 240.927,115.201 241.095 M282.600 241.791 C 281.500 242.321,280.778 242.764,280.996 242.777 C 281.645 242.815,284.797 241.425,284.799 241.100 C 284.800 240.713,284.917 240.676,282.600 241.791 M119.600 242.968 C 119.600 243.259,122.276 244.370,123.577 244.618 C 124.260 244.749,124.068 244.565,122.998 244.065 C 120.997 243.129,119.600 242.678,119.600 242.968 M278.600 243.372 C 277.940 243.676,276.050 244.406,274.400 244.992 C 270.148 246.504,269.631 246.739,270.492 246.773 C 271.136 246.798,272.915 246.209,275.800 245.016 C 276.460 244.743,277.630 244.284,278.400 243.996 C 279.871 243.445,280.849 242.793,280.180 242.809 C 279.971 242.814,279.260 243.067,278.600 243.372 M124.922 245.073 C 125.217 245.550,129.552 246.981,129.838 246.695 C 129.944 246.589,129.159 246.217,128.094 245.869 C 127.028 245.520,125.822 245.106,125.413 244.949 C 124.946 244.770,124.763 244.817,124.922 245.073 M130.620 247.137 C 131.221 247.671,135.535 248.890,136.094 248.685 C 136.372 248.582,136.060 248.367,135.400 248.205 C 134.740 248.044,133.429 247.662,132.486 247.356 C 130.509 246.715,130.088 246.665,130.620 247.137 M266.200 247.793 C 264.660 248.310,263.694 248.748,264.054 248.766 C 264.871 248.808,268.867 247.583,269.380 247.133 C 269.969 246.617,269.277 246.761,266.200 247.793 M136.946 249.079 C 137.326 249.459,142.407 250.783,143.400 250.761 C 143.840 250.751,142.670 250.309,140.800 249.778 C 137.202 248.756,136.495 248.628,136.946 249.079 M259.000 249.836 C 256.148 250.696,256.017 250.774,257.800 250.561 C 258.900 250.429,260.103 250.159,260.474 249.961 C 260.844 249.762,261.509 249.600,261.950 249.600 C 262.392 249.600,262.864 249.420,263.000 249.200 C 263.353 248.629,262.623 248.745,259.000 249.836 M306.200 249.888 C 303.066 250.846,302.975 250.884,303.417 251.052 C 303.646 251.140,305.176 250.773,306.817 250.238 C 310.039 249.187,309.498 248.880,306.200 249.888 M144.600 251.200 C 144.736 251.420,145.188 251.600,145.604 251.600 C 146.020 251.600,147.398 251.870,148.665 252.200 C 149.931 252.530,151.425 252.781,151.984 252.759 C 153.041 252.716,152.945 252.687,147.374 251.372 C 144.492 250.692,144.278 250.679,144.600 251.200 M252.400 251.401 C 251.190 251.699,249.480 252.118,248.600 252.331 C 247.407 252.619,247.259 252.728,248.016 252.759 C 248.575 252.781,250.069 252.530,251.335 252.200 C 252.602 251.870,253.980 251.600,254.396 251.600 C 254.812 251.600,255.264 251.420,255.400 251.200 C 255.716 250.689,255.123 250.729,252.400 251.401 M97.259 251.392 C 97.953 252.086,121.833 257.501,122.270 257.063 C 122.393 256.940,122.068 256.756,121.547 256.655 C 115.773 255.532,113.585 255.086,112.400 254.791 C 111.630 254.599,109.740 254.150,108.200 253.792 C 104.595 252.956,102.625 252.439,100.429 251.753 C 98.704 251.214,96.873 251.006,97.259 251.392 M299.400 251.783 C 297.443 252.419,295.463 252.943,291.800 253.792 C 290.260 254.150,288.370 254.599,287.600 254.791 C 286.415 255.086,284.227 255.532,278.453 256.655 C 277.932 256.756,277.607 256.940,277.730 257.063 C 278.167 257.501,302.047 252.086,302.741 251.392 C 303.113 251.020,300.981 251.269,299.400 251.783 M153.800 253.200 C 153.936 253.420,154.655 253.600,155.398 253.600 C 156.140 253.600,157.187 253.767,157.723 253.971 C 158.259 254.175,160.026 254.437,161.649 254.554 C 164.907 254.789,164.716 254.735,157.492 253.382 C 153.807 252.692,153.476 252.676,153.800 253.200 M242.400 253.392 C 240.970 253.682,238.810 254.107,237.600 254.338 L 235.400 254.756 238.351 254.549 C 239.974 254.435,241.741 254.175,242.277 253.971 C 242.813 253.767,243.825 253.597,244.526 253.594 C 245.227 253.591,246.070 253.413,246.400 253.200 C 247.248 252.652,245.681 252.727,242.400 253.392 M165.318 255.052 C 165.556 255.290,166.809 255.456,175.400 256.388 C 177.380 256.603,180.170 256.758,181.600 256.732 C 183.926 256.691,183.778 256.649,180.200 256.338 C 178.000 256.146,173.950 255.721,171.200 255.393 C 165.618 254.728,164.956 254.690,165.318 255.052 M230.000 255.264 C 228.570 255.463,224.790 255.880,221.600 256.191 L 215.800 256.755 221.200 256.559 C 224.170 256.452,227.320 256.196,228.200 255.991 C 229.080 255.787,230.700 255.612,231.800 255.603 C 232.900 255.595,234.070 255.413,234.400 255.200 C 235.143 254.720,233.758 254.740,230.000 255.264 M187.000 257.246 C 187.660 257.389,193.510 257.505,200.000 257.505 C 206.490 257.505,212.340 257.389,213.000 257.246 C 213.660 257.103,207.810 256.986,200.000 256.986 C 192.190 256.986,186.340 257.103,187.000 257.246 M126.200 257.992 C 131.112 258.952,133.853 259.329,133.529 259.000 C 133.192 258.658,124.966 257.214,123.600 257.257 C 123.050 257.274,124.220 257.605,126.200 257.992 M272.200 257.824 C 270.880 258.121,269.260 258.376,268.600 258.389 C 267.940 258.402,267.130 258.594,266.800 258.816 C 266.035 259.330,269.309 258.950,274.000 257.980 C 276.023 257.562,276.833 257.278,276.000 257.279 C 275.230 257.281,273.520 257.526,272.200 257.824 M137.200 259.796 C 142.313 260.628,148.055 261.279,148.281 261.052 C 148.391 260.942,147.878 260.766,147.141 260.661 C 138.116 259.381,130.661 258.732,137.200 259.796 M258.400 259.882 C 253.263 260.592,250.621 261.279,254.200 260.973 C 256.665 260.762,260.670 260.223,264.200 259.627 L 266.200 259.289 264.400 259.295 C 263.410 259.298,260.710 259.562,258.400 259.882 M149.000 261.408 C 149.670 261.651,161.941 262.768,166.200 262.974 C 168.716 263.096,169.755 263.043,169.000 262.831 C 168.340 262.646,166.630 262.472,165.200 262.443 C 163.770 262.415,160.260 262.127,157.400 261.804 C 152.668 261.269,148.009 261.049,149.000 261.408 M242.400 261.818 C 240.090 262.097,236.850 262.363,235.200 262.410 C 233.550 262.456,231.660 262.646,231.000 262.831 C 228.907 263.419,248.383 262.066,251.200 261.429 C 252.761 261.075,246.122 261.369,242.400 261.818 M175.200 263.675 C 181.071 264.171,219.650 264.163,225.200 263.664 C 228.227 263.392,226.050 263.359,217.400 263.544 C 202.397 263.864,197.595 263.864,182.600 263.543 C 173.523 263.349,171.721 263.381,175.200 263.675 " stroke="none" fill="#3e81bb" fill-rule="evenodd"></path><path id="path4" d="M195.900 135.498 C 198.155 135.570,201.845 135.570,204.100 135.498 C 206.355 135.427,204.510 135.369,200.000 135.369 C 195.490 135.369,193.645 135.427,195.900 135.498 M184.912 135.895 C 185.964 135.977,187.584 135.976,188.512 135.892 C 189.440 135.808,188.580 135.741,186.600 135.742 C 184.620 135.743,183.860 135.812,184.912 135.895 M211.712 135.895 C 212.764 135.977,214.384 135.976,215.312 135.892 C 216.240 135.808,215.380 135.741,213.400 135.742 C 211.420 135.743,210.660 135.812,211.712 135.895 M173.705 136.287 C 174.314 136.379,175.214 136.377,175.705 136.282 C 176.197 136.187,175.700 136.111,174.600 136.114 C 173.500 136.117,173.097 136.195,173.705 136.287 M224.505 136.287 C 225.114 136.379,226.014 136.377,226.505 136.282 C 226.997 136.187,226.500 136.111,225.400 136.114 C 224.300 136.117,223.897 136.195,224.505 136.287 M166.900 136.691 C 167.725 136.778,169.075 136.778,169.900 136.691 C 170.725 136.605,170.050 136.534,168.400 136.534 C 166.750 136.534,166.075 136.605,166.900 136.691 M230.100 136.691 C 230.925 136.778,232.275 136.778,233.100 136.691 C 233.925 136.605,233.250 136.534,231.600 136.534 C 229.950 136.534,229.275 136.605,230.100 136.691 M157.505 137.483 C 158.002 137.579,158.722 137.575,159.105 137.475 C 159.487 137.375,159.080 137.296,158.200 137.301 C 157.320 137.305,157.007 137.387,157.505 137.483 M241.105 137.483 C 241.602 137.579,242.322 137.575,242.705 137.475 C 243.087 137.375,242.680 137.296,241.800 137.301 C 240.920 137.305,240.607 137.387,241.105 137.483 M146.705 138.683 C 147.202 138.779,147.922 138.775,148.305 138.675 C 148.687 138.575,148.280 138.496,147.400 138.501 C 146.520 138.505,146.207 138.587,146.705 138.683 M251.900 138.682 C 252.395 138.778,253.205 138.778,253.700 138.682 C 254.195 138.587,253.790 138.509,252.800 138.509 C 251.810 138.509,251.405 138.587,251.900 138.682 M132.500 140.676 C 132.885 140.776,133.515 140.776,133.900 140.676 C 134.285 140.575,133.970 140.493,133.200 140.493 C 132.430 140.493,132.115 140.575,132.500 140.676 M189.200 143.178 C 186.890 143.300,191.750 143.400,200.000 143.400 C 208.522 143.400,213.014 143.293,210.400 143.153 C 204.924 142.858,195.039 142.870,189.200 143.178 M116.200 143.600 C 115.181 144.038,116.232 144.038,117.600 143.600 C 118.404 143.343,118.443 143.277,117.800 143.268 C 117.360 143.262,116.640 143.411,116.200 143.600 M282.600 143.600 C 283.040 143.789,283.670 143.944,284.000 143.944 C 284.378 143.944,284.304 143.817,283.800 143.600 C 283.360 143.411,282.730 143.256,282.400 143.256 C 282.022 143.256,282.096 143.383,282.600 143.600 M180.100 143.876 C 180.485 143.976,181.115 143.976,181.500 143.876 C 181.885 143.775,181.570 143.693,180.800 143.693 C 180.030 143.693,179.715 143.775,180.100 143.876 M218.500 143.876 C 218.885 143.976,219.515 143.976,219.900 143.876 C 220.285 143.775,219.970 143.693,219.200 143.693 C 218.430 143.693,218.115 143.775,218.500 143.876 M175.505 144.283 C 176.002 144.379,176.722 144.375,177.105 144.275 C 177.487 144.175,177.080 144.096,176.200 144.101 C 175.320 144.105,175.007 144.187,175.505 144.283 M223.305 144.287 C 223.914 144.379,224.814 144.377,225.305 144.282 C 225.797 144.187,225.300 144.111,224.200 144.114 C 223.100 144.117,222.697 144.195,223.305 144.287 M110.800 144.806 C 110.378 145.082,110.615 145.123,111.600 144.942 C 113.325 144.625,113.651 144.398,112.367 144.406 C 111.835 144.409,111.130 144.589,110.800 144.806 M287.233 144.544 C 287.325 144.623,287.940 144.808,288.600 144.956 C 289.476 145.152,289.638 145.115,289.200 144.818 C 288.660 144.453,286.832 144.198,287.233 144.544 M166.200 145.200 L 164.600 145.486 166.000 145.515 C 166.770 145.531,167.760 145.389,168.200 145.200 C 169.143 144.795,168.462 144.795,166.200 145.200 M231.800 145.197 C 232.564 145.528,235.514 145.755,235.167 145.456 C 235.075 145.377,234.100 145.209,233.000 145.082 C 231.713 144.933,231.285 144.974,231.800 145.197 M244.800 147.182 C 245.130 147.405,245.745 147.591,246.167 147.594 C 247.190 147.602,246.871 147.373,245.400 147.044 C 244.524 146.848,244.362 146.885,244.800 147.182 M302.833 148.544 C 302.925 148.623,303.540 148.808,304.200 148.956 C 305.076 149.152,305.238 149.115,304.800 148.818 C 304.260 148.453,302.432 148.198,302.833 148.544 M52.500 166.846 C 51.137 167.719,50.695 168.306,51.900 167.643 C 52.818 167.139,54.256 166.027,54.000 166.019 C 53.890 166.016,53.215 166.388,52.500 166.846 M107.067 171.467 C 106.920 171.613,106.800 184.573,106.800 200.267 L 106.800 228.800 114.200 228.800 L 121.600 228.800 121.600 216.400 C 121.600 205.324,121.891 201.707,122.510 205.100 C 122.620 205.705,123.020 207.280,123.398 208.600 C 123.776 209.920,124.231 211.540,124.408 212.200 C 124.586 212.860,125.036 214.480,125.408 215.800 C 126.158 218.455,126.347 219.152,127.572 223.800 C 129.033 229.337,128.106 228.800,136.194 228.800 L 143.205 228.800 143.103 200.100 L 143.000 171.400 135.700 171.291 L 128.400 171.182 128.400 183.391 C 128.400 191.264,128.258 195.600,128.000 195.600 C 127.780 195.600,127.600 195.161,127.600 194.624 C 127.600 194.087,127.420 193.536,127.200 193.400 C 126.655 193.063,126.692 193.405,127.515 196.320 C 128.653 200.345,128.800 199.044,128.800 184.933 L 128.800 171.600 135.800 171.600 L 142.800 171.600 142.800 200.000 L 142.800 228.400 136.224 228.400 C 132.367 228.400,129.547 228.238,129.405 228.009 C 129.272 227.793,128.715 225.948,128.166 223.909 C 127.618 221.869,126.719 218.580,126.168 216.600 C 125.618 214.620,124.899 212.010,124.571 210.800 C 122.618 203.598,121.857 201.241,121.548 201.432 C 121.357 201.550,121.200 207.671,121.200 215.033 L 121.200 228.419 114.300 228.309 L 107.400 228.200 107.400 200.000 L 107.400 171.800 114.245 171.691 L 121.091 171.582 121.586 173.491 C 121.858 174.541,122.229 175.850,122.409 176.400 C 123.046 178.342,122.828 175.953,122.147 173.526 L 121.495 171.200 114.414 171.200 C 110.520 171.200,107.213 171.320,107.067 171.467 M159.467 171.467 C 159.320 171.613,159.200 172.267,159.200 172.920 C 159.200 173.573,159.034 174.758,158.831 175.554 C 158.628 176.349,158.173 178.800,157.820 181.000 C 157.467 183.200,157.009 185.900,156.804 187.000 C 156.598 188.100,156.147 190.710,155.800 192.800 C 155.453 194.890,155.003 197.500,154.800 198.600 C 154.597 199.700,154.147 202.310,153.800 204.400 C 153.453 206.490,153.003 209.100,152.800 210.200 C 152.457 212.056,151.529 217.538,151.006 220.800 C 150.883 221.570,150.552 223.601,150.270 225.313 C 149.637 229.168,148.943 228.800,156.843 228.800 C 164.627 228.800,163.906 229.309,164.483 223.413 L 164.935 218.800 167.577 218.800 L 170.218 218.800 170.709 220.912 C 170.979 222.073,171.200 223.861,171.200 224.886 C 171.200 225.910,171.376 227.210,171.590 227.774 L 171.980 228.800 178.984 228.800 L 185.988 228.800 185.742 226.300 C 185.607 224.925,185.344 223.633,185.157 223.428 C 184.969 223.223,184.928 224.253,185.066 225.728 L 185.316 228.400 178.710 228.400 L 172.104 228.400 171.609 223.900 C 170.954 217.935,170.998 218.000,167.629 218.000 C 164.389 218.000,164.540 217.787,163.985 223.155 C 163.386 228.956,164.154 228.400,156.736 228.400 L 150.325 228.400 150.592 226.300 C 150.739 225.145,151.122 222.760,151.442 221.000 C 151.761 219.240,152.191 216.810,152.397 215.600 C 152.602 214.390,153.051 211.780,153.394 209.800 C 153.737 207.820,154.187 205.210,154.394 204.000 C 154.601 202.790,155.051 200.180,155.394 198.200 C 155.737 196.220,156.187 193.610,156.394 192.400 C 156.601 191.190,157.053 188.580,157.399 186.600 C 157.745 184.620,158.224 181.830,158.463 180.400 C 158.702 178.970,159.146 176.503,159.449 174.917 C 159.752 173.331,160.000 171.936,160.000 171.817 C 160.000 171.698,163.575 171.600,167.944 171.600 L 175.887 171.600 176.291 173.700 C 176.643 175.530,176.701 175.620,176.742 174.400 C 176.856 171.021,177.344 171.200,168.020 171.200 C 163.462 171.200,159.613 171.320,159.467 171.467 M185.377 171.716 C 185.266 172.006,185.226 174.573,185.287 177.421 L 185.400 182.600 188.897 182.716 L 192.393 182.831 192.497 205.716 L 192.600 228.600 200.100 228.709 L 207.600 228.818 207.600 205.809 L 207.600 182.800 210.900 182.800 L 214.200 182.800 214.200 199.700 C 214.200 218.240,214.429 220.086,217.054 222.711 C 217.345 223.002,217.811 223.546,218.091 223.920 C 219.130 225.309,221.562 226.810,224.800 228.060 C 226.735 228.807,237.667 228.806,239.600 228.059 C 243.994 226.360,248.072 222.923,248.669 220.415 C 248.802 219.857,249.039 219.220,249.195 219.000 C 249.849 218.082,250.442 213.568,250.325 210.400 L 250.200 207.000 243.600 206.886 C 234.417 206.727,235.200 206.255,235.200 211.946 C 235.200 216.947,235.028 217.440,233.039 218.150 C 231.877 218.565,229.723 217.693,229.415 216.683 C 229.219 216.040,229.083 215.956,228.916 216.371 C 228.578 217.211,230.628 218.800,232.049 218.800 C 234.962 218.800,235.659 217.556,235.965 211.804 L 236.200 207.400 243.000 207.400 L 249.800 207.400 249.776 211.200 C 249.700 223.084,244.576 228.084,232.400 228.153 C 223.334 228.204,218.807 225.961,216.095 220.072 C 213.612 214.679,213.621 185.262,216.108 179.928 C 218.767 174.224,223.548 171.813,232.200 171.813 C 244.578 171.813,250.713 178.241,249.940 190.400 L 249.800 192.600 243.000 192.600 L 236.200 192.600 235.979 188.200 C 235.692 182.482,234.972 181.200,232.049 181.200 C 230.628 181.200,228.578 182.789,228.916 183.629 C 229.086 184.050,229.215 183.977,229.407 183.349 C 229.936 181.621,232.489 181.126,234.146 182.429 C 235.179 183.242,235.200 183.352,235.200 188.021 C 235.200 193.750,234.413 193.273,243.600 193.114 L 250.200 193.000 250.325 189.600 C 250.442 186.432,249.849 181.918,249.195 181.000 C 249.039 180.780,248.802 180.143,248.669 179.585 C 246.647 171.085,227.401 168.057,219.339 174.971 C 217.451 176.591,215.240 179.732,215.118 180.969 C 215.073 181.426,214.938 179.460,214.818 176.600 L 214.600 171.400 200.089 171.295 C 188.391 171.210,185.540 171.292,185.377 171.716 M268.200 171.851 C 262.677 173.494,259.563 176.402,257.762 181.600 C 256.602 184.950,256.599 215.036,257.759 218.400 C 259.063 222.183,262.073 225.692,265.200 227.077 C 268.357 228.474,269.165 228.600,275.000 228.600 C 281.053 228.600,281.520 228.519,285.400 226.794 C 289.038 225.177,292.370 220.304,292.645 216.200 L 292.779 214.200 292.252 216.400 C 290.207 224.932,285.703 228.075,275.400 228.156 C 264.362 228.243,258.897 224.218,257.632 215.071 C 257.076 211.043,257.070 188.992,257.625 185.005 C 258.898 175.852,264.316 171.785,275.200 171.813 C 285.543 171.838,290.230 175.075,292.268 183.600 L 292.794 185.800 292.653 183.800 C 291.995 174.504,279.616 168.455,268.200 171.851 M214.000 177.000 L 214.000 182.400 210.603 182.400 L 207.207 182.400 207.103 205.300 L 207.000 228.200 200.000 228.200 L 193.000 228.200 192.897 205.300 L 192.793 182.400 189.397 182.400 L 186.000 182.400 186.000 177.000 L 186.000 171.600 200.000 171.600 L 214.000 171.600 214.000 177.000 M92.778 173.500 L 91.400 175.000 92.900 173.622 C 94.296 172.338,94.584 172.000,94.278 172.000 C 94.212 172.000,93.537 172.675,92.778 173.500 M305.600 172.125 C 305.600 172.194,306.185 172.779,306.900 173.425 L 308.200 174.600 307.025 173.300 C 305.930 172.088,305.600 171.816,305.600 172.125 M39.191 177.500 L 35.800 181.000 39.300 177.609 C 42.551 174.459,42.982 174.000,42.691 174.000 C 42.631 174.000,41.056 175.575,39.191 177.500 M360.400 177.400 C 362.260 179.270,363.872 180.800,363.982 180.800 C 364.092 180.800,362.660 179.270,360.800 177.400 C 358.940 175.530,357.328 174.000,357.218 174.000 C 357.108 174.000,358.540 175.530,360.400 177.400 M308.800 174.925 C 308.800 174.994,309.385 175.579,310.100 176.225 L 311.400 177.400 310.225 176.100 C 309.130 174.888,308.800 174.616,308.800 174.925 M176.988 177.800 C 177.220 179.689,177.524 181.421,178.356 185.600 C 178.700 187.327,178.716 187.343,178.750 186.000 C 178.770 185.230,178.519 183.340,178.193 181.800 C 177.867 180.260,177.597 178.550,177.594 178.000 C 177.591 177.450,177.398 176.730,177.165 176.400 C 176.857 175.962,176.809 176.339,176.988 177.800 M122.983 178.800 C 123.130 179.570,123.406 180.650,123.596 181.200 C 123.787 181.750,124.537 184.630,125.264 187.600 C 125.991 190.570,126.642 192.714,126.710 192.365 C 126.778 192.016,126.634 190.936,126.389 189.965 C 126.145 188.994,125.854 187.750,125.742 187.200 C 125.631 186.650,125.396 185.840,125.221 185.400 C 125.046 184.960,124.579 183.160,124.184 181.400 C 123.471 178.221,122.451 176.015,122.983 178.800 M311.600 178.125 C 311.600 178.194,312.185 178.779,312.900 179.425 L 314.200 180.600 313.025 179.300 C 311.930 178.088,311.600 177.816,311.600 178.125 M273.063 181.653 C 271.330 182.660,271.200 183.938,271.200 200.000 C 271.200 218.017,271.358 218.800,275.000 218.800 C 278.685 218.800,278.800 218.231,278.800 200.000 C 278.800 183.337,278.724 182.630,276.822 181.612 C 275.835 181.084,274.008 181.104,273.063 181.653 M277.078 182.565 L 278.200 183.531 278.200 199.705 C 278.200 212.627,278.090 216.085,277.653 216.902 C 276.673 218.731,273.291 218.704,272.353 216.859 C 271.750 215.673,271.307 190.754,271.805 186.044 C 272.239 181.944,274.568 180.407,277.078 182.565 M167.482 184.400 C 167.052 187.403,166.798 196.702,167.176 195.600 C 167.366 195.050,167.538 192.995,167.560 191.033 C 167.619 185.798,167.952 187.017,168.436 194.238 C 168.670 197.737,168.958 202.008,169.075 203.729 L 169.287 206.857 167.968 206.729 L 166.649 206.600 166.757 202.001 C 166.896 196.117,166.580 196.404,166.208 202.500 L 165.921 207.200 167.820 207.200 L 169.720 207.200 169.466 202.900 C 168.937 193.941,168.338 186.135,168.045 184.400 L 167.741 182.600 167.482 184.400 M228.582 200.000 C 228.582 208.690,228.635 212.245,228.700 207.900 C 228.764 203.555,228.764 196.445,228.700 192.100 C 228.635 187.755,228.582 191.310,228.582 200.000 M292.980 200.000 C 292.980 207.590,293.034 210.695,293.099 206.900 C 293.165 203.105,293.165 196.895,293.099 193.100 C 293.034 189.305,292.980 192.410,292.980 200.000 M178.994 189.400 C 179.719 195.178,180.838 200.248,180.566 196.520 C 180.450 194.935,180.185 193.047,179.978 192.322 C 179.770 191.598,179.597 190.464,179.594 189.803 C 179.591 189.141,179.398 188.330,179.165 188.000 C 178.857 187.562,178.811 187.941,178.994 189.400 M320.428 194.433 C 320.444 194.965,320.619 195.760,320.819 196.200 C 321.071 196.758,321.107 196.515,320.938 195.400 C 320.655 193.543,320.387 193.036,320.428 194.433 M79.050 195.250 C 78.717 196.917,79.040 197.240,79.400 195.600 C 79.552 194.909,79.593 194.259,79.491 194.158 C 79.389 194.056,79.191 194.547,79.050 195.250 M371.068 195.800 C 371.371 197.777,371.602 198.114,371.594 196.567 C 371.591 195.925,371.416 195.130,371.205 194.800 C 370.945 194.391,370.901 194.710,371.068 195.800 M28.501 197.000 C 28.505 197.880,28.587 198.193,28.683 197.695 C 28.779 197.198,28.775 196.478,28.675 196.095 C 28.575 195.713,28.496 196.120,28.501 197.000 M180.988 201.400 C 181.220 203.289,181.524 205.021,182.356 209.200 C 182.700 210.927,182.716 210.943,182.750 209.600 C 182.770 208.830,182.519 206.940,182.193 205.400 C 181.867 203.860,181.597 202.150,181.594 201.600 C 181.591 201.050,181.398 200.330,181.165 200.000 C 180.857 199.562,180.809 199.939,180.988 201.400 M28.501 203.000 C 28.505 203.880,28.587 204.193,28.683 203.695 C 28.779 203.198,28.775 202.478,28.675 202.095 C 28.575 201.713,28.496 202.120,28.501 203.000 M371.260 203.267 C 371.227 203.854,371.096 204.664,370.970 205.067 C 370.752 205.760,370.765 205.761,371.195 205.090 C 371.446 204.699,371.577 203.889,371.486 203.290 L 371.320 202.200 371.260 203.267 M79.062 204.600 C 79.196 205.480,79.372 206.275,79.453 206.367 C 79.756 206.710,79.529 204.568,79.181 203.800 C 78.929 203.242,78.893 203.485,79.062 204.600 M182.809 211.600 C 182.806 212.230,183.346 215.492,184.233 220.200 L 184.761 223.000 184.558 220.120 C 184.447 218.535,184.185 216.647,183.978 215.922 C 183.770 215.198,183.597 214.064,183.594 213.403 C 183.591 212.741,183.413 211.930,183.200 211.600 C 182.855 211.067,182.812 211.067,182.809 211.600 M85.951 219.538 C 86.621 220.385,87.487 221.330,87.874 221.638 C 88.261 221.947,87.790 221.255,86.826 220.100 C 84.806 217.678,84.138 217.249,85.951 219.538 M38.600 222.000 C 40.128 223.540,41.469 224.800,41.579 224.800 C 41.689 224.800,40.528 223.540,39.000 222.000 C 37.472 220.460,36.131 219.200,36.021 219.200 C 35.911 219.200,37.072 220.460,38.600 222.000 M360.391 222.700 L 357.000 226.200 360.500 222.809 C 363.751 219.659,364.182 219.200,363.891 219.200 C 363.831 219.200,362.256 220.775,360.391 222.700 M309.785 224.100 L 307.800 226.200 309.900 224.215 C 311.055 223.123,312.000 222.178,312.000 222.115 C 312.000 221.817,311.629 222.149,309.785 224.100 M92.000 225.725 C 92.000 225.794,92.585 226.379,93.300 227.025 L 94.600 228.200 93.425 226.900 C 92.330 225.688,92.000 225.416,92.000 225.725 M306.175 227.300 L 305.000 228.600 306.300 227.425 C 307.015 226.779,307.600 226.194,307.600 226.125 C 307.600 225.816,307.270 226.088,306.175 227.300 M101.800 233.396 C 102.694 234.139,105.228 235.509,104.600 234.910 C 104.380 234.700,103.480 234.124,102.600 233.630 C 101.720 233.135,101.360 233.030,101.800 233.396 M280.100 242.412 C 278.761 242.951,279.011 243.224,280.400 242.740 C 281.060 242.510,281.600 242.249,281.600 242.161 C 281.600 241.924,281.113 242.005,280.100 242.412 M144.033 250.544 C 144.125 250.623,144.740 250.808,145.400 250.956 C 146.276 251.152,146.438 251.115,146.000 250.818 C 145.460 250.453,143.632 250.198,144.033 250.544 M148.200 251.600 C 148.640 251.789,149.270 251.944,149.600 251.944 C 149.978 251.944,149.904 251.817,149.400 251.600 C 148.960 251.411,148.330 251.256,148.000 251.256 C 147.622 251.256,147.696 251.383,148.200 251.600 M250.600 251.600 C 250.096 251.817,250.022 251.944,250.400 251.944 C 250.730 251.944,251.360 251.789,251.800 251.600 C 252.304 251.383,252.378 251.256,252.000 251.256 C 251.670 251.256,251.040 251.411,250.600 251.600 M158.400 253.600 C 158.950 253.776,159.760 253.920,160.200 253.920 C 160.833 253.920,160.792 253.854,160.000 253.600 C 159.450 253.424,158.640 253.280,158.200 253.280 C 157.567 253.280,157.608 253.346,158.400 253.600 M240.000 253.600 C 239.208 253.854,239.167 253.920,239.800 253.920 C 240.240 253.920,241.050 253.776,241.600 253.600 C 242.392 253.346,242.433 253.280,241.800 253.280 C 241.360 253.280,240.550 253.424,240.000 253.600 M165.105 254.683 C 165.602 254.779,166.322 254.775,166.705 254.675 C 167.087 254.575,166.680 254.496,165.800 254.501 C 164.920 254.505,164.607 254.587,165.105 254.683 M233.505 254.683 C 234.002 254.779,234.722 254.775,235.105 254.675 C 235.487 254.575,235.080 254.496,234.200 254.501 C 233.320 254.505,233.007 254.587,233.505 254.683 M171.700 255.476 C 172.085 255.576,172.715 255.576,173.100 255.476 C 173.485 255.375,173.170 255.293,172.400 255.293 C 171.630 255.293,171.315 255.375,171.700 255.476 M226.900 255.476 C 227.285 255.576,227.915 255.576,228.300 255.476 C 228.685 255.375,228.370 255.293,227.600 255.293 C 226.830 255.293,226.515 255.375,226.900 255.476 M180.100 256.276 C 180.485 256.376,181.115 256.376,181.500 256.276 C 181.885 256.175,181.570 256.093,180.800 256.093 C 180.030 256.093,179.715 256.175,180.100 256.276 M218.705 256.283 C 219.202 256.379,219.922 256.375,220.305 256.275 C 220.687 256.175,220.280 256.096,219.400 256.101 C 218.520 256.105,218.207 256.187,218.705 256.283 M185.900 256.695 C 187.055 256.776,188.945 256.776,190.100 256.695 C 191.255 256.614,190.310 256.548,188.000 256.548 C 185.690 256.548,184.745 256.614,185.900 256.695 M209.900 256.695 C 211.055 256.776,212.945 256.776,214.100 256.695 C 215.255 256.614,214.310 256.548,212.000 256.548 C 209.690 256.548,208.745 256.614,209.900 256.695 M120.400 257.194 C 120.730 257.411,121.435 257.591,121.967 257.594 C 123.251 257.602,122.925 257.375,121.200 257.058 C 120.215 256.877,119.978 256.918,120.400 257.194 M196.700 257.098 C 198.515 257.172,201.485 257.172,203.300 257.098 C 205.115 257.023,203.630 256.963,200.000 256.963 C 196.370 256.963,194.885 257.023,196.700 257.098 M278.200 257.200 C 277.093 257.482,277.077 257.509,278.000 257.547 C 278.550 257.569,279.270 257.413,279.600 257.200 C 280.281 256.760,279.929 256.760,278.200 257.200 M272.000 258.400 C 271.208 258.654,271.167 258.720,271.800 258.720 C 272.240 258.720,273.050 258.576,273.600 258.400 C 274.392 258.146,274.433 258.080,273.800 258.080 C 273.360 258.080,272.550 258.224,272.000 258.400 M131.600 259.194 C 131.930 259.411,132.635 259.591,133.167 259.594 C 134.451 259.602,134.125 259.375,132.400 259.058 C 131.415 258.877,131.178 258.918,131.600 259.194 M267.000 259.200 C 265.893 259.482,265.877 259.509,266.800 259.547 C 267.350 259.569,268.070 259.413,268.400 259.200 C 269.081 258.760,268.729 258.760,267.000 259.200 M260.500 260.276 C 260.885 260.376,261.515 260.376,261.900 260.276 C 262.285 260.175,261.970 260.093,261.200 260.093 C 260.430 260.093,260.115 260.175,260.500 260.276 M146.900 261.476 C 147.285 261.576,147.915 261.576,148.300 261.476 C 148.685 261.375,148.370 261.293,147.600 261.293 C 146.830 261.293,146.515 261.375,146.900 261.476 M252.100 261.476 C 252.485 261.576,253.115 261.576,253.500 261.476 C 253.885 261.375,253.570 261.293,252.800 261.293 C 252.030 261.293,251.715 261.375,252.100 261.476 M154.305 262.283 C 154.802 262.379,155.522 262.375,155.905 262.275 C 156.287 262.175,155.880 262.096,155.000 262.101 C 154.120 262.105,153.807 262.187,154.305 262.283 M244.305 262.283 C 244.802 262.379,245.522 262.375,245.905 262.275 C 246.287 262.175,245.880 262.096,245.000 262.101 C 244.120 262.105,243.807 262.187,244.305 262.283 M157.905 262.683 C 158.402 262.779,159.122 262.775,159.505 262.675 C 159.887 262.575,159.480 262.496,158.600 262.501 C 157.720 262.505,157.407 262.587,157.905 262.683 M240.705 262.683 C 241.202 262.779,241.922 262.775,242.305 262.675 C 242.687 262.575,242.280 262.496,241.400 262.501 C 240.520 262.505,240.207 262.587,240.705 262.683 M164.800 263.216 C 165.799 263.520,171.082 263.730,170.767 263.454 C 170.675 263.373,169.070 263.218,167.200 263.110 C 165.330 263.001,164.250 263.049,164.800 263.216 M231.800 263.200 L 229.000 263.459 231.600 263.482 C 233.030 263.495,234.740 263.368,235.400 263.200 C 236.906 262.817,235.948 262.817,231.800 263.200 M174.500 263.887 C 175.105 263.978,176.095 263.978,176.700 263.887 C 177.305 263.795,176.810 263.720,175.600 263.720 C 174.390 263.720,173.895 263.795,174.500 263.887 M223.705 263.887 C 224.314 263.979,225.214 263.977,225.705 263.882 C 226.197 263.787,225.700 263.711,224.600 263.714 C 223.500 263.717,223.097 263.795,223.705 263.887 M183.100 264.296 C 184.475 264.374,186.725 264.374,188.100 264.296 C 189.475 264.218,188.350 264.154,185.600 264.154 C 182.850 264.154,181.725 264.218,183.100 264.296 M211.900 264.296 C 213.275 264.374,215.525 264.374,216.900 264.296 C 218.275 264.218,217.150 264.154,214.400 264.154 C 211.650 264.154,210.525 264.218,211.900 264.296 M196.900 264.697 C 198.605 264.772,201.395 264.772,203.100 264.697 C 204.805 264.622,203.410 264.561,200.000 264.561 C 196.590 264.561,195.195 264.622,196.900 264.697 " stroke="none" fill="#ebb9b9" fill-rule="evenodd"></path></g></svg>