<svg id="svg" version="1.1" xmlns="http://www.w3.org/2000/svg" xmlns:xlink="http://www.w3.org/1999/xlink" width="400" height="503.33333333333337" viewBox="0, 0, 400,503.33333333333337"><g id="svgg"><path id="path0" d="M186.888 14.083 C 184.945 19.685,182.608 28.802,181.804 33.921 L 181.580 35.341 144.331 35.329 L 107.081 35.317 104.291 36.932 C 99.288 39.828,94.766 42.936,87.097 48.750 L 86.028 49.561 93.568 49.781 C 107.068 50.173,115.084 50.070,115.908 49.494 C 116.306 49.215,118.801 47.728,121.453 46.188 L 126.275 43.389 135.054 43.208 C 139.883 43.108,154.146 43.020,166.750 43.013 L 189.667 43.000 189.667 26.833 L 189.667 10.667 188.870 10.667 C 188.158 10.667,187.946 11.033,186.888 14.083 M205.953 11.750 C 205.887 12.346,205.874 19.621,205.923 27.917 L 206.013 43.000 226.757 43.007 C 238.166 43.011,252.149 43.106,257.830 43.219 L 268.160 43.424 270.497 44.826 C 271.782 45.597,274.301 47.085,276.095 48.132 L 279.357 50.036 289.762 50.019 C 295.484 50.010,304.024 49.904,308.739 49.783 L 317.310 49.563 314.572 47.543 C 306.538 41.618,300.664 37.712,296.772 35.708 C 296.244 35.437,284.756 35.333,255.068 35.333 L 214.091 35.333 213.521 32.417 C 211.412 21.630,208.038 10.667,206.828 10.667 C 206.223 10.667,206.049 10.882,205.953 11.750 M172.588 51.300 C 170.852 53.085,169.941 54.905,169.344 57.780 L 168.953 59.667 121.503 59.667 L 74.053 59.667 71.686 61.838 C 68.877 64.416,65.124 68.451,62.895 71.289 L 61.289 73.333 72.615 73.333 L 83.941 73.333 86.044 70.833 L 88.146 68.333 138.573 68.333 L 189.000 68.333 189.000 59.218 L 189.000 50.102 184.948 49.885 C 182.719 49.765,179.381 49.669,177.531 49.672 L 174.167 49.677 172.588 51.300 M208.919 50.077 C 208.796 50.445,209.639 65.950,209.852 67.250 L 210.030 68.333 260.151 68.333 L 310.271 68.333 311.719 70.078 C 312.515 71.038,313.456 72.163,313.810 72.578 L 314.454 73.333 328.060 73.333 C 335.544 73.333,341.667 73.206,341.667 73.051 C 341.667 72.517,337.226 67.494,333.297 63.584 L 329.362 59.669 281.764 59.584 L 234.167 59.500 233.966 57.636 C 233.748 55.608,232.607 53.242,230.898 51.275 L 229.833 50.050 219.419 49.935 C 213.691 49.871,208.966 49.935,208.919 50.077 M166.300 76.616 C 164.652 77.661,163.045 79.518,162.134 81.428 L 161.543 82.667 107.339 82.667 L 53.135 82.667 51.950 83.917 C 48.879 87.157,43.336 95.596,43.334 97.036 C 43.334 97.435,43.610 97.551,44.417 97.490 C 45.013 97.445,49.193 97.392,53.706 97.371 L 61.911 97.333 62.773 96.032 C 63.246 95.316,64.189 94.191,64.868 93.532 L 66.102 92.333 127.218 92.333 L 188.333 92.333 188.333 84.217 L 188.333 76.100 185.282 75.883 C 183.604 75.764,178.983 75.667,175.014 75.667 L 167.797 75.667 166.300 76.616 M211.552 82.417 C 211.971 85.946,212.404 89.621,212.514 90.583 L 212.715 92.333 272.679 92.333 L 332.642 92.333 334.238 94.283 C 335.115 95.356,335.983 96.472,336.167 96.764 C 336.528 97.339,360.000 97.807,360.000 97.239 C 360.000 96.428,355.729 89.142,354.109 87.190 C 353.642 86.627,352.515 85.379,351.603 84.417 L 349.947 82.667 295.852 82.667 L 241.758 82.667 241.758 81.405 C 241.758 79.864,240.943 78.215,239.558 76.950 L 238.518 76.000 224.654 76.000 L 210.790 76.000 211.552 82.417 M153.825 100.142 C 152.420 100.987,149.819 104.182,149.261 105.750 L 148.935 106.667 92.865 106.667 L 36.796 106.667 34.563 111.000 L 32.330 115.333 109.999 115.333 L 187.667 115.333 187.708 108.333 C 187.731 104.483,187.769 100.921,187.792 100.417 L 187.833 99.500 171.500 99.418 L 155.167 99.336 153.825 100.142 M213.443 100.417 C 213.544 101.013,213.895 104.612,214.222 108.417 L 214.817 115.333 292.742 115.333 C 335.601 115.333,370.667 115.260,370.667 115.170 C 370.667 115.080,369.732 113.130,368.590 110.837 L 366.512 106.667 310.506 106.666 L 254.500 106.665 253.576 104.916 C 252.464 102.811,250.866 100.981,249.312 100.034 C 248.188 99.349,247.841 99.336,230.713 99.335 L 213.259 99.333 213.443 100.417 M161.592 122.995 L 145.684 123.167 144.206 124.558 C 143.393 125.323,142.161 126.973,141.467 128.224 C 140.773 129.476,140.047 130.611,139.853 130.746 C 139.659 130.881,113.859 130.992,82.520 130.992 C 51.182 130.992,25.438 131.107,25.313 131.246 C 25.187 131.386,24.450 133.150,23.675 135.167 C 22.899 137.183,22.189 139.021,22.097 139.250 C 21.963 139.583,38.591 139.667,104.579 139.667 L 187.230 139.667 187.447 134.917 C 187.566 132.304,187.665 128.479,187.665 126.417 L 187.667 122.667 182.583 122.745 C 179.787 122.788,170.341 122.901,161.592 122.995 M216.453 127.206 C 216.575 129.751,216.769 133.596,216.884 135.750 L 217.094 139.667 299.209 139.667 L 381.324 139.667 380.635 137.917 C 380.256 136.954,379.487 135.004,378.926 133.583 C 378.244 131.857,377.728 131.000,377.370 130.999 C 377.075 130.998,351.271 130.960,320.027 130.915 L 263.221 130.833 262.344 129.135 C 261.069 126.669,259.062 124.049,258.048 123.527 C 257.350 123.168,252.917 123.022,236.699 122.826 L 216.232 122.579 216.453 127.206 M218.000 146.886 C 218.000 148.165,219.333 162.088,219.503 162.583 C 219.664 163.053,387.178 163.220,387.426 162.750 C 387.499 162.612,387.096 160.513,386.529 158.083 L 385.500 153.667 325.167 153.650 L 264.833 153.633 263.916 151.733 C 262.889 149.604,261.561 148.027,259.776 146.816 L 258.574 146.000 238.287 146.000 L 218.000 146.000 218.000 146.886 M141.869 148.417 C 140.732 149.563,139.470 151.212,139.065 152.083 L 138.330 153.667 77.998 153.667 C 44.816 153.667,17.667 153.755,17.667 153.863 C 17.667 153.971,17.217 156.007,16.667 158.387 C 16.117 160.767,15.667 162.779,15.667 162.857 C 15.667 162.936,54.119 163.000,101.116 163.000 L 186.566 163.000 186.781 159.750 C 186.900 157.962,186.997 154.212,186.998 151.417 L 187.000 146.333 165.469 146.333 L 143.938 146.333 141.869 148.417 M220.660 170.583 C 220.656 171.271,220.907 175.096,221.218 179.083 L 221.783 186.333 306.391 186.333 L 391.000 186.333 390.989 185.583 C 390.984 185.171,390.763 183.258,390.500 181.333 C 390.237 179.408,390.016 177.721,390.011 177.583 C 390.005 177.446,360.031 177.333,323.403 177.333 L 256.806 177.333 255.868 175.421 C 254.737 173.115,252.597 170.487,251.308 169.820 C 250.524 169.415,247.885 169.333,235.517 169.333 L 220.667 169.333 220.660 170.583 M151.082 170.862 C 149.876 171.813,147.209 175.420,146.852 176.583 L 146.622 177.333 79.984 177.333 L 13.346 177.333 13.193 178.083 C 12.971 179.175,12.333 184.754,12.333 185.606 L 12.333 186.333 99.278 186.333 C 147.097 186.333,186.285 186.271,186.361 186.195 C 186.437 186.119,186.457 182.444,186.405 178.028 L 186.310 170.000 169.238 170.004 L 152.167 170.007 151.082 170.862 M158.165 193.856 C 156.291 195.128,153.333 199.206,153.333 200.518 C 153.333 200.937,144.058 201.000,82.366 201.000 L 11.399 201.000 11.352 205.667 L 11.305 210.333 92.819 210.333 C 137.652 210.333,174.332 210.221,174.330 210.083 C 174.329 209.946,173.957 206.158,173.503 201.667 C 173.050 197.175,172.676 193.387,172.673 193.250 C 172.653 192.449,159.424 193.002,158.165 193.856 M222.848 196.417 C 222.969 198.112,223.241 201.900,223.451 204.833 L 223.833 210.167 307.750 210.251 L 391.667 210.335 391.667 205.667 L 391.667 201.000 320.917 200.986 L 250.167 200.973 249.426 199.403 C 246.692 193.608,245.956 193.333,233.185 193.333 L 222.626 193.333 222.848 196.417 M226.000 216.931 L 225.167 217.028 225.984 225.014 L 226.802 233.000 308.168 233.000 L 389.535 233.000 389.948 229.750 C 390.175 227.963,390.449 225.862,390.557 225.083 L 390.754 223.667 323.127 223.664 L 255.500 223.662 254.703 222.266 C 253.637 220.400,251.190 217.821,250.071 217.384 C 249.256 217.067,228.228 216.670,226.000 216.931 M153.542 217.823 C 151.675 218.488,149.978 219.969,148.833 221.931 L 147.833 223.644 80.250 223.656 L 12.667 223.667 12.666 224.417 C 12.666 224.829,12.915 226.929,13.220 229.083 L 13.773 233.000 95.053 233.000 C 172.241 233.000,176.333 232.971,176.333 232.417 C 176.333 232.096,176.035 228.758,175.671 225.000 C 175.307 221.242,175.007 217.979,175.004 217.750 C 174.998 217.118,155.334 217.184,153.542 217.823 M151.117 240.645 C 148.055 240.800,147.263 240.951,146.625 241.500 C 145.119 242.796,143.678 244.517,142.927 245.917 L 142.168 247.333 79.417 247.333 C 29.434 247.333,16.668 247.418,16.675 247.750 C 16.680 247.979,17.102 249.817,17.613 251.833 L 18.542 255.500 98.604 255.584 C 174.699 255.664,178.667 255.639,178.670 255.084 C 178.675 254.196,177.662 242.652,177.471 241.417 L 177.303 240.333 166.068 240.395 C 159.889 240.429,153.161 240.542,151.117 240.645 M228.548 247.583 C 228.957 251.571,229.302 255.021,229.313 255.250 C 229.336 255.717,383.839 255.878,384.529 255.412 C 384.728 255.277,385.225 253.742,385.632 252.000 C 386.040 250.258,386.455 248.496,386.556 248.083 L 386.739 247.333 323.869 247.333 C 287.476 247.333,261.000 247.209,261.000 247.037 C 261.000 246.691,258.958 243.674,257.903 242.460 C 256.002 240.274,256.463 240.333,241.445 240.333 L 227.802 240.333 228.548 247.583 M141.367 263.240 C 140.060 263.884,137.266 267.494,136.458 269.583 L 135.909 271.000 79.788 271.000 C 44.565 271.000,23.667 271.118,23.667 271.317 C 23.667 271.491,24.292 273.216,25.055 275.150 L 26.444 278.667 103.759 278.667 L 181.074 278.667 180.890 277.583 C 180.789 276.987,180.537 273.725,180.331 270.333 C 180.125 266.942,179.889 263.829,179.805 263.417 L 179.654 262.667 161.077 262.674 C 144.385 262.681,142.385 262.738,141.367 263.240 M215.995 263.417 C 215.993 263.829,215.769 267.167,215.498 270.833 C 215.227 274.500,215.004 277.762,215.003 278.083 C 215.000 278.637,219.072 278.666,295.917 278.661 L 376.833 278.655 378.082 275.411 C 378.769 273.627,379.423 271.904,379.535 271.583 C 379.728 271.029,376.920 271.000,323.619 270.996 L 267.500 270.993 266.230 268.574 C 264.862 265.967,263.462 264.185,262.053 263.256 C 261.230 262.713,259.548 262.671,238.583 262.669 L 216.000 262.667 215.995 263.417 M218.859 285.743 C 218.633 286.504,217.715 301.475,217.877 301.738 C 218.072 302.053,361.609 302.041,363.578 301.726 C 364.950 301.506,365.055 301.395,367.275 297.833 L 369.561 294.167 320.781 294.082 L 272.001 293.998 271.230 292.400 C 270.017 289.887,268.137 287.228,266.935 286.326 L 265.833 285.500 242.409 285.410 C 223.701 285.338,218.959 285.405,218.859 285.743 M137.333 286.373 C 135.790 286.985,132.000 291.445,132.000 292.649 C 132.000 294.017,133.586 293.975,82.405 293.983 C 55.691 293.988,33.804 293.993,33.768 293.996 C 33.624 294.005,37.779 300.876,38.258 301.420 C 38.953 302.207,182.561 302.331,182.863 301.544 C 182.956 301.300,182.800 298.007,182.516 294.226 C 182.232 290.446,182.000 287.048,182.000 286.676 C 182.000 285.913,139.225 285.622,137.333 286.373 M138.223 309.583 L 129.612 309.678 127.870 311.422 C 126.912 312.382,125.687 313.954,125.148 314.916 L 124.167 316.666 85.917 316.666 C 64.879 316.667,47.667 316.744,47.667 316.838 C 47.667 316.933,48.529 318.108,49.583 319.450 C 50.638 320.791,51.950 322.511,52.500 323.270 L 53.500 324.651 119.417 324.659 L 185.333 324.667 185.337 323.917 C 185.342 322.753,184.323 310.926,184.145 310.083 L 183.987 309.333 165.410 309.411 C 155.193 309.453,142.958 309.531,138.223 309.583 M217.537 316.250 C 217.221 320.054,216.893 323.505,216.808 323.917 L 216.654 324.668 283.242 324.584 L 349.830 324.500 352.738 320.667 L 355.646 316.833 317.336 316.749 L 279.026 316.664 278.123 315.082 C 274.561 308.848,277.340 309.333,245.235 309.333 L 218.111 309.333 217.537 316.250 M144.068 331.583 L 125.303 331.672 123.876 333.141 C 123.074 333.966,121.802 335.927,120.974 337.614 L 119.500 340.619 93.750 340.643 C 79.587 340.656,68.000 340.750,68.000 340.851 C 68.000 341.831,73.376 346.597,75.972 347.917 L 77.446 348.667 132.370 348.667 C 162.578 348.667,187.369 348.545,187.461 348.396 C 187.553 348.247,187.341 344.535,186.990 340.146 C 186.638 335.757,186.347 331.979,186.342 331.750 C 186.335 331.423,183.800 331.351,174.583 331.414 C 168.121 331.458,154.389 331.534,144.068 331.583 M216.861 333.083 C 216.398 336.730,215.629 348.003,215.822 348.316 C 215.973 348.559,232.900 348.667,271.135 348.667 L 326.230 348.667 328.365 347.287 C 330.451 345.939,335.333 341.494,335.333 340.944 C 335.333 340.791,323.742 340.667,309.574 340.667 L 283.815 340.667 282.762 338.493 C 281.278 335.426,280.014 333.580,278.696 332.553 L 277.559 331.667 247.300 331.667 L 217.041 331.667 216.861 333.083 M131.863 354.583 L 119.225 354.675 117.807 355.837 C 117.027 356.476,115.739 358.118,114.944 359.485 L 113.500 361.970 103.167 362.068 L 92.833 362.167 94.833 363.766 C 95.933 364.645,98.471 366.408,100.473 367.682 L 104.114 370.000 146.723 370.000 L 189.333 370.000 189.333 368.744 C 189.333 367.040,188.354 355.271,188.169 354.750 C 188.023 354.338,172.200 354.291,131.863 354.583 M214.876 356.210 C 214.767 357.286,214.523 360.192,214.334 362.667 C 214.146 365.142,213.909 367.804,213.809 368.583 L 213.626 370.000 256.198 370.000 L 298.769 370.000 300.938 368.787 C 304.635 366.720,310.000 362.868,310.000 362.282 C 310.000 362.127,305.435 362.000,299.856 362.000 C 290.060 362.000,289.704 361.977,289.503 361.344 C 289.308 360.730,286.642 356.928,285.857 356.144 C 284.129 354.422,286.460 354.534,249.319 354.388 L 215.075 354.252 214.876 356.210 M122.000 376.990 C 126.914 380.776,145.273 387.926,160.000 391.789 C 169.680 394.328,190.949 397.496,191.904 396.540 C 191.996 396.448,191.755 392.121,191.369 386.924 C 190.983 381.727,190.667 377.218,190.667 376.904 C 190.667 376.369,188.504 376.334,155.917 376.341 C 121.544 376.348,121.176 376.355,122.000 376.990 M212.522 378.417 C 212.303 380.729,211.778 387.977,211.444 393.284 L 211.228 396.735 214.197 396.518 C 241.669 394.508,276.312 385.324,288.425 376.840 C 289.074 376.385,285.221 376.333,250.934 376.333 L 212.720 376.333 212.522 378.417 M241.969 416.678 C 228.919 418.203,221.608 428.065,225.646 438.693 C 225.982 439.576,226.174 440.382,226.073 440.483 C 225.972 440.584,178.514 440.667,120.611 440.667 L 15.333 440.667 15.333 445.000 L 15.333 449.333 20.364 449.333 L 25.395 449.333 23.895 450.791 C 16.168 458.301,18.492 472.177,28.244 476.750 C 35.216 480.019,46.116 479.634,54.035 475.839 C 57.601 474.130,57.333 473.660,57.333 481.625 L 57.333 488.583 58.375 488.792 C 59.704 489.057,68.923 489.056,69.917 488.790 L 70.667 488.589 70.667 468.961 L 70.667 449.333 77.333 449.333 L 84.000 449.333 84.000 468.958 L 84.000 488.583 85.042 488.792 C 86.370 489.057,95.257 489.056,96.250 488.790 L 97.000 488.589 97.000 468.961 L 97.000 449.333 121.667 449.333 L 146.333 449.333 146.333 454.039 C 146.333 458.372,146.287 458.729,145.750 458.551 C 145.429 458.444,144.089 457.977,142.773 457.512 C 133.074 454.085,119.079 454.680,112.214 458.809 C 104.136 463.669,105.367 474.641,114.477 478.989 C 122.007 482.583,135.205 482.532,144.167 478.876 L 146.167 478.060 146.333 483.447 L 146.500 488.833 153.083 488.866 L 159.667 488.898 159.667 469.116 L 159.667 449.333 174.917 449.341 C 188.946 449.347,190.274 449.397,191.503 449.955 C 197.029 452.466,197.661 461.253,192.500 463.833 L 190.500 464.833 179.250 464.937 L 168.000 465.040 168.000 469.353 L 168.000 473.667 172.431 473.667 L 176.861 473.667 178.105 475.792 C 181.744 482.014,185.501 486.284,188.667 487.797 L 190.833 488.833 201.594 488.945 L 212.354 489.056 212.260 484.778 L 212.167 480.500 203.667 480.420 C 193.586 480.326,193.303 480.289,192.166 478.939 C 191.439 478.074,189.333 474.323,189.333 473.891 C 189.333 473.820,190.563 473.660,192.065 473.535 C 199.145 472.944,204.651 470.319,207.166 466.335 C 209.854 462.077,209.640 455.064,206.708 451.333 C 206.203 450.692,205.679 449.979,205.542 449.750 C 205.346 449.420,207.454 449.333,215.647 449.333 L 226.000 449.333 226.000 468.994 L 226.000 488.654 226.772 488.848 C 227.196 488.954,230.159 488.995,233.355 488.937 L 239.167 488.833 239.253 469.083 L 239.339 449.333 261.013 449.333 L 282.688 449.333 282.594 453.250 L 282.500 457.167 271.000 457.232 C 256.684 457.314,253.969 457.785,251.057 460.691 C 247.419 464.320,247.668 470.653,251.612 474.777 C 258.857 482.354,284.025 482.221,291.715 474.565 C 295.376 470.921,295.333 471.103,295.333 459.160 L 295.333 449.333 301.333 449.333 L 307.333 449.333 307.333 461.629 L 307.333 473.924 296.333 480.207 C 290.283 483.663,285.333 486.584,285.333 486.699 C 285.333 486.898,288.735 489.168,292.619 491.561 C 293.602 492.166,294.577 492.556,294.786 492.427 C 294.995 492.298,297.767 490.124,300.945 487.596 C 307.786 482.154,307.284 482.285,307.404 485.917 L 307.500 488.833 313.833 488.833 L 320.167 488.833 320.253 469.083 L 320.339 449.333 342.014 449.333 L 363.689 449.333 363.594 453.036 L 363.500 456.739 356.000 456.688 C 343.758 456.604,338.937 457.329,335.135 459.824 C 329.353 463.618,330.186 470.762,336.833 474.386 C 339.796 476.001,340.796 476.108,354.833 476.309 C 365.235 476.458,368.350 476.601,369.000 476.958 C 373.253 479.297,371.944 483.037,366.237 484.848 C 356.996 487.781,343.193 485.925,336.551 480.855 C 334.627 479.387,334.937 479.362,331.976 481.218 C 330.614 482.071,328.778 483.218,327.897 483.766 L 326.293 484.762 327.897 486.185 C 336.147 493.508,367.039 495.321,378.217 489.138 C 385.578 485.067,386.267 475.067,379.412 471.814 C 376.321 470.347,375.367 470.256,360.667 470.027 C 343.644 469.761,343.109 469.621,344.272 465.739 C 344.944 463.498,344.790 463.520,360.833 463.333 L 375.167 463.167 375.257 456.250 L 375.347 449.333 382.840 449.333 L 390.333 449.333 390.333 445.000 L 390.333 440.667 336.240 440.667 L 282.146 440.667 280.877 438.083 C 273.308 422.675,258.825 414.707,241.969 416.678 M255.289 425.677 C 262.804 427.759,270.228 434.260,270.912 439.356 L 271.088 440.667 254.794 440.656 L 238.500 440.646 237.910 439.835 C 236.438 437.811,236.240 432.321,237.545 429.702 C 239.805 425.166,247.306 423.465,255.289 425.677 M57.333 458.334 L 57.333 467.335 55.325 468.813 C 49.073 473.416,39.436 472.969,34.725 467.858 C 30.267 463.022,30.741 455.236,35.759 450.847 L 37.489 449.333 47.411 449.333 L 57.333 449.333 57.333 458.334 M140.060 462.954 C 141.469 463.290,143.454 463.925,144.471 464.365 L 146.322 465.167 146.328 468.204 L 146.333 471.241 143.706 472.442 C 131.869 477.852,118.996 475.761,119.001 468.427 C 119.005 463.015,129.198 460.366,140.060 462.954 M282.595 466.067 L 282.500 469.468 281.141 470.504 C 278.800 472.288,276.464 472.837,271.333 472.810 C 263.086 472.766,260.421 471.095,261.385 466.574 C 262.118 463.137,263.452 462.735,274.262 462.697 L 282.690 462.667 282.595 466.067 " stroke="none" fill="#242c75" fill-rule="evenodd"></path><path id="path1" d="M0.000 251.667 L 0.000 503.333 200.000 503.333 L 400.000 503.333 400.000 251.667 L 400.000 0.000 200.000 0.000 L 0.000 0.000 0.000 251.667 M189.920 26.750 L 189.833 43.167 158.167 43.333 L 126.500 43.500 123.833 45.131 C 122.367 46.029,120.642 47.056,120.000 47.415 C 119.358 47.774,117.980 48.583,116.936 49.213 L 115.039 50.358 100.353 50.126 C 92.275 49.998,85.667 49.789,85.667 49.661 C 85.667 49.023,101.436 38.044,105.350 35.957 L 106.833 35.167 144.136 35.000 L 181.439 34.833 182.193 31.000 C 184.595 18.790,187.397 10.333,189.039 10.333 L 190.006 10.333 189.920 26.750 M208.068 11.583 C 209.526 15.025,211.804 23.215,213.191 30.000 C 213.697 32.475,214.211 34.617,214.332 34.760 C 214.454 34.904,232.908 35.014,255.340 35.005 L 296.126 34.990 299.146 36.729 C 302.091 38.424,306.078 41.049,309.553 43.581 C 310.499 44.270,312.712 45.878,314.470 47.155 C 316.228 48.432,317.667 49.572,317.667 49.689 C 317.667 49.806,309.069 50.011,298.560 50.144 L 279.453 50.387 277.810 49.479 C 276.906 48.980,275.792 48.312,275.333 47.996 C 274.875 47.679,273.000 46.538,271.167 45.460 L 267.833 43.500 236.833 43.333 L 205.833 43.167 205.747 26.750 L 205.660 10.333 206.599 10.333 C 207.368 10.333,207.634 10.560,208.068 11.583 M198.630 37.167 C 198.851 39.367,199.395 44.542,199.840 48.667 C 200.286 52.792,201.259 61.942,202.003 69.000 C 202.747 76.058,203.645 84.533,203.999 87.833 C 204.587 93.320,205.588 102.725,206.819 114.333 C 207.082 116.808,207.605 121.683,207.982 125.167 C 208.604 130.904,211.522 158.382,212.324 166.047 C 212.763 170.242,213.468 176.862,214.503 186.500 C 214.975 190.900,215.801 198.700,216.338 203.833 C 216.874 208.967,217.539 215.267,217.815 217.833 C 220.280 240.752,221.328 251.117,221.194 251.251 C 221.036 251.408,220.048 250.860,216.833 248.831 C 212.166 245.887,207.441 243.015,206.971 242.837 C 206.489 242.655,206.421 249.528,206.208 319.724 C 206.026 379.440,205.882 396.868,205.570 397.067 C 204.991 397.435,200.401 397.393,199.691 397.013 C 199.206 396.753,199.051 396.080,198.867 393.430 C 198.743 391.635,198.424 387.617,198.159 384.500 C 196.219 361.689,189.742 284.633,187.498 257.667 C 187.231 254.458,186.414 244.708,185.682 236.000 C 184.950 227.292,183.822 213.867,183.176 206.167 C 182.529 198.467,181.908 191.379,181.795 190.417 C 181.558 188.399,181.818 188.248,183.439 189.460 C 185.136 190.730,195.105 197.340,195.185 197.249 C 195.225 197.204,195.577 176.167,195.967 150.500 C 196.358 124.833,196.821 95.208,196.996 84.667 C 197.171 74.125,197.416 57.930,197.540 48.679 C 197.664 39.427,197.870 32.152,197.998 32.512 C 198.125 32.872,198.410 34.967,198.630 37.167 M188.922 49.842 C 189.252 49.952,189.325 52.007,189.255 59.242 L 189.167 68.500 138.667 68.600 L 88.167 68.701 86.667 70.571 C 84.335 73.477,84.018 73.750,83.219 73.535 C 82.824 73.429,77.737 73.340,71.917 73.338 C 65.824 73.335,61.333 73.205,61.333 73.032 C 61.333 72.866,61.821 72.145,62.417 71.431 C 63.012 70.716,64.025 69.486,64.667 68.698 C 65.910 67.170,71.013 61.976,72.893 60.326 L 74.023 59.333 121.512 59.333 L 169.000 59.333 169.000 58.492 C 169.000 58.029,169.296 56.808,169.658 55.779 C 170.019 54.749,170.220 53.741,170.104 53.537 C 169.988 53.333,170.018 53.280,170.171 53.419 C 170.325 53.558,170.686 53.319,170.975 52.888 C 171.828 51.614,173.159 50.131,173.742 49.804 C 174.261 49.514,188.044 49.548,188.922 49.842 M231.166 51.083 C 232.707 52.876,233.990 55.654,234.236 57.726 L 234.426 59.333 281.853 59.333 L 329.281 59.333 331.557 61.417 C 333.455 63.154,337.566 67.481,338.835 69.079 C 339.019 69.310,339.825 70.294,340.627 71.263 C 341.429 72.233,342.028 73.077,341.959 73.139 C 341.890 73.200,335.632 73.322,328.053 73.410 L 314.272 73.569 312.227 71.118 L 310.182 68.667 259.924 68.667 C 212.284 68.667,209.666 68.636,209.661 68.083 C 209.659 67.762,209.435 63.900,209.165 59.500 C 208.895 55.100,208.672 51.087,208.670 50.583 L 208.667 49.667 219.307 49.667 L 229.948 49.667 231.166 51.083 M182.422 75.665 L 188.678 75.667 188.589 84.083 L 188.500 92.500 127.292 92.584 L 66.083 92.668 64.792 94.116 C 64.081 94.913,63.125 96.044,62.667 96.630 L 61.833 97.696 52.267 97.598 L 42.701 97.500 43.959 95.000 C 46.049 90.846,47.701 88.430,51.028 84.666 L 52.795 82.667 106.981 82.667 L 161.168 82.667 161.999 81.083 C 164.446 76.424,166.535 75.255,172.000 75.487 C 174.292 75.584,178.982 75.665,182.422 75.665 M240.077 77.154 C 241.599 78.998,242.000 79.878,242.000 81.371 L 242.000 82.667 296.276 82.667 L 350.553 82.667 352.122 84.466 C 355.676 88.540,360.333 95.881,360.333 97.409 C 360.334 97.746,357.880 97.815,348.379 97.742 L 336.425 97.651 334.883 95.550 C 334.035 94.395,333.002 93.272,332.587 93.054 C 332.015 92.753,317.492 92.639,272.181 92.579 L 212.530 92.500 211.614 84.833 C 211.111 80.617,210.692 76.824,210.683 76.406 L 210.667 75.646 224.827 75.740 L 238.988 75.833 240.077 77.154 M188.072 107.195 C 188.124 111.702,188.104 115.452,188.028 115.528 C 187.773 115.782,31.943 115.671,32.056 115.417 C 32.117 115.279,33.136 113.254,34.320 110.917 L 36.473 106.667 92.487 106.663 L 148.500 106.659 149.112 105.380 C 149.931 103.671,151.946 101.056,153.107 100.196 C 154.104 99.458,155.300 99.412,182.072 99.074 L 187.977 99.000 188.072 107.195 M249.474 99.715 C 250.535 100.242,252.455 102.493,253.706 104.677 L 254.833 106.645 310.833 106.739 L 366.833 106.833 369.031 111.080 C 370.240 113.416,371.152 115.403,371.059 115.497 C 370.784 115.771,214.667 115.691,214.662 115.417 C 214.660 115.279,214.360 112.092,213.996 108.333 C 213.632 104.575,213.334 100.914,213.334 100.198 L 213.333 98.895 231.057 99.133 C 242.077 99.281,249.043 99.501,249.474 99.715 M187.667 131.165 L 187.667 139.664 104.801 139.749 C 59.226 139.795,21.763 139.723,21.551 139.588 C 21.279 139.415,21.299 139.342,21.619 139.338 C 21.890 139.335,21.992 139.126,21.873 138.816 C 21.764 138.531,21.800 138.377,21.954 138.472 C 22.108 138.567,22.403 138.087,22.610 137.406 C 22.817 136.724,23.483 134.967,24.090 133.500 L 25.195 130.833 82.514 130.748 L 139.833 130.663 140.910 128.581 C 142.209 126.071,143.753 124.141,145.140 123.295 C 146.115 122.700,147.204 122.669,166.917 122.668 L 187.667 122.667 187.667 131.165 M258.408 123.502 C 259.752 124.415,261.091 126.204,262.460 128.916 L 263.344 130.665 320.714 130.749 L 378.085 130.833 379.709 134.973 C 380.603 137.250,381.333 139.237,381.333 139.389 C 381.333 139.540,344.365 139.702,299.182 139.749 L 217.030 139.833 216.862 138.667 C 216.770 138.025,216.609 135.175,216.505 132.333 C 216.402 129.492,216.230 126.154,216.125 124.917 L 215.932 122.667 236.555 122.667 L 257.179 122.667 258.408 123.502 M247.372 146.000 L 259.637 146.000 261.423 147.750 C 262.406 148.712,263.630 150.362,264.144 151.417 L 265.078 153.333 325.331 153.333 L 385.583 153.333 385.778 154.250 C 385.885 154.754,386.408 156.929,386.940 159.083 L 387.907 163.000 303.537 163.000 L 219.167 162.999 219.076 161.583 C 219.026 160.804,218.687 157.041,218.324 153.221 C 217.960 149.401,217.762 146.115,217.883 145.919 C 218.036 145.672,220.703 145.629,226.606 145.781 C 231.282 145.902,240.627 146.000,247.372 146.000 M187.127 154.417 C 187.007 159.046,186.879 162.870,186.844 162.915 C 186.809 162.961,148.242 162.999,101.140 163.001 L 15.500 163.004 15.603 162.252 C 15.660 161.839,16.123 159.700,16.632 157.500 L 17.558 153.500 77.813 153.423 L 138.068 153.345 139.424 151.097 C 142.750 145.582,140.562 146.003,165.924 146.001 L 187.347 146.000 187.127 154.417 M251.240 169.452 C 252.693 170.203,254.850 172.776,255.917 175.030 L 256.833 176.965 323.500 177.066 L 390.167 177.167 390.537 180.000 C 390.741 181.558,391.014 183.696,391.144 184.750 L 391.381 186.667 306.544 186.667 L 221.708 186.667 221.519 185.250 C 221.416 184.471,221.099 180.694,220.815 176.857 C 220.531 173.020,220.231 169.770,220.147 169.635 C 219.676 168.873,249.777 168.695,251.240 169.452 M186.589 178.250 L 186.678 186.667 99.339 186.667 C 17.404 186.667,12.000 186.632,12.000 186.101 C 12.000 185.789,12.252 183.614,12.559 181.267 L 13.118 177.000 79.809 176.986 L 146.500 176.973 147.267 175.337 C 148.122 173.513,150.750 170.418,151.811 169.986 C 152.190 169.832,160.150 169.734,169.500 169.770 L 186.500 169.833 186.589 178.250 M173.626 201.096 C 174.049 205.535,174.473 209.504,174.567 209.917 L 174.739 210.667 93.053 210.667 L 11.368 210.667 11.267 205.805 C 11.212 203.130,11.229 200.880,11.306 200.805 C 11.382 200.729,43.257 200.666,82.139 200.666 L 152.833 200.665 153.830 198.749 C 155.417 195.699,157.735 193.131,159.071 192.941 C 159.490 192.882,162.763 192.877,166.345 192.930 L 172.856 193.026 173.626 201.096 M245.105 193.710 C 246.324 194.340,248.253 196.590,249.369 198.683 L 250.426 200.667 321.222 200.667 L 392.018 200.667 391.926 205.583 L 391.833 210.500 307.750 210.584 C 250.032 210.642,223.667 210.560,223.667 210.323 C 223.667 210.015,222.867 198.940,222.554 194.917 L 222.431 193.333 233.404 193.333 C 240.904 193.333,244.608 193.452,245.105 193.710 M250.094 217.126 C 251.424 217.695,254.146 220.409,254.680 221.698 C 254.898 222.226,255.233 222.562,255.424 222.444 C 255.635 222.314,255.668 222.394,255.509 222.652 C 254.918 223.608,258.400 223.659,323.467 223.658 C 360.483 223.658,390.810 223.699,390.861 223.750 C 390.911 223.800,390.740 225.340,390.480 227.171 C 390.220 229.002,389.921 231.137,389.816 231.917 L 389.626 233.333 308.146 233.333 C 263.332 233.333,226.667 233.248,226.667 233.144 C 226.667 233.040,226.367 230.153,226.001 226.728 C 225.635 223.302,225.246 219.637,225.135 218.583 L 224.935 216.667 236.978 216.667 C 246.467 216.667,249.249 216.764,250.094 217.126 M175.799 224.333 C 176.117 228.092,176.458 231.654,176.559 232.251 L 176.741 233.335 95.125 233.251 L 13.509 233.167 12.967 228.793 C 12.669 226.387,12.321 224.250,12.193 224.043 C 12.065 223.836,12.157 223.666,12.397 223.664 C 12.637 223.663,42.908 223.661,79.667 223.661 C 152.997 223.660,147.693 223.789,148.509 221.980 C 149.079 220.715,151.325 218.392,152.553 217.797 C 153.194 217.487,174.689 217.043,175.028 217.333 C 175.135 217.425,175.482 220.575,175.799 224.333 M177.953 244.333 C 178.151 246.442,178.398 249.367,178.503 250.833 C 178.607 252.300,178.769 253.987,178.862 254.583 L 179.030 255.667 98.671 255.667 C 34.676 255.667,18.286 255.582,18.183 255.250 C 18.111 255.021,17.716 253.333,17.305 251.500 C 16.894 249.667,16.413 247.979,16.238 247.750 C 15.983 247.417,28.566 247.333,78.898 247.333 L 141.877 247.333 142.660 245.917 C 145.777 240.276,144.883 240.529,162.333 240.333 C 170.492 240.242,177.263 240.242,177.380 240.333 C 177.498 240.425,177.755 242.225,177.953 244.333 M255.836 240.622 C 257.407 241.335,258.956 243.007,260.375 245.523 L 261.397 247.333 323.976 247.333 C 358.395 247.333,386.632 247.410,386.726 247.504 C 386.819 247.597,386.450 249.472,385.905 251.670 L 384.914 255.667 307.020 255.667 L 229.125 255.667 228.537 249.750 C 228.213 246.496,227.864 242.971,227.760 241.917 L 227.572 240.000 241.036 240.007 C 253.338 240.014,254.615 240.067,255.836 240.622 M260.135 262.623 C 262.858 262.925,264.269 264.202,266.331 268.227 C 266.971 269.477,267.646 270.610,267.831 270.745 C 268.016 270.880,293.329 270.992,324.083 270.995 C 360.291 270.998,380.000 271.115,380.000 271.326 C 380.000 271.505,379.634 272.443,379.187 273.409 C 378.740 274.376,378.037 276.029,377.626 277.083 L 376.877 279.000 295.741 279.000 L 214.604 279.000 214.797 277.417 C 214.903 276.546,215.150 273.133,215.346 269.833 C 215.542 266.533,215.772 263.496,215.857 263.083 L 216.013 262.333 236.923 262.350 C 248.424 262.360,258.869 262.483,260.135 262.623 M180.007 263.250 C 180.011 263.571,180.234 266.683,180.502 270.167 C 180.771 273.650,180.992 277.063,180.995 277.751 L 181.000 279.001 103.640 278.917 L 26.280 278.833 25.122 275.833 C 24.484 274.183,23.821 272.691,23.648 272.517 C 23.475 272.343,23.333 271.893,23.333 271.517 L 23.333 270.833 79.417 270.915 L 135.500 270.998 136.833 268.425 C 137.567 267.010,138.852 265.136,139.689 264.260 L 141.211 262.667 160.605 262.667 C 178.852 262.667,180.000 262.701,180.007 263.250 M266.611 285.805 C 267.881 286.461,269.147 288.065,270.774 291.080 L 272.167 293.661 321.083 293.580 C 347.988 293.536,370.000 293.561,370.000 293.635 C 370.000 293.709,368.919 295.621,367.597 297.885 L 365.194 302.000 291.285 302.000 L 217.375 302.000 217.520 300.917 C 217.659 299.882,218.667 286.524,218.667 285.719 C 218.667 285.091,265.392 285.174,266.611 285.805 M182.536 292.074 C 182.768 295.241,183.047 298.771,183.155 299.917 L 183.352 302.000 110.735 302.000 L 38.118 302.000 35.726 298.030 C 34.410 295.846,33.333 293.971,33.333 293.863 C 33.333 293.755,55.302 293.667,82.153 293.667 L 130.972 293.667 131.882 292.083 C 133.075 290.008,134.957 287.594,136.000 286.801 C 136.866 286.142,180.999 285.441,181.807 286.074 C 181.976 286.206,182.304 288.906,182.536 292.074 M184.333 310.314 C 184.333 310.853,184.469 311.378,184.635 311.481 C 184.801 311.583,184.868 311.935,184.782 312.261 C 184.697 312.588,184.861 315.419,185.147 318.554 C 185.433 321.688,185.667 324.421,185.667 324.626 C 185.667 324.901,168.181 325.000,119.568 325.000 L 53.470 325.000 52.161 323.283 C 51.440 322.338,50.690 321.401,50.493 321.199 C 50.296 320.998,49.625 320.083,49.002 319.167 C 48.379 318.250,47.636 317.317,47.351 317.094 C 46.943 316.774,55.019 316.686,85.392 316.677 L 123.951 316.667 125.027 314.787 C 126.328 312.512,127.821 310.766,129.167 309.946 C 130.114 309.368,131.596 309.336,157.250 309.335 L 184.333 309.333 184.333 310.314 M273.958 309.812 C 275.224 310.467,277.112 312.618,278.359 314.827 L 279.397 316.667 317.698 316.667 C 338.764 316.667,356.000 316.737,356.000 316.823 C 356.000 316.909,354.858 318.441,353.462 320.226 C 352.066 322.012,350.698 323.817,350.423 324.237 L 349.923 325.000 283.246 325.000 L 216.568 325.000 216.772 322.417 C 217.331 315.331,217.684 311.398,217.848 310.417 L 218.030 309.333 245.532 309.333 C 268.774 309.333,273.176 309.407,273.958 309.812 M187.126 339.417 C 187.451 343.863,187.792 347.762,187.882 348.083 C 188.037 348.637,185.227 348.667,132.227 348.667 L 76.409 348.667 74.288 347.251 C 71.644 345.486,68.057 342.054,67.929 341.167 C 67.834 340.506,68.048 340.499,93.549 340.415 L 119.265 340.329 120.716 337.419 C 121.516 335.813,122.849 333.798,123.689 332.921 L 125.211 331.333 155.872 331.333 L 186.533 331.333 187.126 339.417 M278.372 331.919 C 280.047 333.034,282.912 337.276,283.457 339.447 L 283.681 340.341 309.507 340.254 L 335.333 340.167 335.333 340.925 C 335.333 341.844,331.785 345.410,329.044 347.244 L 327.167 348.500 271.385 348.667 C 240.705 348.758,215.557 348.758,215.500 348.667 C 215.444 348.575,215.679 344.975,216.023 340.667 C 216.367 336.358,216.653 332.496,216.658 332.083 L 216.667 331.333 247.083 331.336 C 275.450 331.338,277.559 331.377,278.372 331.919 M188.487 355.417 C 188.661 356.446,189.667 368.711,189.667 369.812 C 189.667 370.282,185.509 370.333,147.156 370.333 L 104.645 370.333 102.949 369.474 C 100.227 368.095,92.713 362.808,92.681 362.250 C 92.673 362.113,97.279 361.997,102.917 361.994 L 113.167 361.987 114.410 359.860 C 115.952 357.223,117.170 355.756,118.486 354.954 C 119.456 354.362,120.981 354.336,153.902 354.335 L 188.303 354.333 188.487 355.417 M284.880 355.029 C 286.138 355.806,288.546 358.842,289.418 360.750 L 289.989 362.000 300.411 362.014 L 310.833 362.027 309.342 363.375 C 307.753 364.811,303.699 367.565,300.640 369.287 L 298.779 370.333 256.223 370.333 L 213.667 370.333 213.659 369.583 C 213.655 369.171,213.910 365.571,214.226 361.583 L 214.801 354.333 249.278 354.333 C 283.650 354.333,283.758 354.335,284.880 355.029 M190.881 377.167 C 190.932 377.717,191.206 381.692,191.492 386.000 C 191.778 390.308,192.093 394.471,192.193 395.250 L 192.374 396.667 190.270 396.666 C 182.185 396.665,165.211 393.766,155.049 390.650 C 153.885 390.293,152.610 389.940,152.216 389.866 C 145.924 388.680,120.667 377.822,120.667 376.303 C 120.667 376.119,134.588 376.031,155.728 376.082 L 190.790 376.167 190.881 377.167 M289.333 376.302 C 289.333 376.868,283.989 379.766,279.444 381.664 C 277.642 382.417,275.867 383.178,275.500 383.355 C 264.399 388.711,228.943 396.411,214.167 396.676 C 210.901 396.734,210.603 396.706,210.814 396.365 C 210.917 396.198,211.312 391.736,211.692 386.448 C 212.072 381.160,212.442 376.646,212.514 376.417 C 212.674 375.909,289.333 375.794,289.333 376.302 M255.809 417.140 C 256.895 417.442,258.020 417.736,258.309 417.793 C 258.830 417.898,259.183 418.029,262.642 419.405 C 269.358 422.078,276.483 429.066,280.582 437.000 L 282.218 440.167 336.276 440.251 L 390.333 440.335 390.333 444.668 C 390.333 447.050,390.296 449.097,390.250 449.215 C 390.204 449.333,387.091 449.398,383.333 449.360 C 374.364 449.269,375.333 448.399,375.333 456.536 L 375.333 463.333 362.379 463.333 C 346.055 463.333,344.333 463.638,344.333 466.531 C 344.333 469.510,344.017 469.446,360.000 469.696 C 375.040 469.932,376.801 470.128,380.123 471.934 C 386.041 475.150,385.732 484.607,379.577 488.656 C 369.351 495.382,337.151 494.205,328.203 486.778 C 325.383 484.437,325.146 484.972,330.320 481.995 C 330.803 481.717,331.954 481.005,332.878 480.412 C 334.547 479.341,335.667 479.037,335.667 479.656 C 335.667 480.679,341.365 483.656,345.173 484.621 C 358.662 488.041,374.744 484.351,370.813 478.739 C 369.518 476.890,369.217 476.850,355.167 476.633 C 341.401 476.420,340.407 476.312,336.813 474.622 C 330.728 471.762,329.114 464.475,333.696 460.552 C 337.396 457.385,339.662 456.930,352.583 456.756 L 363.333 456.611 363.333 453.145 C 363.333 448.826,366.059 449.290,341.333 449.405 L 320.833 449.500 320.747 469.250 L 320.661 489.000 313.831 489.000 L 307.000 489.000 307.000 486.139 C 307.000 482.978,307.030 482.999,304.964 484.715 C 304.159 485.384,301.775 487.304,299.667 488.983 C 297.558 490.662,295.569 492.252,295.246 492.518 C 294.453 493.169,294.614 493.225,291.551 491.225 C 290.056 490.248,287.896 488.877,286.750 488.177 C 284.018 486.509,283.323 487.229,292.821 481.890 C 293.744 481.370,295.100 480.600,295.833 480.177 C 296.567 479.755,297.767 479.076,298.500 478.668 C 303.540 475.864,306.374 474.186,306.668 473.832 C 306.890 473.565,306.978 469.252,306.921 461.461 L 306.833 449.500 301.333 449.500 L 295.833 449.500 295.664 459.667 L 295.495 469.833 294.608 471.519 C 288.774 482.604,258.147 484.088,250.274 473.667 C 246.676 468.904,248.074 461.513,253.053 458.973 C 256.394 457.268,256.737 457.231,270.083 457.086 L 282.667 456.951 282.667 453.139 L 282.667 449.328 261.250 449.414 L 239.833 449.500 239.747 469.237 L 239.661 488.974 232.830 489.070 L 225.999 489.167 226.000 469.452 C 226.000 453.209,225.921 449.708,225.550 449.565 C 224.944 449.333,206.000 449.290,206.000 449.521 C 206.000 449.621,206.600 450.698,207.333 451.914 C 208.067 453.130,208.667 454.405,208.667 454.749 C 208.667 455.092,208.803 455.288,208.970 455.185 C 209.147 455.076,209.247 456.630,209.211 458.916 C 209.068 467.815,203.358 472.950,192.917 473.570 C 191.129 473.677,189.670 473.854,189.675 473.965 C 189.679 474.076,190.258 475.217,190.960 476.500 C 193.119 480.447,192.867 480.370,203.398 480.260 L 212.334 480.167 212.334 484.750 L 212.333 489.333 203.583 489.323 C 186.865 489.303,185.069 488.313,177.155 474.750 L 176.523 473.667 172.261 473.667 L 168.000 473.667 168.000 469.187 L 168.000 464.707 179.417 464.603 C 191.990 464.490,192.262 464.448,194.263 462.354 C 196.604 459.905,196.262 454.604,193.581 451.770 C 191.303 449.362,190.917 449.315,174.500 449.412 L 159.833 449.500 159.833 469.237 L 159.833 488.975 153.083 489.071 L 146.333 489.167 146.291 484.417 C 146.269 481.804,146.212 479.517,146.167 479.333 C 146.121 479.150,146.065 478.852,146.042 478.672 C 146.019 478.491,145.212 478.656,144.250 479.040 C 132.768 483.609,116.477 482.414,110.390 476.556 C 105.432 471.784,105.417 463.644,110.360 459.708 C 116.845 454.545,132.318 453.513,143.687 457.485 C 145.023 457.951,146.165 458.333,146.225 458.333 C 146.284 458.333,146.333 456.400,146.333 454.038 L 146.333 449.742 145.250 449.564 C 144.654 449.465,133.667 449.411,120.833 449.443 L 97.500 449.500 97.414 469.250 L 97.328 489.000 90.497 489.000 L 83.667 489.000 83.667 469.159 L 83.667 449.319 77.417 449.409 L 71.167 449.500 71.081 469.236 L 70.995 488.973 64.494 489.070 C 60.918 489.123,57.844 489.117,57.663 489.056 C 57.459 488.987,57.333 486.216,57.333 481.806 C 57.333 477.879,57.285 474.667,57.226 474.667 C 57.167 474.667,56.225 475.099,55.133 475.629 C 43.994 481.024,29.907 480.213,23.600 473.812 C 17.489 467.610,17.508 457.366,23.643 450.821 L 25.079 449.288 20.123 449.362 L 15.167 449.435 15.074 444.884 L 14.981 440.333 120.324 440.333 C 178.262 440.333,225.665 440.221,225.663 440.083 C 225.661 439.946,225.437 439.008,225.167 438.000 C 222.921 429.634,226.744 421.272,234.077 418.509 C 234.966 418.173,235.561 417.765,235.442 417.572 C 235.325 417.384,235.378 417.321,235.558 417.433 C 235.737 417.544,237.223 417.347,238.859 416.996 C 242.684 416.175,252.642 416.260,255.809 417.140 M244.500 425.204 C 240.028 426.358,237.873 428.229,236.993 431.722 C 236.479 433.764,237.031 437.973,237.991 439.320 L 238.717 440.340 254.775 440.253 L 270.833 440.167 270.743 439.356 C 270.421 436.455,265.518 430.984,260.723 428.173 C 256.651 425.787,248.222 424.244,244.500 425.204 M38.833 449.641 C 32.223 450.777,29.583 461.353,34.411 467.359 C 39.009 473.080,50.861 473.205,56.256 467.590 L 57.345 466.456 57.256 457.978 L 57.167 449.500 48.667 449.456 C 43.992 449.431,39.567 449.514,38.833 449.641 M127.333 462.525 C 122.640 463.328,119.480 464.889,120.197 466.049 C 120.342 466.284,120.291 466.347,120.067 466.208 C 119.442 465.822,118.918 468.457,119.321 469.956 C 120.783 475.383,131.522 476.926,141.574 473.153 C 145.835 471.554,146.220 471.146,146.250 468.193 L 146.275 465.656 144.276 464.665 C 140.634 462.857,131.863 461.750,127.333 462.525 M265.549 463.035 C 259.999 464.339,260.007 471.279,265.559 472.226 C 269.845 472.957,276.687 472.566,279.031 471.457 C 282.144 469.984,282.667 469.133,282.667 465.532 L 282.667 462.667 274.750 462.700 C 270.396 462.719,266.255 462.869,265.549 463.035 " stroke="none" fill="#fbfbfb" fill-rule="evenodd"></path><path id="path2" d="M197.896 40.833 C 197.774 43.950,197.593 53.100,197.494 61.167 C 197.394 69.233,197.169 84.383,196.994 94.833 C 196.819 105.283,196.448 130.183,196.169 150.167 C 195.616 189.882,195.423 197.333,194.948 197.333 C 194.620 197.333,183.828 190.149,183.060 189.419 C 181.836 188.256,181.822 188.435,182.509 196.513 C 182.790 199.806,183.311 206.025,183.669 210.333 C 184.027 214.642,184.777 223.567,185.336 230.167 C 185.896 236.767,186.495 243.892,186.669 246.000 C 187.129 251.574,190.954 297.152,191.341 301.667 C 191.522 303.775,191.815 307.300,191.993 309.500 C 192.171 311.700,192.463 315.225,192.642 317.333 C 194.104 334.538,196.293 360.444,197.668 376.808 C 198.584 387.719,199.472 396.605,199.666 396.799 C 200.080 397.213,205.153 397.291,205.555 396.889 C 205.708 396.736,205.938 361.957,206.065 319.602 C 206.192 277.247,206.373 242.516,206.467 242.422 C 206.561 242.328,209.600 244.092,213.220 246.341 C 216.840 248.591,220.071 250.502,220.401 250.588 C 221.283 250.818,221.336 251.635,219.174 231.833 C 218.913 229.450,218.533 225.850,218.329 223.833 C 218.125 221.817,217.743 218.292,217.481 216.000 C 217.220 213.708,216.774 209.583,216.491 206.833 C 216.208 204.083,215.530 197.633,214.984 192.500 C 214.439 187.367,213.610 179.567,213.143 175.167 C 212.675 170.767,212.004 164.542,211.650 161.333 C 211.297 158.125,210.856 154.037,210.670 152.250 C 210.485 150.463,210.188 147.613,210.010 145.917 C 209.833 144.221,209.162 137.808,208.519 131.667 C 206.922 116.400,206.690 114.239,206.321 111.167 C 206.144 109.700,205.698 105.500,205.329 101.833 C 204.960 98.167,204.214 91.042,203.670 86.000 C 203.126 80.958,202.226 72.558,201.670 67.333 C 201.114 62.108,200.356 54.983,199.985 51.500 C 199.615 48.017,199.149 43.592,198.951 41.667 C 198.255 34.909,198.131 34.811,197.896 40.833 " stroke="none" fill="#d8261e" fill-rule="evenodd"></path><path id="path3" d="M188.914 10.568 L 189.660 10.712 189.750 26.939 L 189.840 43.167 189.920 26.750 L 190.000 10.333 189.083 10.379 C 188.302 10.417,188.277 10.445,188.914 10.568 M205.720 11.583 C 205.771 12.784,205.779 12.792,205.906 11.771 C 206.003 10.998,206.239 10.669,206.770 10.566 C 207.372 10.449,207.339 10.416,206.583 10.379 C 205.730 10.336,205.670 10.419,205.720 11.583 M205.820 28.167 C 205.820 36.417,205.863 39.744,205.916 35.561 C 205.969 31.377,205.969 24.627,205.916 20.561 C 205.863 16.494,205.820 19.917,205.820 28.167 M197.880 34.403 C 197.768 34.823,197.696 36.517,197.722 38.167 L 197.767 41.167 198.013 37.500 C 198.265 33.735,198.237 33.073,197.880 34.403 M120.083 35.250 C 126.454 35.301,136.879 35.301,143.250 35.250 C 149.621 35.199,144.408 35.158,131.667 35.158 C 118.925 35.158,113.712 35.199,120.083 35.250 M259.917 35.250 C 266.563 35.300,277.438 35.300,284.083 35.250 C 290.729 35.199,285.292 35.158,272.000 35.158 C 258.708 35.158,253.271 35.199,259.917 35.250 M148.583 43.250 C 154.129 43.301,163.204 43.301,168.750 43.250 C 174.296 43.199,169.758 43.157,158.667 43.157 C 147.575 43.157,143.038 43.199,148.583 43.250 M223.750 43.250 C 229.204 43.301,238.129 43.301,243.583 43.250 C 249.037 43.198,244.575 43.156,233.667 43.156 C 222.758 43.156,218.296 43.198,223.750 43.250 M89.917 49.913 C 91.063 49.979,92.938 49.979,94.083 49.913 C 95.229 49.848,94.292 49.795,92.000 49.795 C 89.708 49.795,88.771 49.848,89.917 49.913 M184.917 49.911 C 185.696 49.981,186.971 49.981,187.750 49.911 C 188.529 49.841,187.892 49.783,186.333 49.783 C 184.775 49.783,184.137 49.841,184.917 49.911 M217.436 49.916 C 219.784 49.973,223.534 49.973,225.769 49.916 C 228.005 49.858,226.083 49.811,221.500 49.811 C 216.917 49.811,215.088 49.859,217.436 49.916 M308.583 49.913 C 309.729 49.979,311.604 49.979,312.750 49.913 C 313.896 49.848,312.958 49.795,310.667 49.795 C 308.375 49.795,307.438 49.848,308.583 49.913 M110.261 50.246 C 111.230 50.314,112.730 50.313,113.595 50.245 C 114.459 50.176,113.667 50.121,111.833 50.122 C 110.000 50.123,109.293 50.179,110.261 50.246 M282.083 50.247 C 283.321 50.311,285.346 50.311,286.583 50.247 C 287.821 50.183,286.808 50.131,284.333 50.131 C 281.858 50.131,280.846 50.183,282.083 50.247 M208.744 51.667 C 208.744 52.308,208.813 52.571,208.896 52.250 C 208.980 51.929,208.980 51.404,208.896 51.083 C 208.813 50.762,208.744 51.025,208.744 51.667 M234.000 58.314 C 234.000 58.853,234.119 59.367,234.264 59.457 C 234.409 59.547,234.467 59.105,234.394 58.477 C 234.230 57.076,234.000 56.980,234.000 58.314 M197.433 59.667 C 197.433 60.675,197.496 61.087,197.572 60.583 C 197.648 60.079,197.648 59.254,197.572 58.750 C 197.496 58.246,197.433 58.658,197.433 59.667 M70.479 62.750 L 69.500 63.833 70.583 62.854 C 71.593 61.942,71.820 61.667,71.562 61.667 C 71.505 61.667,71.017 62.154,70.479 62.750 M333.833 64.000 C 334.922 65.100,335.887 66.000,335.979 66.000 C 336.071 66.000,335.255 65.100,334.167 64.000 C 333.078 62.900,332.113 62.000,332.021 62.000 C 331.929 62.000,332.745 62.900,333.833 64.000 M67.649 65.583 L 66.500 66.833 67.750 65.685 C 68.913 64.615,69.153 64.333,68.899 64.333 C 68.843 64.333,68.281 64.896,67.649 65.583 M336.667 67.104 C 336.667 67.162,337.154 67.649,337.750 68.188 L 338.833 69.167 337.854 68.083 C 336.942 67.074,336.667 66.847,336.667 67.104 M186.244 75.904 L 188.322 76.032 188.420 84.183 L 188.518 92.334 188.509 84.083 L 188.500 75.833 186.333 75.805 L 184.167 75.777 186.244 75.904 M211.587 75.902 C 212.002 75.982,212.602 75.979,212.921 75.896 C 213.239 75.812,212.900 75.747,212.167 75.751 C 211.433 75.754,211.173 75.823,211.587 75.902 M197.116 82.667 C 197.116 84.225,197.174 84.862,197.244 84.083 C 197.314 83.304,197.314 82.029,197.244 81.250 C 197.174 80.471,197.116 81.108,197.116 82.667 M351.833 84.667 C 352.549 85.400,353.210 86.000,353.302 86.000 C 353.394 86.000,352.883 85.400,352.167 84.667 C 351.451 83.933,350.790 83.333,350.698 83.333 C 350.606 83.333,351.117 83.933,351.833 84.667 M332.029 92.417 C 332.107 92.462,332.694 92.950,333.335 93.500 L 334.500 94.500 333.521 93.417 C 332.983 92.821,332.395 92.333,332.215 92.333 C 332.036 92.333,331.952 92.371,332.029 92.417 M47.917 97.581 C 49.429 97.643,51.904 97.643,53.417 97.581 C 54.929 97.520,53.692 97.469,50.667 97.469 C 47.642 97.469,46.404 97.520,47.917 97.581 M347.268 97.582 C 349.157 97.642,352.157 97.641,353.934 97.582 C 355.712 97.522,354.167 97.473,350.500 97.473 C 346.833 97.474,345.379 97.523,347.268 97.582 M187.743 108.249 L 187.667 115.332 109.917 115.417 L 32.167 115.501 109.927 115.584 C 172.765 115.651,187.719 115.585,187.851 115.241 C 187.941 115.007,187.970 111.744,187.917 107.991 L 187.819 101.167 187.743 108.249 M196.757 102.667 C 196.757 103.492,196.822 103.829,196.902 103.417 C 196.981 103.004,196.981 102.329,196.902 101.917 C 196.822 101.504,196.757 101.842,196.757 102.667 M292.667 115.333 L 214.500 115.502 292.750 115.584 C 344.749 115.639,371.000 115.555,371.000 115.333 C 371.000 115.150,370.962 115.037,370.917 115.082 C 370.871 115.128,335.658 115.241,292.667 115.333 M154.106 122.916 C 158.473 122.969,165.523 122.969,169.773 122.916 C 174.023 122.864,170.450 122.820,161.833 122.821 C 153.217 122.821,149.739 122.864,154.106 122.916 M196.450 125.333 C 196.450 126.892,196.507 127.529,196.577 126.750 C 196.648 125.971,196.648 124.696,196.577 123.917 C 196.507 123.138,196.450 123.775,196.450 125.333 M242.271 122.916 C 245.078 122.972,249.578 122.972,252.271 122.916 C 254.963 122.860,252.667 122.814,247.167 122.814 C 241.667 122.815,239.463 122.860,242.271 122.916 M216.424 129.333 C 216.424 130.158,216.489 130.496,216.569 130.083 C 216.648 129.671,216.648 128.996,216.569 128.583 C 216.489 128.171,216.424 128.508,216.424 129.333 M54.443 130.917 C 70.178 130.965,95.828 130.965,111.443 130.917 C 127.058 130.869,114.183 130.830,82.833 130.830 C 51.483 130.830,38.708 130.869,54.443 130.917 M291.583 130.917 C 307.212 130.965,332.787 130.965,348.417 130.917 C 364.046 130.869,351.258 130.830,320.000 130.830 C 288.742 130.830,275.954 130.869,291.583 130.917 M187.455 136.500 C 187.456 138.333,187.512 139.041,187.579 138.072 C 187.647 137.104,187.646 135.604,187.578 134.739 C 187.509 133.874,187.454 134.667,187.455 136.500 M216.751 136.167 C 216.754 136.900,216.823 137.161,216.902 136.746 C 216.982 136.331,216.979 135.731,216.896 135.413 C 216.812 135.094,216.747 135.433,216.751 136.167 M166.399 146.249 L 186.964 146.338 187.096 147.838 L 187.228 149.338 187.197 147.752 L 187.167 146.167 166.500 146.163 L 145.833 146.159 166.399 146.249 M196.091 148.000 C 196.091 148.825,196.156 149.162,196.235 148.750 C 196.315 148.337,196.315 147.662,196.235 147.250 C 196.156 146.837,196.091 147.175,196.091 148.000 M141.649 148.250 L 140.500 149.500 141.750 148.351 C 142.438 147.719,143.000 147.157,143.000 147.101 C 143.000 146.847,142.718 147.087,141.649 148.250 M186.773 160.667 C 186.773 161.858,186.834 162.346,186.908 161.750 C 186.982 161.154,186.982 160.179,186.908 159.583 C 186.834 158.987,186.773 159.475,186.773 160.667 M195.776 169.167 C 195.778 170.450,195.838 170.934,195.910 170.243 C 195.982 169.551,195.981 168.501,195.907 167.909 C 195.834 167.317,195.775 167.883,195.776 169.167 M220.411 170.333 C 220.411 170.975,220.479 171.237,220.563 170.917 C 220.647 170.596,220.647 170.071,220.563 169.750 C 220.479 169.429,220.411 169.692,220.411 170.333 M169.661 169.915 L 186.321 170.006 186.420 177.753 L 186.518 185.500 186.509 177.667 L 186.500 169.833 169.750 169.829 L 153.000 169.824 169.661 169.915 M13.222 177.222 C 13.100 177.344,13.002 177.607,13.005 177.806 C 13.008 178.020,13.117 177.998,13.274 177.751 C 13.484 177.421,27.376 177.317,80.186 177.250 L 146.833 177.165 80.139 177.083 C 43.457 177.037,13.344 177.100,13.222 177.222 M289.917 177.250 C 308.296 177.298,338.371 177.298,356.750 177.250 C 375.129 177.202,360.092 177.163,323.333 177.163 C 286.575 177.163,271.537 177.202,289.917 177.250 M12.045 185.750 L 12.000 186.667 99.147 186.667 C 147.078 186.667,186.364 186.554,186.449 186.417 C 186.533 186.279,147.403 186.205,99.492 186.251 L 12.380 186.336 12.235 185.585 C 12.111 184.939,12.084 184.962,12.045 185.750 M391.000 185.944 C 391.000 186.240,370.552 186.353,306.250 186.416 L 221.500 186.499 306.149 186.583 C 386.803 186.664,392.059 186.615,391.228 185.783 C 391.102 185.658,391.000 185.731,391.000 185.944 M195.424 190.667 C 195.424 191.492,195.489 191.829,195.569 191.417 C 195.648 191.004,195.648 190.329,195.569 189.917 C 195.489 189.504,195.424 189.842,195.424 190.667 M157.919 193.750 C 157.487 194.162,157.366 194.333,157.650 194.130 C 157.934 193.926,158.467 193.594,158.833 193.390 C 159.200 193.187,159.321 193.016,159.102 193.010 C 158.883 193.005,158.351 193.338,157.919 193.750 M222.744 197.000 C 222.744 197.642,222.813 197.904,222.896 197.583 C 222.980 197.262,222.980 196.737,222.896 196.417 C 222.813 196.096,222.744 196.358,222.744 197.000 M391.739 205.556 C 391.687 208.965,391.551 210.325,391.250 210.446 C 390.924 210.578,390.926 210.620,391.260 210.640 C 391.948 210.683,392.026 210.048,391.916 205.317 L 391.812 200.833 391.739 205.556 M234.271 216.916 C 237.078 216.972,241.578 216.972,244.271 216.916 C 246.963 216.860,244.667 216.814,239.167 216.814 C 233.667 216.815,231.463 216.860,234.271 216.916 M175.077 218.667 C 175.077 219.308,175.146 219.571,175.230 219.250 C 175.314 218.929,175.314 218.404,175.230 218.083 C 175.146 217.762,175.077 218.025,175.077 218.667 M251.333 218.104 C 251.333 218.162,251.821 218.649,252.417 219.188 L 253.500 220.167 252.521 219.083 C 251.608 218.074,251.333 217.847,251.333 218.104 M95.000 233.000 L 13.500 233.169 94.897 233.251 C 148.891 233.306,176.363 233.221,176.500 233.000 C 176.613 232.817,176.660 232.704,176.603 232.749 C 176.546 232.794,139.825 232.907,95.000 233.000 M267.443 233.250 C 289.962 233.297,326.712 233.297,349.110 233.250 C 371.508 233.203,353.083 233.164,308.167 233.164 C 263.250 233.164,244.925 233.203,267.443 233.250 M234.250 240.250 C 237.963 240.303,244.038 240.303,247.750 240.250 C 251.463 240.196,248.425 240.152,241.000 240.152 C 233.575 240.152,230.538 240.196,234.250 240.250 M149.928 240.579 C 150.896 240.647,152.396 240.646,153.261 240.578 C 154.126 240.509,153.333 240.454,151.500 240.455 C 149.667 240.456,148.959 240.512,149.928 240.579 M220.765 250.483 C 220.448 250.844,220.465 250.979,220.848 251.126 C 221.172 251.250,221.333 251.094,221.333 250.656 C 221.333 249.888,221.297 249.877,220.765 250.483 M217.917 262.580 C 219.063 262.645,220.938 262.645,222.083 262.580 C 223.229 262.515,222.292 262.462,220.000 262.462 C 217.708 262.462,216.771 262.515,217.917 262.580 M215.744 265.000 C 215.744 265.642,215.813 265.904,215.896 265.583 C 215.980 265.262,215.980 264.737,215.896 264.417 C 215.813 264.096,215.744 264.358,215.744 265.000 M215.411 269.667 C 215.411 270.308,215.479 270.571,215.563 270.250 C 215.647 269.929,215.647 269.404,215.563 269.083 C 215.479 268.762,215.411 269.025,215.411 269.667 M180.411 272.000 C 180.411 272.642,180.479 272.904,180.563 272.583 C 180.647 272.262,180.647 271.737,180.563 271.417 C 180.479 271.096,180.411 271.358,180.411 272.000 M215.077 274.667 C 215.077 275.308,215.146 275.571,215.230 275.250 C 215.314 274.929,215.314 274.404,215.230 274.083 C 215.146 273.762,215.077 274.025,215.077 274.667 M214.951 278.751 C 215.089 278.889,251.569 278.964,296.017 278.917 L 376.833 278.833 295.767 278.667 C 251.180 278.575,214.813 278.613,214.951 278.751 M64.917 278.917 C 86.229 278.964,121.104 278.964,142.417 278.917 C 163.729 278.869,146.292 278.831,103.667 278.831 C 61.042 278.831,43.604 278.869,64.917 278.917 M206.151 297.333 C 206.151 304.025,206.195 306.762,206.250 303.417 C 206.304 300.071,206.304 294.596,206.250 291.250 C 206.195 287.904,206.151 290.642,206.151 297.333 M134.982 287.917 L 133.833 289.167 135.083 288.018 C 136.247 286.949,136.487 286.667,136.232 286.667 C 136.176 286.667,135.614 287.229,134.982 287.917 M271.951 293.751 C 272.089 293.889,294.169 293.964,321.018 293.918 L 369.833 293.833 320.767 293.667 C 293.780 293.575,271.813 293.613,271.951 293.751 M59.943 293.917 C 72.469 293.965,92.869 293.965,105.276 293.917 C 117.683 293.868,107.433 293.829,82.500 293.829 C 57.567 293.829,47.416 293.868,59.943 293.917 M217.744 299.000 C 217.744 299.642,217.813 299.904,217.896 299.583 C 217.980 299.262,217.980 298.737,217.896 298.417 C 217.813 298.096,217.744 298.358,217.744 299.000 M363.833 301.667 L 362.500 301.905 363.730 301.953 C 364.407 301.979,365.053 301.850,365.167 301.667 C 365.280 301.483,365.326 301.355,365.270 301.381 C 365.213 301.407,364.567 301.535,363.833 301.667 M134.436 309.583 C 136.784 309.640,140.534 309.640,142.769 309.582 C 145.005 309.525,143.083 309.478,138.500 309.478 C 133.917 309.478,132.088 309.525,134.436 309.583 M277.833 314.667 C 278.118 315.217,278.425 315.667,278.517 315.667 C 278.609 315.667,278.451 315.217,278.167 314.667 C 277.882 314.117,277.575 313.667,277.483 313.667 C 277.391 313.667,277.549 314.117,277.833 314.667 M353.666 319.417 C 353.175 320.087,353.094 320.320,353.454 320.027 C 354.001 319.584,354.828 318.333,354.574 318.333 C 354.511 318.333,354.102 318.821,353.666 319.417 M50.347 320.802 C 50.973 321.675,51.630 322.477,51.806 322.586 C 51.981 322.695,51.613 322.070,50.986 321.198 C 50.360 320.325,49.704 319.523,49.528 319.414 C 49.352 319.305,49.721 319.930,50.347 320.802 M185.333 323.999 C 185.333 324.662,185.055 324.665,119.250 324.750 L 53.167 324.835 119.417 324.917 L 185.667 325.000 185.667 324.167 C 185.667 323.708,185.592 323.333,185.500 323.333 C 185.408 323.333,185.333 323.633,185.333 323.999 M350.001 324.166 C 349.636 324.606,341.668 324.675,283.043 324.750 L 216.500 324.835 283.032 324.917 C 349.193 325.000,349.567 324.996,350.167 324.333 C 350.498 323.967,350.690 323.667,350.592 323.667 C 350.495 323.667,350.229 323.891,350.001 324.166 M135.083 331.583 C 140.171 331.635,148.496 331.635,153.583 331.583 C 158.671 331.531,154.508 331.489,144.333 331.489 C 134.158 331.489,129.996 331.531,135.083 331.583 M216.791 331.822 C 216.688 332.091,216.681 332.504,216.776 332.739 C 216.870 332.974,216.959 332.830,216.974 332.418 L 217.000 331.670 246.750 331.583 L 276.500 331.496 246.740 331.415 C 220.839 331.344,216.955 331.397,216.791 331.822 M216.411 336.333 C 216.411 336.975,216.479 337.237,216.563 336.917 C 216.647 336.596,216.647 336.071,216.563 335.750 C 216.479 335.429,216.411 335.692,216.411 336.333 M80.941 340.583 C 88.151 340.633,99.851 340.633,106.941 340.583 C 114.032 340.533,108.133 340.492,93.833 340.492 C 79.533 340.492,73.732 340.533,80.941 340.583 M296.608 340.583 C 303.818 340.633,315.518 340.633,322.608 340.583 C 329.699 340.533,323.800 340.492,309.500 340.492 C 295.200 340.492,289.399 340.533,296.608 340.583 M332.989 343.583 L 331.167 345.500 333.083 343.678 C 334.864 341.985,335.153 341.667,334.905 341.667 C 334.853 341.667,333.991 342.529,332.989 343.583 M126.105 354.583 C 129.555 354.637,135.105 354.637,138.438 354.583 C 141.772 354.528,138.950 354.484,132.167 354.484 C 125.383 354.484,122.656 354.529,126.105 354.583 M275.583 354.581 C 277.096 354.643,279.571 354.643,281.083 354.581 C 282.596 354.520,281.358 354.469,278.333 354.469 C 275.308 354.469,274.071 354.520,275.583 354.581 M189.333 369.165 L 189.333 369.997 146.917 370.083 L 104.500 370.169 147.083 370.251 L 189.667 370.333 189.667 369.333 C 189.667 368.783,189.592 368.333,189.500 368.333 C 189.408 368.333,189.333 368.708,189.333 369.165 M234.943 370.250 C 246.736 370.299,265.936 370.299,277.609 370.250 C 289.282 370.201,279.633 370.162,256.167 370.162 C 232.700 370.162,223.149 370.201,234.943 370.250 M121.000 376.314 C 121.000 376.486,121.173 376.734,121.385 376.865 C 121.614 377.007,121.680 376.957,121.547 376.742 C 121.418 376.534,121.643 376.320,122.078 376.236 C 122.732 376.110,122.710 376.085,121.917 376.045 C 121.412 376.020,121.000 376.141,121.000 376.314 M123.417 376.230 C 123.737 376.314,124.263 376.314,124.583 376.230 C 124.904 376.146,124.642 376.077,124.000 376.077 C 123.358 376.077,123.096 376.146,123.417 376.230 M141.417 376.250 C 150.354 376.299,164.979 376.299,173.917 376.250 C 182.854 376.201,175.542 376.160,157.667 376.160 C 139.792 376.160,132.479 376.201,141.417 376.250 M283.917 379.191 C 282.671 379.867,282.746 380.148,284.000 379.500 C 284.550 379.216,285.000 378.912,285.000 378.825 C 285.000 378.610,284.964 378.622,283.917 379.191 M128.667 380.833 C 129.125 381.095,129.650 381.310,129.833 381.310 C 130.017 381.310,129.792 381.095,129.333 380.833 C 128.875 380.571,128.350 380.357,128.167 380.357 C 127.983 380.357,128.208 380.571,128.667 380.833 M211.751 386.833 C 211.754 387.567,211.823 387.827,211.902 387.413 C 211.982 386.998,211.979 386.398,211.896 386.079 C 211.812 385.761,211.747 386.100,211.751 386.833 M187.750 396.563 C 188.071 396.647,188.596 396.647,188.917 396.563 C 189.237 396.479,188.975 396.411,188.333 396.411 C 187.692 396.411,187.429 396.479,187.750 396.563 M214.417 396.563 C 214.737 396.647,215.262 396.647,215.583 396.563 C 215.904 396.479,215.642 396.411,215.000 396.411 C 214.358 396.411,214.096 396.479,214.417 396.563 M228.649 422.250 L 227.500 423.500 228.750 422.351 C 229.913 421.282,230.153 421.000,229.899 421.000 C 229.843 421.000,229.281 421.563,228.649 422.250 M247.583 424.908 C 248.179 424.982,249.154 424.982,249.750 424.908 C 250.346 424.834,249.858 424.773,248.667 424.773 C 247.475 424.773,246.987 424.834,247.583 424.908 M272.833 426.667 C 273.549 427.400,274.210 428.000,274.302 428.000 C 274.394 428.000,273.883 427.400,273.167 426.667 C 272.451 425.933,271.790 425.333,271.698 425.333 C 271.606 425.333,272.117 425.933,272.833 426.667 M262.667 429.088 C 262.667 429.162,263.304 429.728,264.083 430.348 C 264.862 430.967,265.288 431.210,265.030 430.888 C 264.542 430.281,262.667 428.853,262.667 429.088 M225.791 439.750 C 225.937 440.203,225.776 440.344,225.073 440.379 C 224.232 440.421,224.224 440.435,224.955 440.574 C 225.937 440.760,226.419 440.321,225.955 439.664 C 225.661 439.248,225.635 439.262,225.791 439.750 M15.145 440.768 C 15.054 441.008,15.026 443.070,15.084 445.352 L 15.189 449.500 15.261 445.084 L 15.333 440.668 119.750 440.583 L 224.167 440.499 119.740 440.416 C 34.080 440.348,15.282 440.412,15.145 440.768 M246.417 440.583 C 250.954 440.635,258.379 440.635,262.917 440.583 C 267.454 440.531,263.742 440.488,254.667 440.488 C 245.592 440.488,241.879 440.531,246.417 440.583 M309.110 440.583 C 324.112 440.631,348.562 440.631,363.443 440.583 C 378.324 440.535,366.050 440.496,336.167 440.496 C 306.283 440.496,294.108 440.535,309.110 440.583 M83.747 469.083 L 83.667 489.000 84.583 488.955 C 85.365 488.916,85.390 488.888,84.753 488.765 L 84.005 488.621 83.917 468.894 L 83.828 449.167 83.747 469.083 M97.000 468.976 C 97.000 487.402,96.964 488.627,96.417 488.770 C 95.978 488.885,96.019 488.932,96.583 488.961 L 97.333 489.000 97.333 469.167 C 97.333 458.258,97.258 449.333,97.167 449.333 C 97.075 449.333,97.000 458.172,97.000 468.976 M205.637 449.944 C 205.817 450.280,206.225 450.767,206.546 451.027 C 206.906 451.320,206.825 451.087,206.334 450.417 C 205.459 449.221,205.131 448.998,205.637 449.944 M307.151 461.333 C 307.151 468.025,307.195 470.762,307.250 467.417 C 307.304 464.071,307.304 458.596,307.250 455.250 C 307.195 451.904,307.151 454.642,307.151 461.333 M320.255 469.167 C 320.206 480.075,320.279 489.000,320.417 489.000 C 320.554 489.000,320.667 480.075,320.667 469.167 C 320.667 458.258,320.594 449.333,320.505 449.333 C 320.416 449.333,320.304 458.258,320.255 469.167 M363.404 452.889 C 363.354 455.499,363.209 456.661,362.917 456.779 C 362.590 456.911,362.593 456.953,362.927 456.974 C 363.600 457.015,363.699 456.360,363.583 452.644 L 363.474 449.167 363.404 452.889 M126.750 455.245 C 127.621 455.314,129.046 455.314,129.917 455.245 C 130.787 455.176,130.075 455.120,128.333 455.120 C 126.592 455.120,125.879 455.176,126.750 455.245 M344.921 456.902 C 345.335 456.982,345.935 456.979,346.254 456.896 C 346.573 456.812,346.233 456.747,345.500 456.751 C 344.767 456.754,344.506 456.823,344.921 456.902 M260.923 457.242 C 261.522 457.316,262.422 457.314,262.923 457.238 C 263.424 457.162,262.933 457.101,261.833 457.103 C 260.733 457.105,260.324 457.167,260.923 457.242 M268.604 457.249 C 271.227 457.306,275.427 457.306,277.937 457.249 C 280.447 457.193,278.300 457.146,273.167 457.147 C 268.033 457.147,265.980 457.193,268.604 457.249 M131.576 462.241 C 132.168 462.314,133.218 462.315,133.909 462.243 C 134.601 462.171,134.117 462.111,132.833 462.109 C 131.550 462.108,130.984 462.167,131.576 462.241 M173.250 464.916 C 176.229 464.971,181.104 464.971,184.083 464.916 C 187.063 464.861,184.625 464.816,178.667 464.816 C 172.708 464.816,170.271 464.861,173.250 464.916 M106.767 467.667 C 106.767 468.675,106.829 469.087,106.905 468.583 C 106.982 468.079,106.982 467.254,106.905 466.750 C 106.829 466.246,106.767 466.658,106.767 467.667 M205.649 468.250 L 204.500 469.500 205.750 468.351 C 206.913 467.282,207.153 467.000,206.899 467.000 C 206.843 467.000,206.281 467.563,205.649 468.250 M349.750 469.896 C 350.071 469.980,350.596 469.980,350.917 469.896 C 351.238 469.813,350.975 469.744,350.333 469.744 C 349.692 469.744,349.429 469.813,349.750 469.896 M119.595 471.504 C 119.784 471.872,120.290 472.471,120.719 472.835 C 121.472 473.472,121.471 473.460,120.672 472.498 C 119.344 470.899,119.232 470.796,119.595 471.504 M23.667 473.833 C 24.289 474.475,24.872 475.000,24.964 475.000 C 25.056 475.000,24.622 474.475,24.000 473.833 C 23.378 473.192,22.794 472.667,22.703 472.667 C 22.611 472.667,23.045 473.192,23.667 473.833 M272.583 472.902 C 272.996 472.981,273.671 472.981,274.083 472.902 C 274.496 472.822,274.158 472.757,273.333 472.757 C 272.508 472.757,272.171 472.822,272.583 472.902 M292.146 474.417 L 291.167 475.500 292.250 474.521 C 292.846 473.983,293.333 473.495,293.333 473.438 C 293.333 473.180,293.058 473.407,292.146 474.417 M250.667 474.104 C 250.667 474.162,251.154 474.649,251.750 475.188 L 252.833 476.167 251.854 475.083 C 250.942 474.074,250.667 473.847,250.667 474.104 M110.000 476.167 C 110.622 476.808,111.206 477.333,111.297 477.333 C 111.389 477.333,110.955 476.808,110.333 476.167 C 109.711 475.525,109.128 475.000,109.036 475.000 C 108.944 475.000,109.378 475.525,110.000 476.167 M350.771 476.583 C 353.854 476.638,358.804 476.638,361.771 476.583 C 364.739 476.527,362.217 476.482,356.167 476.483 C 350.117 476.483,347.689 476.528,350.771 476.583 M384.100 480.000 C 384.100 481.008,384.162 481.421,384.239 480.917 C 384.315 480.412,384.315 479.587,384.239 479.083 C 384.162 478.579,384.100 478.992,384.100 480.000 M334.694 479.417 C 334.771 479.462,335.283 479.875,335.833 480.333 L 336.833 481.167 336.025 480.250 C 335.581 479.746,335.068 479.333,334.886 479.333 C 334.704 479.333,334.618 479.371,334.694 479.417 M307.050 486.250 C 307.022 487.762,307.112 489.000,307.250 489.000 C 307.387 489.001,307.458 488.138,307.406 487.084 C 307.241 483.739,307.102 483.411,307.050 486.250 M355.576 486.241 C 356.168 486.314,357.218 486.315,357.909 486.243 C 358.601 486.171,358.117 486.111,356.833 486.109 C 355.550 486.108,354.984 486.167,355.576 486.241 M381.146 487.083 L 380.167 488.167 381.250 487.188 C 382.260 486.275,382.487 486.000,382.229 486.000 C 382.172 486.000,381.684 486.488,381.146 487.083 M354.069 492.914 C 355.298 492.977,357.398 492.978,358.735 492.914 C 360.073 492.851,359.067 492.799,356.500 492.798 C 353.933 492.798,352.839 492.850,354.069 492.914 " stroke="none" fill="#9599c2" fill-rule="evenodd"></path><path id="path4" d="M197.709 33.333 C 197.709 34.558,197.764 34.696,198.010 34.083 C 198.190 33.636,198.190 33.030,198.010 32.583 C 197.764 31.971,197.709 32.108,197.709 33.333 M168.000 35.000 L 154.500 35.178 167.897 35.256 C 176.554 35.306,181.367 35.215,181.500 35.000 C 181.613 34.817,181.660 34.702,181.603 34.744 C 181.546 34.787,175.425 34.902,168.000 35.000 M223.917 35.250 C 228.362 35.302,235.637 35.302,240.083 35.250 C 244.529 35.197,240.892 35.154,232.000 35.154 C 223.108 35.154,219.471 35.197,223.917 35.250 M181.433 43.248 C 183.046 43.310,185.596 43.309,187.100 43.248 C 188.603 43.186,187.283 43.136,184.167 43.136 C 181.050 43.137,179.820 43.187,181.433 43.248 M207.917 43.247 C 209.063 43.312,210.938 43.312,212.083 43.247 C 213.229 43.182,212.292 43.128,210.000 43.128 C 207.708 43.128,206.771 43.182,207.917 43.247 M105.083 50.243 C 105.771 50.315,106.896 50.315,107.583 50.243 C 108.271 50.171,107.708 50.112,106.333 50.112 C 104.958 50.112,104.396 50.171,105.083 50.243 M189.146 59.000 C 189.146 64.042,189.193 66.104,189.249 63.583 C 189.306 61.063,189.306 56.938,189.249 54.417 C 189.193 51.896,189.146 53.958,189.146 59.000 M290.417 50.246 C 291.471 50.312,293.196 50.312,294.250 50.246 C 295.304 50.180,294.442 50.126,292.333 50.126 C 290.225 50.126,289.362 50.180,290.417 50.246 M197.459 54.333 C 197.459 56.442,197.514 57.304,197.580 56.250 C 197.646 55.196,197.646 53.471,197.580 52.417 C 197.514 51.362,197.459 52.225,197.459 54.333 M98.109 59.583 C 111.095 59.632,132.245 59.632,145.109 59.583 C 157.974 59.535,147.350 59.495,121.500 59.495 C 95.650 59.495,85.124 59.535,98.109 59.583 M258.109 59.583 C 271.095 59.632,292.245 59.632,305.109 59.583 C 317.974 59.535,307.350 59.495,281.500 59.495 C 255.650 59.495,245.124 59.535,258.109 59.583 M330.000 60.104 C 330.000 60.162,330.487 60.649,331.083 61.188 L 332.167 62.167 331.188 61.083 C 330.275 60.074,330.000 59.847,330.000 60.104 M336.000 66.104 C 336.000 66.162,336.487 66.649,337.083 67.188 L 338.167 68.167 337.188 67.083 C 336.275 66.074,336.000 65.847,336.000 66.104 M113.276 68.583 C 127.270 68.631,150.070 68.631,163.943 68.583 C 177.816 68.535,166.367 68.496,138.500 68.496 C 110.633 68.496,99.283 68.535,113.276 68.583 M234.776 68.583 C 248.678 68.631,271.328 68.631,285.110 68.583 C 298.891 68.535,287.517 68.496,259.833 68.496 C 232.150 68.496,220.874 68.535,234.776 68.583 M315.760 73.579 C 316.636 73.648,317.986 73.647,318.760 73.577 C 319.534 73.507,318.817 73.451,317.167 73.452 C 315.517 73.453,314.884 73.510,315.760 73.579 M197.118 77.167 C 197.117 78.817,197.174 79.534,197.244 78.760 C 197.313 77.986,197.314 76.636,197.245 75.760 C 197.177 74.884,197.119 75.517,197.118 77.167 M169.093 75.579 C 169.970 75.648,171.320 75.647,172.093 75.577 C 172.867 75.507,172.150 75.451,170.500 75.452 C 168.850 75.453,168.217 75.510,169.093 75.579 M219.605 75.916 C 223.147 75.970,228.847 75.970,232.272 75.916 C 235.697 75.862,232.800 75.818,225.833 75.818 C 218.867 75.818,216.064 75.862,219.605 75.916 M96.750 92.583 C 113.571 92.631,141.096 92.631,157.917 92.583 C 174.737 92.536,160.975 92.496,127.333 92.496 C 93.692 92.496,79.929 92.536,96.750 92.583 M242.917 92.583 C 259.279 92.631,286.054 92.631,302.417 92.583 C 318.779 92.535,305.392 92.496,272.667 92.496 C 239.942 92.496,226.554 92.535,242.917 92.583 M196.791 97.833 C 196.792 99.850,196.847 100.632,196.913 99.571 C 196.980 98.510,196.979 96.860,196.912 95.904 C 196.845 94.949,196.791 95.817,196.791 97.833 M57.417 97.578 C 58.288 97.647,59.712 97.647,60.583 97.578 C 61.454 97.510,60.742 97.453,59.000 97.453 C 57.258 97.453,56.546 97.510,57.417 97.578 M338.263 97.580 C 339.416 97.646,341.216 97.645,342.263 97.579 C 343.310 97.513,342.367 97.460,340.167 97.461 C 337.967 97.461,337.110 97.515,338.263 97.580 M178.917 99.248 C 180.612 99.309,183.387 99.309,185.083 99.248 C 186.779 99.188,185.392 99.138,182.000 99.138 C 178.608 99.138,177.221 99.188,178.917 99.248 M218.583 99.249 C 221.563 99.305,226.438 99.305,229.417 99.249 C 232.396 99.194,229.958 99.149,224.000 99.149 C 218.042 99.149,215.604 99.194,218.583 99.249 M151.982 101.250 L 150.833 102.500 152.083 101.351 C 152.771 100.719,153.333 100.157,153.333 100.101 C 153.333 99.847,153.051 100.087,151.982 101.250 M196.450 120.000 C 196.450 121.558,196.507 122.196,196.577 121.417 C 196.648 120.638,196.648 119.362,196.577 118.583 C 196.507 117.804,196.450 118.442,196.450 120.000 M196.128 142.667 C 196.128 144.958,196.182 145.896,196.247 144.750 C 196.312 143.604,196.312 141.729,196.247 140.583 C 196.182 139.438,196.128 140.375,196.128 142.667 M220.750 145.915 C 222.354 145.976,224.979 145.976,226.583 145.915 C 228.188 145.854,226.875 145.804,223.667 145.804 C 220.458 145.804,219.146 145.854,220.750 145.915 M260.667 147.104 C 260.667 147.162,261.154 147.649,261.750 148.188 L 262.833 149.167 261.854 148.083 C 260.942 147.074,260.667 146.847,260.667 147.104 M187.091 150.667 C 187.091 151.492,187.156 151.829,187.235 151.417 C 187.315 151.004,187.315 150.329,187.235 149.917 C 187.156 149.504,187.091 149.842,187.091 150.667 M17.556 153.556 C 17.433 153.678,17.336 153.940,17.338 154.139 C 17.341 154.354,17.450 154.332,17.608 154.084 C 17.816 153.755,30.209 153.651,77.019 153.583 L 136.167 153.498 76.972 153.416 C 44.415 153.370,17.678 153.433,17.556 153.556 M295.083 153.583 C 311.721 153.631,338.946 153.631,355.583 153.583 C 372.221 153.536,358.608 153.496,325.333 153.496 C 292.058 153.496,278.446 153.536,295.083 153.583 M195.790 163.667 C 195.790 165.592,195.845 166.379,195.912 165.417 C 195.980 164.454,195.980 162.879,195.912 161.917 C 195.845 160.954,195.790 161.742,195.790 163.667 M232.583 169.250 C 235.929 169.304,241.404 169.304,244.750 169.250 C 248.096 169.195,245.358 169.151,238.667 169.151 C 231.975 169.151,229.237 169.195,232.583 169.250 M195.462 185.333 C 195.462 187.625,195.515 188.563,195.580 187.417 C 195.645 186.271,195.645 184.396,195.580 183.250 C 195.515 182.104,195.462 183.042,195.462 185.333 M47.750 200.917 C 66.954 200.964,98.379 200.964,117.583 200.917 C 136.788 200.869,121.075 200.830,82.667 200.830 C 44.258 200.830,28.546 200.869,47.750 200.917 M285.443 200.917 C 304.662 200.964,336.012 200.964,355.110 200.917 C 374.208 200.869,358.483 200.830,320.167 200.830 C 281.850 200.830,266.224 200.869,285.443 200.917 M53.417 210.583 C 75.554 210.631,111.779 210.631,133.917 210.583 C 156.054 210.536,137.942 210.497,93.667 210.497 C 49.392 210.497,31.279 210.536,53.417 210.583 M265.250 210.583 C 288.212 210.631,325.787 210.631,348.750 210.583 C 371.712 210.536,352.925 210.497,307.000 210.497 C 261.075 210.497,242.287 210.536,265.250 210.583 M149.701 220.178 C 149.132 220.826,148.667 221.456,148.667 221.578 C 148.667 221.700,148.780 221.657,148.919 221.483 C 149.058 221.309,149.611 220.679,150.148 220.083 C 150.685 219.487,151.037 219.000,150.930 219.000 C 150.823 219.000,150.270 219.530,149.701 220.178 M145.146 242.417 L 144.167 243.500 145.250 242.521 C 146.260 241.608,146.487 241.333,146.229 241.333 C 146.172 241.333,145.684 241.821,145.146 242.417 M232.583 262.583 C 237.396 262.635,245.271 262.635,250.083 262.583 C 254.896 262.531,250.958 262.488,241.333 262.488 C 231.708 262.488,227.771 262.531,232.583 262.583 M139.649 264.250 L 138.500 265.500 139.750 264.351 C 140.913 263.282,141.153 263.000,140.899 263.000 C 140.843 263.000,140.281 263.563,139.649 264.250 M206.153 324.000 C 206.153 332.158,206.197 335.496,206.250 331.417 C 206.303 327.337,206.303 320.663,206.250 316.583 C 206.197 312.504,206.153 315.842,206.153 324.000 M123.649 332.917 L 122.500 334.167 123.750 333.018 C 124.913 331.949,125.153 331.667,124.899 331.667 C 124.843 331.667,124.281 332.229,123.649 332.917 M69.667 343.500 C 70.662 344.508,71.552 345.333,71.644 345.333 C 71.736 345.333,70.996 344.508,70.000 343.500 C 69.004 342.492,68.114 341.667,68.023 341.667 C 67.931 341.667,68.671 342.492,69.667 343.500 M231.891 376.250 C 242.373 376.299,259.623 376.299,270.224 376.250 C 280.826 376.201,272.250 376.161,251.167 376.161 C 230.083 376.161,221.409 376.201,231.891 376.250 M266.500 432.667 C 267.216 433.400,267.877 434.000,267.969 434.000 C 268.060 434.000,267.549 433.400,266.833 432.667 C 266.117 431.933,265.456 431.333,265.365 431.333 C 265.273 431.333,265.784 431.933,266.500 432.667 M37.548 449.589 C 37.461 449.730,37.977 449.790,38.695 449.721 C 39.413 449.653,40.000 449.537,40.000 449.465 C 40.000 449.217,37.706 449.333,37.548 449.589 M70.743 469.250 C 70.785 480.204,70.860 486.017,70.909 482.167 C 71.140 464.109,71.144 449.333,70.917 449.333 C 70.779 449.333,70.701 458.296,70.743 469.250 M295.484 449.755 C 295.395 449.986,295.363 454.299,295.412 459.338 L 295.501 468.500 295.667 458.916 C 295.759 453.646,295.791 449.333,295.740 449.333 C 295.688 449.333,295.573 449.523,295.484 449.755 M239.489 469.333 C 239.489 479.692,239.531 483.929,239.583 478.750 C 239.635 473.571,239.635 465.096,239.583 459.917 C 239.531 454.738,239.489 458.975,239.489 469.333 M19.107 462.000 C 19.107 463.192,19.167 463.679,19.241 463.083 C 19.315 462.488,19.315 461.512,19.241 460.917 C 19.167 460.321,19.107 460.808,19.107 462.000 M56.146 467.750 L 55.167 468.833 56.250 467.854 C 56.846 467.316,57.333 466.828,57.333 466.771 C 57.333 466.513,57.058 466.740,56.146 467.750 M356.083 469.916 C 358.787 469.972,363.212 469.972,365.917 469.916 C 368.621 469.860,366.408 469.814,361.000 469.814 C 355.592 469.814,353.379 469.860,356.083 469.916 M38.083 479.239 C 38.587 479.315,39.412 479.315,39.917 479.239 C 40.421 479.162,40.008 479.100,39.000 479.100 C 37.992 479.100,37.579 479.162,38.083 479.239 M270.583 480.577 C 271.362 480.648,272.637 480.648,273.417 480.577 C 274.196 480.507,273.558 480.450,272.000 480.450 C 270.442 480.450,269.804 480.507,270.583 480.577 M128.583 481.902 C 128.996 481.981,129.671 481.981,130.083 481.902 C 130.496 481.822,130.158 481.757,129.333 481.757 C 128.508 481.757,128.171 481.822,128.583 481.902 M326.000 484.553 C 326.000 484.735,326.412 485.247,326.917 485.692 L 327.833 486.500 327.000 485.500 C 326.542 484.950,326.129 484.438,326.083 484.361 C 326.037 484.285,326.000 484.371,326.000 484.553 M198.083 489.249 C 200.421 489.306,204.246 489.306,206.583 489.249 C 208.921 489.192,207.008 489.145,202.333 489.145 C 197.658 489.145,195.746 489.192,198.083 489.249 M349.917 492.902 C 350.329 492.981,351.004 492.981,351.417 492.902 C 351.829 492.822,351.492 492.757,350.667 492.757 C 349.842 492.757,349.504 492.822,349.917 492.902 " stroke="none" fill="#c5c9eb" fill-rule="evenodd"></path></g></svg>