<svg id="svg" version="1.1" xmlns="http://www.w3.org/2000/svg" xmlns:xlink="http://www.w3.org/1999/xlink" width="400" height="400" viewBox="0, 0, 400,400"><g id="svgg"><path id="path0" d="M0.000 200.000 L 0.000 400.000 200.000 400.000 L 400.000 400.000 400.000 200.000 L 400.000 0.000 200.000 0.000 L 0.000 0.000 0.000 200.000 M120.813 84.665 C 122.896 87.231,125.962 90.966,127.627 92.965 C 129.291 94.964,135.670 102.720,141.801 110.200 C 147.932 117.680,153.987 125.060,155.257 126.600 C 156.527 128.140,160.373 132.820,163.804 137.000 C 167.235 141.180,172.263 147.300,174.977 150.600 C 177.690 153.900,182.641 159.930,185.978 164.000 C 189.315 168.070,194.638 174.550,197.806 178.400 C 200.974 182.250,206.003 188.362,208.983 191.983 C 214.985 199.277,214.704 198.801,213.600 199.800 C 212.570 200.733,212.592 201.010,213.800 202.313 C 214.823 203.416,215.141 204.800,214.371 204.800 C 213.908 204.800,212.800 205.784,212.800 206.195 C 212.800 206.333,213.906 205.596,215.258 204.555 L 217.717 202.664 219.024 204.232 C 220.680 206.218,230.767 218.411,232.726 220.794 C 233.537 221.781,236.360 225.215,239.000 228.426 C 241.640 231.637,244.401 235.006,245.136 235.913 C 245.871 236.820,246.800 237.939,247.200 238.400 C 247.600 238.861,248.529 239.982,249.264 240.890 C 249.999 241.798,253.390 245.898,256.800 250.000 C 260.210 254.102,263.630 258.242,264.400 259.200 C 265.170 260.158,268.500 264.211,271.800 268.207 C 279.514 277.548,279.807 277.904,281.324 279.765 C 282.026 280.626,285.525 284.856,289.101 289.165 C 299.920 302.204,300.227 302.966,291.213 294.400 C 288.087 291.430,285.321 288.931,285.065 288.846 C 284.809 288.762,284.965 289.032,285.411 289.446 C 285.858 289.861,286.845 291.010,287.606 292.000 C 288.366 292.990,289.171 293.995,289.394 294.234 C 289.617 294.473,290.401 295.409,291.136 296.315 C 291.871 297.220,292.800 298.339,293.200 298.800 C 293.600 299.261,294.529 300.382,295.264 301.290 C 295.999 302.198,297.185 303.646,297.900 304.508 C 299.044 305.887,299.504 306.800,299.055 306.800 C 298.635 306.800,295.186 303.731,289.434 298.241 C 285.895 294.864,282.100 291.252,281.000 290.215 C 272.077 281.803,267.337 277.293,264.228 274.257 C 262.233 272.308,259.970 270.165,259.200 269.494 C 257.886 268.350,249.246 260.160,239.631 250.945 C 237.304 248.714,234.770 246.312,234.000 245.607 C 233.230 244.902,229.900 241.754,226.600 238.611 C 214.231 226.834,214.158 226.774,213.428 227.955 C 213.307 228.150,212.532 228.436,211.704 228.590 C 210.877 228.745,210.020 229.003,209.800 229.163 C 209.580 229.323,208.320 229.782,207.000 230.183 C 204.540 230.930,203.067 231.463,201.987 231.996 C 201.650 232.162,200.750 232.432,199.987 232.595 C 199.224 232.759,198.420 233.022,198.200 233.181 C 197.980 233.339,196.720 233.782,195.400 234.165 C 193.108 234.830,191.731 235.333,190.387 235.996 C 190.050 236.162,189.150 236.432,188.387 236.595 C 187.624 236.759,186.820 237.022,186.600 237.181 C 186.380 237.339,185.120 237.779,183.800 238.158 C 182.480 238.537,181.107 239.004,180.749 239.196 C 177.050 241.181,176.696 239.630,180.248 237.000 C 183.877 234.314,186.680 232.000,186.307 232.000 C 185.932 232.000,179.831 234.081,179.124 234.450 C 177.422 235.338,178.268 233.925,180.513 232.132 C 181.881 231.039,187.050 226.928,192.000 222.996 C 212.277 206.890,212.874 206.400,212.238 206.400 C 212.149 206.400,211.371 206.985,210.509 207.700 C 209.647 208.415,208.440 209.360,207.827 209.800 C 207.213 210.240,206.506 210.782,206.256 211.005 C 206.005 211.228,204.810 212.172,203.600 213.102 C 201.051 215.061,201.303 214.870,198.199 217.200 C 196.881 218.190,195.353 219.405,194.805 219.900 C 194.257 220.395,193.680 220.800,193.522 220.800 C 193.365 220.800,192.795 221.205,192.256 221.700 C 191.191 222.679,190.981 222.845,188.600 224.610 C 187.720 225.262,186.910 225.891,186.800 226.008 C 186.690 226.125,185.790 226.841,184.800 227.600 C 183.810 228.359,182.910 229.075,182.800 229.192 C 182.690 229.309,181.520 230.206,180.200 231.186 C 178.880 232.165,177.451 233.289,177.025 233.683 C 176.598 234.078,176.130 234.400,175.984 234.400 C 175.838 234.400,175.166 234.895,174.490 235.500 C 172.977 236.856,173.157 236.715,168.600 240.097 C 168.380 240.261,167.390 241.037,166.400 241.822 C 163.648 244.004,163.522 244.103,161.599 245.596 C 160.609 246.364,159.451 247.309,159.025 247.696 C 158.598 248.083,158.116 248.400,157.953 248.400 C 157.790 248.400,157.419 248.627,157.129 248.905 C 156.654 249.359,155.182 250.516,151.155 253.600 C 150.436 254.150,149.197 255.140,148.401 255.800 C 147.605 256.460,146.291 257.450,145.480 258.000 C 144.669 258.550,144.004 259.135,144.003 259.300 C 144.001 259.465,143.730 259.600,143.400 259.600 C 143.070 259.600,142.800 259.765,142.800 259.967 C 142.800 260.169,142.215 260.698,141.500 261.141 C 140.785 261.584,139.840 262.274,139.400 262.673 C 138.960 263.073,137.520 264.201,136.200 265.181 C 134.880 266.161,133.561 267.197,133.269 267.484 C 132.977 267.770,132.376 268.199,131.935 268.435 C 131.163 268.848,130.609 269.291,127.854 271.694 C 127.164 272.295,126.441 272.790,126.247 272.794 C 126.053 272.797,125.603 273.119,125.247 273.508 C 124.891 273.898,124.218 274.483,123.751 274.808 C 122.184 275.901,118.202 278.941,118.000 279.200 C 117.890 279.341,116.720 280.241,115.400 281.200 C 114.080 282.159,112.910 283.047,112.800 283.173 C 112.690 283.299,111.521 284.212,110.202 285.201 C 108.882 286.190,107.453 287.315,107.026 287.700 C 106.599 288.085,106.130 288.400,105.984 288.400 C 105.838 288.400,105.166 288.895,104.490 289.500 C 102.970 290.862,102.763 291.024,99.800 293.185 C 98.480 294.148,96.852 295.400,96.181 295.968 C 95.511 296.536,94.456 297.360,93.837 297.800 C 93.218 298.240,92.506 298.787,92.256 299.014 C 92.005 299.242,91.080 299.962,90.200 300.614 C 88.110 302.164,87.693 302.490,86.960 303.154 C 84.729 305.176,85.828 301.752,88.308 298.953 C 88.898 298.287,90.559 296.166,92.167 294.023 C 92.788 293.196,91.929 293.744,88.946 296.079 C 84.453 299.597,84.932 298.754,93.490 288.087 C 101.466 278.145,116.572 259.977,122.164 253.600 C 129.988 244.679,130.114 244.572,131.343 245.800 C 131.673 246.130,132.136 246.400,132.371 246.400 C 132.607 246.400,132.800 246.539,132.800 246.709 C 132.800 246.879,133.430 247.357,134.200 247.772 C 134.970 248.187,135.600 248.678,135.600 248.863 C 135.600 249.048,135.862 249.200,136.182 249.200 C 136.502 249.200,137.192 249.628,137.716 250.152 C 138.239 250.676,139.058 251.228,139.534 251.379 C 140.010 251.530,140.400 251.783,140.400 251.941 C 140.400 252.098,140.930 252.541,141.579 252.924 L 142.758 253.620 146.479 250.914 C 150.265 248.161,150.853 247.720,151.714 246.986 C 151.981 246.758,152.920 246.040,153.800 245.391 C 156.640 243.297,167.394 235.041,167.600 234.795 C 167.710 234.665,168.511 234.027,169.379 233.379 C 170.248 232.730,171.418 231.773,171.979 231.251 C 172.541 230.730,173.450 230.010,174.000 229.651 C 175.096 228.937,176.159 228.065,178.296 226.126 C 179.890 224.679,179.937 222.800,178.380 222.800 C 177.937 222.800,177.471 222.530,177.345 222.200 C 177.218 221.870,176.793 221.600,176.400 221.600 C 176.007 221.600,175.582 221.330,175.455 221.000 C 175.329 220.670,174.872 220.400,174.440 220.400 C 174.007 220.400,173.543 220.049,173.406 219.620 C 173.270 219.192,172.763 218.716,172.280 218.563 C 171.796 218.411,171.130 217.977,170.800 217.600 C 170.470 217.223,169.795 216.787,169.300 216.630 C 168.805 216.474,168.400 216.178,168.400 215.973 C 168.400 215.768,168.212 215.600,167.983 215.600 C 167.591 215.600,167.138 215.287,165.815 214.100 C 165.508 213.825,165.064 213.600,164.829 213.600 C 164.593 213.600,164.400 213.432,164.400 213.227 C 164.400 213.022,163.995 212.726,163.500 212.570 C 163.005 212.413,162.330 211.977,162.000 211.600 C 161.670 211.223,160.995 210.787,160.500 210.630 C 159.643 210.360,159.227 209.600,159.936 209.600 C 160.120 209.600,160.458 209.195,160.686 208.700 C 161.133 207.728,169.366 197.392,170.010 196.994 C 170.785 196.515,170.327 195.340,165.745 186.043 C 163.184 180.850,158.864 172.091,156.145 166.579 C 153.425 161.068,151.200 156.343,151.200 156.079 C 151.200 155.816,151.060 155.600,150.888 155.600 C 150.716 155.600,150.227 154.700,149.800 153.600 C 149.373 152.500,148.923 151.600,148.800 151.600 C 148.677 151.600,148.227 150.700,147.800 149.600 C 147.373 148.500,146.884 147.600,146.712 147.600 C 146.540 147.600,146.400 147.414,146.400 147.187 C 146.400 146.830,138.259 130.159,128.162 109.840 C 126.533 106.561,125.200 103.651,125.200 103.373 C 125.200 103.094,125.065 102.807,124.900 102.733 C 124.427 102.523,123.200 100.144,123.200 99.438 C 123.200 99.087,123.062 98.800,122.894 98.800 C 122.573 98.800,121.200 95.880,121.200 95.197 C 121.200 94.979,121.065 94.799,120.900 94.799 C 120.735 94.798,120.253 93.943,119.829 92.899 C 119.406 91.854,118.951 90.910,118.818 90.800 C 118.686 90.690,118.228 89.790,117.800 88.800 C 117.372 87.810,116.885 86.901,116.717 86.780 C 116.206 86.412,115.857 84.000,116.314 84.000 C 116.542 84.000,117.198 84.585,117.770 85.300 C 119.560 87.534,119.677 87.657,119.843 87.490 C 119.933 87.401,119.285 85.904,118.405 84.164 C 117.015 81.418,116.507 80.000,116.913 80.000 C 116.975 80.000,118.730 82.099,120.813 84.665 M167.800 122.445 C 189.418 140.480,195.194 145.315,214.758 161.749 C 222.083 167.901,221.301 167.633,225.875 165.566 C 227.374 164.889,229.167 164.080,229.860 163.768 C 231.440 163.056,231.600 163.059,231.600 163.800 C 231.600 164.130,231.778 164.400,231.995 164.400 C 232.213 164.400,232.506 165.120,232.646 166.000 C 232.787 166.880,233.059 167.600,233.251 167.600 C 233.443 167.600,233.600 167.960,233.600 168.400 C 233.600 168.840,233.757 169.200,233.949 169.200 C 234.141 169.200,234.413 169.920,234.554 170.800 C 234.694 171.680,234.987 172.400,235.205 172.400 C 235.422 172.400,235.600 172.850,235.600 173.400 C 235.600 173.950,235.778 174.400,235.995 174.400 C 236.213 174.400,236.506 175.120,236.646 176.000 C 236.787 176.880,237.059 177.600,237.251 177.600 C 237.443 177.600,237.600 177.960,237.600 178.400 C 237.600 179.358,238.994 179.513,239.347 178.594 C 239.475 178.261,240.034 177.815,240.590 177.604 C 241.145 177.393,241.600 177.047,241.600 176.837 C 241.600 176.626,241.915 176.353,242.300 176.229 C 242.685 176.105,243.630 175.463,244.400 174.803 C 245.170 174.142,245.922 173.601,246.071 173.601 C 246.221 173.600,246.581 173.371,246.871 173.091 C 247.162 172.810,249.110 171.334,251.200 169.810 C 253.290 168.285,255.349 166.715,255.775 166.319 C 256.202 165.924,256.684 165.600,256.847 165.600 C 257.010 165.600,257.381 165.373,257.671 165.096 C 257.962 164.818,259.910 163.337,262.000 161.804 C 264.090 160.271,265.890 158.919,266.000 158.800 C 266.110 158.681,267.910 157.327,270.000 155.792 C 272.090 154.257,276.680 150.798,280.200 148.105 C 288.564 141.707,288.866 141.472,289.370 140.986 C 289.607 140.758,290.520 140.039,291.400 139.388 C 292.280 138.737,293.144 137.979,293.320 137.702 C 293.496 137.426,293.904 137.200,294.227 137.200 C 294.877 137.200,294.608 135.217,293.896 134.750 C 292.678 133.951,294.427 132.730,302.995 128.394 C 307.937 125.893,312.092 123.959,312.230 124.096 C 312.459 124.325,307.529 128.111,300.638 132.999 C 299.013 134.152,298.099 135.033,298.418 135.139 C 298.716 135.239,299.029 135.113,299.113 134.860 C 299.198 134.607,299.434 134.400,299.638 134.400 C 299.842 134.400,302.212 133.339,304.905 132.043 C 312.156 128.552,313.651 127.917,313.939 128.205 C 314.157 128.423,312.509 130.055,310.998 131.118 C 309.636 132.076,305.678 135.113,305.026 135.700 C 304.599 136.085,304.116 136.400,303.953 136.400 C 303.790 136.400,303.419 136.625,303.129 136.900 C 302.838 137.175,301.521 138.210,300.202 139.200 C 298.882 140.190,297.453 141.315,297.026 141.700 C 296.599 142.085,296.116 142.400,295.953 142.400 C 295.790 142.400,295.419 142.625,295.129 142.900 C 294.838 143.175,293.521 144.210,292.202 145.200 C 290.882 146.190,289.453 147.315,289.026 147.700 C 288.599 148.085,288.116 148.400,287.953 148.400 C 287.790 148.400,287.419 148.627,287.129 148.905 C 286.838 149.183,285.669 150.128,284.530 151.005 C 283.392 151.882,281.882 153.050,281.175 153.600 C 280.468 154.150,279.709 154.669,279.488 154.752 C 279.267 154.836,278.706 155.231,278.243 155.629 C 275.524 157.964,274.976 158.399,274.754 158.400 C 274.619 158.400,273.899 158.937,273.154 159.594 C 272.409 160.250,271.673 160.790,271.518 160.794 C 271.363 160.797,270.806 161.205,270.279 161.700 C 269.034 162.871,266.812 164.556,266.245 164.760 C 266.000 164.848,265.710 165.032,265.600 165.170 C 265.313 165.528,261.318 168.592,256.000 172.532 C 254.350 173.755,252.820 174.905,252.600 175.090 C 252.231 175.398,249.530 177.422,248.600 178.086 C 248.380 178.243,247.570 178.883,246.800 179.507 C 246.030 180.131,244.410 181.350,243.200 182.215 C 240.226 184.341,240.380 184.226,238.800 185.507 C 238.030 186.131,236.410 187.349,235.200 188.213 C 233.990 189.077,232.773 190.002,232.495 190.268 C 232.218 190.534,230.418 191.880,228.495 193.257 C 226.573 194.635,224.910 195.873,224.800 196.008 C 224.690 196.143,223.520 197.051,222.200 198.027 C 220.880 199.002,219.562 200.025,219.271 200.300 C 218.475 201.053,215.612 199.228,215.602 197.961 C 215.601 197.830,215.256 197.326,214.836 196.842 C 214.416 196.358,213.500 195.259,212.800 194.400 C 212.100 193.541,211.200 192.461,210.800 192.000 C 210.400 191.539,209.471 190.418,208.736 189.510 C 208.001 188.602,206.804 187.126,206.075 186.230 C 204.201 183.923,203.955 183.615,202.394 181.600 C 201.628 180.610,200.910 179.710,200.800 179.600 C 200.690 179.490,199.917 178.549,199.081 177.510 C 198.246 176.470,197.346 175.386,197.081 175.100 C 196.817 174.814,195.972 173.775,195.206 172.790 C 193.619 170.754,193.355 170.422,191.525 168.170 C 190.796 167.274,189.570 165.760,188.800 164.805 C 188.030 163.850,187.213 162.873,186.986 162.634 C 186.758 162.395,186.038 161.490,185.386 160.621 C 184.733 159.753,183.616 158.403,182.902 157.621 C 182.188 156.840,181.603 156.072,181.602 155.916 C 181.601 155.759,181.274 155.309,180.876 154.916 C 180.478 154.522,178.993 152.760,177.576 151.000 C 176.159 149.240,174.907 147.710,174.793 147.600 C 174.618 147.431,168.530 139.855,167.074 137.994 C 166.813 137.660,165.790 136.403,164.800 135.200 C 163.810 133.997,162.730 132.671,162.400 132.254 C 162.070 131.837,161.170 130.732,160.400 129.800 C 159.630 128.868,158.656 127.676,158.236 127.152 C 157.815 126.629,157.005 125.636,156.436 124.947 C 155.866 124.257,155.010 123.177,154.534 122.547 C 154.058 121.916,153.309 120.986,152.870 120.481 C 152.432 119.975,151.504 118.864,150.810 118.012 C 150.115 117.160,149.109 115.954,148.574 115.331 C 148.039 114.709,147.601 114.093,147.600 113.961 C 147.600 113.830,147.015 113.090,146.300 112.316 C 141.748 107.392,139.719 103.468,143.331 106.574 C 143.954 107.109,145.195 108.144,146.091 108.874 C 146.987 109.603,148.277 110.692,148.960 111.294 C 151.382 113.430,150.771 112.336,146.811 107.453 C 140.228 99.334,139.331 98.692,167.800 122.445 M261.179 172.379 C 259.727 175.305,259.860 175.707,261.793 174.233 C 263.070 173.258,263.233 173.221,263.476 173.853 C 263.630 174.254,263.543 174.619,263.272 174.709 C 263.012 174.796,262.800 175.049,262.800 175.273 C 262.800 175.741,261.555 178.502,261.210 178.800 C 261.082 178.910,260.628 179.810,260.200 180.800 C 259.772 181.790,259.322 182.690,259.200 182.800 C 259.078 182.910,258.628 183.810,258.200 184.800 C 257.772 185.790,257.327 186.690,257.211 186.800 C 257.095 186.910,254.066 192.870,250.480 200.044 L 243.959 213.088 244.558 214.444 C 245.994 217.697,254.000 238.525,254.000 239.007 C 254.000 239.197,253.736 239.004,253.413 238.576 C 252.705 237.641,252.515 238.670,253.166 239.905 C 253.969 241.426,254.800 243.551,254.800 244.080 C 254.800 244.388,255.016 244.856,255.280 245.120 C 255.618 245.458,255.635 245.725,255.336 246.024 C 254.874 246.486,254.487 246.075,250.410 240.799 C 249.646 239.809,248.926 238.910,248.809 238.800 C 248.693 238.690,247.789 237.520,246.800 236.200 C 245.811 234.880,244.909 233.710,244.795 233.600 C 244.567 233.380,242.251 230.435,238.189 225.200 C 236.738 223.330,235.337 221.526,235.076 221.191 C 234.814 220.856,233.790 219.506,232.801 218.191 C 231.812 216.876,230.909 215.710,230.795 215.600 C 230.681 215.490,229.736 214.320,228.694 213.000 C 227.652 211.680,225.806 209.340,224.590 207.800 C 222.253 204.838,222.055 204.042,223.495 203.408 C 224.789 202.839,224.906 202.111,223.919 200.775 C 223.391 200.062,223.195 199.464,223.423 199.264 C 224.007 198.751,235.052 190.307,242.600 184.601 C 246.340 181.774,249.490 179.357,249.600 179.228 C 249.710 179.100,250.880 178.194,252.200 177.214 C 253.520 176.235,254.780 175.283,255.000 175.100 C 256.663 173.715,262.199 169.665,262.296 169.762 C 262.362 169.829,261.860 171.007,261.179 172.379 " stroke="none" fill="#f3f3fb" fill-rule="evenodd"></path><path id="path1" d="M117.615 86.657 C 117.607 86.908,121.851 95.728,127.046 106.257 C 132.241 116.786,139.060 130.620,142.200 137.000 C 148.875 150.561,165.226 183.707,168.593 190.500 C 171.026 195.409,171.296 195.716,172.004 194.392 C 172.366 193.717,171.853 192.396,168.858 186.292 C 165.039 178.508,154.187 156.509,139.411 126.600 C 134.412 116.480,128.599 104.690,126.493 100.400 C 124.387 96.110,122.164 91.880,121.552 91.000 C 119.917 88.652,117.632 86.130,117.615 86.657 M143.608 107.902 C 143.616 108.191,144.427 109.223,151.471 117.900 C 153.302 120.155,156.368 123.935,158.285 126.300 C 160.202 128.665,162.939 132.040,164.367 133.800 C 170.585 141.462,172.062 143.284,176.039 148.200 C 178.353 151.060,182.210 155.830,184.610 158.800 C 191.193 166.944,197.967 175.300,198.725 176.210 C 199.096 176.655,200.480 178.364,201.800 180.006 C 203.120 181.649,205.910 185.084,208.000 187.640 C 210.090 190.197,213.223 194.032,214.963 196.163 C 216.877 198.508,218.335 199.957,218.656 199.834 C 218.948 199.722,224.274 195.787,230.493 191.090 C 236.712 186.393,247.650 178.140,254.800 172.750 C 288.280 147.512,296.363 141.418,303.917 135.721 C 308.381 132.355,311.846 129.600,311.617 129.600 C 309.234 129.600,294.469 137.904,287.800 142.995 C 283.840 146.018,275.290 152.474,268.800 157.341 C 262.310 162.208,256.910 166.287,256.800 166.406 C 255.682 167.612,218.350 195.216,218.070 195.043 C 217.863 194.915,215.625 192.243,213.096 189.105 C 210.568 185.967,207.255 181.870,205.734 180.000 C 204.213 178.130,201.446 174.721,199.584 172.425 C 197.723 170.129,194.437 166.079,192.282 163.425 C 182.313 151.148,170.907 137.080,160.139 123.780 C 156.231 118.953,152.675 114.987,151.139 113.742 C 149.743 112.611,147.475 110.766,146.100 109.644 C 144.725 108.522,143.604 107.738,143.608 107.902 M260.329 176.106 C 256.703 179.295,241.794 211.200,243.930 211.200 C 244.233 211.200,262.400 175.617,262.400 175.023 C 262.400 174.525,261.724 174.879,260.329 176.106 M208.726 203.509 C 207.117 204.779,205.325 206.174,204.745 206.609 C 204.165 207.044,200.231 210.100,196.003 213.400 C 191.775 216.700,187.723 219.850,187.000 220.400 C 186.277 220.950,182.225 224.100,177.997 227.400 C 173.769 230.700,169.835 233.756,169.255 234.192 C 168.675 234.628,167.287 235.708,166.172 236.592 C 165.056 237.476,163.457 238.734,162.617 239.388 C 161.393 240.340,131.790 263.044,123.858 269.114 C 122.790 269.931,120.874 271.410,119.601 272.400 C 118.328 273.390,115.991 275.190,114.408 276.400 C 112.824 277.610,110.498 279.410,109.238 280.400 C 107.978 281.390,104.294 284.237,101.051 286.726 C 94.087 292.073,82.085 305.893,88.564 301.104 C 89.994 300.047,161.667 244.837,169.966 238.400 C 171.242 237.410,177.737 232.370,184.400 227.200 C 191.062 222.030,200.313 214.875,204.957 211.300 C 214.741 203.768,214.419 204.112,213.237 202.453 C 212.080 200.828,212.143 200.813,208.726 203.509 M224.100 203.577 C 222.882 204.593,222.938 204.846,224.916 207.284 C 225.860 208.448,228.785 212.169,231.416 215.554 C 234.047 218.939,238.325 224.429,240.922 227.754 C 243.519 231.079,247.331 235.972,249.393 238.627 C 254.285 244.926,254.677 245.233,253.371 241.750 C 251.707 237.310,250.996 235.930,249.148 233.546 C 248.186 232.306,244.959 228.166,241.976 224.346 C 238.993 220.526,233.990 214.115,230.857 210.100 C 227.725 206.085,225.125 202.806,225.081 202.813 C 225.036 202.821,224.595 203.164,224.100 203.577 M210.421 223.407 C 208.342 224.153,202.852 226.049,198.221 227.619 C 193.589 229.189,189.350 230.757,188.800 231.103 C 187.179 232.123,178.758 238.891,178.915 239.048 C 178.994 239.127,182.735 237.922,187.229 236.370 C 191.723 234.817,196.660 233.121,198.200 232.601 C 199.740 232.080,204.150 230.572,208.000 229.250 L 215.000 226.846 217.200 228.931 C 218.410 230.077,221.204 232.721,223.409 234.807 C 227.165 238.360,229.257 240.342,238.811 249.400 C 240.900 251.380,244.589 254.890,247.009 257.200 C 249.429 259.510,254.647 264.457,258.604 268.194 C 262.562 271.930,267.690 276.797,270.000 279.008 C 272.310 281.219,275.816 284.552,277.792 286.414 C 282.038 290.417,287.778 295.865,292.123 300.016 C 294.956 302.723,296.910 304.232,295.669 302.756 C 295.412 302.450,292.277 298.600,288.702 294.200 C 280.667 284.310,276.516 280.104,251.400 256.398 C 245.240 250.584,238.494 244.201,236.408 242.214 C 234.323 240.226,230.813 236.884,228.608 234.786 C 226.404 232.689,223.070 229.508,221.200 227.718 C 216.653 223.366,215.079 222.009,214.600 222.031 C 214.380 222.041,212.499 222.660,210.421 223.407 " stroke="none" fill="#342e2e" fill-rule="evenodd"></path><path id="path2" d="M118.670 83.400 C 118.819 83.840,119.054 84.290,119.192 84.400 C 119.556 84.692,120.800 87.445,120.800 87.960 C 120.800 88.202,121.001 88.400,121.247 88.400 C 121.493 88.400,121.602 88.751,121.489 89.181 C 121.377 89.610,121.438 90.015,121.625 90.081 C 122.059 90.233,128.800 103.568,128.800 104.273 C 128.800 104.563,128.936 104.800,129.102 104.800 C 129.269 104.800,129.651 105.385,129.952 106.100 C 130.253 106.815,130.747 107.895,131.050 108.500 C 131.352 109.105,131.848 110.095,132.150 110.700 C 132.453 111.305,132.947 112.385,133.248 113.100 C 133.549 113.815,133.931 114.400,134.098 114.400 C 134.264 114.400,134.400 114.630,134.400 114.911 C 134.400 115.192,134.940 116.463,135.600 117.735 C 136.260 119.007,136.800 120.292,136.800 120.591 C 136.800 120.889,136.935 121.193,137.100 121.267 C 137.573 121.477,138.800 123.856,138.800 124.562 C 138.800 124.913,138.938 125.200,139.106 125.200 C 139.427 125.200,140.800 128.120,140.800 128.803 C 140.800 129.021,140.938 129.200,141.106 129.200 C 141.427 129.200,142.800 132.120,142.800 132.803 C 142.800 133.021,142.938 133.200,143.106 133.200 C 143.427 133.200,144.800 136.120,144.800 136.803 C 144.800 137.021,144.938 137.200,145.106 137.200 C 145.427 137.200,146.800 140.120,146.800 140.803 C 146.800 141.021,146.936 141.200,147.102 141.200 C 147.269 141.200,147.653 141.785,147.957 142.500 C 148.260 143.215,150.824 148.494,153.654 154.231 C 156.484 159.967,158.800 164.872,158.800 165.131 C 158.800 165.389,158.938 165.600,159.106 165.600 C 159.427 165.600,160.800 168.520,160.800 169.203 C 160.800 169.421,160.980 169.600,161.200 169.600 C 161.420 169.600,161.600 169.960,161.600 170.400 C 161.600 170.840,161.780 171.200,162.000 171.200 C 162.220 171.200,162.400 171.379,162.400 171.597 C 162.400 172.280,163.773 175.200,164.094 175.200 C 164.262 175.200,164.401 175.425,164.402 175.700 C 164.402 175.975,165.842 179.061,167.602 182.557 C 169.361 186.054,170.800 189.159,170.800 189.457 C 170.800 189.756,170.946 190.000,171.125 190.000 C 171.304 190.000,171.683 190.593,171.968 191.318 C 172.292 192.143,172.781 192.658,173.277 192.696 C 173.712 192.729,174.464 193.215,174.947 193.778 C 175.430 194.340,176.123 194.800,176.486 194.800 C 176.849 194.800,177.260 195.160,177.400 195.600 C 177.540 196.042,178.005 196.400,178.440 196.400 C 178.872 196.400,179.329 196.670,179.455 197.000 C 179.582 197.330,179.945 197.600,180.262 197.600 C 180.579 197.600,181.255 198.050,181.765 198.600 C 182.275 199.150,182.896 199.600,183.146 199.600 C 183.396 199.600,183.600 199.768,183.600 199.973 C 183.600 200.178,184.005 200.474,184.500 200.630 C 184.995 200.787,185.691 201.249,186.047 201.657 C 186.403 202.066,186.890 202.400,187.129 202.400 C 187.368 202.400,187.992 202.828,188.516 203.352 C 189.039 203.876,189.858 204.428,190.334 204.579 C 190.810 204.730,191.200 205.022,191.200 205.227 C 191.200 205.432,191.470 205.600,191.800 205.600 C 192.130 205.600,192.400 205.777,192.400 205.992 C 192.400 206.208,192.815 206.489,193.323 206.616 C 193.831 206.744,194.576 207.287,194.979 207.824 C 195.382 208.361,196.047 208.800,196.456 208.800 C 196.865 208.800,197.200 208.967,197.200 209.171 C 197.200 211.347,199.628 210.483,203.353 206.980 C 203.599 206.749,204.880 205.772,206.200 204.809 C 207.520 203.845,209.301 202.465,210.158 201.741 C 211.015 201.017,211.897 200.537,212.120 200.674 C 212.343 200.812,212.401 200.726,212.251 200.482 C 212.100 200.239,212.343 199.845,212.789 199.606 C 213.724 199.105,213.804 198.676,213.100 197.919 C 212.606 197.387,209.567 193.715,208.401 192.240 C 208.070 191.822,207.524 191.185,207.186 190.826 C 206.848 190.466,206.038 189.470,205.386 188.612 C 204.734 187.754,203.615 186.431,202.900 185.670 C 202.185 184.910,201.600 184.161,201.600 184.005 C 201.600 183.850,201.015 183.097,200.300 182.333 C 198.971 180.912,198.806 180.712,196.394 177.600 C 195.628 176.611,194.725 175.531,194.389 175.200 C 194.052 174.870,193.155 173.790,192.394 172.800 C 191.634 171.810,190.829 170.805,190.606 170.566 C 190.383 170.327,189.599 169.391,188.864 168.485 C 188.129 167.580,187.200 166.461,186.800 166.000 C 186.400 165.539,185.471 164.414,184.736 163.500 C 184.001 162.587,182.934 161.291,182.364 160.620 C 181.795 159.949,180.985 158.967,180.564 158.437 C 180.144 157.908,179.215 156.806,178.500 155.989 C 177.785 155.172,177.200 154.399,177.200 154.272 C 177.200 154.145,176.390 153.183,175.400 152.135 C 174.410 151.087,173.600 150.115,173.600 149.974 C 173.600 149.834,173.054 149.107,172.386 148.359 C 170.487 146.232,169.900 145.529,168.410 143.600 C 167.646 142.610,166.926 141.710,166.810 141.600 C 166.600 141.400,163.539 137.679,162.401 136.240 C 162.070 135.822,161.524 135.185,161.186 134.826 C 160.848 134.466,160.038 133.470,159.386 132.612 C 158.734 131.754,157.615 130.431,156.900 129.670 C 156.185 128.910,155.600 128.161,155.600 128.005 C 155.600 127.850,155.015 127.097,154.300 126.333 C 152.971 124.912,152.806 124.712,150.394 121.600 C 149.628 120.611,148.725 119.531,148.389 119.200 C 148.052 118.870,147.155 117.790,146.394 116.800 C 145.634 115.810,144.829 114.805,144.606 114.566 C 144.383 114.327,143.599 113.391,142.864 112.485 C 142.129 111.580,141.200 110.461,140.800 110.000 C 140.400 109.539,139.471 108.414,138.736 107.500 C 138.001 106.587,136.934 105.291,136.364 104.620 C 135.234 103.289,134.762 102.704,132.631 100.000 C 131.851 99.010,130.805 97.759,130.306 97.220 C 129.470 96.315,128.624 95.270,126.288 92.252 C 125.800 91.621,125.040 90.721,124.599 90.252 C 124.158 89.784,123.168 88.591,122.399 87.601 C 121.630 86.612,120.692 85.442,120.316 85.001 C 119.940 84.561,119.355 83.840,119.015 83.400 L 118.398 82.600 118.670 83.400 M146.851 106.355 C 148.236 108.260,149.908 110.317,151.115 111.600 C 151.839 112.370,152.536 113.490,152.663 114.088 C 152.791 114.687,153.225 115.281,153.627 115.409 C 154.030 115.536,154.470 115.992,154.606 116.420 C 154.743 116.849,154.999 117.200,155.177 117.200 C 155.355 117.200,156.686 118.685,158.135 120.500 C 159.584 122.315,161.091 124.160,161.485 124.600 C 161.878 125.040,162.827 126.210,163.594 127.200 C 164.361 128.190,165.171 129.201,165.394 129.447 C 166.304 130.449,167.479 131.887,168.607 133.379 C 169.263 134.247,170.384 135.597,171.098 136.379 C 171.812 137.160,172.397 137.916,172.398 138.058 C 172.399 138.199,172.895 138.863,173.500 139.531 C 174.105 140.200,174.870 141.096,175.200 141.523 C 176.232 142.858,178.553 145.665,179.694 146.960 C 180.295 147.642,180.790 148.321,180.794 148.469 C 180.797 148.617,181.295 149.258,181.900 149.892 C 182.505 150.527,183.272 151.396,183.606 151.823 C 183.939 152.250,184.839 153.410,185.606 154.400 C 186.372 155.390,187.090 156.290,187.200 156.400 C 187.310 156.510,188.083 157.451,188.919 158.490 C 189.754 159.530,190.660 160.610,190.932 160.890 C 191.204 161.171,191.845 161.995,192.357 162.723 C 192.869 163.451,193.379 163.954,193.491 163.842 C 193.603 163.730,193.404 163.347,193.048 162.990 C 192.691 162.634,192.400 162.086,192.400 161.771 C 192.400 161.457,192.220 161.200,192.000 161.200 C 191.780 161.200,191.600 160.840,191.600 160.400 C 191.600 159.960,191.443 159.600,191.251 159.600 C 191.059 159.600,190.787 158.880,190.646 158.000 C 190.506 157.120,190.213 156.400,189.995 156.400 C 189.778 156.400,189.600 155.950,189.600 155.400 C 189.600 154.850,189.422 154.400,189.205 154.400 C 188.987 154.400,188.694 153.680,188.554 152.800 C 188.413 151.920,188.141 151.200,187.949 151.200 C 187.757 151.200,187.600 150.840,187.600 150.400 C 187.600 149.960,187.443 149.600,187.251 149.600 C 187.059 149.600,186.787 148.880,186.646 148.000 C 186.506 147.120,186.213 146.400,185.995 146.400 C 185.778 146.400,185.600 145.950,185.600 145.400 C 185.600 144.850,185.422 144.400,185.205 144.400 C 184.987 144.400,184.694 143.680,184.554 142.800 C 184.413 141.920,184.141 141.200,183.949 141.200 C 183.757 141.200,183.600 140.840,183.600 140.400 C 183.600 139.960,183.443 139.600,183.251 139.600 C 183.059 139.600,182.787 138.880,182.646 138.000 C 182.506 137.120,182.213 136.400,181.995 136.400 C 181.778 136.400,181.600 136.085,181.600 135.699 C 181.600 135.314,180.577 134.099,179.326 132.999 C 178.075 131.900,176.428 130.415,175.665 129.700 C 174.902 128.985,174.150 128.400,173.995 128.400 C 173.839 128.400,173.049 127.775,172.239 127.011 C 171.428 126.246,170.443 125.391,170.049 125.111 C 169.655 124.830,168.447 123.844,167.366 122.920 C 166.285 121.996,164.500 120.501,163.400 119.597 C 162.300 118.694,160.680 117.350,159.800 116.611 C 157.434 114.625,154.608 112.283,153.752 111.599 C 150.876 109.301,148.471 107.268,147.719 106.500 C 146.648 105.406,146.094 105.313,146.851 106.355 M195.293 166.400 C 195.568 166.840,195.931 167.200,196.100 167.200 C 196.269 167.200,196.182 166.840,195.907 166.400 C 195.632 165.960,195.269 165.600,195.100 165.600 C 194.931 165.600,195.018 165.960,195.293 166.400 M214.200 205.850 C 213.481 206.462,213.334 206.705,213.833 206.457 C 214.566 206.093,215.941 204.776,215.549 204.814 C 215.467 204.822,214.860 205.288,214.200 205.850 M219.200 205.296 C 219.200 205.421,219.830 206.278,220.600 207.200 C 221.370 208.122,221.993 208.724,221.983 208.538 C 221.965 208.158,219.200 204.938,219.200 205.296 M209.170 209.868 L 208.200 210.936 209.287 210.168 C 209.886 209.746,210.381 209.265,210.387 209.100 C 210.408 208.607,210.189 208.746,209.170 209.868 M224.834 212.247 C 225.365 212.933,225.880 213.423,225.979 213.335 C 226.077 213.247,225.643 212.686,225.013 212.088 L 223.869 211.000 224.834 212.247 M227.154 215.136 C 227.599 215.760,228.279 216.525,228.665 216.836 C 229.052 217.146,228.760 216.635,228.017 215.700 C 226.491 213.780,225.925 213.410,227.154 215.136 M198.600 218.294 L 197.000 219.713 198.600 218.588 C 200.658 217.141,200.560 217.226,200.367 217.037 C 200.275 216.948,199.480 217.513,198.600 218.294 M229.881 218.587 C 230.277 219.131,230.743 219.581,230.919 219.587 C 231.094 219.594,230.914 219.156,230.519 218.613 C 230.123 218.069,229.657 217.619,229.481 217.613 C 229.306 217.606,229.486 218.044,229.881 218.587 M195.429 220.609 C 195.005 220.929,194.735 221.268,194.829 221.361 C 194.923 221.455,195.425 221.187,195.944 220.766 C 197.038 219.879,196.579 219.739,195.429 220.609 M233.881 223.387 C 234.277 223.931,234.766 224.381,234.970 224.387 C 235.173 224.394,234.917 223.950,234.400 223.400 C 233.201 222.123,232.957 222.118,233.881 223.387 M189.000 225.823 C 188.254 226.456,188.115 226.691,188.633 226.443 C 189.376 226.087,190.725 224.797,190.349 224.802 C 190.267 224.803,189.660 225.263,189.000 225.823 M180.800 232.384 C 179.164 233.822,178.923 234.555,180.400 233.600 C 180.730 233.387,180.827 233.209,180.615 233.206 C 180.403 233.203,180.853 232.667,181.615 232.016 C 182.377 231.365,182.910 230.826,182.800 230.817 C 182.690 230.809,181.790 231.514,180.800 232.384 M184.600 231.814 C 183.600 232.296,183.566 232.351,184.400 232.148 C 185.533 231.871,186.807 231.221,186.200 231.230 C 185.980 231.233,185.260 231.496,184.600 231.814 M243.200 234.600 C 243.717 235.150,244.206 235.600,244.288 235.600 C 244.621 235.600,242.972 233.624,242.630 233.613 C 242.427 233.606,242.683 234.050,243.200 234.600 M251.632 244.600 C 252.681 246.128,254.000 247.659,253.985 247.331 C 253.977 247.149,253.320 246.280,252.527 245.400 C 251.733 244.520,251.330 244.160,251.632 244.600 M255.140 249.116 C 255.633 249.809,256.244 250.504,256.497 250.660 C 256.750 250.817,256.554 250.377,256.060 249.684 C 255.567 248.991,254.956 248.296,254.703 248.140 C 254.450 247.983,254.646 248.423,255.140 249.116 M257.564 251.933 C 257.780 252.336,258.271 252.921,258.655 253.233 C 259.087 253.584,258.990 253.304,258.401 252.500 C 257.351 251.065,256.957 250.798,257.564 251.933 M263.613 259.056 C 263.631 259.544,264.757 260.976,264.961 260.771 C 265.055 260.677,264.787 260.175,264.366 259.656 C 263.945 259.136,263.606 258.866,263.613 259.056 M115.960 261.692 C 115.432 262.403,114.415 263.601,113.700 264.354 C 112.985 265.107,112.400 265.850,112.400 266.005 C 112.400 266.161,111.815 266.910,111.100 267.670 C 110.385 268.431,109.263 269.761,108.607 270.626 C 107.951 271.492,107.006 272.581,106.507 273.046 C 106.008 273.511,105.600 274.081,105.600 274.313 C 105.600 274.544,105.462 274.793,105.292 274.867 C 105.123 274.940,104.178 275.990,103.192 277.200 C 102.207 278.410,100.995 279.796,100.500 280.281 C 100.005 280.765,99.600 281.273,99.600 281.409 C 99.600 281.546,99.375 281.905,99.100 282.209 C 98.825 282.513,98.150 283.326,97.600 284.018 C 97.050 284.709,96.150 285.785,95.600 286.409 C 95.050 287.032,94.240 288.043,93.800 288.654 C 93.360 289.265,92.730 290.049,92.400 290.396 C 92.070 290.743,91.270 291.740,90.621 292.613 C 89.973 293.486,89.258 294.325,89.033 294.478 C 88.807 294.631,88.763 294.896,88.933 295.067 C 89.104 295.237,89.369 295.193,89.522 294.967 C 90.147 294.047,92.796 292.350,93.210 292.606 C 93.466 292.764,93.747 292.525,93.874 292.040 C 93.994 291.578,94.342 291.200,94.647 291.200 C 94.951 291.200,95.200 291.026,95.200 290.813 C 95.200 290.600,96.235 289.666,97.500 288.738 C 98.765 287.810,99.860 286.904,99.933 286.725 C 100.007 286.546,100.307 286.400,100.600 286.400 C 100.893 286.400,101.193 286.264,101.267 286.097 C 101.340 285.930,102.210 285.170,103.200 284.407 C 104.190 283.645,105.090 282.926,105.200 282.809 C 105.310 282.693,106.479 281.788,107.798 280.799 C 109.118 279.810,110.547 278.685,110.974 278.300 C 111.401 277.915,111.869 277.600,112.014 277.600 C 112.159 277.600,112.710 277.229,113.239 276.776 C 113.767 276.322,114.560 275.643,115.000 275.265 C 115.747 274.624,119.434 271.814,124.165 268.279 C 125.284 267.442,126.469 266.601,126.797 266.409 C 127.125 266.217,127.250 265.917,127.075 265.742 C 126.900 265.566,126.573 265.688,126.348 266.012 C 126.039 266.457,125.890 266.478,125.736 266.100 C 125.625 265.825,125.291 265.600,124.995 265.600 C 124.699 265.600,124.215 265.358,123.920 265.063 C 123.624 264.767,122.580 264.019,121.600 263.400 C 120.620 262.781,119.576 262.033,119.280 261.737 C 118.985 261.442,118.486 261.200,118.171 261.200 C 117.857 261.200,117.600 261.020,117.600 260.800 C 117.600 260.035,116.914 260.408,115.960 261.692 M267.881 264.587 C 268.277 265.131,268.766 265.581,268.970 265.587 C 269.173 265.594,268.917 265.150,268.400 264.600 C 267.201 263.323,266.957 263.318,267.881 264.587 M269.881 266.987 C 270.277 267.531,270.766 267.981,270.970 267.987 C 271.173 267.994,270.917 267.550,270.400 267.000 C 269.201 265.723,268.957 265.718,269.881 266.987 M279.632 278.600 C 280.681 280.128,282.000 281.659,281.985 281.331 C 281.977 281.149,281.320 280.280,280.527 279.400 C 279.733 278.520,279.330 278.160,279.632 278.600 M283.140 283.116 C 283.633 283.809,284.244 284.504,284.497 284.660 C 284.750 284.817,284.554 284.377,284.060 283.684 C 283.567 282.991,282.956 282.296,282.703 282.140 C 282.450 281.983,282.646 282.423,283.140 283.116 M285.559 285.800 C 285.796 286.240,286.458 287.140,287.030 287.800 C 287.603 288.460,287.877 288.640,287.641 288.200 C 287.404 287.760,286.742 286.860,286.170 286.200 C 285.597 285.540,285.323 285.360,285.559 285.800 M283.034 286.345 C 282.898 286.565,282.970 286.858,283.193 286.996 C 283.417 287.134,283.600 287.107,283.600 286.936 C 283.600 286.765,284.680 287.694,286.000 289.000 C 287.320 290.306,288.379 291.201,288.353 290.987 C 288.268 290.285,283.286 285.937,283.034 286.345 M289.154 290.336 C 289.599 290.960,290.279 291.725,290.665 292.036 C 291.052 292.346,290.760 291.835,290.017 290.900 C 288.491 288.980,287.925 288.610,289.154 290.336 M291.396 293.321 C 291.124 293.595,291.644 294.348,292.992 295.634 C 294.092 296.683,295.067 297.466,295.159 297.374 C 295.251 297.282,294.759 296.665,294.065 296.002 C 293.371 295.339,292.781 294.662,292.754 294.498 C 292.618 293.673,291.774 292.941,291.396 293.321 " stroke="none" fill="#c4c3c4" fill-rule="evenodd"></path><path id="path3" d="M116.000 84.588 C 116.000 84.861,117.659 88.000,117.803 88.000 C 117.870 88.000,117.839 87.595,117.733 87.100 C 117.578 86.371,117.817 86.504,118.990 87.800 C 121.571 90.652,122.547 92.390,129.618 106.724 C 133.449 114.492,136.640 120.681,136.707 120.478 C 136.775 120.274,136.284 119.053,135.615 117.765 C 134.947 116.476,134.400 115.192,134.400 114.911 C 134.400 114.630,134.264 114.400,134.098 114.400 C 133.931 114.400,133.549 113.815,133.248 113.100 C 132.947 112.385,132.453 111.305,132.150 110.700 C 131.848 110.095,131.352 109.105,131.050 108.500 C 130.747 107.895,130.253 106.815,129.952 106.100 C 129.651 105.385,129.269 104.800,129.102 104.800 C 128.936 104.800,128.800 104.567,128.800 104.282 C 128.800 102.606,122.392 91.176,119.616 87.900 C 117.025 84.842,116.000 83.903,116.000 84.588 M118.042 88.600 C 118.042 88.820,119.553 91.970,121.400 95.600 C 123.247 99.230,124.758 102.020,124.758 101.800 C 124.758 101.580,123.247 98.430,121.400 94.800 C 119.553 91.170,118.042 88.380,118.042 88.600 M125.068 103.106 C 125.194 103.605,125.455 104.110,125.648 104.230 C 126.196 104.568,126.062 103.836,125.420 102.976 C 124.860 102.227,124.848 102.232,125.068 103.106 M126.109 105.100 C 126.195 105.265,126.581 106.090,126.967 106.932 C 127.353 107.775,127.751 108.382,127.853 108.281 C 128.053 108.080,126.436 104.800,126.136 104.800 C 126.035 104.800,126.023 104.935,126.109 105.100 M142.013 106.269 C 142.006 106.527,143.655 108.777,145.678 111.269 C 149.987 116.577,158.640 127.290,162.146 131.658 C 163.496 133.340,164.674 134.646,164.764 134.560 C 164.855 134.474,164.216 133.548,163.345 132.502 C 162.474 131.456,160.195 128.665,158.281 126.300 C 156.366 123.935,153.302 120.155,151.471 117.900 C 144.330 109.104,143.615 108.188,143.608 107.825 C 143.604 107.619,144.095 107.894,144.700 108.437 C 146.824 110.341,147.412 110.580,145.421 108.729 C 144.314 107.700,143.335 106.932,143.244 107.023 C 143.153 107.113,142.842 106.875,142.552 106.494 C 142.263 106.112,142.020 106.011,142.013 106.269 M128.109 109.100 C 128.195 109.265,128.574 110.075,128.952 110.900 C 129.329 111.725,129.730 112.400,129.842 112.400 C 129.955 112.400,129.977 112.265,129.891 112.100 C 129.805 111.935,129.426 111.125,129.048 110.300 C 128.671 109.475,128.270 108.800,128.158 108.800 C 128.045 108.800,128.023 108.935,128.109 109.100 M148.400 111.339 C 148.400 111.660,152.423 114.910,152.600 114.733 C 152.693 114.641,151.786 113.797,150.584 112.859 C 149.383 111.921,148.400 111.237,148.400 111.339 M130.000 113.100 C 130.000 113.291,130.261 113.796,130.580 114.224 C 131.140 114.973,131.152 114.968,130.932 114.094 C 130.704 113.191,130.000 112.440,130.000 113.100 M160.233 123.900 C 163.220 127.585,168.425 134.020,171.800 138.200 C 178.928 147.027,180.763 149.152,180.777 148.600 C 180.783 148.380,180.295 147.642,179.694 146.960 C 178.553 145.665,176.232 142.858,175.200 141.523 C 174.870 141.096,174.105 140.200,173.500 139.531 C 172.895 138.863,172.399 138.199,172.398 138.058 C 172.397 137.916,171.812 137.160,171.098 136.379 C 170.384 135.597,169.263 134.247,168.607 133.379 C 167.479 131.887,166.304 130.449,165.394 129.447 C 165.171 129.201,164.361 128.190,163.594 127.200 C 162.827 126.210,161.878 125.040,161.485 124.600 C 161.091 124.160,159.584 122.315,158.135 120.500 C 156.686 118.685,155.344 117.200,155.151 117.200 C 154.959 117.200,157.246 120.215,160.233 123.900 M133.200 119.349 C 133.200 119.781,134.789 122.800,135.016 122.800 C 135.126 122.800,134.830 122.035,134.359 121.100 C 133.432 119.261,133.200 118.911,133.200 119.349 M137.186 121.973 C 137.413 122.398,137.785 123.233,138.011 123.829 C 138.237 124.424,138.537 124.797,138.676 124.657 C 138.981 124.352,137.534 121.211,137.086 121.205 C 136.913 121.202,136.958 121.548,137.186 121.973 M135.240 123.400 C 135.240 123.620,136.032 125.330,137.000 127.200 C 137.968 129.070,138.760 130.420,138.760 130.200 C 138.760 129.980,137.968 128.270,137.000 126.400 C 136.032 124.530,135.240 123.180,135.240 123.400 M138.909 125.500 C 138.995 125.665,139.381 126.490,139.767 127.332 C 140.153 128.175,140.552 128.782,140.654 128.680 C 140.922 128.411,139.472 125.200,139.082 125.200 C 138.901 125.200,138.823 125.335,138.909 125.500 M310.000 129.842 C 308.790 130.411,307.370 131.044,306.845 131.249 C 306.319 131.455,305.986 131.719,306.104 131.837 C 306.222 131.956,307.436 131.489,308.801 130.799 C 310.166 130.110,311.521 129.638,311.812 129.749 C 312.103 129.861,312.557 129.693,312.820 129.376 C 313.565 128.478,312.541 128.648,310.000 129.842 M140.800 129.388 C 140.800 129.817,142.513 132.821,142.669 132.665 C 142.917 132.416,141.466 129.200,141.106 129.200 C 140.938 129.200,140.800 129.284,140.800 129.388 M308.500 132.221 C 306.905 133.434,305.600 134.513,305.600 134.618 C 305.600 134.876,311.126 130.844,311.417 130.373 C 311.805 129.745,311.503 129.936,308.500 132.221 M139.068 131.506 C 139.194 132.005,139.455 132.510,139.648 132.630 C 140.196 132.968,140.062 132.236,139.420 131.376 C 138.860 130.627,138.848 130.632,139.068 131.506 M142.800 133.416 C 142.800 133.905,144.471 136.863,144.647 136.686 C 144.910 136.423,143.485 133.200,143.106 133.200 C 142.938 133.200,142.800 133.297,142.800 133.416 M297.887 135.616 C 295.274 136.951,281.200 147.267,281.200 147.847 C 281.200 147.950,284.215 145.734,287.900 142.922 C 291.585 140.110,296.220 136.958,298.200 135.918 C 300.180 134.877,301.620 134.025,301.400 134.025 C 301.180 134.025,299.599 134.741,297.887 135.616 M141.068 135.506 C 141.194 136.005,141.455 136.510,141.648 136.630 C 142.196 136.968,142.062 136.236,141.420 135.376 C 140.860 134.627,140.848 134.632,141.068 135.506 M165.865 136.044 C 167.707 138.660,169.429 140.770,169.734 140.784 C 170.083 140.801,168.544 138.780,166.394 136.400 C 165.699 135.630,165.461 135.470,165.865 136.044 M300.918 137.930 C 297.336 140.629,296.885 141.275,300.293 138.825 C 301.884 137.682,303.290 136.578,303.417 136.373 C 303.767 135.806,303.593 135.915,300.918 137.930 M142.109 137.500 C 142.195 137.665,142.574 138.475,142.952 139.300 C 143.329 140.125,143.730 140.800,143.842 140.800 C 143.955 140.800,143.977 140.665,143.891 140.500 C 143.805 140.335,143.426 139.525,143.048 138.700 C 142.671 137.875,142.270 137.200,142.158 137.200 C 142.045 137.200,142.023 137.335,142.109 137.500 M144.800 137.361 C 144.800 137.449,149.767 147.574,155.838 159.861 C 161.909 172.147,167.701 183.905,168.708 185.989 C 169.716 188.074,170.603 189.592,170.679 189.364 C 170.755 189.135,169.374 186.080,167.610 182.574 C 165.846 179.068,164.402 175.975,164.402 175.700 C 164.401 175.425,164.262 175.200,164.094 175.200 C 163.773 175.200,162.400 172.280,162.400 171.597 C 162.400 171.379,162.220 171.200,162.000 171.200 C 161.780 171.200,161.600 170.840,161.600 170.400 C 161.600 169.960,161.420 169.600,161.200 169.600 C 160.980 169.600,160.800 169.421,160.800 169.203 C 160.800 168.520,159.427 165.600,159.106 165.600 C 158.938 165.600,158.800 165.389,158.800 165.131 C 158.800 164.872,156.484 159.967,153.654 154.231 C 150.824 148.494,148.260 143.215,147.957 142.500 C 147.653 141.785,147.269 141.200,147.102 141.200 C 146.936 141.200,146.800 141.021,146.800 140.803 C 146.800 140.120,145.427 137.200,145.106 137.200 C 144.938 137.200,144.800 137.272,144.800 137.361 M287.085 148.363 C 281.632 152.491,276.952 156.115,276.685 156.415 C 276.042 157.139,275.709 157.381,286.600 149.213 C 294.920 142.973,297.732 140.747,297.189 140.828 C 297.085 140.844,292.538 144.235,287.085 148.363 M144.000 141.500 C 144.000 141.691,144.261 142.196,144.580 142.624 C 145.140 143.373,145.152 143.368,144.932 142.494 C 144.704 141.591,144.000 140.840,144.000 141.500 M170.607 142.033 C 175.273 147.888,181.346 155.243,181.692 155.457 C 181.931 155.605,179.554 152.543,176.409 148.652 C 173.263 144.762,170.493 141.458,170.252 141.309 C 170.012 141.160,170.171 141.486,170.607 142.033 M277.400 150.449 C 275.640 151.762,273.930 153.124,273.600 153.475 C 272.858 154.264,279.097 149.792,280.189 148.752 C 281.522 147.482,280.738 147.958,277.400 150.449 M148.000 149.349 C 148.000 149.781,149.589 152.800,149.816 152.800 C 149.926 152.800,149.630 152.035,149.159 151.100 C 148.232 149.261,148.000 148.911,148.000 149.349 M181.277 149.900 C 181.849 150.565,184.690 154.055,192.513 163.700 C 200.771 173.883,202.811 176.397,205.575 179.800 C 207.184 181.780,210.568 185.967,213.096 189.105 C 215.625 192.243,217.862 194.915,218.068 195.042 C 218.446 195.276,256.717 166.856,256.771 166.302 C 256.787 166.138,255.661 166.858,254.268 167.902 C 252.876 168.946,249.791 171.240,247.413 173.000 C 245.035 174.760,242.890 176.382,242.645 176.604 C 242.400 176.827,240.490 178.263,238.400 179.796 C 236.310 181.329,234.510 182.681,234.400 182.800 C 234.290 182.919,232.490 184.269,230.400 185.800 C 228.310 187.331,226.510 188.684,226.400 188.806 C 225.675 189.614,218.731 194.395,218.314 194.372 C 218.031 194.357,216.540 192.731,215.000 190.758 C 213.460 188.785,211.807 186.713,211.326 186.154 C 210.846 185.595,209.885 184.440,209.190 183.588 C 208.496 182.736,207.584 181.642,207.164 181.158 C 206.744 180.674,206.398 180.170,206.397 180.039 C 206.395 179.907,205.809 179.170,205.095 178.400 C 204.382 177.630,203.261 176.280,202.606 175.400 C 201.492 173.905,200.347 172.496,199.394 171.447 C 199.171 171.201,198.361 170.191,197.594 169.201 C 195.774 166.853,195.277 166.231,193.600 164.200 C 192.830 163.268,191.930 162.166,191.599 161.752 C 190.353 160.193,187.392 156.592,187.198 156.400 C 187.086 156.290,186.504 155.541,185.904 154.735 C 185.303 153.929,184.584 153.029,184.306 152.735 C 184.028 152.441,183.296 151.525,182.680 150.700 C 182.063 149.875,181.361 149.200,181.118 149.200 C 180.856 149.200,180.922 149.486,181.277 149.900 M150.039 153.400 C 150.039 153.620,150.651 154.970,151.400 156.400 C 152.149 157.830,152.761 158.820,152.761 158.600 C 152.761 158.380,152.149 157.030,151.400 155.600 C 150.651 154.170,150.039 153.180,150.039 153.400 M269.249 156.596 C 266.295 158.841,263.811 160.985,265.600 159.746 C 267.518 158.417,272.800 154.335,272.800 154.182 C 272.800 153.897,272.789 153.905,269.249 156.596 M183.078 157.400 C 185.395 160.335,186.892 161.836,184.973 159.300 C 183.933 157.925,182.797 156.575,182.449 156.300 C 182.100 156.025,182.384 156.520,183.078 157.400 M272.400 159.450 C 269.377 161.763,267.084 163.734,268.800 162.546 C 270.718 161.217,276.000 157.135,276.000 156.982 C 276.000 156.697,275.991 156.704,272.400 159.450 M153.681 160.991 C 154.159 161.976,154.619 162.714,154.703 162.630 C 154.884 162.449,153.268 159.200,152.997 159.200 C 152.894 159.200,153.202 160.006,153.681 160.991 M261.400 162.449 C 258.607 164.533,255.709 167.045,257.600 165.743 C 259.441 164.476,264.800 160.337,264.800 160.182 C 264.800 159.909,264.836 159.885,261.400 162.449 M187.686 163.100 C 188.021 163.485,189.939 165.839,191.948 168.331 C 193.956 170.823,195.600 172.745,195.600 172.603 C 195.600 172.254,187.583 162.400,187.300 162.400 C 187.177 162.400,187.350 162.715,187.686 163.100 M264.400 165.476 C 261.018 168.038,259.590 169.266,260.800 168.574 C 261.257 168.312,267.018 164.101,267.967 163.335 C 268.058 163.261,268.058 163.133,267.967 163.050 C 267.875 162.968,266.270 164.059,264.400 165.476 M155.068 163.906 C 155.194 164.405,155.455 164.910,155.648 165.030 C 156.196 165.368,156.062 164.636,155.420 163.776 C 154.860 163.027,154.848 163.032,155.068 163.906 M157.068 167.906 C 157.194 168.405,157.455 168.910,157.648 169.030 C 158.196 169.368,158.062 168.636,157.420 167.776 C 156.860 167.027,156.848 167.032,157.068 167.906 M257.300 170.825 C 256.145 171.711,255.200 172.540,255.200 172.666 C 255.200 172.871,256.175 172.196,259.154 169.927 C 259.679 169.527,259.949 169.203,259.754 169.207 C 259.559 169.210,258.455 169.938,257.300 170.825 M158.000 169.900 C 158.000 170.091,158.261 170.596,158.580 171.024 C 159.140 171.773,159.152 171.768,158.932 170.894 C 158.704 169.991,158.000 169.240,158.000 169.900 M251.249 175.396 C 248.295 177.641,245.811 179.785,247.600 178.546 C 249.518 177.217,254.800 173.135,254.800 172.982 C 254.800 172.697,254.789 172.705,251.249 175.396 M197.239 174.800 C 197.963 175.790,198.610 176.675,198.677 176.767 C 198.745 176.858,198.797 176.768,198.794 176.567 C 198.791 176.365,198.144 175.480,197.356 174.600 L 195.924 173.000 197.239 174.800 M260.298 175.700 C 257.804 177.955,241.873 209.261,242.788 210.109 C 243.213 210.503,243.275 210.477,243.101 209.978 C 242.698 208.819,258.867 177.235,260.559 175.878 C 262.395 174.406,262.694 174.655,261.620 176.761 C 261.160 177.663,260.873 178.400,260.982 178.400 C 261.209 178.400,262.239 176.475,262.799 175.003 C 263.379 173.477,262.479 173.728,260.298 175.700 M161.242 176.200 C 161.242 176.420,162.483 179.030,164.000 182.000 C 165.517 184.970,166.758 187.220,166.758 187.000 C 166.758 186.780,165.517 184.170,164.000 181.200 C 162.483 178.230,161.242 175.980,161.242 176.200 M199.200 177.040 C 199.200 177.390,203.621 182.800,203.907 182.800 C 204.027 182.800,203.852 182.485,203.521 182.100 C 203.189 181.715,202.081 180.358,201.059 179.084 C 200.036 177.811,199.200 176.891,199.200 177.040 M243.200 181.476 C 241.330 182.892,239.620 184.255,239.400 184.504 C 238.995 184.961,239.860 184.364,244.200 181.188 C 245.520 180.222,246.675 179.380,246.767 179.316 C 246.858 179.252,246.858 179.133,246.767 179.050 C 246.675 178.968,245.070 180.059,243.200 181.476 M259.681 180.609 C 259.202 181.594,258.894 182.400,258.997 182.400 C 259.268 182.400,260.884 179.151,260.703 178.970 C 260.619 178.886,260.159 179.624,259.681 180.609 M257.681 184.609 C 257.202 185.594,256.894 186.400,256.997 186.400 C 257.268 186.400,258.884 183.151,258.703 182.970 C 258.619 182.886,258.159 183.624,257.681 184.609 M207.273 187.300 C 209.102 189.555,210.688 191.490,210.799 191.600 C 210.910 191.710,212.437 193.600,214.194 195.800 C 218.527 201.225,217.919 200.949,220.800 198.800 C 221.979 197.920,222.811 197.200,222.648 197.200 C 222.485 197.200,221.527 197.830,220.518 198.600 C 218.156 200.404,218.577 200.589,214.948 196.148 C 205.843 185.007,204.336 183.200,204.151 183.200 C 204.040 183.200,205.445 185.045,207.273 187.300 M235.070 187.606 C 231.519 190.343,230.490 191.225,231.600 190.579 C 232.059 190.312,237.855 186.071,238.767 185.335 C 238.858 185.261,238.858 185.129,238.767 185.042 C 238.675 184.955,237.011 186.109,235.070 187.606 M255.804 188.316 C 254.728 190.412,254.733 190.400,254.936 190.400 C 255.190 190.400,256.869 187.136,256.701 186.968 C 256.626 186.893,256.222 187.499,255.804 188.316 M167.681 189.391 C 168.159 190.376,168.619 191.114,168.703 191.030 C 168.884 190.849,167.268 187.600,166.997 187.600 C 166.894 187.600,167.202 188.406,167.681 189.391 M170.800 190.188 C 170.800 190.291,171.172 191.090,171.627 191.963 C 172.768 194.151,171.883 196.182,170.522 194.500 C 170.020 193.879,170.010 193.913,170.432 194.800 C 170.694 195.350,170.956 195.857,171.014 195.926 C 171.224 196.177,172.800 194.237,172.800 193.727 C 172.800 192.951,171.459 190.000,171.106 190.000 C 170.938 190.000,170.800 190.084,170.800 190.188 M253.804 192.316 C 252.728 194.412,252.733 194.400,252.936 194.400 C 253.190 194.400,254.869 191.136,254.701 190.968 C 254.626 190.893,254.222 191.499,253.804 192.316 M228.100 192.825 C 226.945 193.711,226.000 194.540,226.000 194.666 C 226.000 194.871,226.975 194.196,229.954 191.927 C 230.479 191.527,230.749 191.203,230.554 191.207 C 230.359 191.210,229.255 191.938,228.100 192.825 M169.068 192.306 C 169.194 192.805,169.455 193.310,169.648 193.430 C 170.196 193.768,170.062 193.036,169.420 192.176 C 168.860 191.427,168.848 191.432,169.068 192.306 M224.200 195.850 C 223.481 196.462,223.334 196.705,223.833 196.457 C 224.566 196.093,225.941 194.776,225.549 194.814 C 225.467 194.822,224.860 195.288,224.200 195.850 M251.804 196.316 C 250.728 198.412,250.733 198.400,250.936 198.400 C 251.190 198.400,252.869 195.136,252.701 194.968 C 252.626 194.893,252.222 195.499,251.804 196.316 M210.200 201.699 C 209.320 202.446,207.520 203.845,206.200 204.809 C 204.880 205.772,203.607 206.749,203.370 206.980 C 203.134 207.211,202.356 207.850,201.640 208.400 C 200.925 208.950,199.408 210.116,198.270 210.990 C 197.131 211.865,196.110 212.683,196.000 212.809 C 195.890 212.935,194.180 214.285,192.200 215.808 C 190.220 217.331,188.510 218.678,188.400 218.800 C 188.290 218.922,186.580 220.270,184.600 221.796 C 178.110 226.795,172.000 231.686,172.000 231.881 C 172.000 231.987,173.125 231.193,174.500 230.117 C 179.279 226.378,185.689 221.394,186.999 220.400 C 188.635 219.157,202.791 208.137,206.364 205.325 C 207.814 204.184,209.697 202.749,210.548 202.137 L 212.096 201.025 213.046 202.212 C 214.295 203.773,214.263 203.966,212.500 205.533 C 211.313 206.588,211.251 206.701,212.200 206.076 C 214.847 204.334,214.944 203.973,213.285 202.056 L 211.800 200.340 210.200 201.699 M223.827 203.393 C 222.367 204.580,222.411 204.685,226.494 209.871 C 232.915 218.028,238.129 224.694,240.202 227.400 C 241.381 228.940,242.912 230.830,243.603 231.600 C 245.093 233.260,240.904 227.677,235.800 221.200 C 233.806 218.670,230.926 214.980,229.399 213.000 C 227.872 211.020,225.853 208.448,224.911 207.284 C 222.943 204.851,222.868 204.459,224.190 203.499 L 225.154 202.797 227.810 206.199 C 229.271 208.069,230.552 209.600,230.657 209.600 C 231.081 209.600,228.419 206.088,226.200 203.719 L 225.000 202.439 223.827 203.393 M216.800 203.923 C 216.800 204.101,216.074 204.776,215.187 205.423 C 213.586 206.591,212.536 207.420,211.000 208.731 C 210.560 209.106,209.484 209.950,208.608 210.607 C 207.732 211.263,206.652 212.104,206.208 212.476 C 205.764 212.847,205.010 213.477,204.532 213.876 C 204.055 214.274,203.163 214.960,202.550 215.400 C 201.937 215.840,201.151 216.476,200.803 216.814 C 200.456 217.152,199.458 217.961,198.586 218.612 C 197.714 219.263,196.910 219.891,196.800 220.008 C 196.690 220.125,195.790 220.843,194.800 221.605 C 193.810 222.366,192.794 223.171,192.541 223.394 C 192.289 223.617,191.249 224.430,190.230 225.200 C 189.212 225.970,187.849 227.050,187.201 227.600 C 186.554 228.150,184.764 229.590,183.224 230.800 C 181.037 232.518,179.648 234.459,181.713 232.911 C 182.569 232.269,186.765 231.032,187.066 231.332 C 187.225 231.492,186.650 232.202,185.788 232.911 C 184.925 233.620,183.765 234.623,183.210 235.139 C 182.145 236.129,182.640 235.771,187.086 232.336 C 188.785 231.024,190.867 230.144,198.286 227.605 C 203.299 225.890,209.004 223.927,210.964 223.243 C 212.924 222.559,214.634 222.003,214.764 222.006 C 215.089 222.015,217.184 223.874,221.200 227.718 C 223.070 229.508,226.404 232.689,228.608 234.786 C 230.813 236.884,234.323 240.226,236.408 242.214 C 238.494 244.201,245.240 250.584,251.400 256.398 C 264.073 268.360,268.895 272.962,275.820 279.707 C 278.478 282.296,280.776 284.321,280.926 284.207 C 281.077 284.093,281.115 284.115,281.011 284.256 C 280.907 284.397,281.399 285.252,282.104 286.156 C 284.760 289.561,292.514 298.800,292.715 298.800 C 292.830 298.800,292.656 298.485,292.329 298.100 C 291.036 296.580,284.129 288.132,283.291 287.046 C 280.799 283.818,282.662 285.279,289.356 291.802 C 292.803 295.161,293.166 295.062,290.211 291.569 C 287.007 287.782,285.775 286.270,285.494 285.782 C 285.326 285.489,284.696 284.733,284.094 284.102 C 283.492 283.470,282.728 282.604,282.394 282.177 C 282.061 281.750,281.161 280.594,280.394 279.610 C 279.628 278.625,278.783 277.586,278.519 277.300 C 278.254 277.014,277.354 275.930,276.519 274.891 C 275.683 273.851,274.820 272.805,274.600 272.566 C 274.380 272.327,273.599 271.391,272.864 270.485 C 272.129 269.580,271.200 268.461,270.800 268.000 C 270.400 267.539,269.471 266.414,268.736 265.500 C 268.001 264.587,266.934 263.291,266.364 262.620 C 265.795 261.949,264.985 260.971,264.564 260.448 C 263.606 259.254,261.482 256.690,259.400 254.216 C 258.520 253.170,257.662 252.074,257.494 251.782 C 257.326 251.489,256.696 250.733,256.094 250.102 C 255.492 249.470,254.728 248.604,254.394 248.177 C 251.678 244.692,250.864 243.678,249.930 242.616 C 248.917 241.464,247.591 239.881,246.902 239.000 C 246.730 238.780,245.601 237.420,244.394 235.977 C 243.188 234.535,241.570 232.564,240.800 231.597 C 240.030 230.630,238.934 229.291,238.364 228.620 C 237.795 227.949,236.985 226.968,236.564 226.440 C 236.144 225.912,235.530 225.180,235.200 224.815 C 234.870 224.449,233.790 223.171,232.801 221.975 C 231.812 220.779,230.702 219.440,230.335 219.000 C 229.968 218.560,229.067 217.457,228.334 216.550 C 224.929 212.336,224.207 211.464,223.721 210.978 C 223.434 210.692,223.200 210.354,223.200 210.227 C 223.200 210.101,222.391 209.143,221.402 208.099 C 220.413 207.054,219.603 206.091,219.602 205.958 C 219.601 205.826,219.159 205.241,218.619 204.658 C 217.661 203.624,216.800 203.277,216.800 203.923 M246.822 206.048 C 246.349 206.954,246.046 207.779,246.147 207.881 C 246.249 207.982,246.647 207.375,247.033 206.532 C 247.419 205.690,247.805 204.865,247.891 204.700 C 247.977 204.535,247.965 204.400,247.864 204.400 C 247.763 204.400,247.294 205.142,246.822 206.048 M208.800 208.246 C 206.584 209.977,205.363 211.228,207.000 210.092 C 208.444 209.089,211.081 206.831,210.800 206.837 C 210.690 206.839,209.790 207.474,208.800 208.246 M244.963 209.821 C 244.542 210.709,244.084 211.164,243.744 211.034 C 243.438 210.916,243.200 211.081,243.200 211.413 C 243.200 212.051,243.571 212.156,244.201 211.694 C 244.539 211.446,244.912 210.791,245.905 208.700 C 245.983 208.535,245.955 208.400,245.842 208.400 C 245.730 208.400,245.334 209.040,244.963 209.821 M232.857 212.700 C 247.893 231.758,251.429 236.469,252.005 238.214 C 252.266 239.006,252.562 239.571,252.663 239.470 C 253.166 238.968,249.554 232.866,247.490 230.729 C 247.209 230.438,245.461 228.220,243.606 225.800 C 241.751 223.380,240.134 221.310,240.014 221.200 C 239.894 221.090,239.263 220.280,238.612 219.400 C 237.961 218.520,237.242 217.605,237.014 217.367 C 236.787 217.128,235.430 215.381,234.000 213.484 C 232.570 211.586,231.249 210.026,231.063 210.017 C 230.878 210.008,231.686 211.215,232.857 212.700 M200.959 214.347 C 184.106 227.451,184.565 227.086,185.600 226.546 C 185.930 226.374,188.527 224.426,191.372 222.217 C 194.216 220.007,198.536 216.688,200.972 214.839 C 203.407 212.991,205.475 211.416,205.567 211.339 C 205.658 211.263,205.658 211.131,205.567 211.047 C 205.475 210.962,203.401 212.447,200.959 214.347 M213.656 227.259 C 212.917 227.472,212.386 227.719,212.476 227.810 C 212.566 227.900,213.171 227.822,213.820 227.638 C 214.876 227.337,215.211 227.496,217.000 229.151 L 219.000 231.000 217.015 228.900 C 215.923 227.745,215.023 226.816,215.015 226.836 C 215.007 226.856,214.395 227.046,213.656 227.259 M182.600 228.644 L 181.000 230.076 182.800 228.761 C 183.790 228.037,184.675 227.390,184.767 227.323 C 184.858 227.255,184.768 227.203,184.567 227.206 C 184.365 227.209,183.480 227.856,182.600 228.644 M210.400 228.400 C 209.867 228.745,209.867 228.788,210.400 228.788 C 210.730 228.788,211.270 228.613,211.600 228.400 C 212.133 228.055,212.133 228.012,211.600 228.012 C 211.270 228.012,210.730 228.187,210.400 228.400 M207.656 229.259 C 206.917 229.472,206.387 229.720,206.479 229.812 C 206.681 230.014,209.600 229.237,209.600 228.981 C 209.600 228.746,209.282 228.791,207.656 229.259 M178.991 231.455 L 177.400 232.861 179.000 231.747 C 179.880 231.134,180.675 230.580,180.767 230.516 C 180.858 230.452,180.854 230.321,180.757 230.224 C 180.660 230.127,179.865 230.681,178.991 231.455 M201.800 231.414 C 200.800 231.896,200.766 231.951,201.600 231.748 C 202.733 231.471,204.007 230.821,203.400 230.830 C 203.180 230.833,202.460 231.096,201.800 231.414 M220.200 232.257 C 220.860 232.824,222.930 234.760,224.800 236.559 C 226.670 238.357,229.385 240.903,230.833 242.215 C 232.281 243.527,230.391 241.593,226.633 237.917 C 222.875 234.242,219.620 231.232,219.400 231.230 C 219.180 231.227,219.540 231.689,220.200 232.257 M167.800 234.847 C 163.833 237.944,161.833 239.805,165.000 237.454 C 169.306 234.258,171.152 232.801,171.395 232.409 C 171.804 231.746,171.571 231.904,167.800 234.847 M198.800 232.400 C 198.267 232.745,198.267 232.788,198.800 232.788 C 199.130 232.788,199.670 232.613,200.000 232.400 C 200.533 232.055,200.533 232.012,200.000 232.012 C 199.670 232.012,199.130 232.187,198.800 232.400 M175.200 234.246 C 172.583 236.290,171.887 237.141,174.098 235.595 C 175.776 234.421,177.606 232.764,177.162 232.821 C 177.073 232.832,176.190 233.474,175.200 234.246 M196.056 233.259 C 195.317 233.472,194.787 233.720,194.879 233.812 C 195.081 234.014,198.000 233.237,198.000 232.981 C 198.000 232.746,197.682 232.791,196.056 233.259 M246.068 234.800 C 246.796 235.790,247.439 236.675,247.496 236.767 C 247.553 236.858,247.682 236.851,247.783 236.750 C 247.884 236.650,247.241 235.765,246.355 234.784 L 244.743 233.000 246.068 234.800 M190.200 235.414 C 189.200 235.896,189.166 235.951,190.000 235.748 C 191.133 235.471,192.407 234.821,191.800 234.830 C 191.580 234.833,190.860 235.096,190.200 235.414 M179.918 237.516 C 177.643 239.310,177.715 240.767,180.000 239.168 C 180.462 238.844,180.371 238.805,179.600 238.997 C 178.763 239.206,178.893 238.984,180.400 237.635 C 182.652 235.619,182.402 235.557,179.918 237.516 M187.000 236.400 L 186.200 236.744 187.000 236.766 C 187.440 236.778,188.070 236.613,188.400 236.400 C 189.195 235.886,188.196 235.886,187.000 236.400 M184.500 237.248 C 183.785 237.454,183.200 237.711,183.200 237.819 C 183.200 238.109,185.338 237.553,185.780 237.148 C 186.216 236.749,186.230 236.748,184.500 237.248 M169.600 238.632 C 167.212 240.522,166.589 241.252,168.600 239.805 C 171.410 237.783,172.117 237.200,171.754 237.204 C 171.559 237.206,170.590 237.849,169.600 238.632 M248.744 238.300 C 249.182 238.905,250.108 240.030,250.801 240.800 C 251.494 241.570,251.227 241.075,250.207 239.700 C 249.188 238.325,248.262 237.200,248.149 237.200 C 248.037 237.200,248.305 237.695,248.744 238.300 M160.600 240.644 L 159.000 242.076 160.800 240.761 C 161.790 240.037,162.675 239.390,162.767 239.323 C 162.858 239.255,162.768 239.203,162.567 239.206 C 162.365 239.209,161.480 239.856,160.600 240.644 M253.029 240.800 C 253.176 241.350,253.464 242.070,253.667 242.400 C 253.925 242.817,253.957 242.695,253.771 242.000 C 253.624 241.450,253.336 240.730,253.133 240.400 C 252.875 239.983,252.843 240.105,253.029 240.800 M164.600 242.644 L 163.000 244.076 164.800 242.761 C 165.790 242.037,166.675 241.390,166.767 241.323 C 166.858 241.255,166.768 241.203,166.567 241.206 C 166.365 241.209,165.480 241.856,164.600 242.644 M156.160 243.930 C 154.818 244.958,152.344 246.850,150.663 248.133 C 148.982 249.416,147.480 250.670,147.326 250.919 C 147.032 251.396,156.828 244.021,158.189 242.742 C 159.502 241.507,158.734 241.957,156.160 243.930 M253.154 243.894 C 254.838 246.082,255.093 246.212,254.882 244.774 C 254.786 244.123,254.518 243.473,254.286 243.329 C 254.012 243.161,253.967 243.338,254.158 243.834 C 254.373 244.396,254.107 244.281,253.151 243.399 L 251.850 242.200 253.154 243.894 M160.800 245.446 C 159.810 246.219,158.730 247.138,158.400 247.488 C 158.070 247.838,158.925 247.276,160.300 246.239 C 161.675 245.202,162.800 244.274,162.800 244.177 C 162.800 243.899,162.706 243.959,160.800 245.446 M235.863 247.106 C 236.997 248.151,239.607 250.611,241.663 252.572 C 248.921 259.495,252.622 262.985,254.611 264.783 C 258.134 267.966,250.882 260.848,242.800 253.191 C 238.510 249.126,234.940 245.665,234.867 245.500 C 234.793 245.335,234.523 245.201,234.267 245.202 C 234.010 245.204,234.728 246.060,235.863 247.106 M155.800 249.444 L 154.200 250.876 155.900 249.604 C 157.363 248.510,157.891 247.983,157.500 248.006 C 157.445 248.009,156.680 248.656,155.800 249.444 M152.000 252.246 C 149.784 253.977,148.563 255.228,150.200 254.092 C 151.644 253.089,154.281 250.831,154.000 250.837 C 153.890 250.839,152.990 251.474,152.000 252.246 M140.800 255.619 C 137.610 258.045,134.730 260.253,134.400 260.525 C 134.070 260.798,132.409 262.049,130.709 263.307 C 129.009 264.564,127.299 265.864,126.909 266.196 C 126.519 266.528,125.284 267.474,124.165 268.300 C 120.629 270.906,115.831 274.553,115.000 275.265 C 114.560 275.643,113.767 276.322,113.239 276.776 C 112.710 277.229,112.159 277.600,112.014 277.600 C 111.869 277.600,111.401 277.915,110.974 278.300 C 110.547 278.685,109.118 279.810,107.798 280.799 C 106.479 281.788,105.310 282.693,105.200 282.809 C 105.090 282.926,104.190 283.645,103.200 284.407 C 102.210 285.170,101.340 285.930,101.267 286.097 C 101.193 286.264,100.878 286.400,100.567 286.400 C 100.255 286.400,100.000 286.535,99.999 286.700 C 99.999 286.865,99.144 287.583,98.099 288.296 C 95.311 290.199,85.728 301.783,86.076 302.829 C 86.220 303.259,91.579 299.636,91.592 299.101 C 91.597 298.936,90.565 299.594,89.300 300.563 C 86.288 302.869,86.219 302.611,88.913 299.106 C 94.171 292.266,95.495 290.957,102.998 285.186 C 114.474 276.359,114.440 276.386,117.000 274.400 C 120.378 271.779,123.209 269.598,125.034 268.208 C 136.084 259.797,146.800 251.507,146.800 251.371 C 146.800 251.063,146.657 251.164,140.800 255.619 M146.800 256.246 C 144.584 257.977,143.363 259.228,145.000 258.092 C 146.444 257.089,149.081 254.831,148.800 254.837 C 148.690 254.839,147.790 255.474,146.800 256.246 M141.600 260.246 C 138.902 262.353,138.316 263.094,140.656 261.441 C 142.435 260.184,144.011 258.757,143.549 258.821 C 143.467 258.832,142.590 259.474,141.600 260.246 M134.991 265.455 L 133.400 266.861 135.000 265.747 C 135.880 265.134,136.675 264.580,136.767 264.516 C 136.858 264.452,136.854 264.321,136.757 264.224 C 136.660 264.127,135.865 264.681,134.991 265.455 M131.200 268.246 C 128.583 270.290,127.887 271.141,130.098 269.595 C 131.776 268.421,133.606 266.764,133.162 266.821 C 133.073 266.832,132.190 267.474,131.200 268.246 M259.200 268.901 C 259.200 269.099,263.835 273.620,270.186 279.615 C 272.158 281.477,273.531 282.685,273.236 282.299 C 272.529 281.374,259.200 268.650,259.200 268.901 M126.000 272.246 C 123.383 274.290,122.687 275.141,124.898 273.595 C 126.576 272.421,128.406 270.764,127.962 270.821 C 127.873 270.832,126.990 271.474,126.000 272.246 M120.800 276.270 C 118.285 278.200,117.423 279.189,119.600 277.647 C 122.467 275.616,122.952 275.218,122.771 275.049 C 122.677 274.961,121.790 275.511,120.800 276.270 M110.301 284.366 C 103.681 289.469,99.845 292.673,104.069 289.572 C 105.655 288.408,117.071 279.753,117.567 279.339 C 117.658 279.263,117.658 279.131,117.567 279.047 C 117.475 278.964,114.206 281.357,110.301 284.366 M275.200 284.084 C 275.200 284.301,276.968 286.030,285.781 294.431 C 298.627 306.676,299.848 307.679,296.700 303.399 C 295.350 301.564,294.648 301.091,295.069 302.300 C 295.202 302.685,294.162 301.913,292.756 300.584 C 288.448 296.512,282.378 290.737,278.700 287.212 C 276.775 285.367,275.200 283.960,275.200 284.084 M100.000 292.270 C 97.485 294.200,96.623 295.189,98.800 293.647 C 101.667 291.616,102.152 291.218,101.971 291.049 C 101.877 290.961,100.990 291.511,100.000 292.270 M94.800 296.270 C 92.285 298.200,91.423 299.189,93.600 297.647 C 96.467 295.616,96.952 295.218,96.771 295.049 C 96.677 294.961,95.790 295.511,94.800 296.270 M293.600 300.200 C 294.117 300.750,294.606 301.200,294.688 301.200 C 295.021 301.200,293.372 299.224,293.030 299.213 C 292.827 299.206,293.083 299.650,293.600 300.200 " stroke="none" fill="#b8b1b8" fill-rule="evenodd"></path><path id="path4" d="M116.802 80.500 C 116.803 80.775,117.523 82.421,118.402 84.158 C 120.172 87.656,120.215 87.780,119.500 87.339 C 119.225 87.169,119.450 87.598,120.000 88.293 C 121.106 89.690,121.600 89.908,121.600 89.000 C 121.600 88.670,121.420 88.400,121.200 88.400 C 120.980 88.400,120.800 88.202,120.800 87.960 C 120.800 87.445,119.556 84.692,119.192 84.400 C 119.054 84.290,118.819 83.840,118.670 83.400 L 118.398 82.600 119.015 83.400 C 119.355 83.840,119.940 84.561,120.316 85.001 C 120.692 85.442,121.630 86.612,122.399 87.601 C 123.168 88.591,124.158 89.784,124.599 90.252 C 125.040 90.721,125.800 91.621,126.288 92.252 C 128.624 95.270,129.470 96.315,130.306 97.220 C 130.805 97.759,131.851 99.010,132.631 100.000 C 134.762 102.704,135.234 103.289,136.364 104.620 C 136.934 105.291,138.001 106.587,138.736 107.500 C 139.471 108.414,140.400 109.539,140.800 110.000 C 141.200 110.461,142.129 111.580,142.864 112.485 C 143.599 113.391,144.383 114.327,144.606 114.566 C 144.829 114.805,145.634 115.810,146.394 116.800 C 147.155 117.790,148.052 118.870,148.389 119.200 C 148.725 119.531,149.628 120.611,150.394 121.600 C 152.806 124.712,152.971 124.912,154.300 126.333 C 155.015 127.097,155.600 127.850,155.600 128.005 C 155.600 128.161,156.185 128.910,156.900 129.670 C 157.615 130.431,158.734 131.754,159.386 132.612 C 160.038 133.470,160.848 134.466,161.186 134.826 C 161.524 135.185,162.070 135.822,162.401 136.240 C 163.539 137.679,166.600 141.400,166.810 141.600 C 166.926 141.710,167.646 142.610,168.410 143.600 C 169.900 145.529,170.487 146.232,172.386 148.359 C 173.054 149.107,173.600 149.834,173.600 149.974 C 173.600 150.115,174.410 151.087,175.400 152.135 C 176.390 153.183,177.200 154.145,177.200 154.272 C 177.200 154.399,177.785 155.172,178.500 155.989 C 179.215 156.806,180.144 157.908,180.564 158.437 C 180.985 158.967,181.795 159.949,182.364 160.620 C 182.934 161.291,184.001 162.587,184.736 163.500 C 185.471 164.414,186.400 165.539,186.800 166.000 C 187.200 166.461,188.129 167.580,188.864 168.485 C 189.599 169.391,190.383 170.327,190.606 170.566 C 190.829 170.805,191.634 171.810,192.394 172.800 C 193.155 173.790,194.052 174.870,194.389 175.200 C 194.725 175.531,195.628 176.611,196.394 177.600 C 198.806 180.712,198.971 180.912,200.300 182.333 C 201.015 183.097,201.600 183.850,201.600 184.005 C 201.600 184.161,202.185 184.910,202.900 185.670 C 203.615 186.431,204.734 187.754,205.386 188.612 C 206.038 189.470,206.848 190.466,207.186 190.826 C 207.524 191.185,208.070 191.822,208.401 192.240 C 209.567 193.715,212.606 197.387,213.100 197.919 C 213.799 198.671,213.725 199.105,212.815 199.592 C 212.364 199.833,212.125 200.259,212.252 200.592 C 212.421 201.031,212.717 200.885,213.466 199.994 C 214.011 199.346,214.352 198.645,214.222 198.436 C 214.093 198.227,211.642 195.208,208.775 191.728 C 199.295 180.217,192.122 171.493,185.978 164.000 C 182.641 159.930,177.690 153.900,174.977 150.600 C 172.263 147.300,167.235 141.180,163.804 137.000 C 160.373 132.820,156.527 128.140,155.257 126.600 C 153.987 125.060,147.932 117.680,141.801 110.200 C 135.670 102.720,129.291 94.964,127.627 92.965 C 125.962 90.966,122.896 87.231,120.813 84.665 C 116.806 79.729,116.799 79.721,116.802 80.500 M116.033 84.100 C 116.125 84.155,116.740 84.650,117.400 85.200 L 118.600 86.200 117.630 85.100 C 117.097 84.495,116.482 84.000,116.264 84.000 C 116.045 84.000,115.942 84.045,116.033 84.100 M142.800 102.239 C 142.800 102.385,144.605 104.732,146.811 107.453 C 149.017 110.174,150.718 112.400,150.591 112.400 C 150.463 112.400,150.846 112.852,151.442 113.404 C 153.583 115.388,153.151 114.049,150.719 111.159 C 147.385 107.199,146.383 105.883,146.565 105.702 C 146.670 105.597,147.171 105.936,147.678 106.455 C 148.465 107.261,150.827 109.261,153.752 111.599 C 154.608 112.283,157.434 114.625,159.800 116.611 C 160.680 117.350,162.300 118.694,163.400 119.597 C 164.500 120.501,166.285 121.996,167.366 122.920 C 168.447 123.844,169.655 124.830,170.049 125.111 C 170.443 125.391,171.428 126.246,172.239 127.011 C 173.049 127.775,173.839 128.400,173.995 128.400 C 174.150 128.400,174.902 128.985,175.665 129.700 C 176.428 130.415,178.075 131.900,179.326 132.999 C 180.577 134.099,181.600 135.314,181.600 135.699 C 181.600 136.085,181.778 136.400,181.995 136.400 C 182.213 136.400,182.506 137.120,182.646 138.000 C 182.787 138.880,183.059 139.600,183.251 139.600 C 183.443 139.600,183.600 139.960,183.600 140.400 C 183.600 140.840,183.757 141.200,183.949 141.200 C 184.141 141.200,184.413 141.920,184.554 142.800 C 184.694 143.680,184.987 144.400,185.205 144.400 C 185.422 144.400,185.600 144.850,185.600 145.400 C 185.600 145.950,185.778 146.400,185.995 146.400 C 186.213 146.400,186.506 147.120,186.646 148.000 C 186.787 148.880,187.059 149.600,187.251 149.600 C 187.443 149.600,187.600 149.960,187.600 150.400 C 187.600 150.840,187.757 151.200,187.949 151.200 C 188.141 151.200,188.413 151.920,188.554 152.800 C 188.694 153.680,188.987 154.400,189.205 154.400 C 189.422 154.400,189.600 154.850,189.600 155.400 C 189.600 155.950,189.778 156.400,189.995 156.400 C 190.213 156.400,190.506 157.120,190.646 158.000 C 190.787 158.880,191.059 159.600,191.251 159.600 C 191.443 159.600,191.600 159.960,191.600 160.400 C 191.600 160.840,191.760 161.200,191.957 161.200 C 192.153 161.200,192.426 161.650,192.564 162.200 C 192.702 162.750,192.992 163.200,193.208 163.200 C 193.423 163.200,193.600 163.389,193.600 163.620 C 193.600 163.851,194.230 164.688,195.000 165.481 C 195.770 166.274,196.400 167.056,196.400 167.219 C 196.400 167.382,196.940 168.093,197.600 168.800 C 198.260 169.507,198.800 170.323,198.800 170.615 C 198.800 170.907,199.151 171.257,199.580 171.394 C 200.008 171.530,200.470 171.992,200.606 172.420 C 200.743 172.849,201.022 173.200,201.227 173.200 C 201.432 173.200,201.600 173.392,201.600 173.627 C 201.600 173.861,202.228 174.716,202.997 175.527 C 203.765 176.337,204.395 177.127,204.397 177.282 C 204.398 177.437,204.819 177.983,205.332 178.495 C 205.844 179.008,206.429 179.709,206.632 180.054 C 206.834 180.399,207.667 181.473,208.481 182.441 C 209.296 183.408,210.598 185.010,211.375 186.000 C 212.151 186.990,213.105 188.160,213.494 188.600 C 213.882 189.040,214.830 190.209,215.600 191.199 C 216.370 192.188,217.265 193.313,217.589 193.699 C 218.200 194.426,219.035 194.624,219.267 194.096 C 219.340 193.928,220.750 192.794,222.400 191.576 C 235.324 182.032,238.725 179.384,238.200 179.271 C 237.870 179.200,237.600 178.795,237.600 178.371 C 237.600 177.947,237.443 177.600,237.251 177.600 C 237.059 177.600,236.787 176.880,236.646 176.000 C 236.506 175.120,236.213 174.400,235.995 174.400 C 235.778 174.400,235.600 173.950,235.600 173.400 C 235.600 172.850,235.422 172.400,235.205 172.400 C 234.987 172.400,234.694 171.680,234.554 170.800 C 234.413 169.920,234.141 169.200,233.949 169.200 C 233.757 169.200,233.600 168.840,233.600 168.400 C 233.600 167.960,233.443 167.600,233.251 167.600 C 233.059 167.600,232.787 166.880,232.646 166.000 C 232.506 165.120,232.213 164.400,231.995 164.400 C 231.778 164.400,231.600 164.130,231.600 163.800 C 231.600 163.059,231.440 163.056,229.860 163.768 C 229.167 164.080,227.374 164.889,225.875 165.566 C 221.301 167.633,222.083 167.901,214.758 161.749 C 159.471 115.308,142.800 101.521,142.800 102.239 M141.600 106.400 C 142.118 107.369,142.475 107.461,142.119 106.534 C 141.934 106.051,142.009 105.958,142.394 106.196 C 142.746 106.414,142.828 106.369,142.638 106.062 C 142.097 105.187,141.121 105.505,141.600 106.400 M302.704 128.502 C 294.429 132.730,292.694 133.962,293.896 134.750 C 294.105 134.887,294.396 135.488,294.542 136.084 L 294.807 137.169 296.304 136.293 C 297.127 135.811,298.070 135.125,298.400 134.768 C 298.730 134.411,301.917 132.018,305.483 129.449 C 315.252 122.411,314.876 122.283,302.704 128.502 M313.200 128.469 C 313.200 128.726,312.886 129.311,312.503 129.769 C 311.997 130.372,312.107 130.334,312.903 129.630 C 314.032 128.632,314.302 128.000,313.600 128.000 C 313.380 128.000,313.200 128.211,313.200 128.469 M290.443 140.023 C 289.917 140.461,289.571 140.905,289.675 141.008 C 289.779 141.112,290.286 140.748,290.801 140.198 C 291.924 139.004,291.762 138.925,290.443 140.023 M258.787 172.204 C 256.924 173.614,255.220 174.917,255.000 175.100 C 254.780 175.283,253.520 176.235,252.200 177.214 C 250.880 178.194,249.710 179.100,249.600 179.228 C 249.490 179.357,246.340 181.774,242.600 184.601 C 235.052 190.307,224.007 198.751,223.423 199.264 C 223.195 199.463,223.400 200.074,223.941 200.806 C 224.434 201.472,224.729 202.191,224.598 202.404 C 224.466 202.617,224.602 202.698,224.899 202.583 C 225.391 202.395,227.089 204.223,229.400 207.432 C 229.840 208.042,230.786 209.275,231.503 210.171 C 232.219 211.067,232.939 211.986,233.103 212.214 C 233.266 212.441,234.123 213.521,235.007 214.614 C 235.890 215.706,237.141 217.320,237.785 218.200 C 238.430 219.080,239.062 219.890,239.189 220.000 C 239.375 220.162,241.025 222.273,243.097 225.000 C 243.661 225.743,247.387 230.486,249.183 232.748 C 250.164 233.982,251.378 235.804,251.881 236.796 C 252.385 237.788,252.803 238.420,252.811 238.200 C 252.819 237.980,253.090 238.149,253.413 238.576 C 253.736 239.004,254.000 239.197,254.000 239.007 C 254.000 238.550,246.436 218.849,244.517 214.309 C 243.976 213.029,243.966 212.718,244.443 212.109 C 244.943 211.473,244.932 211.453,244.338 211.917 C 243.765 212.366,243.591 212.264,243.038 211.156 C 242.366 209.809,242.194 208.401,242.700 208.399 C 242.865 208.398,243.347 207.543,243.771 206.499 C 244.194 205.454,244.649 204.510,244.782 204.400 C 244.914 204.290,245.372 203.390,245.800 202.400 C 246.228 201.410,246.673 200.510,246.789 200.400 C 246.905 200.290,249.673 194.842,252.941 188.292 C 256.379 181.399,259.206 176.211,259.652 175.972 C 260.076 175.745,260.320 175.394,260.195 175.191 C 260.069 174.988,260.518 173.711,261.192 172.353 C 262.765 169.181,262.781 169.182,258.787 172.204 M245.500 173.903 C 244.895 174.278,244.400 174.729,244.400 174.905 C 244.400 175.080,244.940 174.825,245.600 174.337 C 246.655 173.557,247.027 173.176,246.700 173.211 C 246.645 173.216,246.105 173.528,245.500 173.903 M242.701 175.937 C 242.096 176.301,241.601 176.747,241.601 176.927 C 241.600 177.107,242.140 176.870,242.800 176.400 C 244.577 175.134,244.515 174.842,242.701 175.937 M172.800 193.597 C 172.800 194.814,171.148 196.845,170.861 195.982 C 170.776 195.729,170.508 195.882,170.255 196.327 C 170.005 196.766,167.843 199.527,165.450 202.463 C 163.058 205.398,160.914 208.205,160.686 208.700 C 160.458 209.195,160.120 209.600,159.936 209.600 C 159.227 209.600,159.643 210.360,160.500 210.630 C 160.995 210.787,161.670 211.223,162.000 211.600 C 162.330 211.977,163.005 212.413,163.500 212.570 C 163.995 212.726,164.400 213.022,164.400 213.227 C 164.400 213.432,164.593 213.600,164.829 213.600 C 165.064 213.600,165.508 213.825,165.815 214.100 C 167.138 215.287,167.591 215.600,167.983 215.600 C 168.212 215.600,168.400 215.768,168.400 215.973 C 168.400 216.178,168.805 216.474,169.300 216.630 C 169.795 216.787,170.470 217.223,170.800 217.600 C 171.130 217.977,171.796 218.411,172.280 218.563 C 172.763 218.716,173.270 219.192,173.406 219.620 C 173.543 220.049,174.007 220.400,174.440 220.400 C 174.872 220.400,175.329 220.670,175.455 221.000 C 175.582 221.330,176.007 221.600,176.400 221.600 C 176.793 221.600,177.218 221.870,177.345 222.200 C 177.471 222.530,177.937 222.800,178.380 222.800 C 179.751 222.800,179.925 224.695,178.654 225.788 C 176.711 227.457,177.575 227.229,179.728 225.505 C 180.899 224.567,182.553 223.260,183.404 222.600 C 184.256 221.940,185.683 220.804,186.576 220.075 C 188.444 218.552,188.761 218.300,191.200 216.400 C 194.250 214.024,194.474 213.838,195.892 212.500 C 196.649 211.785,197.523 211.200,197.834 211.200 C 198.145 211.200,198.400 211.020,198.400 210.800 C 198.400 210.580,198.232 210.400,198.027 210.400 C 197.822 210.400,197.540 210.040,197.400 209.600 C 197.260 209.160,196.823 208.800,196.429 208.800 C 196.035 208.800,195.382 208.361,194.979 207.824 C 194.576 207.287,193.831 206.744,193.323 206.616 C 192.815 206.489,192.400 206.208,192.400 205.992 C 192.400 205.777,192.130 205.600,191.800 205.600 C 191.470 205.600,191.200 205.432,191.200 205.227 C 191.200 205.022,190.810 204.730,190.334 204.579 C 189.858 204.428,189.039 203.876,188.516 203.352 C 187.992 202.828,187.368 202.400,187.129 202.400 C 186.890 202.400,186.403 202.066,186.047 201.657 C 185.691 201.249,184.995 200.787,184.500 200.630 C 184.005 200.474,183.600 200.178,183.600 199.973 C 183.600 199.768,183.396 199.600,183.146 199.600 C 182.896 199.600,182.275 199.150,181.765 198.600 C 181.255 198.050,180.579 197.600,180.262 197.600 C 179.945 197.600,179.582 197.330,179.455 197.000 C 179.329 196.670,178.872 196.400,178.440 196.400 C 178.005 196.400,177.540 196.042,177.400 195.600 C 177.260 195.160,176.849 194.800,176.486 194.800 C 176.123 194.800,175.460 194.383,175.013 193.872 C 173.659 192.327,172.800 192.221,172.800 193.597 M216.214 203.798 C 215.332 204.519,214.937 204.644,214.676 204.284 C 214.442 203.961,214.400 204.033,214.550 204.500 C 214.752 205.130,214.390 205.388,213.500 205.247 C 213.335 205.221,213.245 205.425,213.300 205.700 C 213.355 205.975,213.175 206.155,212.900 206.100 C 212.625 206.045,212.400 206.191,212.400 206.424 C 212.400 206.657,212.192 206.719,211.938 206.562 C 211.670 206.396,211.584 206.451,211.734 206.693 C 212.047 207.200,210.983 208.160,210.463 207.839 C 210.258 207.712,209.868 207.877,209.596 208.204 C 209.324 208.532,209.259 208.806,209.451 208.813 C 209.643 208.821,209.386 209.172,208.880 209.593 C 208.375 210.015,207.718 210.267,207.421 210.153 C 207.124 210.039,206.763 210.136,206.620 210.368 C 206.457 210.631,206.631 210.705,207.079 210.563 C 207.738 210.354,207.735 210.388,207.041 210.955 C 206.624 211.295,206.101 211.462,205.879 211.325 C 205.658 211.188,205.595 211.268,205.740 211.503 C 205.885 211.738,205.302 212.486,204.444 213.165 C 202.632 214.600,201.942 214.780,203.038 213.532 C 203.750 212.721,203.714 212.726,202.500 213.607 C 201.074 214.642,200.884 214.896,201.800 214.545 C 202.997 214.085,202.333 214.757,198.800 217.578 C 196.820 219.159,195.200 220.553,195.200 220.675 C 195.200 220.798,195.425 220.724,195.700 220.512 C 195.975 220.300,200.160 216.989,205.000 213.154 C 217.039 203.615,217.059 203.600,217.553 203.600 C 217.915 203.600,222.480 208.905,229.426 217.400 C 230.145 218.280,233.114 221.880,236.023 225.400 C 238.933 228.920,241.902 232.520,242.623 233.400 C 243.343 234.280,247.143 238.892,251.066 243.649 C 254.990 248.405,259.370 253.752,260.800 255.530 C 262.230 257.307,263.563 258.770,263.762 258.781 C 263.961 258.791,263.854 258.485,263.524 258.100 C 262.461 256.860,250.645 242.602,249.264 240.892 C 248.529 239.983,247.600 238.861,247.200 238.400 C 246.800 237.939,245.871 236.820,245.136 235.913 C 244.401 235.006,241.640 231.637,239.000 228.426 C 236.360 225.215,233.537 221.781,232.726 220.794 C 231.915 219.807,228.855 216.107,225.926 212.571 C 222.997 209.035,219.992 205.390,219.248 204.471 C 217.673 202.525,217.751 202.542,216.214 203.798 M190.551 224.152 C 188.324 225.938,184.591 228.905,182.255 230.745 C 178.525 233.683,177.197 235.237,179.011 234.541 C 179.332 234.417,179.501 234.163,179.386 233.977 C 179.198 233.673,180.211 232.784,184.765 229.257 C 185.515 228.676,186.890 227.570,187.820 226.800 C 189.171 225.681,194.025 221.852,194.767 221.320 C 194.858 221.254,194.858 221.133,194.767 221.052 C 194.675 220.970,192.778 222.365,190.551 224.152 M216.600 229.200 C 217.459 230.080,218.252 230.800,218.362 230.800 C 218.472 230.800,217.859 230.080,217.000 229.200 C 216.141 228.320,215.348 227.600,215.238 227.600 C 215.128 227.600,215.741 228.320,216.600 229.200 M173.322 230.229 L 172.200 231.258 173.500 230.354 C 174.215 229.857,174.800 229.393,174.800 229.325 C 174.800 229.009,174.358 229.280,173.322 230.229 M184.800 232.008 L 183.000 232.734 184.460 232.667 C 185.262 232.630,185.837 232.465,185.736 232.300 C 185.635 232.135,185.923 232.000,186.376 232.000 C 186.829 232.000,187.200 231.820,187.200 231.600 C 187.200 231.091,186.987 231.127,184.800 232.008 M181.000 233.414 C 180.000 233.896,179.966 233.951,180.800 233.748 C 181.933 233.471,183.207 232.821,182.600 232.830 C 182.380 232.833,181.660 233.096,181.000 233.414 M230.800 242.525 C 230.800 242.594,231.385 243.179,232.100 243.825 L 233.400 245.000 232.225 243.700 C 231.130 242.488,230.800 242.216,230.800 242.525 M127.966 247.100 C 121.968 253.549,105.310 273.354,93.490 288.087 C 84.896 298.799,84.437 299.616,89.038 296.000 C 91.585 293.998,92.297 293.596,91.762 294.462 C 91.584 294.750,91.652 294.815,91.945 294.634 C 92.202 294.475,92.309 294.177,92.183 293.972 C 92.056 293.768,92.100 293.600,92.280 293.600 C 92.460 293.600,92.844 293.221,93.133 292.758 C 93.747 291.775,93.436 291.899,91.274 293.499 C 88.989 295.190,89.698 293.235,92.400 290.396 C 92.730 290.049,93.360 289.265,93.800 288.654 C 94.240 288.043,95.050 287.032,95.600 286.409 C 96.150 285.785,97.050 284.709,97.600 284.018 C 98.150 283.326,98.825 282.513,99.100 282.209 C 99.375 281.905,99.600 281.546,99.600 281.409 C 99.600 281.273,100.005 280.765,100.500 280.281 C 100.995 279.796,102.207 278.410,103.192 277.200 C 104.178 275.990,105.123 274.940,105.292 274.867 C 105.462 274.793,105.600 274.544,105.600 274.313 C 105.600 274.081,106.008 273.511,106.507 273.046 C 107.006 272.581,107.951 271.492,108.607 270.626 C 109.263 269.761,110.385 268.431,111.100 267.670 C 111.815 266.910,112.400 266.161,112.400 266.005 C 112.400 265.850,112.985 265.100,113.700 264.339 C 114.415 263.579,115.510 262.336,116.132 261.578 C 116.850 260.704,117.338 260.383,117.466 260.700 C 117.576 260.975,117.909 261.200,118.205 261.200 C 118.501 261.200,118.985 261.442,119.280 261.737 C 119.576 262.033,120.620 262.781,121.600 263.400 C 122.580 264.019,123.624 264.767,123.920 265.063 C 124.215 265.358,124.699 265.600,124.995 265.600 C 125.291 265.600,125.638 265.825,125.767 266.100 C 125.953 266.500,126.047 266.500,126.233 266.100 C 126.362 265.825,126.709 265.600,127.005 265.600 C 127.301 265.600,127.781 265.363,128.071 265.073 C 128.362 264.784,129.140 264.199,129.800 263.773 C 130.460 263.348,131.270 262.778,131.600 262.507 C 131.930 262.236,133.640 260.935,135.400 259.615 C 137.160 258.295,138.933 256.957,139.339 256.642 C 139.746 256.326,141.042 255.378,142.220 254.534 C 143.398 253.690,144.370 252.837,144.381 252.638 C 144.391 252.439,144.052 252.591,143.626 252.976 C 142.858 253.671,140.400 252.882,140.400 251.941 C 140.400 251.783,140.010 251.530,139.534 251.379 C 139.058 251.228,138.239 250.676,137.716 250.152 C 137.192 249.628,136.502 249.200,136.182 249.200 C 135.862 249.200,135.600 249.048,135.600 248.863 C 135.600 248.678,134.970 248.187,134.200 247.772 C 133.430 247.357,132.800 246.879,132.800 246.709 C 132.800 246.539,132.607 246.400,132.371 246.400 C 132.136 246.400,131.673 246.130,131.343 245.800 C 130.400 244.857,129.857 245.066,127.966 247.100 M239.800 251.200 C 240.659 252.080,241.452 252.800,241.562 252.800 C 241.672 252.800,241.059 252.080,240.200 251.200 C 239.341 250.320,238.548 249.600,238.438 249.600 C 238.328 249.600,238.941 250.320,239.800 251.200 M145.800 251.406 L 144.600 252.409 145.897 251.704 C 146.611 251.317,147.196 250.865,147.197 250.700 C 147.201 250.263,147.119 250.304,145.800 251.406 M264.871 260.358 C 265.382 260.996,268.218 264.452,271.173 268.040 C 274.129 271.627,276.829 274.914,277.173 275.344 C 277.518 275.774,278.351 276.772,279.024 277.563 C 279.698 278.353,282.752 282.060,285.812 285.800 C 288.873 289.540,291.476 292.690,291.599 292.800 C 292.200 293.342,294.400 296.356,294.400 296.639 C 294.400 296.817,293.680 296.259,292.800 295.400 C 291.920 294.541,291.200 293.947,291.200 294.081 C 291.200 294.405,296.691 299.701,297.499 300.156 C 298.480 300.710,296.170 297.686,289.101 289.161 C 281.321 279.780,280.717 279.049,279.076 277.032 C 278.374 276.170,275.030 272.120,271.644 268.032 C 268.259 263.944,265.290 260.285,265.048 259.900 C 264.806 259.515,264.458 259.200,264.275 259.200 C 264.092 259.200,264.360 259.721,264.871 260.358 M255.800 266.400 C 257.106 267.720,258.265 268.800,258.375 268.800 C 258.485 268.800,257.506 267.720,256.200 266.400 C 254.894 265.080,253.735 264.000,253.625 264.000 C 253.515 264.000,254.494 265.080,255.800 266.400 M270.200 280.000 C 271.059 280.880,271.852 281.600,271.962 281.600 C 272.072 281.600,271.459 280.880,270.600 280.000 C 269.741 279.120,268.948 278.400,268.838 278.400 C 268.728 278.400,269.341 279.120,270.200 280.000 M283.600 287.083 C 283.600 287.336,284.044 287.891,284.586 288.318 C 285.129 288.745,285.444 289.223,285.286 289.380 C 285.129 289.538,285.270 289.607,285.600 289.533 C 285.930 289.460,286.155 289.625,286.100 289.900 C 286.045 290.175,286.164 290.355,286.364 290.300 C 286.564 290.245,287.644 291.072,288.764 292.139 C 289.884 293.205,290.800 293.910,290.800 293.705 C 290.800 293.500,290.215 292.828,289.500 292.212 C 288.785 291.596,287.165 290.087,285.900 288.859 C 284.635 287.630,283.600 286.831,283.600 287.083 M294.200 302.800 C 295.283 303.900,296.260 304.800,296.370 304.800 C 296.480 304.800,295.683 303.900,294.600 302.800 C 293.517 301.700,292.540 300.800,292.430 300.800 C 292.320 300.800,293.117 301.700,294.200 302.800 M298.100 304.972 C 298.535 305.535,298.468 306.089,298.000 305.800 C 297.780 305.664,297.600 305.647,297.600 305.762 C 297.600 305.878,297.960 306.165,298.400 306.400 C 299.389 306.929,299.443 306.350,298.500 305.336 C 298.115 304.922,297.935 304.758,298.100 304.972 " stroke="none" fill="#cbcbcc" fill-rule="evenodd"></path></g></svg>