<svg id="svg" version="1.1" xmlns="http://www.w3.org/2000/svg" xmlns:xlink="http://www.w3.org/1999/xlink" width="400" height="417.1195652173913" viewBox="0, 0, 400,417.1195652173913"><g id="svgg"><path id="path0" d="M192.737 10.126 C 190.162 15.691,185.047 26.726,181.371 34.647 C 173.910 50.722,167.051 65.766,162.184 76.731 C 156.929 88.569,155.789 89.832,150.408 89.787 L 147.690 89.764 136.957 86.024 C 123.200 81.232,109.445 76.643,84.381 68.487 C 73.325 64.888,63.490 61.629,62.526 61.243 C 58.299 59.552,56.190 62.085,58.126 66.531 C 58.560 67.527,61.750 76.535,65.216 86.549 C 74.231 112.598,78.227 123.948,83.486 138.451 C 90.608 158.091,91.242 156.319,74.083 164.731 C 68.235 167.598,50.122 176.616,33.832 184.771 C 17.541 192.925,3.550 199.902,2.742 200.274 C -1.312 202.141,-0.851 205.594,3.613 206.799 C 5.148 207.213,10.309 209.578,20.639 214.601 C 39.751 223.895,57.307 232.364,72.938 239.830 C 90.930 248.423,90.400 247.650,86.145 259.103 C 82.760 268.217,74.869 290.423,68.619 308.424 C 63.110 324.289,58.228 338.218,57.434 340.337 C 56.485 342.867,58.488 344.866,61.033 343.929 C 61.616 343.714,65.088 342.414,68.750 341.040 C 78.448 337.400,117.583 322.988,150.408 310.968 C 166.101 305.221,179.466 300.323,180.108 300.082 C 181.627 299.513,181.521 299.444,177.038 298.101 C 146.001 288.797,125.190 272.388,112.246 247.011 C 79.131 182.086,126.051 105.566,198.913 105.668 C 242.550 105.730,276.618 129.507,289.494 168.887 C 308.793 227.911,286.772 271.727,224.596 298.019 C 220.389 299.798,220.543 299.678,221.284 300.598 C 221.913 301.380,227.069 303.309,301.872 330.747 C 318.967 337.018,333.866 342.631,334.979 343.221 C 339.717 345.732,342.137 343.229,339.873 338.160 C 339.344 336.975,336.199 327.690,332.884 317.527 C 329.569 307.364,323.299 288.349,318.952 275.272 C 308.675 244.359,308.715 246.516,318.342 242.268 C 324.150 239.705,332.157 235.798,342.663 230.400 C 351.572 225.823,355.748 223.796,374.049 215.168 C 383.674 210.631,400.000 201.946,400.000 201.363 C 400.000 201.170,362.309 182.591,332.914 168.293 C 306.951 155.665,308.619 158.577,315.666 138.179 C 317.835 131.902,323.986 113.621,329.336 97.554 C 334.686 81.488,339.445 67.548,339.912 66.576 C 342.215 61.783,339.435 59.283,334.335 61.562 C 333.460 61.953,321.861 65.864,308.560 70.252 C 295.258 74.640,276.304 80.950,266.440 84.274 C 241.694 92.611,243.199 92.814,237.494 80.375 C 232.591 69.684,225.392 54.590,218.276 40.082 C 214.318 32.011,209.945 22.957,208.559 19.961 C 205.503 13.355,203.749 9.838,201.989 6.789 C 200.463 4.145,197.756 0.004,197.554 0.006 C 197.480 0.007,195.312 4.561,192.737 10.126 M200.101 18.499 C 200.975 19.187,201.203 19.599,202.169 22.247 C 202.585 23.387,206.867 32.391,211.683 42.255 C 221.210 61.766,228.216 76.327,233.394 87.376 C 239.815 101.080,237.960 100.733,261.821 92.692 C 271.236 89.519,288.784 83.701,300.815 79.763 C 312.846 75.826,323.420 72.277,324.313 71.877 C 329.381 69.605,331.714 72.463,329.081 77.717 C 328.669 78.539,326.899 83.614,325.148 88.995 C 318.922 108.128,310.203 134.258,306.615 144.537 C 300.772 161.273,300.199 159.891,316.224 167.665 C 333.748 176.165,350.121 184.169,364.266 191.151 C 371.739 194.839,378.608 198.102,379.530 198.401 C 383.491 199.688,383.818 203.160,380.116 204.622 C 379.619 204.818,372.242 208.400,363.723 212.582 C 341.911 223.289,324.362 231.846,314.538 236.567 C 300.790 243.173,300.954 242.780,305.965 257.159 C 309.971 268.653,314.727 282.936,322.130 305.707 C 325.799 316.990,329.107 327.021,329.482 327.996 C 331.134 332.296,329.300 334.376,325.536 332.469 C 323.695 331.536,246.095 302.707,243.912 302.145 C 241.606 301.552,241.168 301.150,241.168 299.624 C 241.168 298.055,241.550 297.675,244.491 296.310 C 277.269 281.096,300.067 247.760,303.012 210.735 C 306.558 166.163,277.690 120.130,236.549 104.752 C 205.325 93.081,164.604 98.520,137.157 118.027 C 107.150 139.354,90.130 181.308,95.933 219.644 C 100.881 252.340,121.958 280.567,152.989 296.057 C 155.676 297.398,159.454 300.185,159.059 300.534 C 158.934 300.645,139.878 307.675,116.712 316.156 C 93.546 324.637,73.814 331.931,72.864 332.365 C 68.851 334.193,67.015 332.485,68.748 328.536 C 69.196 327.517,72.484 318.264,76.056 307.974 C 84.540 283.530,87.369 275.525,91.642 263.859 C 98.845 244.195,99.002 244.747,84.306 237.936 C 77.357 234.715,61.368 227.000,40.412 216.755 C 28.936 211.145,18.866 206.357,18.033 206.115 C 15.450 205.364,14.335 203.254,15.693 201.684 C 16.205 201.092,55.769 181.135,78.397 170.056 C 99.795 159.578,98.925 161.161,92.705 144.021 C 88.247 131.739,85.339 123.500,76.471 98.033 C 72.530 86.713,68.997 76.843,68.620 76.099 C 66.769 72.446,69.057 70.015,72.861 71.594 C 73.813 71.990,81.501 74.574,89.946 77.337 C 98.390 80.099,116.121 85.972,129.348 90.388 C 157.519 99.791,156.944 99.665,159.385 96.964 C 160.515 95.713,160.716 95.303,167.213 80.978 C 172.523 69.271,179.760 53.791,188.177 36.141 C 191.278 29.640,194.059 23.465,194.357 22.418 C 195.574 18.159,197.766 16.663,200.101 18.499 M196.193 307.677 C 195.897 308.162,195.654 308.662,195.653 308.787 C 195.652 309.121,164.789 373.709,151.533 401.119 C 145.244 414.124,144.852 415.499,147.164 416.465 C 148.623 417.074,249.196 417.077,250.655 416.468 C 253.069 415.459,252.751 414.088,247.842 404.348 C 243.941 396.609,225.517 359.226,209.405 326.359 C 205.119 317.615,201.329 309.912,200.984 309.239 C 199.736 306.810,197.221 305.990,196.193 307.677 M199.538 323.031 C 200.385 323.560,240.417 403.822,241.074 406.312 C 241.486 407.869,241.217 408.809,240.130 409.619 L 239.362 410.190 199.505 410.265 C 154.923 410.349,157.707 410.464,156.889 408.505 C 156.294 407.081,156.774 405.807,161.862 395.304 C 176.659 364.764,195.190 326.018,195.762 324.427 C 196.412 322.617,197.957 322.046,199.538 323.031 " stroke="none" fill="#040505" fill-rule="evenodd"></path><path id="path1" d="M196.815 322.882 C 196.465 323.051,196.023 323.700,195.762 324.427 C 195.190 326.018,176.659 364.764,161.862 395.304 C 156.774 405.807,156.294 407.081,156.889 408.505 C 157.707 410.464,154.923 410.349,199.505 410.265 L 239.362 410.190 240.130 409.619 C 241.217 408.809,241.486 407.869,241.074 406.312 C 240.417 403.822,200.385 323.560,199.538 323.031 C 198.686 322.500,197.716 322.447,196.815 322.882 " stroke="none" fill="#2bbbfb" fill-rule="evenodd"></path><path id="path2" d="M200.747 98.566 C 201.233 98.626,202.028 98.626,202.514 98.566 C 202.999 98.506,202.602 98.457,201.630 98.457 C 200.659 98.457,200.262 98.506,200.747 98.566 M155.231 98.829 C 155.493 98.897,155.921 98.897,156.182 98.829 C 156.444 98.760,156.230 98.704,155.707 98.704 C 155.183 98.704,154.969 98.760,155.231 98.829 M194.093 98.836 C 194.506 98.899,195.118 98.897,195.452 98.833 C 195.786 98.768,195.448 98.717,194.701 98.719 C 193.954 98.721,193.680 98.774,194.093 98.836 M207.813 98.833 C 208.149 98.898,208.699 98.898,209.035 98.833 C 209.372 98.768,209.096 98.715,208.424 98.715 C 207.751 98.715,207.476 98.768,207.813 98.833 M190.557 99.100 C 190.819 99.169,191.247 99.169,191.508 99.100 C 191.770 99.032,191.556 98.976,191.033 98.976 C 190.510 98.976,190.296 99.032,190.557 99.100 M129.061 124.389 L 128.125 125.408 129.144 124.471 C 129.704 123.956,130.163 123.498,130.163 123.452 C 130.163 123.245,129.933 123.440,129.061 124.389 M270.516 126.902 C 272.455 128.845,274.102 130.435,274.177 130.435 C 274.252 130.435,272.727 128.845,270.788 126.902 C 268.849 124.959,267.202 123.370,267.127 123.370 C 267.053 123.370,268.578 124.959,270.516 126.902 M125.543 127.582 C 124.883 128.254,124.405 128.804,124.479 128.804 C 124.554 128.804,125.155 128.254,125.815 127.582 C 126.475 126.909,126.954 126.359,126.879 126.359 C 126.805 126.359,126.204 126.909,125.543 127.582 M122.130 131.318 L 121.332 132.201 122.215 131.403 C 123.038 130.659,123.223 130.435,123.013 130.435 C 122.966 130.435,122.569 130.832,122.130 131.318 M274.728 131.335 C 274.728 131.382,275.126 131.779,275.611 132.218 L 276.495 133.016 275.696 132.133 C 274.952 131.310,274.728 131.125,274.728 131.335 M94.900 195.924 C 94.900 196.447,94.956 196.661,95.024 196.399 C 95.093 196.138,95.093 195.710,95.024 195.448 C 94.956 195.187,94.900 195.401,94.900 195.924 M303.063 196.196 C 303.063 196.868,303.116 197.143,303.181 196.807 C 303.246 196.471,303.246 195.921,303.181 195.584 C 303.116 195.248,303.063 195.523,303.063 196.196 M94.679 204.076 C 94.679 206.990,94.719 208.183,94.768 206.726 C 94.817 205.268,94.817 202.884,94.768 201.427 C 94.719 199.969,94.679 201.162,94.679 204.076 M303.364 203.261 C 303.364 204.980,303.408 205.683,303.462 204.823 C 303.516 203.964,303.516 202.558,303.462 201.698 C 303.408 200.839,303.364 201.542,303.364 203.261 M303.058 210.190 C 303.061 210.788,303.116 211.001,303.181 210.663 C 303.246 210.325,303.244 209.835,303.176 209.576 C 303.108 209.316,303.055 209.592,303.058 210.190 M94.900 212.228 C 94.900 212.751,94.956 212.965,95.024 212.704 C 95.093 212.442,95.093 212.014,95.024 211.753 C 94.956 211.491,94.900 211.705,94.900 212.228 M93.750 242.748 C 93.750 242.795,94.147 243.192,94.633 243.631 L 95.516 244.429 94.718 243.546 C 93.974 242.723,93.750 242.538,93.750 242.748 M96.545 248.234 C 96.547 248.981,96.600 249.254,96.662 248.841 C 96.725 248.428,96.723 247.817,96.659 247.483 C 96.594 247.148,96.543 247.486,96.545 248.234 M120.380 271.603 C 120.887 272.126,121.363 272.554,121.438 272.554 C 121.513 272.554,121.159 272.126,120.652 271.603 C 120.145 271.080,119.669 270.652,119.594 270.652 C 119.520 270.652,119.873 271.080,120.380 271.603 M277.293 271.535 L 276.495 272.418 277.378 271.620 C 277.863 271.181,278.261 270.784,278.261 270.737 C 278.261 270.527,278.037 270.712,277.293 271.535 M272.957 276.155 L 270.245 278.940 273.030 276.228 C 274.562 274.736,275.815 273.483,275.815 273.443 C 275.815 273.246,275.476 273.568,272.957 276.155 M124.185 275.679 C 125.148 276.651,125.997 277.446,126.071 277.446 C 126.146 277.446,125.419 276.651,124.457 275.679 C 123.494 274.708,122.645 273.913,122.570 273.913 C 122.495 273.913,123.222 274.708,124.185 275.679 M128.261 279.484 C 128.768 280.007,129.244 280.435,129.319 280.435 C 129.393 280.435,129.040 280.007,128.533 279.484 C 128.026 278.961,127.550 278.533,127.475 278.533 C 127.400 278.533,127.754 278.961,128.261 279.484 M268.325 280.503 L 267.527 281.386 268.410 280.588 C 268.896 280.149,269.293 279.751,269.293 279.705 C 269.293 279.495,269.069 279.679,268.325 280.503 " stroke="none" fill="#afab2a" fill-rule="evenodd"></path><path id="path3" d="M196.802 18.254 C 195.936 18.692,195.257 19.917,194.570 22.283 C 194.244 23.404,191.158 30.251,187.711 37.500 C 179.175 55.452,170.510 74.040,165.355 85.462 C 157.978 101.805,160.800 101.057,136.821 93.025 C 127.704 89.971,110.020 84.124,97.523 80.032 C 85.027 75.940,74.056 72.278,73.143 71.894 C 69.087 70.187,66.945 72.243,68.777 76.087 C 69.240 77.058,72.835 87.086,76.766 98.370 C 85.396 123.141,87.839 130.061,92.455 142.799 C 98.851 160.450,98.919 160.191,86.277 166.357 C 82.840 168.034,66.515 176.158,50.000 184.410 C 33.485 192.662,19.178 199.772,18.207 200.210 C 14.251 201.990,14.207 204.765,18.115 205.972 C 19.062 206.265,27.510 210.254,36.888 214.838 C 58.941 225.617,70.108 231.020,79.348 235.380 C 100.019 245.135,99.241 243.450,92.107 263.043 C 87.628 275.345,83.605 286.745,75.133 311.141 C 72.098 319.885,69.298 327.711,68.913 328.533 C 67.262 332.054,68.947 334.011,72.283 332.445 C 73.585 331.834,91.743 325.129,145.535 305.399 L 159.141 300.408 157.356 298.975 C 156.374 298.186,153.981 296.730,152.038 295.739 C 104.735 271.606,83.491 219.933,100.273 169.829 C 113.285 130.984,141.135 106.991,180.998 100.285 C 223.296 93.170,258.944 107.595,283.273 141.670 C 320.571 193.911,304.470 264.197,248.234 294.623 C 246.739 295.432,244.810 296.376,243.946 296.723 C 240.773 297.994,240.265 301.152,243.132 301.783 C 243.546 301.874,244.436 302.106,245.109 302.298 C 247.230 302.905,323.967 331.509,325.730 332.350 C 329.094 333.955,330.874 332.382,329.615 328.917 C 329.294 328.033,326.037 318.139,322.378 306.929 C 315.915 287.132,309.000 266.413,304.783 254.212 C 302.484 247.558,302.227 245.807,303.230 243.599 C 304.253 241.346,304.738 241.062,320.245 233.617 C 323.832 231.895,334.042 226.918,342.935 222.557 C 351.827 218.196,363.750 212.369,369.429 209.608 C 375.109 206.847,380.183 204.369,380.707 204.101 C 383.589 202.625,382.957 199.560,379.580 198.635 C 379.034 198.486,374.204 196.212,368.846 193.582 C 343.640 181.209,330.945 175.007,319.325 169.387 C 299.820 159.954,300.593 161.217,305.598 146.966 C 309.066 137.094,316.450 115.042,322.996 95.010 C 325.919 86.063,328.728 77.874,329.237 76.811 C 331.434 72.227,328.949 69.928,324.170 72.124 C 323.340 72.505,313.129 75.930,301.480 79.734 C 289.830 83.538,272.412 89.314,262.772 92.571 C 238.063 100.917,239.574 101.138,233.621 88.315 C 229.925 80.354,223.205 66.307,216.917 53.397 C 204.355 27.606,202.482 23.687,201.868 21.915 C 200.749 18.684,198.775 17.258,196.802 18.254 " stroke="none" fill="#fcf43c" fill-rule="evenodd"></path><path id="path4" d="" stroke="none" fill="#ece43c" fill-rule="evenodd"></path></g></svg>